%TF.GenerationSoftware,KiCad,Pcbnew,9.0.4*%
%TF.CreationDate,2025-10-22T08:48:54-05:00*%
%TF.ProjectId,MotorControl,4d6f746f-7243-46f6-9e74-726f6c2e6b69,rev?*%
%TF.SameCoordinates,Original*%
%TF.FileFunction,Paste,Top*%
%TF.FilePolarity,Positive*%
%FSLAX46Y46*%
G04 Gerber Fmt 4.6, Leading zero omitted, Abs format (unit mm)*
G04 Created by KiCad (PCBNEW 9.0.4) date 2025-10-22 08:48:54*
%MOMM*%
%LPD*%
G01*
G04 APERTURE LIST*
G04 Aperture macros list*
%AMRoundRect*
0 Rectangle with rounded corners*
0 $1 Rounding radius*
0 $2 $3 $4 $5 $6 $7 $8 $9 X,Y pos of 4 corners*
0 Add a 4 corners polygon primitive as box body*
4,1,4,$2,$3,$4,$5,$6,$7,$8,$9,$2,$3,0*
0 Add four circle primitives for the rounded corners*
1,1,$1+$1,$2,$3*
1,1,$1+$1,$4,$5*
1,1,$1+$1,$6,$7*
1,1,$1+$1,$8,$9*
0 Add four rect primitives between the rounded corners*
20,1,$1+$1,$2,$3,$4,$5,0*
20,1,$1+$1,$4,$5,$6,$7,0*
20,1,$1+$1,$6,$7,$8,$9,0*
20,1,$1+$1,$8,$9,$2,$3,0*%
G04 Aperture macros list end*
%ADD10RoundRect,0.250000X-0.475000X0.337500X-0.475000X-0.337500X0.475000X-0.337500X0.475000X0.337500X0*%
%ADD11RoundRect,0.250001X0.462499X0.624999X-0.462499X0.624999X-0.462499X-0.624999X0.462499X-0.624999X0*%
%ADD12R,1.500000X1.100000*%
%ADD13RoundRect,0.375000X0.375000X-0.625000X0.375000X0.625000X-0.375000X0.625000X-0.375000X-0.625000X0*%
%ADD14RoundRect,0.500000X1.400000X-0.500000X1.400000X0.500000X-1.400000X0.500000X-1.400000X-0.500000X0*%
%ADD15RoundRect,0.250000X0.337500X0.475000X-0.337500X0.475000X-0.337500X-0.475000X0.337500X-0.475000X0*%
%ADD16RoundRect,0.250000X0.750000X0.750000X-0.750000X0.750000X-0.750000X-0.750000X0.750000X-0.750000X0*%
%ADD17RoundRect,0.250000X0.475000X-0.337500X0.475000X0.337500X-0.475000X0.337500X-0.475000X-0.337500X0*%
%ADD18RoundRect,0.250001X0.624999X-0.462499X0.624999X0.462499X-0.624999X0.462499X-0.624999X-0.462499X0*%
%ADD19RoundRect,0.100000X0.637500X0.100000X-0.637500X0.100000X-0.637500X-0.100000X0.637500X-0.100000X0*%
%ADD20RoundRect,0.250000X0.450000X-0.350000X0.450000X0.350000X-0.450000X0.350000X-0.450000X-0.350000X0*%
%ADD21R,0.600000X0.600000*%
%ADD22RoundRect,0.250000X-0.350000X-0.450000X0.350000X-0.450000X0.350000X0.450000X-0.350000X0.450000X0*%
%ADD23RoundRect,0.250000X0.350000X0.450000X-0.350000X0.450000X-0.350000X-0.450000X0.350000X-0.450000X0*%
%ADD24RoundRect,0.250000X-0.337500X-0.475000X0.337500X-0.475000X0.337500X0.475000X-0.337500X0.475000X0*%
%ADD25RoundRect,0.125000X-0.625000X-0.125000X0.625000X-0.125000X0.625000X0.125000X-0.625000X0.125000X0*%
%ADD26RoundRect,0.125000X-0.125000X-0.625000X0.125000X-0.625000X0.125000X0.625000X-0.125000X0.625000X0*%
G04 APERTURE END LIST*
D10*
%TO.C,C7*%
X89000000Y-94962500D03*
X89000000Y-97037500D03*
%TD*%
D11*
%TO.C,D3*%
X131185000Y-59200000D03*
X128210000Y-59200000D03*
%TD*%
D12*
%TO.C,D1*%
X106817500Y-104220000D03*
X103817500Y-104220000D03*
X103817500Y-102720000D03*
X106817500Y-102720000D03*
%TD*%
D13*
%TO.C,U3*%
X98118300Y-58547400D03*
X100418300Y-58547400D03*
D14*
X100418300Y-52247400D03*
D13*
X102718300Y-58547400D03*
%TD*%
D15*
%TO.C,C3*%
X102083300Y-63068200D03*
X100008300Y-63068200D03*
%TD*%
D16*
%TO.C,J8*%
X127975000Y-51800000D03*
X127975000Y-45650000D03*
X116975000Y-45650000D03*
X116975000Y-51800000D03*
%TD*%
D17*
%TO.C,C5*%
X86500000Y-97037500D03*
X86500000Y-94962500D03*
%TD*%
D18*
%TO.C,D2*%
X122682000Y-109437500D03*
X122682000Y-106462500D03*
%TD*%
D19*
%TO.C,U1*%
X146475000Y-81800000D03*
X146475000Y-81150000D03*
X146475000Y-80500000D03*
X146475000Y-79850000D03*
X146475000Y-79200000D03*
X146475000Y-78550000D03*
X146475000Y-77900000D03*
X146475000Y-77250000D03*
X146475000Y-76600000D03*
X146475000Y-75950000D03*
X146475000Y-75300000D03*
X146475000Y-74650000D03*
X146475000Y-74000000D03*
X146475000Y-73350000D03*
X140750000Y-73350000D03*
X140750000Y-74000000D03*
X140750000Y-74650000D03*
X140750000Y-75300000D03*
X140750000Y-75950000D03*
X140750000Y-76600000D03*
X140750000Y-77250000D03*
X140750000Y-77900000D03*
X140750000Y-78550000D03*
X140750000Y-79200000D03*
X140750000Y-79850000D03*
X140750000Y-80500000D03*
X140750000Y-81150000D03*
X140750000Y-81800000D03*
%TD*%
D17*
%TO.C,C6*%
X92000000Y-97037500D03*
X92000000Y-94962500D03*
%TD*%
D20*
%TO.C,R1*%
X122682000Y-103092000D03*
X122682000Y-101092000D03*
%TD*%
D21*
%TO.C,U2*%
X80883400Y-100400000D03*
X81983400Y-100400000D03*
X83083400Y-100400000D03*
X84183400Y-100400000D03*
X85283400Y-100400000D03*
X86383400Y-100400000D03*
X87483400Y-100400000D03*
X88583400Y-100400000D03*
X89683400Y-100400000D03*
X80883400Y-101500000D03*
X81983400Y-101500000D03*
X83083400Y-101500000D03*
X84183400Y-101500000D03*
X85283400Y-101500000D03*
X86383400Y-101500000D03*
X87483400Y-101500000D03*
X88583400Y-101500000D03*
X89683400Y-101500000D03*
X80883400Y-102600000D03*
X81983400Y-102600000D03*
X84183400Y-102600000D03*
X85283400Y-102600000D03*
X86383400Y-102600000D03*
X88583400Y-102600000D03*
X89683400Y-102600000D03*
X80883400Y-103700000D03*
X81983400Y-103700000D03*
X83083400Y-103700000D03*
X87483400Y-103700000D03*
X88583400Y-103700000D03*
X89683400Y-103700000D03*
X80883400Y-104800000D03*
X81983400Y-104800000D03*
X83083400Y-104800000D03*
X84733400Y-104800000D03*
X85833400Y-104800000D03*
X87483400Y-104800000D03*
X88583400Y-104800000D03*
X89683400Y-104800000D03*
X80883400Y-105900000D03*
X81983400Y-105900000D03*
X83083400Y-105900000D03*
X84733400Y-105900000D03*
X85833400Y-105900000D03*
X87483400Y-105900000D03*
X88583400Y-105900000D03*
X89683400Y-105900000D03*
X80883400Y-107000000D03*
X81983400Y-107000000D03*
X83083400Y-107000000D03*
X84733400Y-107000000D03*
X85833400Y-107000000D03*
X87483400Y-107000000D03*
X88583400Y-107000000D03*
X89683400Y-107000000D03*
X80883400Y-108100000D03*
X81983400Y-108100000D03*
X83083400Y-108100000D03*
X87483400Y-108100000D03*
X88583400Y-108100000D03*
X89683400Y-108100000D03*
X80883400Y-109200000D03*
X81983400Y-109200000D03*
X83083400Y-109200000D03*
X84733400Y-109200000D03*
X85833400Y-109200000D03*
X87483400Y-109200000D03*
X88583400Y-109200000D03*
X89683400Y-109200000D03*
X80883400Y-110300000D03*
X81983400Y-110300000D03*
X83083400Y-110300000D03*
X85283400Y-110300000D03*
X87483400Y-110300000D03*
X88583400Y-110300000D03*
X89683400Y-110300000D03*
X80883400Y-111800000D03*
X89683400Y-111800000D03*
X80883400Y-113300000D03*
X81983400Y-113300000D03*
X88583400Y-113300000D03*
X89683400Y-113300000D03*
%TD*%
D22*
%TO.C,R4*%
X120631400Y-59200000D03*
X122631400Y-59200000D03*
%TD*%
D10*
%TO.C,C1*%
X127254000Y-91553000D03*
X127254000Y-93628000D03*
%TD*%
D23*
%TO.C,R2*%
X99180000Y-108980000D03*
X97180000Y-108980000D03*
%TD*%
D24*
%TO.C,C4*%
X112812800Y-80518000D03*
X114887800Y-80518000D03*
%TD*%
D25*
%TO.C,U4*%
X116455600Y-84788600D03*
X116455600Y-85588600D03*
X116455600Y-86388600D03*
X116455600Y-87188600D03*
X116455600Y-87988600D03*
X116455600Y-88788600D03*
X116455600Y-89588600D03*
X116455600Y-90388600D03*
D26*
X117830600Y-91763600D03*
X118630600Y-91763600D03*
X119430600Y-91763600D03*
X120230600Y-91763600D03*
X121030600Y-91763600D03*
X121830600Y-91763600D03*
X122630600Y-91763600D03*
X123430600Y-91763600D03*
D25*
X124805600Y-90388600D03*
X124805600Y-89588600D03*
X124805600Y-88788600D03*
X124805600Y-87988600D03*
X124805600Y-87188600D03*
X124805600Y-86388600D03*
X124805600Y-85588600D03*
X124805600Y-84788600D03*
D26*
X123430600Y-83413600D03*
X122630600Y-83413600D03*
X121830600Y-83413600D03*
X121030600Y-83413600D03*
X120230600Y-83413600D03*
X119430600Y-83413600D03*
X118630600Y-83413600D03*
X117830600Y-83413600D03*
%TD*%
D15*
%TO.C,C2*%
X111781500Y-87884000D03*
X109706500Y-87884000D03*
%TD*%
D22*
%TO.C,R3*%
X102394000Y-86614000D03*
X104394000Y-86614000D03*
%TD*%
M02*
