M48
; DRILL file {KiCad 9.0.4} date 2025-10-22T08:48:53-0500
; FORMAT={-:-/ absolute / metric / decimal}
; #@! TF.CreationDate,2025-10-22T08:48:53-05:00
; #@! TF.GenerationSoftware,Kicad,Pcbnew,9.0.4
; #@! TF.FileFunction,Plated,1,2,PTH
FMAT,2
METRIC
; #@! TA.AperFunction,Plated,PTH,ViaDrill
T1C0.300
; #@! TA.AperFunction,Plated,PTH,ComponentDrill
T2C1.000
%
G90
G05
T1
X83.083Y-109.22
X86.5Y-96.627
X88.58Y-98.61
X88.583Y-102.688
X88.583Y-103.759
X88.583Y-105.918
X88.583Y-107.061
X88.583Y-108.077
X88.583Y-109.22
X89.0Y-96.627
X93.472Y-58.547
X93.78Y-105.52
X96.0Y-58.547
X96.52Y-102.362
X97.19Y-111.51
X98.044Y-97.536
X98.044Y-103.378
X98.298Y-105.41
X98.75Y-92.25
X102.0Y-107.5
X102.718Y-58.547
X102.718Y-60.5
X103.61Y-61.78
X111.404Y-80.213
X111.912Y-90.389
X113.8Y-86.4
X114.173Y-87.986
X114.351Y-84.734
X114.783Y-83.083
X116.84Y-81.026
X117.881Y-96.519
X119.38Y-97.536
X119.558Y-80.67
X120.23Y-79.08
X121.005Y-98.825
X121.031Y-81.95
X121.831Y-82.0
X127.33Y-90.526
X127.975Y-45.65
X127.975Y-47.535
X127.975Y-49.035
X127.975Y-50.535
X127.975Y-51.8
X130.11Y-51.8
X131.33Y-78.64
X132.191Y-52.003
X133.35Y-80.729
X134.62Y-98.044
X136.906Y-83.312
X149.595Y-73.8
X150.89Y-74.41
X150.941Y-79.668
X153.252Y-77.249
T2
X107.442Y-83.312
X108.535Y-48.6
X111.075Y-48.6
X127.13Y-103.24
X129.67Y-103.24
X132.21Y-103.24
X134.75Y-103.24
X137.29Y-103.24
X139.83Y-103.24
X146.812Y-85.852
X146.812Y-88.392
X146.812Y-90.932
X146.812Y-93.472
X146.812Y-96.012
X156.397Y-56.896
X156.397Y-59.436
X156.397Y-61.976
X156.422Y-41.631
X156.422Y-44.171
X156.422Y-46.711
X156.422Y-74.574
X156.422Y-77.114
X156.422Y-79.654
X156.422Y-102.591
X156.422Y-105.131
X156.422Y-107.671
X156.499Y-89.916
X156.499Y-92.456
X156.499Y-94.996
M30
