%TF.GenerationSoftware,KiCad,Pcbnew,9.0.4*%
%TF.CreationDate,2025-10-16T20:52:45-05:00*%
%TF.ProjectId,RemoteControl,52656d6f-7465-4436-9f6e-74726f6c2e6b,rev?*%
%TF.SameCoordinates,Original*%
%TF.FileFunction,Copper,L2,Bot*%
%TF.FilePolarity,Positive*%
%FSLAX46Y46*%
G04 Gerber Fmt 4.6, Leading zero omitted, Abs format (unit mm)*
G04 Created by KiCad (PCBNEW 9.0.4) date 2025-10-16 20:52:45*
%MOMM*%
%LPD*%
G01*
G04 APERTURE LIST*
%TA.AperFunction,ComponentPad*%
%ADD10R,1.700000X1.700000*%
%TD*%
%TA.AperFunction,ComponentPad*%
%ADD11C,1.700000*%
%TD*%
%TA.AperFunction,ComponentPad*%
%ADD12R,1.371600X1.371600*%
%TD*%
%TA.AperFunction,ComponentPad*%
%ADD13C,1.371600*%
%TD*%
%TA.AperFunction,ViaPad*%
%ADD14C,0.600000*%
%TD*%
%TA.AperFunction,Conductor*%
%ADD15C,0.200000*%
%TD*%
%TA.AperFunction,Conductor*%
%ADD16C,0.500000*%
%TD*%
%TA.AperFunction,Conductor*%
%ADD17C,0.250000*%
%TD*%
G04 APERTURE END LIST*
D10*
%TO.P,J8,1,Pin_1*%
%TO.N,Sensor4*%
X123010000Y-131880000D03*
D11*
%TO.P,J8,2,Pin_2*%
%TO.N,+3.3V*%
X125550000Y-131880000D03*
%TD*%
D10*
%TO.P,J3,1,Pin_1*%
%TO.N,+3.3V*%
X156718000Y-55880000D03*
D11*
%TO.P,J3,2,Pin_2*%
%TO.N,gnd*%
X159258000Y-55880000D03*
%TO.P,J3,3,Pin_3*%
%TO.N,SWSCLK*%
X161798000Y-55880000D03*
%TO.P,J3,4,Pin_4*%
%TO.N,SWDIO*%
X164338000Y-55880000D03*
%TO.P,J3,5,Pin_5*%
%TO.N,NRST*%
X166878000Y-55880000D03*
%TD*%
D10*
%TO.P,J5,1,Pin_1*%
%TO.N,gnd*%
X150622000Y-55626000D03*
D11*
%TO.P,J5,2,Pin_2*%
%TO.N,unconnected-(J5-Pin_2-Pad2)*%
X148082000Y-55626000D03*
%TO.P,J5,3,Pin_3*%
%TO.N,unconnected-(J5-Pin_3-Pad3)*%
X145542000Y-55626000D03*
%TO.P,J5,4,Pin_4*%
%TO.N,debuging_tx*%
X143002000Y-55626000D03*
%TO.P,J5,5,Pin_5*%
%TO.N,debuging_rx*%
X140462000Y-55626000D03*
%TO.P,J5,6,Pin_6*%
%TO.N,unconnected-(J5-Pin_6-Pad6)*%
X137922000Y-55626000D03*
%TD*%
D10*
%TO.P,J11,1,Pin_1*%
%TO.N,+5V*%
X108540000Y-84171000D03*
D11*
%TO.P,J11,2,Pin_2*%
%TO.N,gnd*%
X108540000Y-86711000D03*
%TD*%
D10*
%TO.P,J10,1,Pin_1*%
%TO.N,BootPin*%
X114360000Y-72570000D03*
%TD*%
%TO.P,J9,1,Pin_1*%
%TO.N,Sensor5*%
X110210000Y-131730000D03*
D11*
%TO.P,J9,2,Pin_2*%
%TO.N,+3.3V*%
X112750000Y-131730000D03*
%TD*%
D12*
%TO.P,U7,1,1OUT*%
%TO.N,Net-(U7-1OUT)*%
X117602000Y-114427000D03*
D13*
%TO.P,U7,2,1IN-*%
%TO.N,Net-(U7-1IN-)*%
X117602000Y-116967000D03*
%TO.P,U7,3,1IN+*%
%TO.N,Sensor4*%
X117602000Y-119507000D03*
%TO.P,U7,4,GND*%
%TO.N,gnd*%
X117602000Y-122047000D03*
%TO.P,U7,5,2IN+*%
%TO.N,Net-(U7-1OUT)*%
X125222000Y-122047000D03*
%TO.P,U7,6,2IN-*%
%TO.N,Finger2*%
X125222000Y-119507000D03*
%TO.P,U7,7,2OUT*%
X125222000Y-116967000D03*
%TO.P,U7,8,VCC*%
%TO.N,+5V*%
X125222000Y-114427000D03*
%TD*%
D12*
%TO.P,U6,1,1OUT*%
%TO.N,Net-(U6-1OUT)*%
X158440000Y-114490000D03*
D13*
%TO.P,U6,2,1IN-*%
%TO.N,Net-(U6-1IN-)*%
X158440000Y-117030000D03*
%TO.P,U6,3,1IN+*%
%TO.N,Sensor3*%
X158440000Y-119570000D03*
%TO.P,U6,4,GND*%
%TO.N,gnd*%
X158440000Y-122110000D03*
%TO.P,U6,5,2IN+*%
%TO.N,Net-(U6-1OUT)*%
X166060000Y-122110000D03*
%TO.P,U6,6,2IN-*%
%TO.N,Finger5*%
X166060000Y-119570000D03*
%TO.P,U6,7,2OUT*%
X166060000Y-117030000D03*
%TO.P,U6,8,VCC*%
%TO.N,+5V*%
X166060000Y-114490000D03*
%TD*%
D10*
%TO.P,J4,1,Pin_1*%
%TO.N,Sensor1*%
X136210000Y-131730000D03*
D11*
%TO.P,J4,2,Pin_2*%
%TO.N,+3.3V*%
X138750000Y-131730000D03*
%TD*%
D12*
%TO.P,U4,1,1OUT*%
%TO.N,Net-(U4-1OUT)*%
X130683000Y-114630200D03*
D13*
%TO.P,U4,2,1IN-*%
%TO.N,Net-(U4-1IN-)*%
X130683000Y-117170200D03*
%TO.P,U4,3,1IN+*%
%TO.N,Sensor1*%
X130683000Y-119710200D03*
%TO.P,U4,4,GND*%
%TO.N,gnd*%
X130683000Y-122250200D03*
%TO.P,U4,5,2IN+*%
%TO.N,Net-(U4-1OUT)*%
X138303000Y-122250200D03*
%TO.P,U4,6,2IN-*%
%TO.N,Finger3*%
X138303000Y-119710200D03*
%TO.P,U4,7,2OUT*%
X138303000Y-117170200D03*
%TO.P,U4,8,VCC*%
%TO.N,+5V*%
X138303000Y-114630200D03*
%TD*%
D12*
%TO.P,U8,1,1OUT*%
%TO.N,Net-(U8-1OUT)*%
X103632000Y-114427000D03*
D13*
%TO.P,U8,2,1IN-*%
%TO.N,Net-(U8-1IN-)*%
X103632000Y-116967000D03*
%TO.P,U8,3,1IN+*%
%TO.N,Sensor5*%
X103632000Y-119507000D03*
%TO.P,U8,4,GND*%
%TO.N,gnd*%
X103632000Y-122047000D03*
%TO.P,U8,5,2IN+*%
%TO.N,Net-(U8-1OUT)*%
X111252000Y-122047000D03*
%TO.P,U8,6,2IN-*%
%TO.N,Finger1*%
X111252000Y-119507000D03*
%TO.P,U8,7,2OUT*%
X111252000Y-116967000D03*
%TO.P,U8,8,VCC*%
%TO.N,+5V*%
X111252000Y-114427000D03*
%TD*%
D10*
%TO.P,J7,1,Pin_1*%
%TO.N,Sensor3*%
X161260000Y-131880000D03*
D11*
%TO.P,J7,2,Pin_2*%
%TO.N,+3.3V*%
X163800000Y-131880000D03*
%TD*%
D10*
%TO.P,J6,1,Pin_1*%
%TO.N,Sensor2*%
X148380000Y-131810000D03*
D11*
%TO.P,J6,2,Pin_2*%
%TO.N,+3.3V*%
X150920000Y-131810000D03*
%TD*%
D12*
%TO.P,U5,1,1OUT*%
%TO.N,Net-(U5-1OUT)*%
X144390000Y-114540000D03*
D13*
%TO.P,U5,2,1IN-*%
%TO.N,Net-(U5-1IN-)*%
X144390000Y-117080000D03*
%TO.P,U5,3,1IN+*%
%TO.N,Sensor2*%
X144390000Y-119620000D03*
%TO.P,U5,4,GND*%
%TO.N,gnd*%
X144390000Y-122160000D03*
%TO.P,U5,5,2IN+*%
%TO.N,Net-(U5-1OUT)*%
X152010000Y-122160000D03*
%TO.P,U5,6,2IN-*%
%TO.N,Finger4*%
X152010000Y-119620000D03*
%TO.P,U5,7,2OUT*%
X152010000Y-117080000D03*
%TO.P,U5,8,VCC*%
%TO.N,+5V*%
X152010000Y-114540000D03*
%TD*%
D14*
%TO.N,Switch2*%
X125150000Y-60067000D03*
X127750000Y-63750000D03*
%TO.N,NRST*%
X127600000Y-78800000D03*
X156972000Y-80738600D03*
X126200000Y-76400000D03*
%TO.N,TX*%
X119888000Y-90932000D03*
X125150000Y-55667000D03*
%TO.N,RX*%
X117348000Y-88900000D03*
X121820000Y-55630000D03*
%TO.N,gnd*%
X154800000Y-85150000D03*
X154350000Y-77400000D03*
%TO.N,RedLED*%
X116586000Y-67056000D03*
X125150000Y-53467000D03*
%TO.N,GPIO_J9*%
X121200000Y-52000000D03*
X135000000Y-57000000D03*
%TO.N,Net-(U1-PA7)*%
X130650000Y-53467000D03*
X124650000Y-92350000D03*
%TO.N,Switch1*%
X125321000Y-79022000D03*
X125150000Y-58967000D03*
%TO.N,+3.3V*%
X136906000Y-76724600D03*
X132588000Y-88000000D03*
X126250000Y-63840000D03*
X123125000Y-65625000D03*
X115800000Y-84000000D03*
X121250000Y-62250000D03*
X129250000Y-79500000D03*
X121250000Y-59750000D03*
X120021600Y-80776600D03*
X112883000Y-79033000D03*
X132000000Y-79500000D03*
X112350000Y-95700000D03*
X121277500Y-64950000D03*
%TO.N,debuging_tx*%
X151750000Y-85572400D03*
X151333200Y-77876400D03*
%TO.N,debuging_rx*%
X149834600Y-78000000D03*
X149500000Y-86372400D03*
%TO.N,UART_RTS->BoardCTS*%
X135250000Y-71250000D03*
X129500000Y-71250000D03*
X134750000Y-84750000D03*
X125150000Y-56767000D03*
%TO.N,UART_CTS->BoardRTS*%
X125476000Y-64516000D03*
X133604000Y-70358000D03*
X127762000Y-66040000D03*
X125476000Y-91948000D03*
X118364000Y-64516000D03*
X118364000Y-67056000D03*
%TO.N,GreenLED*%
X125150000Y-54567000D03*
X120100000Y-56100000D03*
%TO.N,BootPin*%
X121040000Y-78380000D03*
%TO.N,+5V*%
X112000000Y-58000000D03*
X101800000Y-102650000D03*
X109500000Y-60960000D03*
X110000000Y-55000000D03*
X112000000Y-59000000D03*
X111165500Y-60665500D03*
X113000000Y-55000000D03*
X112000000Y-55000000D03*
X111915500Y-59915500D03*
%TD*%
D15*
%TO.N,NRST*%
X159750000Y-77960600D02*
X156972000Y-80738600D01*
X159750000Y-69750000D02*
X159750000Y-77960600D01*
X166878000Y-55880000D02*
X166878000Y-62622000D01*
X166878000Y-62622000D02*
X159750000Y-69750000D01*
%TO.N,Switch2*%
X127750000Y-63750000D02*
X125150000Y-61150000D01*
X125150000Y-61150000D02*
X125150000Y-60067000D01*
%TO.N,NRST*%
X126200000Y-76400000D02*
X126200000Y-77400000D01*
X126200000Y-77400000D02*
X127600000Y-78800000D01*
%TO.N,TX*%
X119888000Y-90856000D02*
X119888000Y-90932000D01*
X123809500Y-86934500D02*
X121396600Y-89347400D01*
X125150000Y-55667000D02*
X123809500Y-57007500D01*
X121396600Y-89347400D02*
X119888000Y-90856000D01*
X123809500Y-57007500D02*
X123809500Y-86934500D01*
%TO.N,RX*%
X118275600Y-87972400D02*
X117348000Y-88900000D01*
X121820000Y-55630000D02*
X121820000Y-57143800D01*
X121820000Y-57143800D02*
X122196600Y-57520400D01*
X120021600Y-87972400D02*
X118275600Y-87972400D01*
X122196600Y-85797400D02*
X120021600Y-87972400D01*
X122196600Y-57520400D02*
X122196600Y-85797400D01*
D16*
%TO.N,gnd*%
X154350000Y-77400000D02*
X154350000Y-84700000D01*
X154350000Y-84700000D02*
X154800000Y-85150000D01*
D15*
%TO.N,RedLED*%
X124655400Y-53961600D02*
X125150000Y-53467000D01*
X116586000Y-53961600D02*
X116586000Y-67056000D01*
X116586000Y-67056000D02*
X116586000Y-67310000D01*
X116586000Y-53961600D02*
X124655400Y-53961600D01*
%TO.N,GPIO_J9*%
X127384000Y-52866000D02*
X122066000Y-52866000D01*
X135000000Y-57000000D02*
X135000000Y-56967057D01*
X122066000Y-52866000D02*
X121200000Y-52000000D01*
X135000000Y-56967057D02*
X130898943Y-52866000D01*
X130898943Y-52866000D02*
X127384000Y-52866000D01*
%TO.N,Net-(U1-PA7)*%
X126702600Y-89347400D02*
X125100000Y-90950000D01*
X127846543Y-89347400D02*
X130650000Y-86543943D01*
X124650000Y-91400000D02*
X124650000Y-92350000D01*
X125100000Y-90950000D02*
X124650000Y-91400000D01*
X127846543Y-89347400D02*
X126702600Y-89347400D01*
X130650000Y-53467000D02*
X130650000Y-86543943D01*
%TO.N,Switch1*%
X124549000Y-59568000D02*
X124549000Y-78250000D01*
X125396600Y-79097600D02*
X125321000Y-79022000D01*
X125321000Y-79022000D02*
X124549000Y-78250000D01*
X125150000Y-58967000D02*
X124549000Y-59568000D01*
%TO.N,+3.3V*%
X126723000Y-63840000D02*
X128371600Y-65488600D01*
X126250000Y-63840000D02*
X126723000Y-63840000D01*
X128371600Y-87972400D02*
X128371600Y-65488600D01*
X128250000Y-87850800D02*
X128371600Y-87972400D01*
%TO.N,debuging_tx*%
X151333200Y-85155600D02*
X151750000Y-85572400D01*
X151333200Y-77876400D02*
X151333200Y-85155600D01*
%TO.N,debuging_rx*%
X149834600Y-78000000D02*
X149834600Y-86037800D01*
X149834600Y-86037800D02*
X149500000Y-86372400D01*
%TO.N,UART_RTS->BoardCTS*%
X125150000Y-56767000D02*
X129500000Y-61117000D01*
X129500000Y-61117000D02*
X129500000Y-71250000D01*
X135250000Y-84250000D02*
X134750000Y-84750000D01*
X135250000Y-71250000D02*
X135250000Y-84250000D01*
%TO.N,UART_CTS->BoardRTS*%
X125813043Y-91948000D02*
X125476000Y-91948000D01*
X125476000Y-64516000D02*
X125879630Y-64919630D01*
X125879630Y-64919630D02*
X126120780Y-65160780D01*
X133604000Y-70358000D02*
X133604000Y-84157043D01*
X127000000Y-66040000D02*
X126120780Y-65160780D01*
X118364000Y-64516000D02*
X118364000Y-67056000D01*
X133604000Y-84157043D02*
X125813043Y-91948000D01*
X127762000Y-66040000D02*
X127000000Y-66040000D01*
%TO.N,GreenLED*%
X125150000Y-54567000D02*
X121633000Y-54567000D01*
X121633000Y-54567000D02*
X120100000Y-56100000D01*
%TO.N,BootPin*%
X114360000Y-72570000D02*
X120170000Y-78380000D01*
X120170000Y-78380000D02*
X121040000Y-78380000D01*
%TO.N,Net-(U4-1OUT)*%
X138303000Y-122250200D02*
X130683000Y-114630200D01*
%TO.N,Sensor1*%
X136210000Y-125237200D02*
X130683000Y-119710200D01*
X136210000Y-131730000D02*
X136210000Y-125237200D01*
%TO.N,Sensor2*%
X148380000Y-131810000D02*
X148380000Y-123610000D01*
X148380000Y-123610000D02*
X144390000Y-119620000D01*
%TO.N,Sensor3*%
X161260000Y-122390000D02*
X158440000Y-119570000D01*
X161260000Y-131880000D02*
X161260000Y-122390000D01*
%TO.N,Sensor4*%
X123010000Y-124915000D02*
X117602000Y-119507000D01*
X123010000Y-131880000D02*
X123010000Y-124915000D01*
%TO.N,Sensor5*%
X110210000Y-131730000D02*
X110210000Y-126085000D01*
X110210000Y-126085000D02*
X103632000Y-119507000D01*
D17*
%TO.N,Net-(U5-1OUT)*%
X144390000Y-114540000D02*
X152010000Y-122160000D01*
D15*
%TO.N,Net-(U6-1OUT)*%
X166060000Y-122110000D02*
X158440000Y-114490000D01*
%TO.N,Net-(U7-1OUT)*%
X125222000Y-122047000D02*
X117602000Y-114427000D01*
%TO.N,Net-(U8-1OUT)*%
X111252000Y-122047000D02*
X103632000Y-114427000D01*
%TD*%
%TA.AperFunction,Conductor*%
%TO.N,+3.3V*%
G36*
X169456229Y-53106830D02*
G01*
X169502386Y-53159283D01*
X169513989Y-53211717D01*
X169503562Y-74035516D01*
X169483844Y-74102546D01*
X169431017Y-74148274D01*
X169361854Y-74158183D01*
X169298312Y-74129126D01*
X169276464Y-74104349D01*
X169129665Y-73884649D01*
X168902587Y-73607955D01*
X168902586Y-73607954D01*
X168902582Y-73607949D01*
X168649487Y-73354854D01*
X168372793Y-73127776D01*
X168372792Y-73127775D01*
X168372788Y-73127772D01*
X168075168Y-72928909D01*
X168075163Y-72928906D01*
X168075156Y-72928902D01*
X167759496Y-72760178D01*
X167759491Y-72760176D01*
X167428792Y-72623196D01*
X167086254Y-72519288D01*
X166735191Y-72449457D01*
X166735192Y-72449457D01*
X166466900Y-72423034D01*
X166378972Y-72414374D01*
X166021028Y-72414374D01*
X165939784Y-72422375D01*
X165664807Y-72449457D01*
X165313745Y-72519288D01*
X164971207Y-72623196D01*
X164640508Y-72760176D01*
X164640503Y-72760178D01*
X164324843Y-72928902D01*
X164324825Y-72928913D01*
X164027220Y-73127766D01*
X164027206Y-73127776D01*
X163750512Y-73354854D01*
X163497417Y-73607949D01*
X163270339Y-73884643D01*
X163270329Y-73884657D01*
X163071476Y-74182262D01*
X163071465Y-74182280D01*
X162902741Y-74497940D01*
X162902739Y-74497945D01*
X162765759Y-74828644D01*
X162661851Y-75171182D01*
X162592020Y-75522244D01*
X162556937Y-75878468D01*
X162556937Y-76236405D01*
X162592020Y-76592629D01*
X162661851Y-76943691D01*
X162765759Y-77286229D01*
X162902739Y-77616928D01*
X162902741Y-77616933D01*
X163071465Y-77932593D01*
X163071469Y-77932600D01*
X163071472Y-77932605D01*
X163270332Y-78230221D01*
X163270339Y-78230230D01*
X163497417Y-78506924D01*
X163750512Y-78760019D01*
X163750517Y-78760023D01*
X163750518Y-78760024D01*
X164027212Y-78987102D01*
X164324832Y-79185965D01*
X164324841Y-79185970D01*
X164324843Y-79185971D01*
X164640503Y-79354695D01*
X164640505Y-79354695D01*
X164640511Y-79354699D01*
X164971209Y-79491678D01*
X165313740Y-79595584D01*
X165664807Y-79665416D01*
X166021028Y-79700500D01*
X166021031Y-79700500D01*
X166378969Y-79700500D01*
X166378972Y-79700500D01*
X166735193Y-79665416D01*
X167086260Y-79595584D01*
X167428791Y-79491678D01*
X167759489Y-79354699D01*
X168075168Y-79185965D01*
X168372788Y-78987102D01*
X168649482Y-78760024D01*
X168902587Y-78506919D01*
X169129665Y-78230225D01*
X169274436Y-78013559D01*
X169328046Y-77968756D01*
X169397370Y-77960049D01*
X169460398Y-77990203D01*
X169497118Y-78049646D01*
X169501536Y-78082514D01*
X169485883Y-109346999D01*
X169485884Y-109347000D01*
X168021000Y-109347000D01*
X167998458Y-111037664D01*
X115699615Y-111037664D01*
X115632576Y-111017979D01*
X115586821Y-110965175D01*
X115575615Y-110913953D01*
X115574652Y-110500000D01*
X139000000Y-110500000D01*
X139000000Y-86293553D01*
X148699500Y-86293553D01*
X148699500Y-86451246D01*
X148730261Y-86605889D01*
X148730264Y-86605901D01*
X148790602Y-86751572D01*
X148790609Y-86751585D01*
X148878210Y-86882688D01*
X148878213Y-86882692D01*
X148989707Y-86994186D01*
X148989711Y-86994189D01*
X149120814Y-87081790D01*
X149120827Y-87081797D01*
X149266498Y-87142135D01*
X149266503Y-87142137D01*
X149421153Y-87172899D01*
X149421156Y-87172900D01*
X149421158Y-87172900D01*
X149578844Y-87172900D01*
X149578845Y-87172899D01*
X149733497Y-87142137D01*
X149879179Y-87081794D01*
X150010289Y-86994189D01*
X150121789Y-86882689D01*
X150209394Y-86751579D01*
X150269737Y-86605897D01*
X150284488Y-86531734D01*
X150301689Y-86445268D01*
X150303059Y-86445540D01*
X150303411Y-86444445D01*
X150303077Y-86437421D01*
X150316194Y-86404655D01*
X150387128Y-86281794D01*
X150387129Y-86281791D01*
X150387131Y-86281790D01*
X150394175Y-86269588D01*
X150394174Y-86269588D01*
X150394177Y-86269585D01*
X150435101Y-86116857D01*
X150435101Y-85958743D01*
X150435101Y-85951148D01*
X150435100Y-85951130D01*
X150435100Y-78579765D01*
X150440428Y-78561619D01*
X150440766Y-78542712D01*
X150454265Y-78514495D01*
X150454785Y-78512726D01*
X150455998Y-78510874D01*
X150505598Y-78436643D01*
X150559210Y-78391838D01*
X150628535Y-78383131D01*
X150691563Y-78413286D01*
X150728282Y-78472729D01*
X150732700Y-78505534D01*
X150732700Y-85068930D01*
X150732699Y-85068948D01*
X150732699Y-85234654D01*
X150732698Y-85234654D01*
X150769177Y-85370792D01*
X150773623Y-85387385D01*
X150781195Y-85400500D01*
X150852677Y-85524312D01*
X150852681Y-85524317D01*
X150915426Y-85587062D01*
X150948911Y-85648385D01*
X150949362Y-85650551D01*
X150980261Y-85805891D01*
X150980264Y-85805901D01*
X151040602Y-85951572D01*
X151040609Y-85951585D01*
X151128210Y-86082688D01*
X151128213Y-86082692D01*
X151239707Y-86194186D01*
X151239711Y-86194189D01*
X151370814Y-86281790D01*
X151370827Y-86281797D01*
X151441053Y-86310885D01*
X151516503Y-86342137D01*
X151671153Y-86372899D01*
X151671156Y-86372900D01*
X151671158Y-86372900D01*
X151828844Y-86372900D01*
X151828845Y-86372899D01*
X151983497Y-86342137D01*
X152129179Y-86281794D01*
X152260289Y-86194189D01*
X152371789Y-86082689D01*
X152459394Y-85951579D01*
X152519737Y-85805897D01*
X152550500Y-85651242D01*
X152550500Y-85493558D01*
X152550500Y-85493555D01*
X152550499Y-85493553D01*
X152543704Y-85459394D01*
X152519737Y-85338903D01*
X152487176Y-85260292D01*
X152459397Y-85193227D01*
X152459390Y-85193214D01*
X152371789Y-85062111D01*
X152371786Y-85062107D01*
X152260292Y-84950613D01*
X152260288Y-84950610D01*
X152129185Y-84863009D01*
X152129172Y-84863002D01*
X152010248Y-84813743D01*
X151955844Y-84769902D01*
X151933779Y-84703608D01*
X151933700Y-84699182D01*
X151933700Y-78456165D01*
X151953385Y-78389126D01*
X151954598Y-78387274D01*
X151966253Y-78369832D01*
X152042594Y-78255579D01*
X152102937Y-78109897D01*
X152133700Y-77955242D01*
X152133700Y-77797558D01*
X152133700Y-77797555D01*
X152133699Y-77797553D01*
X152127963Y-77768716D01*
X152102937Y-77642903D01*
X152093793Y-77620827D01*
X152042597Y-77497227D01*
X152042590Y-77497214D01*
X151966914Y-77383957D01*
X151966913Y-77383956D01*
X151954991Y-77366113D01*
X151954986Y-77366107D01*
X151910032Y-77321153D01*
X153549500Y-77321153D01*
X153549500Y-77478846D01*
X153580261Y-77633489D01*
X153580263Y-77633497D01*
X153590061Y-77657151D01*
X153599500Y-77704604D01*
X153599500Y-84773918D01*
X153599500Y-84773920D01*
X153599499Y-84773920D01*
X153628340Y-84918907D01*
X153628343Y-84918917D01*
X153684913Y-85055490D01*
X153684914Y-85055491D01*
X153684916Y-85055495D01*
X153698980Y-85076543D01*
X153767048Y-85178416D01*
X154053929Y-85465296D01*
X154080807Y-85505522D01*
X154090607Y-85529182D01*
X154178210Y-85660288D01*
X154178213Y-85660292D01*
X154289707Y-85771786D01*
X154289711Y-85771789D01*
X154420814Y-85859390D01*
X154420827Y-85859397D01*
X154520060Y-85900500D01*
X154566503Y-85919737D01*
X154721153Y-85950499D01*
X154721156Y-85950500D01*
X154721158Y-85950500D01*
X154878844Y-85950500D01*
X154878845Y-85950499D01*
X155033497Y-85919737D01*
X155179179Y-85859394D01*
X155310289Y-85771789D01*
X155421789Y-85660289D01*
X155509394Y-85529179D01*
X155569737Y-85383497D01*
X155600500Y-85228842D01*
X155600500Y-85071158D01*
X155600500Y-85071155D01*
X155600499Y-85071153D01*
X155576522Y-84950613D01*
X155569737Y-84916503D01*
X155547578Y-84863006D01*
X155509397Y-84770827D01*
X155509390Y-84770814D01*
X155421789Y-84639711D01*
X155421786Y-84639707D01*
X155310292Y-84528213D01*
X155310288Y-84528210D01*
X155179182Y-84440607D01*
X155179177Y-84440604D01*
X155177046Y-84439722D01*
X155176102Y-84438961D01*
X155173813Y-84437738D01*
X155174045Y-84437303D01*
X155122643Y-84395881D01*
X155100579Y-84329586D01*
X155100500Y-84325162D01*
X155100500Y-77704604D01*
X155109939Y-77657151D01*
X155119737Y-77633497D01*
X155150500Y-77478842D01*
X155150500Y-77321158D01*
X155150500Y-77321155D01*
X155150499Y-77321153D01*
X155132419Y-77230261D01*
X155119737Y-77166503D01*
X155104053Y-77128637D01*
X155059397Y-77020827D01*
X155059390Y-77020814D01*
X154971789Y-76889711D01*
X154971786Y-76889707D01*
X154860292Y-76778213D01*
X154860288Y-76778210D01*
X154729185Y-76690609D01*
X154729172Y-76690602D01*
X154583501Y-76630264D01*
X154583489Y-76630261D01*
X154428845Y-76599500D01*
X154428842Y-76599500D01*
X154271158Y-76599500D01*
X154271155Y-76599500D01*
X154116510Y-76630261D01*
X154116498Y-76630264D01*
X153970827Y-76690602D01*
X153970814Y-76690609D01*
X153839711Y-76778210D01*
X153839707Y-76778213D01*
X153728213Y-76889707D01*
X153728210Y-76889711D01*
X153640609Y-77020814D01*
X153640602Y-77020827D01*
X153580264Y-77166498D01*
X153580261Y-77166510D01*
X153549500Y-77321153D01*
X151910032Y-77321153D01*
X151843492Y-77254613D01*
X151843488Y-77254610D01*
X151712385Y-77167009D01*
X151712372Y-77167002D01*
X151566701Y-77106664D01*
X151566689Y-77106661D01*
X151412045Y-77075900D01*
X151412042Y-77075900D01*
X151254358Y-77075900D01*
X151254355Y-77075900D01*
X151099710Y-77106661D01*
X151099698Y-77106664D01*
X150954027Y-77167002D01*
X150954014Y-77167009D01*
X150822911Y-77254610D01*
X150822907Y-77254613D01*
X150711413Y-77366107D01*
X150711410Y-77366111D01*
X150643699Y-77467447D01*
X150590086Y-77512252D01*
X150520761Y-77520959D01*
X150457734Y-77490804D01*
X150452916Y-77486237D01*
X150344892Y-77378213D01*
X150344888Y-77378210D01*
X150213785Y-77290609D01*
X150213772Y-77290602D01*
X150068101Y-77230264D01*
X150068089Y-77230261D01*
X149913445Y-77199500D01*
X149913442Y-77199500D01*
X149755758Y-77199500D01*
X149755755Y-77199500D01*
X149601110Y-77230261D01*
X149601098Y-77230264D01*
X149455427Y-77290602D01*
X149455414Y-77290609D01*
X149324311Y-77378210D01*
X149324307Y-77378213D01*
X149212813Y-77489707D01*
X149212810Y-77489711D01*
X149125209Y-77620814D01*
X149125202Y-77620827D01*
X149064864Y-77766498D01*
X149064861Y-77766510D01*
X149034100Y-77921153D01*
X149034100Y-78078846D01*
X149064861Y-78233489D01*
X149064864Y-78233501D01*
X149125202Y-78379172D01*
X149125209Y-78379185D01*
X149213202Y-78510874D01*
X149234080Y-78577551D01*
X149234100Y-78579765D01*
X149234100Y-85533229D01*
X149214415Y-85600268D01*
X149161611Y-85646023D01*
X149157555Y-85647789D01*
X149120826Y-85663003D01*
X149120814Y-85663009D01*
X148989711Y-85750610D01*
X148989707Y-85750613D01*
X148878213Y-85862107D01*
X148878210Y-85862111D01*
X148790609Y-85993214D01*
X148790602Y-85993227D01*
X148730264Y-86138898D01*
X148730261Y-86138910D01*
X148699500Y-86293553D01*
X139000000Y-86293553D01*
X139000000Y-64290000D01*
X131250500Y-64209737D01*
X131250500Y-54366154D01*
X131270185Y-54299115D01*
X131322989Y-54253360D01*
X131392147Y-54243416D01*
X131455703Y-54272441D01*
X131462181Y-54278473D01*
X134163181Y-56979473D01*
X134196666Y-57040796D01*
X134199500Y-57067154D01*
X134199500Y-57078846D01*
X134230261Y-57233489D01*
X134230264Y-57233501D01*
X134290602Y-57379172D01*
X134290609Y-57379185D01*
X134378210Y-57510288D01*
X134378213Y-57510292D01*
X134489707Y-57621786D01*
X134489711Y-57621789D01*
X134620814Y-57709390D01*
X134620827Y-57709397D01*
X134766498Y-57769735D01*
X134766503Y-57769737D01*
X134921153Y-57800499D01*
X134921156Y-57800500D01*
X134921158Y-57800500D01*
X135078844Y-57800500D01*
X135078845Y-57800499D01*
X135233497Y-57769737D01*
X135379179Y-57709394D01*
X135510289Y-57621789D01*
X135621789Y-57510289D01*
X135709394Y-57379179D01*
X135769737Y-57233497D01*
X135800500Y-57078842D01*
X135800500Y-56921158D01*
X135800500Y-56921155D01*
X135800499Y-56921153D01*
X135778269Y-56809397D01*
X135769737Y-56766503D01*
X135751215Y-56721786D01*
X135709397Y-56620827D01*
X135709390Y-56620814D01*
X135621789Y-56489711D01*
X135621786Y-56489707D01*
X135510292Y-56378213D01*
X135510288Y-56378210D01*
X135379185Y-56290609D01*
X135379172Y-56290602D01*
X135233501Y-56230264D01*
X135233489Y-56230261D01*
X135119274Y-56207542D01*
X135057363Y-56175157D01*
X135055784Y-56173606D01*
X134401891Y-55519713D01*
X136571500Y-55519713D01*
X136571500Y-55732286D01*
X136598142Y-55900501D01*
X136604754Y-55942243D01*
X136669956Y-56142914D01*
X136670444Y-56144414D01*
X136766951Y-56333820D01*
X136891890Y-56505786D01*
X137042213Y-56656109D01*
X137214179Y-56781048D01*
X137214181Y-56781049D01*
X137214184Y-56781051D01*
X137403588Y-56877557D01*
X137605757Y-56943246D01*
X137815713Y-56976500D01*
X137815714Y-56976500D01*
X138028286Y-56976500D01*
X138028287Y-56976500D01*
X138238243Y-56943246D01*
X138440412Y-56877557D01*
X138629816Y-56781051D01*
X138716138Y-56718335D01*
X138801786Y-56656109D01*
X138801788Y-56656106D01*
X138801792Y-56656104D01*
X138952104Y-56505792D01*
X138952106Y-56505788D01*
X138952109Y-56505786D01*
X139077048Y-56333820D01*
X139077047Y-56333820D01*
X139077051Y-56333816D01*
X139081514Y-56325054D01*
X139129488Y-56274259D01*
X139197308Y-56257463D01*
X139263444Y-56279999D01*
X139302486Y-56325056D01*
X139306951Y-56333820D01*
X139431890Y-56505786D01*
X139582213Y-56656109D01*
X139754179Y-56781048D01*
X139754181Y-56781049D01*
X139754184Y-56781051D01*
X139943588Y-56877557D01*
X140145757Y-56943246D01*
X140355713Y-56976500D01*
X140355714Y-56976500D01*
X140568286Y-56976500D01*
X140568287Y-56976500D01*
X140778243Y-56943246D01*
X140980412Y-56877557D01*
X141169816Y-56781051D01*
X141256138Y-56718335D01*
X141341786Y-56656109D01*
X141341788Y-56656106D01*
X141341792Y-56656104D01*
X141492104Y-56505792D01*
X141492106Y-56505788D01*
X141492109Y-56505786D01*
X141617048Y-56333820D01*
X141617047Y-56333820D01*
X141617051Y-56333816D01*
X141621514Y-56325054D01*
X141669488Y-56274259D01*
X141737308Y-56257463D01*
X141803444Y-56279999D01*
X141842486Y-56325056D01*
X141846951Y-56333820D01*
X141971890Y-56505786D01*
X142122213Y-56656109D01*
X142294179Y-56781048D01*
X142294181Y-56781049D01*
X142294184Y-56781051D01*
X142483588Y-56877557D01*
X142685757Y-56943246D01*
X142895713Y-56976500D01*
X142895714Y-56976500D01*
X143108286Y-56976500D01*
X143108287Y-56976500D01*
X143318243Y-56943246D01*
X143520412Y-56877557D01*
X143709816Y-56781051D01*
X143796138Y-56718335D01*
X143881786Y-56656109D01*
X143881788Y-56656106D01*
X143881792Y-56656104D01*
X144032104Y-56505792D01*
X144032106Y-56505788D01*
X144032109Y-56505786D01*
X144157048Y-56333820D01*
X144157047Y-56333820D01*
X144157051Y-56333816D01*
X144161514Y-56325054D01*
X144209488Y-56274259D01*
X144277308Y-56257463D01*
X144343444Y-56279999D01*
X144382486Y-56325056D01*
X144386951Y-56333820D01*
X144511890Y-56505786D01*
X144662213Y-56656109D01*
X144834179Y-56781048D01*
X144834181Y-56781049D01*
X144834184Y-56781051D01*
X145023588Y-56877557D01*
X145225757Y-56943246D01*
X145435713Y-56976500D01*
X145435714Y-56976500D01*
X145648286Y-56976500D01*
X145648287Y-56976500D01*
X145858243Y-56943246D01*
X146060412Y-56877557D01*
X146249816Y-56781051D01*
X146336138Y-56718335D01*
X146421786Y-56656109D01*
X146421788Y-56656106D01*
X146421792Y-56656104D01*
X146572104Y-56505792D01*
X146572106Y-56505788D01*
X146572109Y-56505786D01*
X146697048Y-56333820D01*
X146697047Y-56333820D01*
X146697051Y-56333816D01*
X146701514Y-56325054D01*
X146749488Y-56274259D01*
X146817308Y-56257463D01*
X146883444Y-56279999D01*
X146922486Y-56325056D01*
X146926951Y-56333820D01*
X147051890Y-56505786D01*
X147202213Y-56656109D01*
X147374179Y-56781048D01*
X147374181Y-56781049D01*
X147374184Y-56781051D01*
X147563588Y-56877557D01*
X147765757Y-56943246D01*
X147975713Y-56976500D01*
X147975714Y-56976500D01*
X148188286Y-56976500D01*
X148188287Y-56976500D01*
X148398243Y-56943246D01*
X148600412Y-56877557D01*
X148789816Y-56781051D01*
X148876234Y-56718265D01*
X148961784Y-56656110D01*
X148961784Y-56656109D01*
X148961792Y-56656104D01*
X149075329Y-56542566D01*
X149136648Y-56509084D01*
X149206340Y-56514068D01*
X149262274Y-56555939D01*
X149279189Y-56586917D01*
X149328202Y-56718328D01*
X149328206Y-56718335D01*
X149414452Y-56833544D01*
X149414455Y-56833547D01*
X149529664Y-56919793D01*
X149529671Y-56919797D01*
X149664517Y-56970091D01*
X149664516Y-56970091D01*
X149671444Y-56970835D01*
X149724127Y-56976500D01*
X151519872Y-56976499D01*
X151579483Y-56970091D01*
X151714331Y-56919796D01*
X151829546Y-56833546D01*
X151915796Y-56718331D01*
X151966091Y-56583483D01*
X151972500Y-56523873D01*
X151972499Y-55618265D01*
X151972499Y-54982155D01*
X155368000Y-54982155D01*
X155368000Y-55630000D01*
X156284988Y-55630000D01*
X156252075Y-55687007D01*
X156218000Y-55814174D01*
X156218000Y-55945826D01*
X156252075Y-56072993D01*
X156284988Y-56130000D01*
X155368000Y-56130000D01*
X155368000Y-56777844D01*
X155374401Y-56837372D01*
X155374403Y-56837379D01*
X155424645Y-56972086D01*
X155424649Y-56972093D01*
X155510809Y-57087187D01*
X155510812Y-57087190D01*
X155625906Y-57173350D01*
X155625913Y-57173354D01*
X155760620Y-57223596D01*
X155760627Y-57223598D01*
X155820155Y-57229999D01*
X155820172Y-57230000D01*
X156468000Y-57230000D01*
X156468000Y-56313012D01*
X156525007Y-56345925D01*
X156652174Y-56380000D01*
X156783826Y-56380000D01*
X156910993Y-56345925D01*
X156968000Y-56313012D01*
X156968000Y-57230000D01*
X157615828Y-57230000D01*
X157615844Y-57229999D01*
X157675372Y-57223598D01*
X157675379Y-57223596D01*
X157810086Y-57173354D01*
X157810093Y-57173350D01*
X157925187Y-57087190D01*
X157925190Y-57087187D01*
X158011350Y-56972093D01*
X158011354Y-56972086D01*
X158060422Y-56840529D01*
X158102293Y-56784595D01*
X158167757Y-56760178D01*
X158236030Y-56775030D01*
X158264285Y-56796181D01*
X158378213Y-56910109D01*
X158550179Y-57035048D01*
X158550181Y-57035049D01*
X158550184Y-57035051D01*
X158739588Y-57131557D01*
X158941757Y-57197246D01*
X159151713Y-57230500D01*
X159151714Y-57230500D01*
X159364286Y-57230500D01*
X159364287Y-57230500D01*
X159574243Y-57197246D01*
X159776412Y-57131557D01*
X159965816Y-57035051D01*
X160046405Y-56976500D01*
X160137786Y-56910109D01*
X160137788Y-56910106D01*
X160137792Y-56910104D01*
X160288104Y-56759792D01*
X160288106Y-56759788D01*
X160288109Y-56759786D01*
X160413048Y-56587820D01*
X160413047Y-56587820D01*
X160413051Y-56587816D01*
X160417514Y-56579054D01*
X160465488Y-56528259D01*
X160533308Y-56511463D01*
X160599444Y-56533999D01*
X160638486Y-56579056D01*
X160642951Y-56587820D01*
X160767890Y-56759786D01*
X160918213Y-56910109D01*
X161090179Y-57035048D01*
X161090181Y-57035049D01*
X161090184Y-57035051D01*
X161279588Y-57131557D01*
X161481757Y-57197246D01*
X161691713Y-57230500D01*
X161691714Y-57230500D01*
X161904286Y-57230500D01*
X161904287Y-57230500D01*
X162114243Y-57197246D01*
X162316412Y-57131557D01*
X162505816Y-57035051D01*
X162586405Y-56976500D01*
X162677786Y-56910109D01*
X162677788Y-56910106D01*
X162677792Y-56910104D01*
X162828104Y-56759792D01*
X162828106Y-56759788D01*
X162828109Y-56759786D01*
X162953048Y-56587820D01*
X162953047Y-56587820D01*
X162953051Y-56587816D01*
X162957514Y-56579054D01*
X163005488Y-56528259D01*
X163073308Y-56511463D01*
X163139444Y-56533999D01*
X163178486Y-56579056D01*
X163182951Y-56587820D01*
X163307890Y-56759786D01*
X163458213Y-56910109D01*
X163630179Y-57035048D01*
X163630181Y-57035049D01*
X163630184Y-57035051D01*
X163819588Y-57131557D01*
X164021757Y-57197246D01*
X164231713Y-57230500D01*
X164231714Y-57230500D01*
X164444286Y-57230500D01*
X164444287Y-57230500D01*
X164654243Y-57197246D01*
X164856412Y-57131557D01*
X165045816Y-57035051D01*
X165126405Y-56976500D01*
X165217786Y-56910109D01*
X165217788Y-56910106D01*
X165217792Y-56910104D01*
X165368104Y-56759792D01*
X165368106Y-56759788D01*
X165368109Y-56759786D01*
X165493048Y-56587820D01*
X165493047Y-56587820D01*
X165493051Y-56587816D01*
X165497514Y-56579054D01*
X165545488Y-56528259D01*
X165613308Y-56511463D01*
X165679444Y-56533999D01*
X165718486Y-56579056D01*
X165722951Y-56587820D01*
X165847890Y-56759786D01*
X165998213Y-56910109D01*
X166170184Y-57035051D01*
X166170184Y-57035052D01*
X166209793Y-57055233D01*
X166260590Y-57103206D01*
X166277500Y-57165718D01*
X166277500Y-62321902D01*
X166257815Y-62388941D01*
X166241181Y-62409583D01*
X159269481Y-69381282D01*
X159269479Y-69381285D01*
X159219361Y-69468094D01*
X159219359Y-69468096D01*
X159190425Y-69518209D01*
X159190424Y-69518210D01*
X159190423Y-69518215D01*
X159149499Y-69670943D01*
X159149499Y-69670945D01*
X159149499Y-69839046D01*
X159149500Y-69839059D01*
X159149500Y-77660503D01*
X159129815Y-77727542D01*
X159113181Y-77748184D01*
X156957339Y-79904025D01*
X156896016Y-79937510D01*
X156893850Y-79937961D01*
X156738508Y-79968861D01*
X156738498Y-79968864D01*
X156592827Y-80029202D01*
X156592814Y-80029209D01*
X156461711Y-80116810D01*
X156461707Y-80116813D01*
X156350213Y-80228307D01*
X156350210Y-80228311D01*
X156262609Y-80359414D01*
X156262602Y-80359427D01*
X156202264Y-80505098D01*
X156202261Y-80505110D01*
X156171500Y-80659753D01*
X156171500Y-80817446D01*
X156202261Y-80972089D01*
X156202264Y-80972101D01*
X156262602Y-81117772D01*
X156262609Y-81117785D01*
X156350210Y-81248888D01*
X156350213Y-81248892D01*
X156461707Y-81360386D01*
X156461711Y-81360389D01*
X156592814Y-81447990D01*
X156592827Y-81447997D01*
X156738498Y-81508335D01*
X156738503Y-81508337D01*
X156893153Y-81539099D01*
X156893156Y-81539100D01*
X156893158Y-81539100D01*
X157050844Y-81539100D01*
X157050845Y-81539099D01*
X157205497Y-81508337D01*
X157351179Y-81447994D01*
X157482289Y-81360389D01*
X157593789Y-81248889D01*
X157681394Y-81117779D01*
X157741737Y-80972097D01*
X157761113Y-80874685D01*
X157772638Y-80816750D01*
X157805023Y-80754839D01*
X157806519Y-80753315D01*
X160108506Y-78451327D01*
X160108511Y-78451324D01*
X160118714Y-78441120D01*
X160118716Y-78441120D01*
X160230520Y-78329316D01*
X160292767Y-78221500D01*
X160309577Y-78192385D01*
X160350500Y-78039658D01*
X160350500Y-77881543D01*
X160350500Y-70050096D01*
X160370185Y-69983057D01*
X160386814Y-69962420D01*
X167246713Y-63102521D01*
X167246716Y-63102520D01*
X167358520Y-62990716D01*
X167408639Y-62903904D01*
X167437577Y-62853785D01*
X167478500Y-62701058D01*
X167478500Y-62542943D01*
X167478500Y-57165718D01*
X167498185Y-57098679D01*
X167546207Y-57055233D01*
X167585815Y-57035052D01*
X167585815Y-57035051D01*
X167585816Y-57035051D01*
X167712176Y-56943246D01*
X167757786Y-56910109D01*
X167757788Y-56910106D01*
X167757792Y-56910104D01*
X167908104Y-56759792D01*
X167908106Y-56759788D01*
X167908109Y-56759786D01*
X168033048Y-56587820D01*
X168033047Y-56587820D01*
X168033051Y-56587816D01*
X168129557Y-56398412D01*
X168195246Y-56196243D01*
X168228500Y-55986287D01*
X168228500Y-55773713D01*
X168195246Y-55563757D01*
X168129557Y-55361588D01*
X168033051Y-55172184D01*
X168033049Y-55172181D01*
X168033048Y-55172179D01*
X167908109Y-55000213D01*
X167757786Y-54849890D01*
X167585820Y-54724951D01*
X167396414Y-54628444D01*
X167396413Y-54628443D01*
X167396412Y-54628443D01*
X167194243Y-54562754D01*
X167194241Y-54562753D01*
X167194240Y-54562753D01*
X167032957Y-54537208D01*
X166984287Y-54529500D01*
X166771713Y-54529500D01*
X166723042Y-54537208D01*
X166561760Y-54562753D01*
X166359585Y-54628444D01*
X166170179Y-54724951D01*
X165998213Y-54849890D01*
X165847890Y-55000213D01*
X165722949Y-55172182D01*
X165718484Y-55180946D01*
X165670509Y-55231742D01*
X165602688Y-55248536D01*
X165536553Y-55225998D01*
X165497516Y-55180946D01*
X165493050Y-55172182D01*
X165368109Y-55000213D01*
X165217786Y-54849890D01*
X165045820Y-54724951D01*
X164856414Y-54628444D01*
X164856413Y-54628443D01*
X164856412Y-54628443D01*
X164654243Y-54562754D01*
X164654241Y-54562753D01*
X164654240Y-54562753D01*
X164492957Y-54537208D01*
X164444287Y-54529500D01*
X164231713Y-54529500D01*
X164183042Y-54537208D01*
X164021760Y-54562753D01*
X163819585Y-54628444D01*
X163630179Y-54724951D01*
X163458213Y-54849890D01*
X163307890Y-55000213D01*
X163182949Y-55172182D01*
X163178484Y-55180946D01*
X163130509Y-55231742D01*
X163062688Y-55248536D01*
X162996553Y-55225998D01*
X162957516Y-55180946D01*
X162953050Y-55172182D01*
X162828109Y-55000213D01*
X162677786Y-54849890D01*
X162505820Y-54724951D01*
X162316414Y-54628444D01*
X162316413Y-54628443D01*
X162316412Y-54628443D01*
X162114243Y-54562754D01*
X162114241Y-54562753D01*
X162114240Y-54562753D01*
X161952957Y-54537208D01*
X161904287Y-54529500D01*
X161691713Y-54529500D01*
X161643042Y-54537208D01*
X161481760Y-54562753D01*
X161279585Y-54628444D01*
X161090179Y-54724951D01*
X160918213Y-54849890D01*
X160767890Y-55000213D01*
X160642949Y-55172182D01*
X160638484Y-55180946D01*
X160590509Y-55231742D01*
X160522688Y-55248536D01*
X160456553Y-55225998D01*
X160417516Y-55180946D01*
X160413050Y-55172182D01*
X160288109Y-55000213D01*
X160137786Y-54849890D01*
X159965820Y-54724951D01*
X159776414Y-54628444D01*
X159776413Y-54628443D01*
X159776412Y-54628443D01*
X159574243Y-54562754D01*
X159574241Y-54562753D01*
X159574240Y-54562753D01*
X159412957Y-54537208D01*
X159364287Y-54529500D01*
X159151713Y-54529500D01*
X159103042Y-54537208D01*
X158941760Y-54562753D01*
X158739585Y-54628444D01*
X158550179Y-54724951D01*
X158378215Y-54849889D01*
X158264285Y-54963819D01*
X158202962Y-54997303D01*
X158133270Y-54992319D01*
X158077337Y-54950447D01*
X158060422Y-54919470D01*
X158011354Y-54787913D01*
X158011350Y-54787906D01*
X157925190Y-54672812D01*
X157925187Y-54672809D01*
X157810093Y-54586649D01*
X157810086Y-54586645D01*
X157675379Y-54536403D01*
X157675372Y-54536401D01*
X157615844Y-54530000D01*
X156968000Y-54530000D01*
X156968000Y-55446988D01*
X156910993Y-55414075D01*
X156783826Y-55380000D01*
X156652174Y-55380000D01*
X156525007Y-55414075D01*
X156468000Y-55446988D01*
X156468000Y-54530000D01*
X155820155Y-54530000D01*
X155760627Y-54536401D01*
X155760620Y-54536403D01*
X155625913Y-54586645D01*
X155625906Y-54586649D01*
X155510812Y-54672809D01*
X155510809Y-54672812D01*
X155424649Y-54787906D01*
X155424645Y-54787913D01*
X155374403Y-54922620D01*
X155374401Y-54922627D01*
X155368000Y-54982155D01*
X151972499Y-54982155D01*
X151972499Y-54978851D01*
X151972499Y-54728129D01*
X151972498Y-54728123D01*
X151966091Y-54668516D01*
X151915797Y-54533671D01*
X151915793Y-54533664D01*
X151829547Y-54418455D01*
X151829544Y-54418452D01*
X151714335Y-54332206D01*
X151714328Y-54332202D01*
X151579482Y-54281908D01*
X151579483Y-54281908D01*
X151519883Y-54275501D01*
X151519881Y-54275500D01*
X151519873Y-54275500D01*
X151519864Y-54275500D01*
X149724129Y-54275500D01*
X149724123Y-54275501D01*
X149664516Y-54281908D01*
X149529671Y-54332202D01*
X149529664Y-54332206D01*
X149414455Y-54418452D01*
X149414452Y-54418455D01*
X149328206Y-54533664D01*
X149328203Y-54533669D01*
X149279189Y-54665083D01*
X149237317Y-54721016D01*
X149171853Y-54745433D01*
X149103580Y-54730581D01*
X149075326Y-54709430D01*
X148961786Y-54595890D01*
X148789820Y-54470951D01*
X148600414Y-54374444D01*
X148600413Y-54374443D01*
X148600412Y-54374443D01*
X148398243Y-54308754D01*
X148398241Y-54308753D01*
X148398240Y-54308753D01*
X148236957Y-54283208D01*
X148188287Y-54275500D01*
X147975713Y-54275500D01*
X147927042Y-54283208D01*
X147765760Y-54308753D01*
X147563585Y-54374444D01*
X147374179Y-54470951D01*
X147202213Y-54595890D01*
X147051890Y-54746213D01*
X146926949Y-54918182D01*
X146922484Y-54926946D01*
X146874509Y-54977742D01*
X146806688Y-54994536D01*
X146740553Y-54971998D01*
X146701516Y-54926946D01*
X146697050Y-54918182D01*
X146572109Y-54746213D01*
X146421786Y-54595890D01*
X146249820Y-54470951D01*
X146060414Y-54374444D01*
X146060413Y-54374443D01*
X146060412Y-54374443D01*
X145858243Y-54308754D01*
X145858241Y-54308753D01*
X145858240Y-54308753D01*
X145696957Y-54283208D01*
X145648287Y-54275500D01*
X145435713Y-54275500D01*
X145387042Y-54283208D01*
X145225760Y-54308753D01*
X145023585Y-54374444D01*
X144834179Y-54470951D01*
X144662213Y-54595890D01*
X144511890Y-54746213D01*
X144386949Y-54918182D01*
X144382484Y-54926946D01*
X144334509Y-54977742D01*
X144266688Y-54994536D01*
X144200553Y-54971998D01*
X144161516Y-54926946D01*
X144157050Y-54918182D01*
X144032109Y-54746213D01*
X143881786Y-54595890D01*
X143709820Y-54470951D01*
X143520414Y-54374444D01*
X143520413Y-54374443D01*
X143520412Y-54374443D01*
X143318243Y-54308754D01*
X143318241Y-54308753D01*
X143318240Y-54308753D01*
X143156957Y-54283208D01*
X143108287Y-54275500D01*
X142895713Y-54275500D01*
X142847042Y-54283208D01*
X142685760Y-54308753D01*
X142483585Y-54374444D01*
X142294179Y-54470951D01*
X142122213Y-54595890D01*
X141971890Y-54746213D01*
X141846949Y-54918182D01*
X141842484Y-54926946D01*
X141794509Y-54977742D01*
X141726688Y-54994536D01*
X141660553Y-54971998D01*
X141621516Y-54926946D01*
X141617050Y-54918182D01*
X141492109Y-54746213D01*
X141341786Y-54595890D01*
X141169820Y-54470951D01*
X140980414Y-54374444D01*
X140980413Y-54374443D01*
X140980412Y-54374443D01*
X140778243Y-54308754D01*
X140778241Y-54308753D01*
X140778240Y-54308753D01*
X140616957Y-54283208D01*
X140568287Y-54275500D01*
X140355713Y-54275500D01*
X140307042Y-54283208D01*
X140145760Y-54308753D01*
X139943585Y-54374444D01*
X139754179Y-54470951D01*
X139582213Y-54595890D01*
X139431890Y-54746213D01*
X139306949Y-54918182D01*
X139302484Y-54926946D01*
X139254509Y-54977742D01*
X139186688Y-54994536D01*
X139120553Y-54971998D01*
X139081516Y-54926946D01*
X139077050Y-54918182D01*
X138952109Y-54746213D01*
X138801786Y-54595890D01*
X138629820Y-54470951D01*
X138440414Y-54374444D01*
X138440413Y-54374443D01*
X138440412Y-54374443D01*
X138238243Y-54308754D01*
X138238241Y-54308753D01*
X138238240Y-54308753D01*
X138076957Y-54283208D01*
X138028287Y-54275500D01*
X137815713Y-54275500D01*
X137767042Y-54283208D01*
X137605760Y-54308753D01*
X137403585Y-54374444D01*
X137214179Y-54470951D01*
X137042213Y-54595890D01*
X136891890Y-54746213D01*
X136766951Y-54918179D01*
X136670444Y-55107585D01*
X136604753Y-55309760D01*
X136571500Y-55519713D01*
X134401891Y-55519713D01*
X132463092Y-53580914D01*
X132429607Y-53519591D01*
X132434591Y-53449899D01*
X132476463Y-53393966D01*
X132541927Y-53369549D01*
X132549808Y-53369237D01*
X169389042Y-53087659D01*
X169456229Y-53106830D01*
G37*
%TD.AperFunction*%
%TA.AperFunction,Conductor*%
G36*
X126066276Y-58551060D02*
G01*
X126114798Y-58581033D01*
X128863181Y-61329416D01*
X128896666Y-61390739D01*
X128899500Y-61417097D01*
X128899500Y-64185387D01*
X128425119Y-64180474D01*
X128459394Y-64129179D01*
X128519737Y-63983497D01*
X128550500Y-63828842D01*
X128550500Y-63671158D01*
X128550500Y-63671155D01*
X128550499Y-63671153D01*
X128519738Y-63516510D01*
X128519737Y-63516503D01*
X128519735Y-63516498D01*
X128459397Y-63370827D01*
X128459390Y-63370814D01*
X128371789Y-63239711D01*
X128371786Y-63239707D01*
X128260292Y-63128213D01*
X128260288Y-63128210D01*
X128129185Y-63040609D01*
X128129172Y-63040602D01*
X127983501Y-62980264D01*
X127983491Y-62980261D01*
X127828149Y-62949361D01*
X127766238Y-62916976D01*
X127764660Y-62915425D01*
X125786819Y-60937584D01*
X125772115Y-60910656D01*
X125755523Y-60884838D01*
X125754631Y-60878637D01*
X125753334Y-60876261D01*
X125750500Y-60849903D01*
X125750500Y-60646765D01*
X125770185Y-60579726D01*
X125771398Y-60577874D01*
X125811470Y-60517903D01*
X125859394Y-60446179D01*
X125919737Y-60300497D01*
X125950500Y-60145842D01*
X125950500Y-59988158D01*
X125950500Y-59988155D01*
X125950499Y-59988153D01*
X125919738Y-59833510D01*
X125919737Y-59833503D01*
X125919735Y-59833498D01*
X125859397Y-59687827D01*
X125859393Y-59687820D01*
X125791284Y-59585888D01*
X125770408Y-59519214D01*
X125788892Y-59451834D01*
X125791257Y-59448152D01*
X125859394Y-59346179D01*
X125919737Y-59200497D01*
X125950500Y-59045842D01*
X125950500Y-58888158D01*
X125950500Y-58888155D01*
X125950499Y-58888153D01*
X125919738Y-58733510D01*
X125919737Y-58733503D01*
X125912555Y-58716166D01*
X125905087Y-58646697D01*
X125936362Y-58584218D01*
X125996451Y-58548566D01*
X126066276Y-58551060D01*
G37*
%TD.AperFunction*%
%TA.AperFunction,Conductor*%
G36*
X125354703Y-62204384D02*
G01*
X125361181Y-62210416D01*
X126915425Y-63764660D01*
X126948910Y-63825983D01*
X126949361Y-63828149D01*
X126980261Y-63983491D01*
X126980264Y-63983501D01*
X127040602Y-64129172D01*
X127040609Y-64129185D01*
X127065470Y-64166392D01*
X126193904Y-64157365D01*
X126185397Y-64136827D01*
X126185390Y-64136814D01*
X126097789Y-64005711D01*
X126097786Y-64005707D01*
X125986292Y-63894213D01*
X125986288Y-63894210D01*
X125855185Y-63806609D01*
X125855172Y-63806602D01*
X125709501Y-63746264D01*
X125709489Y-63746261D01*
X125554845Y-63715500D01*
X125554842Y-63715500D01*
X125397158Y-63715500D01*
X125397153Y-63715500D01*
X125297691Y-63735284D01*
X125228099Y-63729057D01*
X125172922Y-63686193D01*
X125149678Y-63620303D01*
X125149500Y-63613667D01*
X125149500Y-62298097D01*
X125169185Y-62231058D01*
X125221989Y-62185303D01*
X125291147Y-62175359D01*
X125354703Y-62204384D01*
G37*
%TD.AperFunction*%
%TA.AperFunction,Conductor*%
G36*
X124371905Y-55187185D02*
G01*
X124417660Y-55239989D01*
X124427604Y-55309147D01*
X124419427Y-55338950D01*
X124400032Y-55385774D01*
X124380263Y-55433502D01*
X124380261Y-55433508D01*
X124349361Y-55588850D01*
X124316976Y-55650761D01*
X124315425Y-55652339D01*
X123328981Y-56638782D01*
X123278914Y-56725501D01*
X123249924Y-56775712D01*
X123249923Y-56775713D01*
X123234427Y-56833546D01*
X123208999Y-56928443D01*
X123208999Y-56928445D01*
X123208999Y-57096546D01*
X123209000Y-57096559D01*
X123209000Y-64126450D01*
X122797100Y-64122184D01*
X122797100Y-57609459D01*
X122797101Y-57609446D01*
X122797101Y-57441345D01*
X122797101Y-57441343D01*
X122756177Y-57288615D01*
X122718211Y-57222857D01*
X122718211Y-57222855D01*
X122677124Y-57151690D01*
X122677121Y-57151686D01*
X122677120Y-57151684D01*
X122565316Y-57039880D01*
X122565315Y-57039879D01*
X122560985Y-57035549D01*
X122560974Y-57035539D01*
X122456819Y-56931384D01*
X122423334Y-56870061D01*
X122420500Y-56843703D01*
X122420500Y-56209765D01*
X122440185Y-56142726D01*
X122441398Y-56140874D01*
X122456766Y-56117875D01*
X122529394Y-56009179D01*
X122589737Y-55863497D01*
X122620500Y-55708842D01*
X122620500Y-55551158D01*
X122620500Y-55551155D01*
X122620499Y-55551153D01*
X122605990Y-55478211D01*
X122589737Y-55396503D01*
X122565899Y-55338952D01*
X122558430Y-55269483D01*
X122589705Y-55207004D01*
X122649794Y-55171352D01*
X122680460Y-55167500D01*
X124304866Y-55167500D01*
X124371905Y-55187185D01*
G37*
%TD.AperFunction*%
%TA.AperFunction,Conductor*%
G36*
X120556342Y-54581785D02*
G01*
X120602097Y-54634589D01*
X120612041Y-54703747D01*
X120583016Y-54767303D01*
X120576984Y-54773781D01*
X120085339Y-55265425D01*
X120024016Y-55298910D01*
X120021850Y-55299361D01*
X119866508Y-55330261D01*
X119866498Y-55330264D01*
X119720827Y-55390602D01*
X119720814Y-55390609D01*
X119589711Y-55478210D01*
X119589707Y-55478213D01*
X119478213Y-55589707D01*
X119478210Y-55589711D01*
X119390609Y-55720814D01*
X119390602Y-55720827D01*
X119330264Y-55866498D01*
X119330261Y-55866510D01*
X119299500Y-56021153D01*
X119299500Y-56178846D01*
X119330261Y-56333489D01*
X119330264Y-56333501D01*
X119390602Y-56479172D01*
X119390609Y-56479185D01*
X119478210Y-56610288D01*
X119478213Y-56610292D01*
X119589707Y-56721786D01*
X119589711Y-56721789D01*
X119720814Y-56809390D01*
X119720827Y-56809397D01*
X119866498Y-56869735D01*
X119866503Y-56869737D01*
X119993835Y-56895065D01*
X120021153Y-56900499D01*
X120021156Y-56900500D01*
X120021158Y-56900500D01*
X120178844Y-56900500D01*
X120178845Y-56900499D01*
X120333497Y-56869737D01*
X120479179Y-56809394D01*
X120610289Y-56721789D01*
X120721789Y-56610289D01*
X120809394Y-56479179D01*
X120869737Y-56333497D01*
X120890272Y-56230261D01*
X120900638Y-56178150D01*
X120909402Y-56161393D01*
X120913423Y-56142914D01*
X120932167Y-56117875D01*
X120933023Y-56116239D01*
X120934528Y-56114706D01*
X120975508Y-56073726D01*
X121036830Y-56040242D01*
X121106522Y-56045226D01*
X121162455Y-56087098D01*
X121166289Y-56092516D01*
X121198601Y-56140873D01*
X121219480Y-56207550D01*
X121219500Y-56209765D01*
X121219500Y-57057130D01*
X121219499Y-57057148D01*
X121219499Y-57222854D01*
X121219498Y-57222854D01*
X121260423Y-57375585D01*
X121284622Y-57417499D01*
X121284624Y-57417501D01*
X121339479Y-57512514D01*
X121339481Y-57512517D01*
X121458349Y-57631385D01*
X121458355Y-57631390D01*
X121559781Y-57732816D01*
X121593266Y-57794139D01*
X121596100Y-57820497D01*
X121596100Y-64109745D01*
X119037597Y-64083246D01*
X118985789Y-64005711D01*
X118985786Y-64005707D01*
X118874292Y-63894213D01*
X118874288Y-63894210D01*
X118743185Y-63806609D01*
X118743172Y-63806602D01*
X118597501Y-63746264D01*
X118597489Y-63746261D01*
X118442845Y-63715500D01*
X118442842Y-63715500D01*
X118285158Y-63715500D01*
X118285155Y-63715500D01*
X118130510Y-63746261D01*
X118130498Y-63746264D01*
X117984827Y-63806602D01*
X117984814Y-63806609D01*
X117853711Y-63894210D01*
X117853707Y-63894213D01*
X117742213Y-64005707D01*
X117742210Y-64005711D01*
X117699661Y-64069389D01*
X117186500Y-64064074D01*
X117186500Y-54686100D01*
X117206185Y-54619061D01*
X117258989Y-54573306D01*
X117310500Y-54562100D01*
X120489303Y-54562100D01*
X120556342Y-54581785D01*
G37*
%TD.AperFunction*%
%TA.AperFunction,Conductor*%
G36*
X116012797Y-53515321D02*
G01*
X116058954Y-53567774D01*
X116069426Y-53636854D01*
X116053945Y-53682144D01*
X116026425Y-53729811D01*
X116026423Y-53729816D01*
X115985500Y-53882543D01*
X115985500Y-64051635D01*
X115466543Y-64046260D01*
X115442287Y-53623341D01*
X115461816Y-53556256D01*
X115514513Y-53510379D01*
X115565337Y-53499057D01*
X115945611Y-53496150D01*
X116012797Y-53515321D01*
G37*
%TD.AperFunction*%
%TD*%
%TA.AperFunction,Conductor*%
%TO.N,+3.3V*%
G36*
X170757210Y-109366685D02*
G01*
X170802965Y-109419489D01*
X170814168Y-109471827D01*
X170693796Y-127527440D01*
X170693797Y-127527440D01*
X170688000Y-128397000D01*
X167767000Y-128397000D01*
X168021000Y-109347000D01*
X169485884Y-109347000D01*
X170690171Y-109347000D01*
X170757210Y-109366685D01*
G37*
%TD.AperFunction*%
%TD*%
%TA.AperFunction,Conductor*%
%TO.N,+5V*%
G36*
X109930683Y-49019685D02*
G01*
X109976438Y-49072489D01*
X109987641Y-49123184D01*
X109993414Y-49999998D01*
X109993414Y-50000000D01*
X103000000Y-50000000D01*
X103000000Y-54479123D01*
X102989870Y-54503579D01*
X102989868Y-54503587D01*
X102949500Y-54706530D01*
X102949500Y-54913469D01*
X102989868Y-55116412D01*
X102989870Y-55116420D01*
X103000000Y-55140875D01*
X103000000Y-58738414D01*
X102933788Y-58868360D01*
X102933787Y-58868363D01*
X102877829Y-59040589D01*
X102849500Y-59219448D01*
X102849500Y-59400551D01*
X102877829Y-59579410D01*
X102933787Y-59751636D01*
X102933788Y-59751639D01*
X103000000Y-59881584D01*
X103000000Y-63810000D01*
X110080988Y-63299528D01*
X110400128Y-111765493D01*
X110400129Y-111765494D01*
X107823000Y-111760000D01*
X107823000Y-117768765D01*
X104854618Y-114800383D01*
X104821133Y-114739060D01*
X104818299Y-114712702D01*
X104818299Y-113693329D01*
X104818298Y-113693323D01*
X104818297Y-113693316D01*
X104811891Y-113633717D01*
X104761596Y-113498869D01*
X104761595Y-113498868D01*
X104761593Y-113498864D01*
X104675347Y-113383655D01*
X104675344Y-113383652D01*
X104560135Y-113297406D01*
X104560128Y-113297402D01*
X104425282Y-113247108D01*
X104425283Y-113247108D01*
X104365683Y-113240701D01*
X104365681Y-113240700D01*
X104365673Y-113240700D01*
X104365664Y-113240700D01*
X102898329Y-113240700D01*
X102898323Y-113240701D01*
X102838716Y-113247108D01*
X102703871Y-113297402D01*
X102703864Y-113297406D01*
X102588655Y-113383652D01*
X102588652Y-113383655D01*
X102502406Y-113498864D01*
X102502402Y-113498871D01*
X102452108Y-113633717D01*
X102445701Y-113693316D01*
X102445701Y-113693323D01*
X102445700Y-113693335D01*
X102445700Y-115160670D01*
X102445701Y-115160676D01*
X102452108Y-115220283D01*
X102502402Y-115355128D01*
X102502406Y-115355135D01*
X102588652Y-115470344D01*
X102588655Y-115470347D01*
X102703864Y-115556593D01*
X102703871Y-115556597D01*
X102838717Y-115606891D01*
X102838716Y-115606891D01*
X102845644Y-115607635D01*
X102898327Y-115613300D01*
X103176412Y-115613299D01*
X103243449Y-115632983D01*
X103289204Y-115685787D01*
X103299148Y-115754946D01*
X103270123Y-115818501D01*
X103214730Y-115855229D01*
X103176618Y-115867612D01*
X103010242Y-115952385D01*
X102859176Y-116062142D01*
X102727142Y-116194176D01*
X102617385Y-116345242D01*
X102532614Y-116511616D01*
X102474910Y-116689210D01*
X102474340Y-116692809D01*
X102445700Y-116873636D01*
X102445700Y-117060364D01*
X102474911Y-117244793D01*
X102532613Y-117422381D01*
X102617385Y-117588757D01*
X102727141Y-117739822D01*
X102859178Y-117871859D01*
X103010243Y-117981615D01*
X103176619Y-118066387D01*
X103338758Y-118119069D01*
X103396434Y-118158507D01*
X103423632Y-118222865D01*
X103411717Y-118291712D01*
X103364473Y-118343187D01*
X103338760Y-118354929D01*
X103176619Y-118407613D01*
X103176616Y-118407614D01*
X103010242Y-118492385D01*
X102859176Y-118602142D01*
X102727142Y-118734176D01*
X102617385Y-118885242D01*
X102532614Y-119051616D01*
X102474910Y-119229210D01*
X102445700Y-119413636D01*
X102445700Y-119600364D01*
X102474911Y-119784793D01*
X102532613Y-119962381D01*
X102617385Y-120128757D01*
X102727141Y-120279822D01*
X102859178Y-120411859D01*
X103010243Y-120521615D01*
X103176619Y-120606387D01*
X103338758Y-120659069D01*
X103396434Y-120698507D01*
X103423632Y-120762865D01*
X103411717Y-120831712D01*
X103364473Y-120883187D01*
X103338760Y-120894929D01*
X103176619Y-120947613D01*
X103176616Y-120947614D01*
X103010242Y-121032385D01*
X102859176Y-121142142D01*
X102727142Y-121274176D01*
X102617385Y-121425242D01*
X102532614Y-121591616D01*
X102474910Y-121769210D01*
X102463365Y-121842102D01*
X102445700Y-121953636D01*
X102445700Y-122140364D01*
X102474911Y-122324793D01*
X102532613Y-122502381D01*
X102617385Y-122668757D01*
X102727141Y-122819822D01*
X102859178Y-122951859D01*
X103010243Y-123061615D01*
X103176619Y-123146387D01*
X103354207Y-123204089D01*
X103538636Y-123233300D01*
X103538637Y-123233300D01*
X103725363Y-123233300D01*
X103725364Y-123233300D01*
X103909793Y-123204089D01*
X104087381Y-123146387D01*
X104253757Y-123061615D01*
X104404822Y-122951859D01*
X104536859Y-122819822D01*
X104646615Y-122668757D01*
X104731387Y-122502381D01*
X104789089Y-122324793D01*
X104818300Y-122140364D01*
X104818300Y-121953636D01*
X104800634Y-121842100D01*
X104809588Y-121772809D01*
X104854584Y-121719357D01*
X104921336Y-121698717D01*
X104988650Y-121717442D01*
X105010788Y-121735023D01*
X107823000Y-124547235D01*
X107823000Y-125476000D01*
X108768999Y-125493234D01*
X109300552Y-126024787D01*
X109334037Y-126086110D01*
X109329053Y-126155802D01*
X109287181Y-126211735D01*
X109221717Y-126236152D01*
X109210552Y-126236446D01*
X97539981Y-126018108D01*
X97473321Y-125997173D01*
X97428562Y-125943523D01*
X97418300Y-125894130D01*
X97418300Y-86604713D01*
X107189500Y-86604713D01*
X107189500Y-86817286D01*
X107222753Y-87027239D01*
X107288444Y-87229414D01*
X107384951Y-87418820D01*
X107509890Y-87590786D01*
X107660213Y-87741109D01*
X107832179Y-87866048D01*
X107832181Y-87866049D01*
X107832184Y-87866051D01*
X108021588Y-87962557D01*
X108223757Y-88028246D01*
X108433713Y-88061500D01*
X108433714Y-88061500D01*
X108646286Y-88061500D01*
X108646287Y-88061500D01*
X108856243Y-88028246D01*
X109058412Y-87962557D01*
X109247816Y-87866051D01*
X109269789Y-87850086D01*
X109419786Y-87741109D01*
X109419788Y-87741106D01*
X109419792Y-87741104D01*
X109570104Y-87590792D01*
X109570106Y-87590788D01*
X109570109Y-87590786D01*
X109695048Y-87418820D01*
X109695047Y-87418820D01*
X109695051Y-87418816D01*
X109791557Y-87229412D01*
X109857246Y-87027243D01*
X109890500Y-86817287D01*
X109890500Y-86604713D01*
X109857246Y-86394757D01*
X109791557Y-86192588D01*
X109695051Y-86003184D01*
X109695049Y-86003181D01*
X109695048Y-86003179D01*
X109570109Y-85831213D01*
X109456181Y-85717285D01*
X109422696Y-85655962D01*
X109427680Y-85586270D01*
X109469552Y-85530337D01*
X109500529Y-85513422D01*
X109632086Y-85464354D01*
X109632093Y-85464350D01*
X109747187Y-85378190D01*
X109747190Y-85378187D01*
X109833350Y-85263093D01*
X109833354Y-85263086D01*
X109883596Y-85128379D01*
X109883598Y-85128372D01*
X109889999Y-85068844D01*
X109890000Y-85068827D01*
X109890000Y-84421000D01*
X108973012Y-84421000D01*
X109005925Y-84363993D01*
X109040000Y-84236826D01*
X109040000Y-84105174D01*
X109005925Y-83978007D01*
X108973012Y-83921000D01*
X109890000Y-83921000D01*
X109890000Y-83273172D01*
X109889999Y-83273155D01*
X109883598Y-83213627D01*
X109883596Y-83213620D01*
X109833354Y-83078913D01*
X109833350Y-83078906D01*
X109747190Y-82963812D01*
X109747187Y-82963809D01*
X109632093Y-82877649D01*
X109632086Y-82877645D01*
X109497379Y-82827403D01*
X109497372Y-82827401D01*
X109437844Y-82821000D01*
X108790000Y-82821000D01*
X108790000Y-83737988D01*
X108732993Y-83705075D01*
X108605826Y-83671000D01*
X108474174Y-83671000D01*
X108347007Y-83705075D01*
X108290000Y-83737988D01*
X108290000Y-82821000D01*
X107642155Y-82821000D01*
X107582627Y-82827401D01*
X107582620Y-82827403D01*
X107447913Y-82877645D01*
X107447906Y-82877649D01*
X107332812Y-82963809D01*
X107332809Y-82963812D01*
X107246649Y-83078906D01*
X107246645Y-83078913D01*
X107196403Y-83213620D01*
X107196401Y-83213627D01*
X107190000Y-83273155D01*
X107190000Y-83921000D01*
X108106988Y-83921000D01*
X108074075Y-83978007D01*
X108040000Y-84105174D01*
X108040000Y-84236826D01*
X108074075Y-84363993D01*
X108106988Y-84421000D01*
X107190000Y-84421000D01*
X107190000Y-85068844D01*
X107196401Y-85128372D01*
X107196403Y-85128379D01*
X107246645Y-85263086D01*
X107246649Y-85263093D01*
X107332809Y-85378187D01*
X107332812Y-85378190D01*
X107447906Y-85464350D01*
X107447913Y-85464354D01*
X107579470Y-85513422D01*
X107635404Y-85555293D01*
X107659821Y-85620758D01*
X107644969Y-85689031D01*
X107623819Y-85717285D01*
X107509889Y-85831215D01*
X107384951Y-86003179D01*
X107288444Y-86192585D01*
X107222753Y-86394760D01*
X107189500Y-86604713D01*
X97418300Y-86604713D01*
X97418300Y-75640031D01*
X99099937Y-75640031D01*
X99099937Y-75997968D01*
X99135020Y-76354192D01*
X99204851Y-76705254D01*
X99308759Y-77047792D01*
X99445739Y-77378491D01*
X99445741Y-77378496D01*
X99614465Y-77694156D01*
X99614476Y-77694174D01*
X99813329Y-77991779D01*
X99813339Y-77991793D01*
X100040417Y-78268487D01*
X100293512Y-78521582D01*
X100293517Y-78521586D01*
X100293518Y-78521587D01*
X100570212Y-78748665D01*
X100867832Y-78947528D01*
X100867841Y-78947533D01*
X100867843Y-78947534D01*
X101183503Y-79116258D01*
X101183505Y-79116258D01*
X101183511Y-79116262D01*
X101514209Y-79253241D01*
X101856740Y-79357147D01*
X102207807Y-79426979D01*
X102564028Y-79462063D01*
X102564031Y-79462063D01*
X102921969Y-79462063D01*
X102921972Y-79462063D01*
X103278193Y-79426979D01*
X103629260Y-79357147D01*
X103971791Y-79253241D01*
X104302489Y-79116262D01*
X104618168Y-78947528D01*
X104915788Y-78748665D01*
X105192482Y-78521587D01*
X105445587Y-78268482D01*
X105672665Y-77991788D01*
X105871528Y-77694168D01*
X106040262Y-77378489D01*
X106177241Y-77047791D01*
X106281147Y-76705260D01*
X106350979Y-76354193D01*
X106386063Y-75997972D01*
X106386063Y-75640028D01*
X106350979Y-75283807D01*
X106281147Y-74932740D01*
X106177241Y-74590209D01*
X106040262Y-74259511D01*
X105871528Y-73943832D01*
X105672665Y-73646212D01*
X105445587Y-73369518D01*
X105445586Y-73369517D01*
X105445582Y-73369512D01*
X105192487Y-73116417D01*
X104915793Y-72889339D01*
X104915792Y-72889338D01*
X104915788Y-72889335D01*
X104618168Y-72690472D01*
X104618163Y-72690469D01*
X104618156Y-72690465D01*
X104302496Y-72521741D01*
X104302491Y-72521739D01*
X103971792Y-72384759D01*
X103629254Y-72280851D01*
X103278191Y-72211020D01*
X103278192Y-72211020D01*
X103009900Y-72184597D01*
X102921972Y-72175937D01*
X102564028Y-72175937D01*
X102482784Y-72183938D01*
X102207807Y-72211020D01*
X101856745Y-72280851D01*
X101514207Y-72384759D01*
X101183508Y-72521739D01*
X101183503Y-72521741D01*
X100867843Y-72690465D01*
X100867825Y-72690476D01*
X100570220Y-72889329D01*
X100570206Y-72889339D01*
X100293512Y-73116417D01*
X100040417Y-73369512D01*
X99813339Y-73646206D01*
X99813329Y-73646220D01*
X99614476Y-73943825D01*
X99614465Y-73943843D01*
X99445741Y-74259503D01*
X99445739Y-74259508D01*
X99308759Y-74590207D01*
X99204851Y-74932745D01*
X99135020Y-75283807D01*
X99099937Y-75640031D01*
X97418300Y-75640031D01*
X97418300Y-49124000D01*
X97437985Y-49056961D01*
X97490789Y-49011206D01*
X97542300Y-49000000D01*
X109863644Y-49000000D01*
X109930683Y-49019685D01*
G37*
%TD.AperFunction*%
%TA.AperFunction,Conductor*%
G36*
X104988650Y-116637442D02*
G01*
X105010788Y-116655023D01*
X107823000Y-119467235D01*
X107823000Y-122848765D01*
X104829654Y-119855419D01*
X104796169Y-119794096D01*
X104794862Y-119748343D01*
X104818300Y-119600364D01*
X104818300Y-119413636D01*
X104789089Y-119229207D01*
X104731387Y-119051619D01*
X104646615Y-118885243D01*
X104536859Y-118734178D01*
X104404822Y-118602141D01*
X104253757Y-118492385D01*
X104087381Y-118407613D01*
X103925239Y-118354929D01*
X103867566Y-118315494D01*
X103840367Y-118251135D01*
X103852282Y-118182289D01*
X103899526Y-118130813D01*
X103925236Y-118119071D01*
X104087381Y-118066387D01*
X104253757Y-117981615D01*
X104404822Y-117871859D01*
X104536859Y-117739822D01*
X104646615Y-117588757D01*
X104731387Y-117422381D01*
X104789089Y-117244793D01*
X104818300Y-117060364D01*
X104818300Y-116873636D01*
X104800634Y-116762100D01*
X104809588Y-116692809D01*
X104854584Y-116639357D01*
X104921336Y-116618717D01*
X104988650Y-116637442D01*
G37*
%TD.AperFunction*%
%TD*%
%TA.AperFunction,Conductor*%
%TO.N,+5V*%
G36*
X167261458Y-111886734D02*
G01*
X167328455Y-111906562D01*
X167374097Y-111959463D01*
X167385190Y-112011540D01*
X167372666Y-113938618D01*
X167352547Y-114005528D01*
X167299446Y-114050939D01*
X167230225Y-114060433D01*
X167166859Y-114030995D01*
X167138184Y-113994107D01*
X167074186Y-113868504D01*
X167057716Y-113845836D01*
X167057716Y-113845835D01*
X166487277Y-114416274D01*
X166462374Y-114323331D01*
X166405526Y-114224869D01*
X166325131Y-114144474D01*
X166226669Y-114087626D01*
X166133724Y-114062722D01*
X166704162Y-113492282D01*
X166681491Y-113475811D01*
X166515191Y-113391077D01*
X166337672Y-113333397D01*
X166153330Y-113304200D01*
X165966670Y-113304200D01*
X165782327Y-113333397D01*
X165604808Y-113391077D01*
X165438502Y-113475814D01*
X165415836Y-113492282D01*
X165415835Y-113492282D01*
X165986275Y-114062721D01*
X165893331Y-114087626D01*
X165794869Y-114144474D01*
X165714474Y-114224869D01*
X165657626Y-114323331D01*
X165632722Y-114416275D01*
X165062282Y-113845835D01*
X165062282Y-113845836D01*
X165045814Y-113868502D01*
X164961077Y-114034808D01*
X164903397Y-114212327D01*
X164874200Y-114396669D01*
X164874200Y-114583330D01*
X164903397Y-114767672D01*
X164961077Y-114945191D01*
X165045811Y-115111491D01*
X165062282Y-115134162D01*
X165632721Y-114563723D01*
X165657626Y-114656669D01*
X165714474Y-114755131D01*
X165794869Y-114835526D01*
X165893331Y-114892374D01*
X165986275Y-114917278D01*
X165415835Y-115487716D01*
X165438504Y-115504186D01*
X165604808Y-115588922D01*
X165767566Y-115641806D01*
X165825242Y-115681243D01*
X165852440Y-115745602D01*
X165840525Y-115814448D01*
X165793281Y-115865924D01*
X165767568Y-115877667D01*
X165604619Y-115930613D01*
X165604616Y-115930614D01*
X165604614Y-115930615D01*
X165438242Y-116015385D01*
X165287176Y-116125142D01*
X165155142Y-116257176D01*
X165045385Y-116408242D01*
X164960614Y-116574616D01*
X164902910Y-116752210D01*
X164873700Y-116936636D01*
X164873700Y-117123363D01*
X164895905Y-117263564D01*
X164902911Y-117307793D01*
X164960613Y-117485381D01*
X165045385Y-117651757D01*
X165155141Y-117802822D01*
X165287178Y-117934859D01*
X165438243Y-118044615D01*
X165604619Y-118129387D01*
X165766758Y-118182069D01*
X165824434Y-118221507D01*
X165851632Y-118285865D01*
X165839717Y-118354712D01*
X165792473Y-118406187D01*
X165766760Y-118417929D01*
X165649018Y-118456187D01*
X165604616Y-118470614D01*
X165438242Y-118555385D01*
X165287176Y-118665142D01*
X165155142Y-118797176D01*
X165045385Y-118948242D01*
X164960614Y-119114616D01*
X164902910Y-119292210D01*
X164873700Y-119476636D01*
X164873700Y-119663363D01*
X164891365Y-119774897D01*
X164882410Y-119844191D01*
X164837414Y-119897643D01*
X164770662Y-119918282D01*
X164703349Y-119899557D01*
X164681211Y-119881976D01*
X159662618Y-114863383D01*
X159629133Y-114802060D01*
X159626299Y-114775702D01*
X159626299Y-113756329D01*
X159626298Y-113756323D01*
X159626297Y-113756316D01*
X159619891Y-113696717D01*
X159618630Y-113693335D01*
X159577431Y-113582874D01*
X159569596Y-113561869D01*
X159569593Y-113561864D01*
X159483347Y-113446655D01*
X159483344Y-113446652D01*
X159368135Y-113360406D01*
X159368128Y-113360402D01*
X159233282Y-113310108D01*
X159233283Y-113310108D01*
X159173683Y-113303701D01*
X159173681Y-113303700D01*
X159173673Y-113303700D01*
X159173664Y-113303700D01*
X157706329Y-113303700D01*
X157706323Y-113303701D01*
X157646716Y-113310108D01*
X157511871Y-113360402D01*
X157511864Y-113360406D01*
X157396655Y-113446652D01*
X157396652Y-113446655D01*
X157310406Y-113561864D01*
X157310402Y-113561871D01*
X157260108Y-113696717D01*
X157257275Y-113723074D01*
X157253701Y-113756323D01*
X157253700Y-113756335D01*
X157253700Y-115223670D01*
X157253701Y-115223676D01*
X157260108Y-115283283D01*
X157310402Y-115418128D01*
X157310406Y-115418135D01*
X157396652Y-115533344D01*
X157396655Y-115533347D01*
X157511864Y-115619593D01*
X157511871Y-115619597D01*
X157646717Y-115669891D01*
X157646716Y-115669891D01*
X157653644Y-115670635D01*
X157706327Y-115676300D01*
X157984412Y-115676299D01*
X158051449Y-115695983D01*
X158097204Y-115748787D01*
X158107148Y-115817946D01*
X158078123Y-115881501D01*
X158022730Y-115918229D01*
X157984618Y-115930612D01*
X157818242Y-116015385D01*
X157667176Y-116125142D01*
X157535142Y-116257176D01*
X157425385Y-116408242D01*
X157340614Y-116574616D01*
X157282910Y-116752210D01*
X157253700Y-116936636D01*
X157253700Y-117123363D01*
X157275905Y-117263564D01*
X157282911Y-117307793D01*
X157340613Y-117485381D01*
X157425385Y-117651757D01*
X157535141Y-117802822D01*
X157667178Y-117934859D01*
X157818243Y-118044615D01*
X157984619Y-118129387D01*
X158146758Y-118182069D01*
X158204434Y-118221507D01*
X158231632Y-118285865D01*
X158219717Y-118354712D01*
X158172473Y-118406187D01*
X158146760Y-118417929D01*
X158029018Y-118456187D01*
X157984616Y-118470614D01*
X157818242Y-118555385D01*
X157667176Y-118665142D01*
X157535142Y-118797176D01*
X157425385Y-118948242D01*
X157340614Y-119114616D01*
X157282910Y-119292210D01*
X157253700Y-119476636D01*
X157253700Y-119663363D01*
X157275905Y-119803564D01*
X157282911Y-119847793D01*
X157340613Y-120025381D01*
X157425385Y-120191757D01*
X157535141Y-120342822D01*
X157667178Y-120474859D01*
X157818243Y-120584615D01*
X157984619Y-120669387D01*
X158146758Y-120722069D01*
X158204434Y-120761507D01*
X158231632Y-120825865D01*
X158219717Y-120894712D01*
X158172473Y-120946187D01*
X158146760Y-120957929D01*
X158008323Y-121002911D01*
X157984616Y-121010614D01*
X157818242Y-121095385D01*
X157667176Y-121205142D01*
X157535142Y-121337176D01*
X157425385Y-121488242D01*
X157340614Y-121654616D01*
X157282910Y-121832210D01*
X157264384Y-121949180D01*
X157253700Y-122016636D01*
X157253700Y-122203364D01*
X157261619Y-122253363D01*
X157275905Y-122343564D01*
X157282911Y-122387793D01*
X157340613Y-122565381D01*
X157425385Y-122731757D01*
X157535141Y-122882822D01*
X157667178Y-123014859D01*
X157818243Y-123124615D01*
X157984619Y-123209387D01*
X158162207Y-123267089D01*
X158346636Y-123296300D01*
X158346637Y-123296300D01*
X158533363Y-123296300D01*
X158533364Y-123296300D01*
X158717793Y-123267089D01*
X158895381Y-123209387D01*
X159061757Y-123124615D01*
X159212822Y-123014859D01*
X159344859Y-122882822D01*
X159454615Y-122731757D01*
X159539387Y-122565381D01*
X159597089Y-122387793D01*
X159626300Y-122203364D01*
X159626300Y-122016636D01*
X159608634Y-121905100D01*
X159617588Y-121835809D01*
X159662584Y-121782357D01*
X159729336Y-121761717D01*
X159796650Y-121780442D01*
X159818788Y-121798023D01*
X160623181Y-122602416D01*
X160656666Y-122663739D01*
X160659500Y-122690097D01*
X160659500Y-126312327D01*
X160639815Y-126379366D01*
X160587011Y-126425121D01*
X160533241Y-126436306D01*
X149102241Y-126228049D01*
X149035571Y-126207147D01*
X148990786Y-126153518D01*
X148980500Y-126104070D01*
X148980500Y-123530945D01*
X148980500Y-123530943D01*
X148939577Y-123378216D01*
X148939577Y-123378215D01*
X148875418Y-123267089D01*
X148860520Y-123241284D01*
X148860518Y-123241282D01*
X148860517Y-123241280D01*
X148744397Y-123125160D01*
X148744374Y-123125139D01*
X145587654Y-119968419D01*
X145554169Y-119907096D01*
X145552862Y-119861343D01*
X145576300Y-119713364D01*
X145576300Y-119526636D01*
X145547089Y-119342207D01*
X145489387Y-119164619D01*
X145404615Y-118998243D01*
X145294859Y-118847178D01*
X145162822Y-118715141D01*
X145011757Y-118605385D01*
X144845381Y-118520613D01*
X144683239Y-118467929D01*
X144625566Y-118428494D01*
X144598367Y-118364135D01*
X144610282Y-118295289D01*
X144657526Y-118243813D01*
X144683236Y-118232071D01*
X144845381Y-118179387D01*
X145011757Y-118094615D01*
X145162822Y-117984859D01*
X145294859Y-117852822D01*
X145404615Y-117701757D01*
X145489387Y-117535381D01*
X145547089Y-117357793D01*
X145576300Y-117173364D01*
X145576300Y-116986636D01*
X145565288Y-116917110D01*
X145574242Y-116847818D01*
X145619239Y-116794366D01*
X145685990Y-116773726D01*
X145753304Y-116792451D01*
X145775442Y-116810032D01*
X150807511Y-121842101D01*
X150840996Y-121903424D01*
X150842303Y-121949180D01*
X150823700Y-122066636D01*
X150823700Y-122253363D01*
X150844991Y-122387793D01*
X150852911Y-122437793D01*
X150910613Y-122615381D01*
X150995385Y-122781757D01*
X151105141Y-122932822D01*
X151237178Y-123064859D01*
X151388243Y-123174615D01*
X151554619Y-123259387D01*
X151732207Y-123317089D01*
X151916636Y-123346300D01*
X151916637Y-123346300D01*
X152103363Y-123346300D01*
X152103364Y-123346300D01*
X152287793Y-123317089D01*
X152465381Y-123259387D01*
X152631757Y-123174615D01*
X152782822Y-123064859D01*
X152914859Y-122932822D01*
X153024615Y-122781757D01*
X153109387Y-122615381D01*
X153167089Y-122437793D01*
X153196300Y-122253364D01*
X153196300Y-122066636D01*
X153167089Y-121882207D01*
X153109387Y-121704619D01*
X153024615Y-121538243D01*
X152914859Y-121387178D01*
X152782822Y-121255141D01*
X152631757Y-121145385D01*
X152465381Y-121060613D01*
X152303239Y-121007929D01*
X152245566Y-120968494D01*
X152218367Y-120904135D01*
X152230282Y-120835289D01*
X152277526Y-120783813D01*
X152303236Y-120772071D01*
X152465381Y-120719387D01*
X152631757Y-120634615D01*
X152782822Y-120524859D01*
X152914859Y-120392822D01*
X153024615Y-120241757D01*
X153109387Y-120075381D01*
X153167089Y-119897793D01*
X153196300Y-119713364D01*
X153196300Y-119526636D01*
X153167089Y-119342207D01*
X153109387Y-119164619D01*
X153024615Y-118998243D01*
X152914859Y-118847178D01*
X152782822Y-118715141D01*
X152631757Y-118605385D01*
X152465381Y-118520613D01*
X152303239Y-118467929D01*
X152245566Y-118428494D01*
X152218367Y-118364135D01*
X152230282Y-118295289D01*
X152277526Y-118243813D01*
X152303236Y-118232071D01*
X152465381Y-118179387D01*
X152631757Y-118094615D01*
X152782822Y-117984859D01*
X152914859Y-117852822D01*
X153024615Y-117701757D01*
X153109387Y-117535381D01*
X153167089Y-117357793D01*
X153196300Y-117173364D01*
X153196300Y-116986636D01*
X153167089Y-116802207D01*
X153109387Y-116624619D01*
X153024615Y-116458243D01*
X152914859Y-116307178D01*
X152782822Y-116175141D01*
X152631757Y-116065385D01*
X152465381Y-115980613D01*
X152302432Y-115927667D01*
X152244757Y-115888230D01*
X152217559Y-115823872D01*
X152229474Y-115755025D01*
X152276718Y-115703550D01*
X152302433Y-115691806D01*
X152465191Y-115638922D01*
X152631496Y-115554186D01*
X152654162Y-115537717D01*
X152654162Y-115537716D01*
X152083724Y-114967277D01*
X152176669Y-114942374D01*
X152275131Y-114885526D01*
X152355526Y-114805131D01*
X152412374Y-114706669D01*
X152437278Y-114613724D01*
X153007716Y-115184162D01*
X153007717Y-115184162D01*
X153024186Y-115161496D01*
X153108922Y-114995191D01*
X153166602Y-114817672D01*
X153195800Y-114633330D01*
X153195800Y-114446669D01*
X153166602Y-114262327D01*
X153108922Y-114084808D01*
X153024186Y-113918504D01*
X153007716Y-113895836D01*
X153007716Y-113895835D01*
X152437277Y-114466274D01*
X152412374Y-114373331D01*
X152355526Y-114274869D01*
X152275131Y-114194474D01*
X152176669Y-114137626D01*
X152083724Y-114112722D01*
X152654162Y-113542282D01*
X152631491Y-113525811D01*
X152465191Y-113441077D01*
X152287672Y-113383397D01*
X152103330Y-113354200D01*
X151916670Y-113354200D01*
X151732327Y-113383397D01*
X151554808Y-113441077D01*
X151388502Y-113525814D01*
X151365836Y-113542282D01*
X151365835Y-113542282D01*
X151936275Y-114112721D01*
X151843331Y-114137626D01*
X151744869Y-114194474D01*
X151664474Y-114274869D01*
X151607626Y-114373331D01*
X151582722Y-114466275D01*
X151012282Y-113895835D01*
X151012282Y-113895836D01*
X150995814Y-113918502D01*
X150911077Y-114084808D01*
X150853397Y-114262327D01*
X150824200Y-114446669D01*
X150824200Y-114633330D01*
X150853397Y-114817672D01*
X150911077Y-114995191D01*
X150995811Y-115161491D01*
X151012282Y-115184162D01*
X151582721Y-114613723D01*
X151607626Y-114706669D01*
X151664474Y-114805131D01*
X151744869Y-114885526D01*
X151843331Y-114942374D01*
X151936275Y-114967278D01*
X151365835Y-115537716D01*
X151388504Y-115554186D01*
X151554808Y-115638922D01*
X151717566Y-115691806D01*
X151775242Y-115731243D01*
X151802440Y-115795602D01*
X151790525Y-115864448D01*
X151743281Y-115915924D01*
X151717568Y-115927667D01*
X151554619Y-115980613D01*
X151554616Y-115980614D01*
X151554614Y-115980615D01*
X151388242Y-116065385D01*
X151237176Y-116175142D01*
X151105142Y-116307176D01*
X150995385Y-116458242D01*
X150910614Y-116624616D01*
X150852910Y-116802210D01*
X150823700Y-116986636D01*
X150823700Y-117173363D01*
X150844991Y-117307793D01*
X150852911Y-117357793D01*
X150910613Y-117535381D01*
X150995385Y-117701757D01*
X151105141Y-117852822D01*
X151237178Y-117984859D01*
X151388243Y-118094615D01*
X151554619Y-118179387D01*
X151716758Y-118232069D01*
X151774434Y-118271507D01*
X151801632Y-118335865D01*
X151789717Y-118404712D01*
X151742473Y-118456187D01*
X151716760Y-118467929D01*
X151560525Y-118518694D01*
X151554616Y-118520614D01*
X151388242Y-118605385D01*
X151237176Y-118715142D01*
X151105142Y-118847176D01*
X150995385Y-118998242D01*
X150910614Y-119164616D01*
X150852910Y-119342210D01*
X150838624Y-119432410D01*
X150823700Y-119526636D01*
X150823700Y-119713364D01*
X150829240Y-119748340D01*
X150834712Y-119782889D01*
X150825756Y-119852183D01*
X150780759Y-119905634D01*
X150714008Y-119926273D01*
X150646694Y-119907548D01*
X150624557Y-119889967D01*
X145612618Y-114878028D01*
X145579133Y-114816705D01*
X145576299Y-114790347D01*
X145576299Y-113806329D01*
X145576298Y-113806323D01*
X145576297Y-113806316D01*
X145569891Y-113746717D01*
X145561073Y-113723074D01*
X145527431Y-113632874D01*
X145519596Y-113611869D01*
X145519593Y-113611864D01*
X145433347Y-113496655D01*
X145433344Y-113496652D01*
X145318135Y-113410406D01*
X145318128Y-113410402D01*
X145183282Y-113360108D01*
X145183283Y-113360108D01*
X145123683Y-113353701D01*
X145123681Y-113353700D01*
X145123673Y-113353700D01*
X145123664Y-113353700D01*
X143656329Y-113353700D01*
X143656323Y-113353701D01*
X143596716Y-113360108D01*
X143461871Y-113410402D01*
X143461864Y-113410406D01*
X143346655Y-113496652D01*
X143346652Y-113496655D01*
X143260406Y-113611864D01*
X143260402Y-113611871D01*
X143210108Y-113746717D01*
X143203789Y-113805502D01*
X143203701Y-113806323D01*
X143203700Y-113806335D01*
X143203700Y-115273670D01*
X143203701Y-115273676D01*
X143210108Y-115333283D01*
X143260402Y-115468128D01*
X143260406Y-115468135D01*
X143346652Y-115583344D01*
X143346655Y-115583347D01*
X143461864Y-115669593D01*
X143461871Y-115669597D01*
X143596717Y-115719891D01*
X143596716Y-115719891D01*
X143603644Y-115720635D01*
X143656327Y-115726300D01*
X143934412Y-115726299D01*
X144001449Y-115745983D01*
X144047204Y-115798787D01*
X144057148Y-115867946D01*
X144028123Y-115931501D01*
X143972730Y-115968229D01*
X143934618Y-115980612D01*
X143768242Y-116065385D01*
X143617176Y-116175142D01*
X143485142Y-116307176D01*
X143375385Y-116458242D01*
X143290614Y-116624616D01*
X143232910Y-116802210D01*
X143203700Y-116986636D01*
X143203700Y-117173363D01*
X143224991Y-117307793D01*
X143232911Y-117357793D01*
X143290613Y-117535381D01*
X143375385Y-117701757D01*
X143485141Y-117852822D01*
X143617178Y-117984859D01*
X143768243Y-118094615D01*
X143934619Y-118179387D01*
X144096758Y-118232069D01*
X144154434Y-118271507D01*
X144181632Y-118335865D01*
X144169717Y-118404712D01*
X144122473Y-118456187D01*
X144096760Y-118467929D01*
X143940525Y-118518694D01*
X143934616Y-118520614D01*
X143768242Y-118605385D01*
X143617176Y-118715142D01*
X143485142Y-118847176D01*
X143375385Y-118998242D01*
X143290614Y-119164616D01*
X143232910Y-119342210D01*
X143203700Y-119526636D01*
X143203700Y-119713363D01*
X143230405Y-119881976D01*
X143232911Y-119897793D01*
X143290613Y-120075381D01*
X143375385Y-120241757D01*
X143485141Y-120392822D01*
X143617178Y-120524859D01*
X143768243Y-120634615D01*
X143934619Y-120719387D01*
X144096758Y-120772069D01*
X144154434Y-120811507D01*
X144181632Y-120875865D01*
X144169717Y-120944712D01*
X144122473Y-120996187D01*
X144096760Y-121007929D01*
X143940525Y-121058694D01*
X143934616Y-121060614D01*
X143768242Y-121145385D01*
X143617176Y-121255142D01*
X143485142Y-121387176D01*
X143375385Y-121538242D01*
X143290614Y-121704616D01*
X143232910Y-121882210D01*
X143203700Y-122066636D01*
X143203700Y-122253363D01*
X143224991Y-122387793D01*
X143232911Y-122437793D01*
X143290613Y-122615381D01*
X143375385Y-122781757D01*
X143485141Y-122932822D01*
X143617178Y-123064859D01*
X143768243Y-123174615D01*
X143934619Y-123259387D01*
X144112207Y-123317089D01*
X144296636Y-123346300D01*
X144296637Y-123346300D01*
X144483363Y-123346300D01*
X144483364Y-123346300D01*
X144667793Y-123317089D01*
X144845381Y-123259387D01*
X145011757Y-123174615D01*
X145162822Y-123064859D01*
X145294859Y-122932822D01*
X145404615Y-122781757D01*
X145489387Y-122615381D01*
X145547089Y-122437793D01*
X145576300Y-122253364D01*
X145576300Y-122066636D01*
X145558634Y-121955100D01*
X145567588Y-121885809D01*
X145612584Y-121832357D01*
X145679336Y-121811717D01*
X145746650Y-121830442D01*
X145768788Y-121848023D01*
X147743181Y-123822416D01*
X147776666Y-123883739D01*
X147779500Y-123910097D01*
X147779500Y-126077671D01*
X147759815Y-126144710D01*
X147707011Y-126190465D01*
X147653241Y-126201650D01*
X136932241Y-126006328D01*
X136865571Y-125985426D01*
X136820786Y-125931797D01*
X136810500Y-125882349D01*
X136810500Y-125158145D01*
X136810500Y-125158143D01*
X136769577Y-125005416D01*
X136763019Y-124994057D01*
X136690524Y-124868490D01*
X136690521Y-124868486D01*
X136690520Y-124868484D01*
X136578716Y-124756680D01*
X136578715Y-124756679D01*
X136574385Y-124752349D01*
X136574374Y-124752339D01*
X131880654Y-120058619D01*
X131847169Y-119997296D01*
X131845862Y-119951543D01*
X131869300Y-119803564D01*
X131869300Y-119616836D01*
X131840089Y-119432407D01*
X131782387Y-119254819D01*
X131697615Y-119088443D01*
X131587859Y-118937378D01*
X131455822Y-118805341D01*
X131304757Y-118695585D01*
X131138381Y-118610813D01*
X130976239Y-118558129D01*
X130918566Y-118518694D01*
X130891367Y-118454335D01*
X130903282Y-118385489D01*
X130950526Y-118334013D01*
X130976236Y-118322271D01*
X131138381Y-118269587D01*
X131304757Y-118184815D01*
X131455822Y-118075059D01*
X131587859Y-117943022D01*
X131697615Y-117791957D01*
X131782387Y-117625581D01*
X131840089Y-117447993D01*
X131869300Y-117263564D01*
X131869300Y-117076836D01*
X131851634Y-116965300D01*
X131860588Y-116896009D01*
X131905584Y-116842557D01*
X131972336Y-116821917D01*
X132039650Y-116840642D01*
X132061788Y-116858223D01*
X137105345Y-121901780D01*
X137138830Y-121963103D01*
X137140137Y-122008859D01*
X137116700Y-122156836D01*
X137116700Y-122343563D01*
X137141854Y-122502383D01*
X137145911Y-122527993D01*
X137203613Y-122705581D01*
X137288385Y-122871957D01*
X137398141Y-123023022D01*
X137530178Y-123155059D01*
X137681243Y-123264815D01*
X137847619Y-123349587D01*
X138025207Y-123407289D01*
X138209636Y-123436500D01*
X138209637Y-123436500D01*
X138396363Y-123436500D01*
X138396364Y-123436500D01*
X138580793Y-123407289D01*
X138758381Y-123349587D01*
X138924757Y-123264815D01*
X139075822Y-123155059D01*
X139207859Y-123023022D01*
X139317615Y-122871957D01*
X139402387Y-122705581D01*
X139460089Y-122527993D01*
X139489300Y-122343564D01*
X139489300Y-122156836D01*
X139460089Y-121972407D01*
X139402387Y-121794819D01*
X139317615Y-121628443D01*
X139207859Y-121477378D01*
X139075822Y-121345341D01*
X138924757Y-121235585D01*
X138758381Y-121150813D01*
X138596239Y-121098129D01*
X138538566Y-121058694D01*
X138511367Y-120994335D01*
X138523282Y-120925489D01*
X138570526Y-120874013D01*
X138596236Y-120862271D01*
X138758381Y-120809587D01*
X138924757Y-120724815D01*
X139075822Y-120615059D01*
X139207859Y-120483022D01*
X139317615Y-120331957D01*
X139402387Y-120165581D01*
X139460089Y-119987993D01*
X139489300Y-119803564D01*
X139489300Y-119616836D01*
X139460089Y-119432407D01*
X139402387Y-119254819D01*
X139317615Y-119088443D01*
X139207859Y-118937378D01*
X139075822Y-118805341D01*
X138924757Y-118695585D01*
X138758381Y-118610813D01*
X138596239Y-118558129D01*
X138538566Y-118518694D01*
X138511367Y-118454335D01*
X138523282Y-118385489D01*
X138570526Y-118334013D01*
X138596236Y-118322271D01*
X138758381Y-118269587D01*
X138924757Y-118184815D01*
X139075822Y-118075059D01*
X139207859Y-117943022D01*
X139317615Y-117791957D01*
X139402387Y-117625581D01*
X139460089Y-117447993D01*
X139489300Y-117263564D01*
X139489300Y-117076836D01*
X139460089Y-116892407D01*
X139402387Y-116714819D01*
X139317615Y-116548443D01*
X139207859Y-116397378D01*
X139075822Y-116265341D01*
X138924757Y-116155585D01*
X138758381Y-116070813D01*
X138595432Y-116017867D01*
X138537757Y-115978430D01*
X138510559Y-115914072D01*
X138522474Y-115845225D01*
X138569718Y-115793750D01*
X138595433Y-115782006D01*
X138758191Y-115729122D01*
X138924496Y-115644386D01*
X138947162Y-115627917D01*
X138947162Y-115627916D01*
X138376724Y-115057477D01*
X138469669Y-115032574D01*
X138568131Y-114975726D01*
X138648526Y-114895331D01*
X138705374Y-114796869D01*
X138730278Y-114703924D01*
X139300716Y-115274362D01*
X139300717Y-115274362D01*
X139317186Y-115251696D01*
X139401922Y-115085391D01*
X139459602Y-114907872D01*
X139488800Y-114723530D01*
X139488800Y-114536869D01*
X139459602Y-114352527D01*
X139401922Y-114175008D01*
X139317186Y-114008704D01*
X139300716Y-113986036D01*
X139300716Y-113986035D01*
X138730277Y-114556474D01*
X138705374Y-114463531D01*
X138648526Y-114365069D01*
X138568131Y-114284674D01*
X138469669Y-114227826D01*
X138376724Y-114202922D01*
X138947162Y-113632482D01*
X138924491Y-113616011D01*
X138758191Y-113531277D01*
X138580672Y-113473597D01*
X138396330Y-113444400D01*
X138209670Y-113444400D01*
X138025327Y-113473597D01*
X137847808Y-113531277D01*
X137681502Y-113616014D01*
X137658836Y-113632482D01*
X137658835Y-113632482D01*
X138229275Y-114202921D01*
X138136331Y-114227826D01*
X138037869Y-114284674D01*
X137957474Y-114365069D01*
X137900626Y-114463531D01*
X137875722Y-114556475D01*
X137305282Y-113986035D01*
X137305282Y-113986036D01*
X137288814Y-114008702D01*
X137204077Y-114175008D01*
X137146397Y-114352527D01*
X137117200Y-114536869D01*
X137117200Y-114723530D01*
X137146397Y-114907872D01*
X137204077Y-115085391D01*
X137288811Y-115251691D01*
X137305282Y-115274362D01*
X137875721Y-114703923D01*
X137900626Y-114796869D01*
X137957474Y-114895331D01*
X138037869Y-114975726D01*
X138136331Y-115032574D01*
X138229275Y-115057478D01*
X137658835Y-115627916D01*
X137681504Y-115644386D01*
X137847808Y-115729122D01*
X138010566Y-115782006D01*
X138068242Y-115821443D01*
X138095440Y-115885802D01*
X138083525Y-115954648D01*
X138036281Y-116006124D01*
X138010568Y-116017867D01*
X137847619Y-116070813D01*
X137847616Y-116070814D01*
X137847614Y-116070815D01*
X137681242Y-116155585D01*
X137530176Y-116265342D01*
X137398142Y-116397376D01*
X137288385Y-116548442D01*
X137203614Y-116714816D01*
X137145910Y-116892410D01*
X137116700Y-117076836D01*
X137116700Y-117263563D01*
X137141854Y-117422383D01*
X137145911Y-117447993D01*
X137203613Y-117625581D01*
X137288385Y-117791957D01*
X137398141Y-117943022D01*
X137530178Y-118075059D01*
X137681243Y-118184815D01*
X137847619Y-118269587D01*
X138009758Y-118322269D01*
X138067434Y-118361707D01*
X138094632Y-118426065D01*
X138082717Y-118494912D01*
X138035473Y-118546387D01*
X138009760Y-118558129D01*
X137874309Y-118602141D01*
X137847616Y-118610814D01*
X137681242Y-118695585D01*
X137530176Y-118805342D01*
X137398142Y-118937376D01*
X137288385Y-119088442D01*
X137203614Y-119254816D01*
X137145910Y-119432410D01*
X137130986Y-119526636D01*
X137116700Y-119616836D01*
X137116700Y-119803564D01*
X137121926Y-119836557D01*
X137134365Y-119915097D01*
X137125410Y-119984391D01*
X137080414Y-120037843D01*
X137013662Y-120058482D01*
X136946349Y-120039757D01*
X136924211Y-120022176D01*
X131905618Y-115003583D01*
X131872133Y-114942260D01*
X131869299Y-114915902D01*
X131869299Y-113896529D01*
X131869298Y-113896523D01*
X131869297Y-113896516D01*
X131862891Y-113836917D01*
X131862891Y-113836916D01*
X131820431Y-113723074D01*
X131812596Y-113702069D01*
X131812593Y-113702064D01*
X131726347Y-113586855D01*
X131726344Y-113586852D01*
X131611135Y-113500606D01*
X131611128Y-113500602D01*
X131476282Y-113450308D01*
X131476283Y-113450308D01*
X131416683Y-113443901D01*
X131416681Y-113443900D01*
X131416673Y-113443900D01*
X131416664Y-113443900D01*
X129949329Y-113443900D01*
X129949323Y-113443901D01*
X129889716Y-113450308D01*
X129754871Y-113500602D01*
X129754864Y-113500606D01*
X129639655Y-113586852D01*
X129639652Y-113586855D01*
X129553406Y-113702064D01*
X129553402Y-113702071D01*
X129503108Y-113836917D01*
X129496774Y-113895835D01*
X129496701Y-113896523D01*
X129496700Y-113896535D01*
X129496700Y-115363870D01*
X129496701Y-115363876D01*
X129503108Y-115423483D01*
X129553402Y-115558328D01*
X129553406Y-115558335D01*
X129639652Y-115673544D01*
X129639655Y-115673547D01*
X129754864Y-115759793D01*
X129754871Y-115759797D01*
X129889717Y-115810091D01*
X129889716Y-115810091D01*
X129896644Y-115810835D01*
X129949327Y-115816500D01*
X130227412Y-115816499D01*
X130294449Y-115836183D01*
X130340204Y-115888987D01*
X130350148Y-115958146D01*
X130321123Y-116021701D01*
X130265730Y-116058429D01*
X130227618Y-116070812D01*
X130061242Y-116155585D01*
X129910176Y-116265342D01*
X129778142Y-116397376D01*
X129668385Y-116548442D01*
X129583614Y-116714816D01*
X129525910Y-116892410D01*
X129496700Y-117076836D01*
X129496700Y-117263563D01*
X129521854Y-117422383D01*
X129525911Y-117447993D01*
X129583613Y-117625581D01*
X129668385Y-117791957D01*
X129778141Y-117943022D01*
X129910178Y-118075059D01*
X130061243Y-118184815D01*
X130227619Y-118269587D01*
X130389758Y-118322269D01*
X130447434Y-118361707D01*
X130474632Y-118426065D01*
X130462717Y-118494912D01*
X130415473Y-118546387D01*
X130389760Y-118558129D01*
X130254309Y-118602141D01*
X130227616Y-118610814D01*
X130061242Y-118695585D01*
X129910176Y-118805342D01*
X129778142Y-118937376D01*
X129668385Y-119088442D01*
X129583614Y-119254816D01*
X129525910Y-119432410D01*
X129510986Y-119526636D01*
X129496700Y-119616836D01*
X129496700Y-119803564D01*
X129501926Y-119836557D01*
X129522810Y-119968419D01*
X129525911Y-119987993D01*
X129583613Y-120165581D01*
X129668385Y-120331957D01*
X129778141Y-120483022D01*
X129910178Y-120615059D01*
X130061243Y-120724815D01*
X130227619Y-120809587D01*
X130389758Y-120862269D01*
X130447434Y-120901707D01*
X130474632Y-120966065D01*
X130462717Y-121034912D01*
X130415473Y-121086387D01*
X130389760Y-121098129D01*
X130254309Y-121142141D01*
X130227616Y-121150814D01*
X130061242Y-121235585D01*
X129910176Y-121345342D01*
X129778142Y-121477376D01*
X129668385Y-121628442D01*
X129583614Y-121794816D01*
X129583613Y-121794818D01*
X129583613Y-121794819D01*
X129574488Y-121822903D01*
X129525910Y-121972410D01*
X129496700Y-122156836D01*
X129496700Y-122343563D01*
X129521854Y-122502383D01*
X129525911Y-122527993D01*
X129583613Y-122705581D01*
X129668385Y-122871957D01*
X129778141Y-123023022D01*
X129910178Y-123155059D01*
X130061243Y-123264815D01*
X130227619Y-123349587D01*
X130405207Y-123407289D01*
X130589636Y-123436500D01*
X130589637Y-123436500D01*
X130776363Y-123436500D01*
X130776364Y-123436500D01*
X130960793Y-123407289D01*
X131138381Y-123349587D01*
X131304757Y-123264815D01*
X131455822Y-123155059D01*
X131587859Y-123023022D01*
X131697615Y-122871957D01*
X131782387Y-122705581D01*
X131840089Y-122527993D01*
X131869300Y-122343564D01*
X131869300Y-122156836D01*
X131851634Y-122045300D01*
X131860588Y-121976009D01*
X131905584Y-121922557D01*
X131972336Y-121901917D01*
X132039650Y-121920642D01*
X132061788Y-121938223D01*
X135573181Y-125449616D01*
X135606666Y-125510939D01*
X135609500Y-125537297D01*
X135609500Y-125855951D01*
X135589815Y-125922990D01*
X135537011Y-125968745D01*
X135483241Y-125979930D01*
X123732241Y-125765843D01*
X123665571Y-125744941D01*
X123620786Y-125691312D01*
X123610500Y-125641864D01*
X123610500Y-125004059D01*
X123610501Y-125004046D01*
X123610501Y-124835945D01*
X123610501Y-124835943D01*
X123569577Y-124683215D01*
X123540639Y-124633095D01*
X123490520Y-124546284D01*
X123378716Y-124434480D01*
X123378715Y-124434479D01*
X123374385Y-124430149D01*
X123374374Y-124430139D01*
X118799654Y-119855419D01*
X118766169Y-119794096D01*
X118764862Y-119748343D01*
X118788300Y-119600364D01*
X118788300Y-119413636D01*
X118759089Y-119229207D01*
X118701387Y-119051619D01*
X118616615Y-118885243D01*
X118506859Y-118734178D01*
X118374822Y-118602141D01*
X118223757Y-118492385D01*
X118057381Y-118407613D01*
X117895239Y-118354929D01*
X117837566Y-118315494D01*
X117810367Y-118251135D01*
X117822282Y-118182289D01*
X117869526Y-118130813D01*
X117895236Y-118119071D01*
X118057381Y-118066387D01*
X118223757Y-117981615D01*
X118374822Y-117871859D01*
X118506859Y-117739822D01*
X118616615Y-117588757D01*
X118701387Y-117422381D01*
X118759089Y-117244793D01*
X118788300Y-117060364D01*
X118788300Y-116873636D01*
X118770634Y-116762100D01*
X118779588Y-116692809D01*
X118824584Y-116639357D01*
X118891336Y-116618717D01*
X118958650Y-116637442D01*
X118980788Y-116655023D01*
X124024345Y-121698580D01*
X124057830Y-121759903D01*
X124059137Y-121805659D01*
X124035700Y-121953636D01*
X124035700Y-122140363D01*
X124062717Y-122310946D01*
X124064911Y-122324793D01*
X124122613Y-122502381D01*
X124207385Y-122668757D01*
X124317141Y-122819822D01*
X124449178Y-122951859D01*
X124600243Y-123061615D01*
X124766619Y-123146387D01*
X124944207Y-123204089D01*
X125128636Y-123233300D01*
X125128637Y-123233300D01*
X125315363Y-123233300D01*
X125315364Y-123233300D01*
X125499793Y-123204089D01*
X125677381Y-123146387D01*
X125843757Y-123061615D01*
X125994822Y-122951859D01*
X126126859Y-122819822D01*
X126236615Y-122668757D01*
X126321387Y-122502381D01*
X126379089Y-122324793D01*
X126408300Y-122140364D01*
X126408300Y-121953636D01*
X126379089Y-121769207D01*
X126321387Y-121591619D01*
X126236615Y-121425243D01*
X126126859Y-121274178D01*
X125994822Y-121142141D01*
X125843757Y-121032385D01*
X125677381Y-120947613D01*
X125515239Y-120894929D01*
X125457566Y-120855494D01*
X125430367Y-120791135D01*
X125442282Y-120722289D01*
X125489526Y-120670813D01*
X125515236Y-120659071D01*
X125677381Y-120606387D01*
X125843757Y-120521615D01*
X125994822Y-120411859D01*
X126126859Y-120279822D01*
X126236615Y-120128757D01*
X126321387Y-119962381D01*
X126379089Y-119784793D01*
X126408300Y-119600364D01*
X126408300Y-119413636D01*
X126379089Y-119229207D01*
X126321387Y-119051619D01*
X126236615Y-118885243D01*
X126126859Y-118734178D01*
X125994822Y-118602141D01*
X125843757Y-118492385D01*
X125677381Y-118407613D01*
X125515239Y-118354929D01*
X125457566Y-118315494D01*
X125430367Y-118251135D01*
X125442282Y-118182289D01*
X125489526Y-118130813D01*
X125515236Y-118119071D01*
X125677381Y-118066387D01*
X125843757Y-117981615D01*
X125994822Y-117871859D01*
X126126859Y-117739822D01*
X126236615Y-117588757D01*
X126321387Y-117422381D01*
X126379089Y-117244793D01*
X126408300Y-117060364D01*
X126408300Y-116873636D01*
X126379089Y-116689207D01*
X126321387Y-116511619D01*
X126236615Y-116345243D01*
X126126859Y-116194178D01*
X125994822Y-116062141D01*
X125843757Y-115952385D01*
X125677381Y-115867613D01*
X125514432Y-115814667D01*
X125456757Y-115775230D01*
X125429559Y-115710872D01*
X125441474Y-115642025D01*
X125488718Y-115590550D01*
X125514433Y-115578806D01*
X125677191Y-115525922D01*
X125843496Y-115441186D01*
X125866162Y-115424717D01*
X125866162Y-115424716D01*
X125295724Y-114854277D01*
X125388669Y-114829374D01*
X125487131Y-114772526D01*
X125567526Y-114692131D01*
X125624374Y-114593669D01*
X125649278Y-114500724D01*
X126219716Y-115071162D01*
X126219717Y-115071162D01*
X126236186Y-115048496D01*
X126320922Y-114882191D01*
X126378602Y-114704672D01*
X126407800Y-114520330D01*
X126407800Y-114333669D01*
X126378602Y-114149327D01*
X126320922Y-113971808D01*
X126236186Y-113805504D01*
X126219716Y-113782836D01*
X126219716Y-113782835D01*
X125649277Y-114353274D01*
X125624374Y-114260331D01*
X125567526Y-114161869D01*
X125487131Y-114081474D01*
X125388669Y-114024626D01*
X125295724Y-113999722D01*
X125866162Y-113429282D01*
X125843491Y-113412811D01*
X125677191Y-113328077D01*
X125499672Y-113270397D01*
X125315330Y-113241200D01*
X125128670Y-113241200D01*
X124944327Y-113270397D01*
X124766808Y-113328077D01*
X124600502Y-113412814D01*
X124577836Y-113429282D01*
X124577835Y-113429282D01*
X125148275Y-113999721D01*
X125055331Y-114024626D01*
X124956869Y-114081474D01*
X124876474Y-114161869D01*
X124819626Y-114260331D01*
X124794722Y-114353275D01*
X124224282Y-113782835D01*
X124224282Y-113782836D01*
X124207814Y-113805502D01*
X124123077Y-113971808D01*
X124065397Y-114149327D01*
X124036200Y-114333669D01*
X124036200Y-114520330D01*
X124065397Y-114704672D01*
X124123077Y-114882191D01*
X124207811Y-115048491D01*
X124224282Y-115071162D01*
X124794721Y-114500723D01*
X124819626Y-114593669D01*
X124876474Y-114692131D01*
X124956869Y-114772526D01*
X125055331Y-114829374D01*
X125148275Y-114854278D01*
X124577835Y-115424716D01*
X124600504Y-115441186D01*
X124766808Y-115525922D01*
X124929566Y-115578806D01*
X124987242Y-115618243D01*
X125014440Y-115682602D01*
X125002525Y-115751448D01*
X124955281Y-115802924D01*
X124929568Y-115814667D01*
X124766619Y-115867613D01*
X124766616Y-115867614D01*
X124766614Y-115867615D01*
X124600242Y-115952385D01*
X124449176Y-116062142D01*
X124317142Y-116194176D01*
X124207385Y-116345242D01*
X124122614Y-116511616D01*
X124064910Y-116689210D01*
X124035700Y-116873636D01*
X124035700Y-117060363D01*
X124053597Y-117173364D01*
X124064911Y-117244793D01*
X124122613Y-117422381D01*
X124207385Y-117588757D01*
X124317141Y-117739822D01*
X124449178Y-117871859D01*
X124600243Y-117981615D01*
X124766619Y-118066387D01*
X124928758Y-118119069D01*
X124986434Y-118158507D01*
X125013632Y-118222865D01*
X125001717Y-118291712D01*
X124954473Y-118343187D01*
X124928760Y-118354929D01*
X124775547Y-118404712D01*
X124766616Y-118407614D01*
X124600242Y-118492385D01*
X124449176Y-118602142D01*
X124317142Y-118734176D01*
X124207385Y-118885242D01*
X124122614Y-119051616D01*
X124064910Y-119229210D01*
X124035700Y-119413636D01*
X124035700Y-119600363D01*
X124053365Y-119711897D01*
X124044410Y-119781191D01*
X123999414Y-119834643D01*
X123932662Y-119855282D01*
X123865349Y-119836557D01*
X123843211Y-119818976D01*
X118824618Y-114800383D01*
X118791133Y-114739060D01*
X118788299Y-114712702D01*
X118788299Y-113693329D01*
X118788298Y-113693323D01*
X118788297Y-113693316D01*
X118781891Y-113633717D01*
X118781577Y-113632874D01*
X118739431Y-113519874D01*
X118731596Y-113498869D01*
X118731593Y-113498864D01*
X118645347Y-113383655D01*
X118645344Y-113383652D01*
X118530135Y-113297406D01*
X118530128Y-113297402D01*
X118395282Y-113247108D01*
X118395283Y-113247108D01*
X118335683Y-113240701D01*
X118335681Y-113240700D01*
X118335673Y-113240700D01*
X118335664Y-113240700D01*
X116868329Y-113240700D01*
X116868323Y-113240701D01*
X116808716Y-113247108D01*
X116673871Y-113297402D01*
X116673864Y-113297406D01*
X116558655Y-113383652D01*
X116558652Y-113383655D01*
X116472406Y-113498864D01*
X116472402Y-113498871D01*
X116422108Y-113633717D01*
X116415701Y-113693316D01*
X116415701Y-113693323D01*
X116415700Y-113693335D01*
X116415700Y-115160670D01*
X116415701Y-115160676D01*
X116422108Y-115220283D01*
X116472402Y-115355128D01*
X116472406Y-115355135D01*
X116558652Y-115470344D01*
X116558655Y-115470347D01*
X116673864Y-115556593D01*
X116673871Y-115556597D01*
X116808717Y-115606891D01*
X116808716Y-115606891D01*
X116815644Y-115607635D01*
X116868327Y-115613300D01*
X117146412Y-115613299D01*
X117213449Y-115632983D01*
X117259204Y-115685787D01*
X117269148Y-115754946D01*
X117240123Y-115818501D01*
X117184730Y-115855229D01*
X117146618Y-115867612D01*
X116980242Y-115952385D01*
X116829176Y-116062142D01*
X116697142Y-116194176D01*
X116587385Y-116345242D01*
X116502614Y-116511616D01*
X116444910Y-116689210D01*
X116415700Y-116873636D01*
X116415700Y-117060363D01*
X116433597Y-117173364D01*
X116444911Y-117244793D01*
X116502613Y-117422381D01*
X116587385Y-117588757D01*
X116697141Y-117739822D01*
X116829178Y-117871859D01*
X116980243Y-117981615D01*
X117146619Y-118066387D01*
X117308758Y-118119069D01*
X117366434Y-118158507D01*
X117393632Y-118222865D01*
X117381717Y-118291712D01*
X117334473Y-118343187D01*
X117308760Y-118354929D01*
X117155547Y-118404712D01*
X117146616Y-118407614D01*
X116980242Y-118492385D01*
X116829176Y-118602142D01*
X116697142Y-118734176D01*
X116587385Y-118885242D01*
X116502614Y-119051616D01*
X116444910Y-119229210D01*
X116415700Y-119413636D01*
X116415700Y-119600363D01*
X116443343Y-119774897D01*
X116444911Y-119784793D01*
X116502613Y-119962381D01*
X116587385Y-120128757D01*
X116697141Y-120279822D01*
X116829178Y-120411859D01*
X116980243Y-120521615D01*
X117146619Y-120606387D01*
X117308758Y-120659069D01*
X117366434Y-120698507D01*
X117393632Y-120762865D01*
X117381717Y-120831712D01*
X117334473Y-120883187D01*
X117308760Y-120894929D01*
X117155547Y-120944712D01*
X117146616Y-120947614D01*
X116980242Y-121032385D01*
X116829176Y-121142142D01*
X116697142Y-121274176D01*
X116587385Y-121425242D01*
X116502614Y-121591616D01*
X116444910Y-121769210D01*
X116415700Y-121953636D01*
X116415700Y-122140363D01*
X116442717Y-122310946D01*
X116444911Y-122324793D01*
X116502613Y-122502381D01*
X116587385Y-122668757D01*
X116697141Y-122819822D01*
X116829178Y-122951859D01*
X116980243Y-123061615D01*
X117146619Y-123146387D01*
X117324207Y-123204089D01*
X117508636Y-123233300D01*
X117508637Y-123233300D01*
X117695363Y-123233300D01*
X117695364Y-123233300D01*
X117879793Y-123204089D01*
X118057381Y-123146387D01*
X118223757Y-123061615D01*
X118374822Y-122951859D01*
X118506859Y-122819822D01*
X118616615Y-122668757D01*
X118701387Y-122502381D01*
X118759089Y-122324793D01*
X118788300Y-122140364D01*
X118788300Y-121953636D01*
X118770634Y-121842100D01*
X118779588Y-121772809D01*
X118824584Y-121719357D01*
X118891336Y-121698717D01*
X118958650Y-121717442D01*
X118980788Y-121735023D01*
X122373181Y-125127416D01*
X122406666Y-125188739D01*
X122409500Y-125215097D01*
X122409500Y-125615465D01*
X122389815Y-125682504D01*
X122337011Y-125728259D01*
X122283241Y-125739444D01*
X110549022Y-125525663D01*
X110482352Y-125504761D01*
X110463600Y-125489365D01*
X107823000Y-122848765D01*
X107823000Y-119467235D01*
X110054345Y-121698580D01*
X110087830Y-121759903D01*
X110089137Y-121805659D01*
X110065700Y-121953636D01*
X110065700Y-122140363D01*
X110092717Y-122310946D01*
X110094911Y-122324793D01*
X110152613Y-122502381D01*
X110237385Y-122668757D01*
X110347141Y-122819822D01*
X110479178Y-122951859D01*
X110630243Y-123061615D01*
X110796619Y-123146387D01*
X110974207Y-123204089D01*
X111158636Y-123233300D01*
X111158637Y-123233300D01*
X111345363Y-123233300D01*
X111345364Y-123233300D01*
X111529793Y-123204089D01*
X111707381Y-123146387D01*
X111873757Y-123061615D01*
X112024822Y-122951859D01*
X112156859Y-122819822D01*
X112266615Y-122668757D01*
X112351387Y-122502381D01*
X112409089Y-122324793D01*
X112438300Y-122140364D01*
X112438300Y-121953636D01*
X112409089Y-121769207D01*
X112351387Y-121591619D01*
X112266615Y-121425243D01*
X112156859Y-121274178D01*
X112024822Y-121142141D01*
X111873757Y-121032385D01*
X111707381Y-120947613D01*
X111545239Y-120894929D01*
X111487566Y-120855494D01*
X111460367Y-120791135D01*
X111472282Y-120722289D01*
X111519526Y-120670813D01*
X111545236Y-120659071D01*
X111707381Y-120606387D01*
X111873757Y-120521615D01*
X112024822Y-120411859D01*
X112156859Y-120279822D01*
X112266615Y-120128757D01*
X112351387Y-119962381D01*
X112409089Y-119784793D01*
X112438300Y-119600364D01*
X112438300Y-119413636D01*
X112409089Y-119229207D01*
X112351387Y-119051619D01*
X112266615Y-118885243D01*
X112156859Y-118734178D01*
X112024822Y-118602141D01*
X111873757Y-118492385D01*
X111707381Y-118407613D01*
X111545239Y-118354929D01*
X111487566Y-118315494D01*
X111460367Y-118251135D01*
X111472282Y-118182289D01*
X111519526Y-118130813D01*
X111545236Y-118119071D01*
X111707381Y-118066387D01*
X111873757Y-117981615D01*
X112024822Y-117871859D01*
X112156859Y-117739822D01*
X112266615Y-117588757D01*
X112351387Y-117422381D01*
X112409089Y-117244793D01*
X112438300Y-117060364D01*
X112438300Y-116873636D01*
X112409089Y-116689207D01*
X112351387Y-116511619D01*
X112266615Y-116345243D01*
X112156859Y-116194178D01*
X112024822Y-116062141D01*
X111873757Y-115952385D01*
X111707381Y-115867613D01*
X111544432Y-115814667D01*
X111486757Y-115775230D01*
X111459559Y-115710872D01*
X111471474Y-115642025D01*
X111518718Y-115590550D01*
X111544433Y-115578806D01*
X111707191Y-115525922D01*
X111873496Y-115441186D01*
X111896162Y-115424717D01*
X111896162Y-115424716D01*
X111325724Y-114854277D01*
X111418669Y-114829374D01*
X111517131Y-114772526D01*
X111597526Y-114692131D01*
X111654374Y-114593669D01*
X111679278Y-114500724D01*
X112249716Y-115071162D01*
X112249717Y-115071162D01*
X112266186Y-115048496D01*
X112350922Y-114882191D01*
X112408602Y-114704672D01*
X112437800Y-114520330D01*
X112437800Y-114333669D01*
X112408602Y-114149327D01*
X112350922Y-113971808D01*
X112266186Y-113805504D01*
X112249716Y-113782836D01*
X112249716Y-113782835D01*
X111679277Y-114353274D01*
X111654374Y-114260331D01*
X111597526Y-114161869D01*
X111517131Y-114081474D01*
X111418669Y-114024626D01*
X111325724Y-113999722D01*
X111896162Y-113429282D01*
X111873491Y-113412811D01*
X111707191Y-113328077D01*
X111529672Y-113270397D01*
X111345330Y-113241200D01*
X111158670Y-113241200D01*
X110974327Y-113270397D01*
X110796808Y-113328077D01*
X110630502Y-113412814D01*
X110607836Y-113429282D01*
X110607835Y-113429282D01*
X111178275Y-113999721D01*
X111085331Y-114024626D01*
X110986869Y-114081474D01*
X110906474Y-114161869D01*
X110849626Y-114260331D01*
X110824722Y-114353275D01*
X110254282Y-113782835D01*
X110254282Y-113782836D01*
X110237814Y-113805502D01*
X110153077Y-113971808D01*
X110095397Y-114149327D01*
X110066200Y-114333669D01*
X110066200Y-114520330D01*
X110095397Y-114704672D01*
X110153077Y-114882191D01*
X110237811Y-115048491D01*
X110254282Y-115071162D01*
X110824721Y-114500723D01*
X110849626Y-114593669D01*
X110906474Y-114692131D01*
X110986869Y-114772526D01*
X111085331Y-114829374D01*
X111178275Y-114854278D01*
X110607835Y-115424716D01*
X110630504Y-115441186D01*
X110796808Y-115525922D01*
X110959566Y-115578806D01*
X111017242Y-115618243D01*
X111044440Y-115682602D01*
X111032525Y-115751448D01*
X110985281Y-115802924D01*
X110959568Y-115814667D01*
X110796619Y-115867613D01*
X110796616Y-115867614D01*
X110796614Y-115867615D01*
X110630242Y-115952385D01*
X110479176Y-116062142D01*
X110347142Y-116194176D01*
X110237385Y-116345242D01*
X110152614Y-116511616D01*
X110094910Y-116689210D01*
X110065700Y-116873636D01*
X110065700Y-117060363D01*
X110083597Y-117173364D01*
X110094911Y-117244793D01*
X110152613Y-117422381D01*
X110237385Y-117588757D01*
X110347141Y-117739822D01*
X110479178Y-117871859D01*
X110630243Y-117981615D01*
X110796619Y-118066387D01*
X110958758Y-118119069D01*
X111016434Y-118158507D01*
X111043632Y-118222865D01*
X111031717Y-118291712D01*
X110984473Y-118343187D01*
X110958760Y-118354929D01*
X110805547Y-118404712D01*
X110796616Y-118407614D01*
X110630242Y-118492385D01*
X110479176Y-118602142D01*
X110347142Y-118734176D01*
X110237385Y-118885242D01*
X110152614Y-119051616D01*
X110094910Y-119229210D01*
X110065700Y-119413636D01*
X110065700Y-119600363D01*
X110083365Y-119711897D01*
X110074410Y-119781191D01*
X110029414Y-119834643D01*
X109962662Y-119855282D01*
X109895349Y-119836557D01*
X109873211Y-119818976D01*
X107823000Y-117768765D01*
X107823000Y-111760000D01*
X167261458Y-111886734D01*
G37*
%TD.AperFunction*%
%TA.AperFunction,Conductor*%
G36*
X108768999Y-125493234D02*
G01*
X107823000Y-125476000D01*
X107823000Y-124547235D01*
X108768999Y-125493234D01*
G37*
%TD.AperFunction*%
%TA.AperFunction,Conductor*%
G36*
X167057716Y-115134162D02*
G01*
X167057717Y-115134162D01*
X167074187Y-115111494D01*
X167074188Y-115111492D01*
X167130914Y-115000161D01*
X167178888Y-114949365D01*
X167246709Y-114932569D01*
X167312844Y-114955106D01*
X167356296Y-115009821D01*
X167365396Y-115057261D01*
X167356374Y-116445542D01*
X167336255Y-116512452D01*
X167283154Y-116557863D01*
X167213933Y-116567357D01*
X167150567Y-116537919D01*
X167121892Y-116501030D01*
X167074616Y-116408244D01*
X167001185Y-116307176D01*
X166964859Y-116257178D01*
X166832822Y-116125141D01*
X166681757Y-116015385D01*
X166613512Y-115980613D01*
X166515383Y-115930614D01*
X166515382Y-115930613D01*
X166515381Y-115930613D01*
X166352432Y-115877667D01*
X166294757Y-115838230D01*
X166267559Y-115773872D01*
X166279474Y-115705025D01*
X166326718Y-115653550D01*
X166352433Y-115641806D01*
X166515191Y-115588922D01*
X166681496Y-115504186D01*
X166704162Y-115487717D01*
X166704162Y-115487716D01*
X166133724Y-114917277D01*
X166226669Y-114892374D01*
X166325131Y-114835526D01*
X166405526Y-114755131D01*
X166462374Y-114656669D01*
X166487278Y-114563724D01*
X167057716Y-115134162D01*
G37*
%TD.AperFunction*%
%TD*%
%TA.AperFunction,Conductor*%
%TO.N,+3.3V*%
G36*
X109486144Y-127211682D02*
G01*
X109553077Y-127231711D01*
X109598559Y-127284750D01*
X109609500Y-127335679D01*
X109609500Y-130255500D01*
X109589815Y-130322539D01*
X109537011Y-130368294D01*
X109485501Y-130379500D01*
X109312130Y-130379500D01*
X109312123Y-130379501D01*
X109252516Y-130385908D01*
X109117671Y-130436202D01*
X109117664Y-130436206D01*
X109002455Y-130522452D01*
X109002452Y-130522455D01*
X108916206Y-130637664D01*
X108916202Y-130637671D01*
X108865908Y-130772517D01*
X108859501Y-130832116D01*
X108859500Y-130832135D01*
X108859500Y-132627870D01*
X108859501Y-132627876D01*
X108865908Y-132687483D01*
X108916202Y-132822328D01*
X108916206Y-132822335D01*
X109002452Y-132937544D01*
X109002455Y-132937547D01*
X109117664Y-133023793D01*
X109117671Y-133023797D01*
X109252517Y-133074091D01*
X109252516Y-133074091D01*
X109259444Y-133074835D01*
X109312127Y-133080500D01*
X111107872Y-133080499D01*
X111167483Y-133074091D01*
X111302331Y-133023796D01*
X111417546Y-132937546D01*
X111503796Y-132822331D01*
X111554091Y-132687483D01*
X111560500Y-132627873D01*
X111560499Y-132603979D01*
X111563330Y-132590963D01*
X111573940Y-132571525D01*
X111580179Y-132550275D01*
X111596803Y-132529643D01*
X111596808Y-132529636D01*
X111596811Y-132529634D01*
X111596818Y-132529626D01*
X112267037Y-131859408D01*
X112284075Y-131922993D01*
X112349901Y-132037007D01*
X112442993Y-132130099D01*
X112557007Y-132195925D01*
X112620590Y-132212962D01*
X111988282Y-132845269D01*
X111988282Y-132845270D01*
X112042449Y-132884624D01*
X112231782Y-132981095D01*
X112433870Y-133046757D01*
X112643754Y-133080000D01*
X112856246Y-133080000D01*
X113066127Y-133046757D01*
X113066130Y-133046757D01*
X113268217Y-132981095D01*
X113457554Y-132884622D01*
X113511716Y-132845270D01*
X113511717Y-132845270D01*
X112879408Y-132212962D01*
X112942993Y-132195925D01*
X113057007Y-132130099D01*
X113150099Y-132037007D01*
X113215925Y-131922993D01*
X113232962Y-131859408D01*
X113865270Y-132491717D01*
X113865270Y-132491716D01*
X113904622Y-132437554D01*
X114001095Y-132248217D01*
X114066757Y-132046130D01*
X114066757Y-132046127D01*
X114100000Y-131836246D01*
X114100000Y-131623753D01*
X114066757Y-131413872D01*
X114066757Y-131413869D01*
X114001095Y-131211782D01*
X113904624Y-131022449D01*
X113865270Y-130968282D01*
X113865269Y-130968282D01*
X113232962Y-131600590D01*
X113215925Y-131537007D01*
X113150099Y-131422993D01*
X113057007Y-131329901D01*
X112942993Y-131264075D01*
X112879409Y-131247037D01*
X113511716Y-130614728D01*
X113457550Y-130575375D01*
X113268217Y-130478904D01*
X113066129Y-130413242D01*
X112856246Y-130380000D01*
X112643754Y-130380000D01*
X112433872Y-130413242D01*
X112433869Y-130413242D01*
X112231782Y-130478904D01*
X112042439Y-130575380D01*
X111988282Y-130614727D01*
X111988282Y-130614728D01*
X112620591Y-131247037D01*
X112557007Y-131264075D01*
X112442993Y-131329901D01*
X112349901Y-131422993D01*
X112284075Y-131537007D01*
X112267037Y-131600591D01*
X111596818Y-130930372D01*
X111563333Y-130869049D01*
X111563330Y-130869036D01*
X111560499Y-130856015D01*
X111560499Y-130832128D01*
X111554091Y-130772517D01*
X111525078Y-130694728D01*
X111503798Y-130637672D01*
X111503793Y-130637664D01*
X111417547Y-130522455D01*
X111417544Y-130522452D01*
X111302335Y-130436206D01*
X111302328Y-130436202D01*
X111167482Y-130385908D01*
X111167483Y-130385908D01*
X111107883Y-130379501D01*
X111107881Y-130379500D01*
X111107873Y-130379500D01*
X111107865Y-130379500D01*
X110934500Y-130379500D01*
X110867461Y-130359815D01*
X110821706Y-130307011D01*
X110810500Y-130255500D01*
X110810500Y-127343154D01*
X110830185Y-127276115D01*
X110882989Y-127230360D01*
X110935133Y-127219157D01*
X122286144Y-127277715D01*
X122353077Y-127297744D01*
X122398559Y-127350783D01*
X122409500Y-127401712D01*
X122409500Y-130405500D01*
X122389815Y-130472539D01*
X122337011Y-130518294D01*
X122285501Y-130529500D01*
X122112130Y-130529500D01*
X122112123Y-130529501D01*
X122052516Y-130535908D01*
X121917671Y-130586202D01*
X121917664Y-130586206D01*
X121802455Y-130672452D01*
X121802452Y-130672455D01*
X121716206Y-130787664D01*
X121716202Y-130787671D01*
X121665908Y-130922517D01*
X121659501Y-130982116D01*
X121659500Y-130982135D01*
X121659500Y-132777870D01*
X121659501Y-132777876D01*
X121665908Y-132837483D01*
X121716202Y-132972328D01*
X121716206Y-132972335D01*
X121802452Y-133087544D01*
X121802455Y-133087547D01*
X121917664Y-133173793D01*
X121917671Y-133173797D01*
X122052517Y-133224091D01*
X122052516Y-133224091D01*
X122059444Y-133224835D01*
X122112127Y-133230500D01*
X123907872Y-133230499D01*
X123967483Y-133224091D01*
X124102331Y-133173796D01*
X124217546Y-133087546D01*
X124303796Y-132972331D01*
X124354091Y-132837483D01*
X124360500Y-132777873D01*
X124360499Y-132753979D01*
X124363330Y-132740963D01*
X124373940Y-132721525D01*
X124380179Y-132700275D01*
X124396803Y-132679643D01*
X124396808Y-132679636D01*
X124396811Y-132679634D01*
X124396818Y-132679626D01*
X125067037Y-132009408D01*
X125084075Y-132072993D01*
X125149901Y-132187007D01*
X125242993Y-132280099D01*
X125357007Y-132345925D01*
X125420590Y-132362962D01*
X124788282Y-132995269D01*
X124788282Y-132995270D01*
X124842449Y-133034624D01*
X125031782Y-133131095D01*
X125233870Y-133196757D01*
X125443754Y-133230000D01*
X125656246Y-133230000D01*
X125866127Y-133196757D01*
X125866130Y-133196757D01*
X126068217Y-133131095D01*
X126257554Y-133034622D01*
X126311716Y-132995270D01*
X126311717Y-132995270D01*
X125679408Y-132362962D01*
X125742993Y-132345925D01*
X125857007Y-132280099D01*
X125950099Y-132187007D01*
X126015925Y-132072993D01*
X126032962Y-132009408D01*
X126665270Y-132641717D01*
X126665270Y-132641716D01*
X126704622Y-132587554D01*
X126801095Y-132398217D01*
X126866757Y-132196130D01*
X126866757Y-132196127D01*
X126900000Y-131986246D01*
X126900000Y-131773753D01*
X126866757Y-131563872D01*
X126866757Y-131563869D01*
X126801095Y-131361782D01*
X126704624Y-131172449D01*
X126665270Y-131118282D01*
X126665269Y-131118282D01*
X126032962Y-131750590D01*
X126015925Y-131687007D01*
X125950099Y-131572993D01*
X125857007Y-131479901D01*
X125742993Y-131414075D01*
X125679409Y-131397037D01*
X126311716Y-130764728D01*
X126257550Y-130725375D01*
X126068217Y-130628904D01*
X125866129Y-130563242D01*
X125656246Y-130530000D01*
X125443754Y-130530000D01*
X125233872Y-130563242D01*
X125233869Y-130563242D01*
X125031782Y-130628904D01*
X124842439Y-130725380D01*
X124788282Y-130764727D01*
X124788282Y-130764728D01*
X125420591Y-131397037D01*
X125357007Y-131414075D01*
X125242993Y-131479901D01*
X125149901Y-131572993D01*
X125084075Y-131687007D01*
X125067037Y-131750591D01*
X124396818Y-131080372D01*
X124363333Y-131019049D01*
X124363330Y-131019036D01*
X124360499Y-131006015D01*
X124360499Y-130982128D01*
X124354091Y-130922517D01*
X124320374Y-130832116D01*
X124303798Y-130787673D01*
X124303793Y-130787664D01*
X124217547Y-130672455D01*
X124217544Y-130672452D01*
X124102335Y-130586206D01*
X124102328Y-130586202D01*
X123967482Y-130535908D01*
X123967483Y-130535908D01*
X123907883Y-130529501D01*
X123907881Y-130529500D01*
X123907873Y-130529500D01*
X123907865Y-130529500D01*
X123734500Y-130529500D01*
X123667461Y-130509815D01*
X123621706Y-130457011D01*
X123610500Y-130405500D01*
X123610500Y-127409187D01*
X123630185Y-127342148D01*
X123682989Y-127296393D01*
X123735133Y-127285190D01*
X135486145Y-127345811D01*
X135553077Y-127365840D01*
X135598559Y-127418879D01*
X135609500Y-127469808D01*
X135609500Y-130255500D01*
X135589815Y-130322539D01*
X135537011Y-130368294D01*
X135485501Y-130379500D01*
X135312130Y-130379500D01*
X135312123Y-130379501D01*
X135252516Y-130385908D01*
X135117671Y-130436202D01*
X135117664Y-130436206D01*
X135002455Y-130522452D01*
X135002452Y-130522455D01*
X134916206Y-130637664D01*
X134916202Y-130637671D01*
X134865908Y-130772517D01*
X134859501Y-130832116D01*
X134859500Y-130832135D01*
X134859500Y-132627870D01*
X134859501Y-132627876D01*
X134865908Y-132687483D01*
X134916202Y-132822328D01*
X134916206Y-132822335D01*
X135002452Y-132937544D01*
X135002455Y-132937547D01*
X135117664Y-133023793D01*
X135117671Y-133023797D01*
X135252517Y-133074091D01*
X135252516Y-133074091D01*
X135259444Y-133074835D01*
X135312127Y-133080500D01*
X137107872Y-133080499D01*
X137167483Y-133074091D01*
X137302331Y-133023796D01*
X137417546Y-132937546D01*
X137503796Y-132822331D01*
X137554091Y-132687483D01*
X137560500Y-132627873D01*
X137560499Y-132603979D01*
X137563330Y-132590963D01*
X137573940Y-132571525D01*
X137580179Y-132550275D01*
X137596803Y-132529643D01*
X137596808Y-132529636D01*
X137596811Y-132529634D01*
X137596818Y-132529626D01*
X138267037Y-131859408D01*
X138284075Y-131922993D01*
X138349901Y-132037007D01*
X138442993Y-132130099D01*
X138557007Y-132195925D01*
X138620590Y-132212962D01*
X137988282Y-132845269D01*
X137988282Y-132845270D01*
X138042449Y-132884624D01*
X138231782Y-132981095D01*
X138433870Y-133046757D01*
X138643754Y-133080000D01*
X138856246Y-133080000D01*
X139066127Y-133046757D01*
X139066130Y-133046757D01*
X139268217Y-132981095D01*
X139457554Y-132884622D01*
X139511716Y-132845270D01*
X139511717Y-132845270D01*
X138879408Y-132212962D01*
X138942993Y-132195925D01*
X139057007Y-132130099D01*
X139150099Y-132037007D01*
X139215925Y-131922993D01*
X139232962Y-131859409D01*
X139865270Y-132491717D01*
X139865270Y-132491716D01*
X139904622Y-132437554D01*
X140001095Y-132248217D01*
X140066757Y-132046130D01*
X140066757Y-132046127D01*
X140100000Y-131836246D01*
X140100000Y-131623753D01*
X140066757Y-131413872D01*
X140066757Y-131413869D01*
X140001095Y-131211782D01*
X139904624Y-131022449D01*
X139865270Y-130968282D01*
X139865269Y-130968282D01*
X139232962Y-131600590D01*
X139215925Y-131537007D01*
X139150099Y-131422993D01*
X139057007Y-131329901D01*
X138942993Y-131264075D01*
X138879409Y-131247037D01*
X139511716Y-130614728D01*
X139457550Y-130575375D01*
X139268217Y-130478904D01*
X139066129Y-130413242D01*
X138856246Y-130380000D01*
X138643754Y-130380000D01*
X138433872Y-130413242D01*
X138433869Y-130413242D01*
X138231782Y-130478904D01*
X138042439Y-130575380D01*
X137988282Y-130614727D01*
X137988282Y-130614728D01*
X138620591Y-131247037D01*
X138557007Y-131264075D01*
X138442993Y-131329901D01*
X138349901Y-131422993D01*
X138284075Y-131537007D01*
X138267037Y-131600591D01*
X137596818Y-130930372D01*
X137563333Y-130869049D01*
X137563330Y-130869036D01*
X137560499Y-130856015D01*
X137560499Y-130832128D01*
X137554091Y-130772517D01*
X137525078Y-130694728D01*
X137503798Y-130637672D01*
X137503793Y-130637664D01*
X137417547Y-130522455D01*
X137417544Y-130522452D01*
X137302335Y-130436206D01*
X137302328Y-130436202D01*
X137167482Y-130385908D01*
X137167483Y-130385908D01*
X137107883Y-130379501D01*
X137107881Y-130379500D01*
X137107873Y-130379500D01*
X137107865Y-130379500D01*
X136934500Y-130379500D01*
X136867461Y-130359815D01*
X136821706Y-130307011D01*
X136810500Y-130255500D01*
X136810500Y-127477283D01*
X136830185Y-127410244D01*
X136882989Y-127364489D01*
X136935131Y-127353286D01*
X147656145Y-127408594D01*
X147723077Y-127428623D01*
X147768559Y-127481662D01*
X147779500Y-127532591D01*
X147779500Y-130335500D01*
X147759815Y-130402539D01*
X147707011Y-130448294D01*
X147655501Y-130459500D01*
X147482130Y-130459500D01*
X147482123Y-130459501D01*
X147422516Y-130465908D01*
X147287671Y-130516202D01*
X147287664Y-130516206D01*
X147172455Y-130602452D01*
X147172452Y-130602455D01*
X147086206Y-130717664D01*
X147086202Y-130717671D01*
X147035908Y-130852517D01*
X147029501Y-130912116D01*
X147029500Y-130912135D01*
X147029500Y-132707870D01*
X147029501Y-132707876D01*
X147035908Y-132767483D01*
X147086202Y-132902328D01*
X147086206Y-132902335D01*
X147172452Y-133017544D01*
X147172455Y-133017547D01*
X147287664Y-133103793D01*
X147287671Y-133103797D01*
X147422517Y-133154091D01*
X147422516Y-133154091D01*
X147429444Y-133154835D01*
X147482127Y-133160500D01*
X149277872Y-133160499D01*
X149337483Y-133154091D01*
X149472331Y-133103796D01*
X149587546Y-133017546D01*
X149673796Y-132902331D01*
X149724091Y-132767483D01*
X149730500Y-132707873D01*
X149730499Y-132683979D01*
X149733330Y-132670963D01*
X149743940Y-132651525D01*
X149750179Y-132630275D01*
X149766803Y-132609643D01*
X149766808Y-132609636D01*
X149766811Y-132609634D01*
X149766818Y-132609626D01*
X150437037Y-131939408D01*
X150454075Y-132002993D01*
X150519901Y-132117007D01*
X150612993Y-132210099D01*
X150727007Y-132275925D01*
X150790590Y-132292962D01*
X150158282Y-132925269D01*
X150158282Y-132925270D01*
X150212449Y-132964624D01*
X150401782Y-133061095D01*
X150603870Y-133126757D01*
X150813754Y-133160000D01*
X151026246Y-133160000D01*
X151236127Y-133126757D01*
X151236130Y-133126757D01*
X151438217Y-133061095D01*
X151627554Y-132964622D01*
X151681716Y-132925270D01*
X151681717Y-132925270D01*
X151049408Y-132292962D01*
X151112993Y-132275925D01*
X151227007Y-132210099D01*
X151320099Y-132117007D01*
X151385925Y-132002993D01*
X151402962Y-131939408D01*
X152035270Y-132571717D01*
X152035270Y-132571716D01*
X152074622Y-132517554D01*
X152171095Y-132328217D01*
X152236757Y-132126130D01*
X152236757Y-132126127D01*
X152270000Y-131916246D01*
X152270000Y-131703753D01*
X152236757Y-131493872D01*
X152236757Y-131493869D01*
X152171095Y-131291782D01*
X152074624Y-131102449D01*
X152035270Y-131048282D01*
X152035269Y-131048282D01*
X151402962Y-131680590D01*
X151385925Y-131617007D01*
X151320099Y-131502993D01*
X151227007Y-131409901D01*
X151112993Y-131344075D01*
X151049409Y-131327037D01*
X151681716Y-130694728D01*
X151627550Y-130655375D01*
X151438217Y-130558904D01*
X151236129Y-130493242D01*
X151026246Y-130460000D01*
X150813754Y-130460000D01*
X150603872Y-130493242D01*
X150603869Y-130493242D01*
X150401782Y-130558904D01*
X150212439Y-130655380D01*
X150158282Y-130694727D01*
X150158282Y-130694728D01*
X150790591Y-131327037D01*
X150727007Y-131344075D01*
X150612993Y-131409901D01*
X150519901Y-131502993D01*
X150454075Y-131617007D01*
X150437037Y-131680591D01*
X149766818Y-131010372D01*
X149733333Y-130949049D01*
X149733330Y-130949036D01*
X149730499Y-130936015D01*
X149730499Y-130912128D01*
X149724091Y-130852517D01*
X149691348Y-130764728D01*
X149673798Y-130717673D01*
X149673793Y-130717664D01*
X149587547Y-130602455D01*
X149587544Y-130602452D01*
X149472335Y-130516206D01*
X149472328Y-130516202D01*
X149337482Y-130465908D01*
X149337483Y-130465908D01*
X149277883Y-130459501D01*
X149277881Y-130459500D01*
X149277873Y-130459500D01*
X149277865Y-130459500D01*
X149104500Y-130459500D01*
X149037461Y-130439815D01*
X148991706Y-130387011D01*
X148980500Y-130335500D01*
X148980500Y-127540066D01*
X149000185Y-127473027D01*
X149052989Y-127427272D01*
X149105131Y-127416069D01*
X160536147Y-127475040D01*
X160603077Y-127495068D01*
X160648559Y-127548107D01*
X160659500Y-127599036D01*
X160659500Y-130405500D01*
X160639815Y-130472539D01*
X160587011Y-130518294D01*
X160535501Y-130529500D01*
X160362130Y-130529500D01*
X160362123Y-130529501D01*
X160302516Y-130535908D01*
X160167671Y-130586202D01*
X160167664Y-130586206D01*
X160052455Y-130672452D01*
X160052452Y-130672455D01*
X159966206Y-130787664D01*
X159966202Y-130787671D01*
X159915908Y-130922517D01*
X159909501Y-130982116D01*
X159909500Y-130982135D01*
X159909500Y-132777870D01*
X159909501Y-132777876D01*
X159915908Y-132837483D01*
X159966202Y-132972328D01*
X159966206Y-132972335D01*
X160052452Y-133087544D01*
X160052455Y-133087547D01*
X160167664Y-133173793D01*
X160167671Y-133173797D01*
X160302517Y-133224091D01*
X160302516Y-133224091D01*
X160309444Y-133224835D01*
X160362127Y-133230500D01*
X162157872Y-133230499D01*
X162217483Y-133224091D01*
X162352331Y-133173796D01*
X162467546Y-133087546D01*
X162553796Y-132972331D01*
X162604091Y-132837483D01*
X162610500Y-132777873D01*
X162610499Y-132753979D01*
X162613330Y-132740963D01*
X162623940Y-132721525D01*
X162630179Y-132700275D01*
X162646803Y-132679643D01*
X162646808Y-132679636D01*
X162646811Y-132679634D01*
X162646818Y-132679626D01*
X163317037Y-132009408D01*
X163334075Y-132072993D01*
X163399901Y-132187007D01*
X163492993Y-132280099D01*
X163607007Y-132345925D01*
X163670590Y-132362962D01*
X163038282Y-132995269D01*
X163038282Y-132995270D01*
X163092449Y-133034624D01*
X163281782Y-133131095D01*
X163483870Y-133196757D01*
X163693754Y-133230000D01*
X163906246Y-133230000D01*
X164116127Y-133196757D01*
X164116130Y-133196757D01*
X164318217Y-133131095D01*
X164507554Y-133034622D01*
X164561716Y-132995270D01*
X164561717Y-132995270D01*
X163929408Y-132362962D01*
X163992993Y-132345925D01*
X164107007Y-132280099D01*
X164200099Y-132187007D01*
X164265925Y-132072993D01*
X164282962Y-132009408D01*
X164915270Y-132641717D01*
X164915270Y-132641716D01*
X164954622Y-132587554D01*
X165051095Y-132398217D01*
X165116757Y-132196130D01*
X165116757Y-132196127D01*
X165150000Y-131986246D01*
X165150000Y-131773753D01*
X165116757Y-131563872D01*
X165116757Y-131563869D01*
X165051095Y-131361782D01*
X164954624Y-131172449D01*
X164915270Y-131118282D01*
X164915269Y-131118282D01*
X164282962Y-131750590D01*
X164265925Y-131687007D01*
X164200099Y-131572993D01*
X164107007Y-131479901D01*
X163992993Y-131414075D01*
X163929409Y-131397037D01*
X164561716Y-130764728D01*
X164507550Y-130725375D01*
X164318217Y-130628904D01*
X164116129Y-130563242D01*
X163906246Y-130530000D01*
X163693754Y-130530000D01*
X163483872Y-130563242D01*
X163483869Y-130563242D01*
X163281782Y-130628904D01*
X163092439Y-130725380D01*
X163038282Y-130764727D01*
X163038282Y-130764728D01*
X163670591Y-131397037D01*
X163607007Y-131414075D01*
X163492993Y-131479901D01*
X163399901Y-131572993D01*
X163334075Y-131687007D01*
X163317037Y-131750591D01*
X162646818Y-131080372D01*
X162613333Y-131019049D01*
X162613330Y-131019036D01*
X162610499Y-131006015D01*
X162610499Y-130982128D01*
X162604091Y-130922517D01*
X162570374Y-130832116D01*
X162553798Y-130787673D01*
X162553793Y-130787664D01*
X162467547Y-130672455D01*
X162467544Y-130672452D01*
X162352335Y-130586206D01*
X162352328Y-130586202D01*
X162217482Y-130535908D01*
X162217483Y-130535908D01*
X162157883Y-130529501D01*
X162157881Y-130529500D01*
X162157873Y-130529500D01*
X162157865Y-130529500D01*
X161984500Y-130529500D01*
X161917461Y-130509815D01*
X161871706Y-130457011D01*
X161860500Y-130405500D01*
X161860500Y-127606512D01*
X161880185Y-127539473D01*
X161932989Y-127493718D01*
X161985133Y-127482515D01*
X167778794Y-127512403D01*
X167767000Y-128397000D01*
X170688000Y-128397000D01*
X170693797Y-127527440D01*
X171080143Y-127529434D01*
X171147077Y-127549464D01*
X171192559Y-127602503D01*
X171203500Y-127653432D01*
X171203500Y-143994978D01*
X171183815Y-144062017D01*
X171131011Y-144107772D01*
X171080485Y-144118974D01*
X160930436Y-144199596D01*
X160929451Y-144199600D01*
X98040743Y-144199600D01*
X97973704Y-144179915D01*
X97927949Y-144127111D01*
X97916743Y-144075810D01*
X97898288Y-133173793D01*
X97888305Y-127276700D01*
X97907876Y-127209629D01*
X97960603Y-127163785D01*
X98012944Y-127152494D01*
X109486144Y-127211682D01*
G37*
%TD.AperFunction*%
%TD*%
%TA.AperFunction,Conductor*%
%TO.N,+3.3V*%
G36*
X115985500Y-64051635D02*
G01*
X115985500Y-66476234D01*
X115965815Y-66543273D01*
X115964602Y-66545125D01*
X115876609Y-66676814D01*
X115876602Y-66676827D01*
X115816264Y-66822498D01*
X115816261Y-66822510D01*
X115785500Y-66977153D01*
X115785500Y-67134846D01*
X115816261Y-67289489D01*
X115816264Y-67289501D01*
X115876602Y-67435172D01*
X115876609Y-67435185D01*
X115964210Y-67566288D01*
X115964213Y-67566292D01*
X116075707Y-67677786D01*
X116075715Y-67677792D01*
X116152477Y-67729083D01*
X116171268Y-67744504D01*
X116217284Y-67790520D01*
X116217286Y-67790521D01*
X116217290Y-67790524D01*
X116331564Y-67856499D01*
X116354216Y-67869577D01*
X116506943Y-67910500D01*
X116506945Y-67910500D01*
X116665055Y-67910500D01*
X116665057Y-67910500D01*
X116817784Y-67869577D01*
X116954716Y-67790520D01*
X117000739Y-67744496D01*
X117019513Y-67729087D01*
X117096289Y-67677789D01*
X117207789Y-67566289D01*
X117295394Y-67435179D01*
X117355737Y-67289497D01*
X117355739Y-67289489D01*
X117356340Y-67287510D01*
X117356938Y-67286596D01*
X117358068Y-67283870D01*
X117358585Y-67284084D01*
X117394637Y-67229072D01*
X117458450Y-67200615D01*
X117527517Y-67211176D01*
X117579910Y-67257401D01*
X117593660Y-67287510D01*
X117594262Y-67289497D01*
X117654602Y-67435172D01*
X117654609Y-67435185D01*
X117742210Y-67566288D01*
X117742213Y-67566292D01*
X117853707Y-67677786D01*
X117853711Y-67677789D01*
X117984814Y-67765390D01*
X117984827Y-67765397D01*
X118130498Y-67825735D01*
X118130503Y-67825737D01*
X118285153Y-67856499D01*
X118285156Y-67856500D01*
X118285158Y-67856500D01*
X118442844Y-67856500D01*
X118442845Y-67856499D01*
X118597497Y-67825737D01*
X118743179Y-67765394D01*
X118874289Y-67677789D01*
X118985789Y-67566289D01*
X119073394Y-67435179D01*
X119133737Y-67289497D01*
X119164500Y-67134842D01*
X119164500Y-66977158D01*
X119164500Y-66977155D01*
X119164499Y-66977153D01*
X119133737Y-66822503D01*
X119103456Y-66749397D01*
X119073397Y-66676827D01*
X119073390Y-66676814D01*
X118985398Y-66545125D01*
X118964520Y-66478447D01*
X118964500Y-66476234D01*
X118964500Y-65095765D01*
X118984185Y-65028726D01*
X118985398Y-65026874D01*
X119073390Y-64895185D01*
X119073390Y-64895184D01*
X119073394Y-64895179D01*
X119133737Y-64749497D01*
X119164500Y-64594842D01*
X119164500Y-64437158D01*
X119164500Y-64437155D01*
X119164499Y-64437153D01*
X119151497Y-64371789D01*
X119133737Y-64282503D01*
X119081904Y-64157365D01*
X119073397Y-64136827D01*
X119073390Y-64136814D01*
X119037597Y-64083246D01*
X121596100Y-64109745D01*
X121596100Y-77558309D01*
X121576415Y-77625348D01*
X121523611Y-77671103D01*
X121454453Y-77681047D01*
X121424648Y-77672870D01*
X121273501Y-77610264D01*
X121273489Y-77610261D01*
X121118845Y-77579500D01*
X121118842Y-77579500D01*
X120961158Y-77579500D01*
X120961155Y-77579500D01*
X120806510Y-77610261D01*
X120806498Y-77610264D01*
X120660827Y-77670602D01*
X120660814Y-77670609D01*
X120535038Y-77754651D01*
X120468360Y-77775529D01*
X120400980Y-77757044D01*
X120378466Y-77739230D01*
X115746818Y-73107582D01*
X115713333Y-73046259D01*
X115710499Y-73019901D01*
X115710499Y-71672129D01*
X115710498Y-71672123D01*
X115710497Y-71672116D01*
X115704091Y-71612517D01*
X115653796Y-71477669D01*
X115653795Y-71477668D01*
X115653793Y-71477664D01*
X115567547Y-71362455D01*
X115567544Y-71362452D01*
X115452335Y-71276206D01*
X115452328Y-71276202D01*
X115317482Y-71225908D01*
X115317483Y-71225908D01*
X115257883Y-71219501D01*
X115257881Y-71219500D01*
X115257873Y-71219500D01*
X115257864Y-71219500D01*
X113462129Y-71219500D01*
X113462123Y-71219501D01*
X113402516Y-71225908D01*
X113267671Y-71276202D01*
X113267664Y-71276206D01*
X113152455Y-71362452D01*
X113152452Y-71362455D01*
X113066206Y-71477664D01*
X113066202Y-71477671D01*
X113015908Y-71612517D01*
X113009501Y-71672116D01*
X113009501Y-71672123D01*
X113009500Y-71672135D01*
X113009500Y-73467870D01*
X113009501Y-73467876D01*
X113015908Y-73527483D01*
X113066202Y-73662328D01*
X113066206Y-73662335D01*
X113152452Y-73777544D01*
X113152455Y-73777547D01*
X113267664Y-73863793D01*
X113267671Y-73863797D01*
X113402517Y-73914091D01*
X113402516Y-73914091D01*
X113409444Y-73914835D01*
X113462127Y-73920500D01*
X114809902Y-73920499D01*
X114876941Y-73940184D01*
X114897582Y-73956817D01*
X119801284Y-78860520D01*
X119938215Y-78939577D01*
X120090943Y-78980501D01*
X120090946Y-78980501D01*
X120256654Y-78980501D01*
X120256670Y-78980500D01*
X120460234Y-78980500D01*
X120527273Y-79000185D01*
X120529125Y-79001398D01*
X120660814Y-79089390D01*
X120660827Y-79089397D01*
X120806498Y-79149735D01*
X120806503Y-79149737D01*
X120954482Y-79179172D01*
X120961153Y-79180499D01*
X120961156Y-79180500D01*
X120961158Y-79180500D01*
X121118844Y-79180500D01*
X121118845Y-79180499D01*
X121273497Y-79149737D01*
X121367174Y-79110935D01*
X121424648Y-79087129D01*
X121494117Y-79079660D01*
X121556596Y-79110935D01*
X121592248Y-79171024D01*
X121596100Y-79201690D01*
X121596100Y-85497303D01*
X121576415Y-85564342D01*
X121559781Y-85584984D01*
X119809184Y-87335581D01*
X119747861Y-87369066D01*
X119721503Y-87371900D01*
X118362270Y-87371900D01*
X118362254Y-87371899D01*
X118354658Y-87371899D01*
X118196543Y-87371899D01*
X118120179Y-87392361D01*
X118043814Y-87412823D01*
X118043809Y-87412826D01*
X117906890Y-87491875D01*
X117906882Y-87491881D01*
X117333339Y-88065425D01*
X117272016Y-88098910D01*
X117269850Y-88099361D01*
X117114508Y-88130261D01*
X117114498Y-88130264D01*
X116968827Y-88190602D01*
X116968814Y-88190609D01*
X116837711Y-88278210D01*
X116837707Y-88278213D01*
X116726213Y-88389707D01*
X116726210Y-88389711D01*
X116638609Y-88520814D01*
X116638602Y-88520827D01*
X116578264Y-88666498D01*
X116578261Y-88666510D01*
X116547500Y-88821153D01*
X116547500Y-88978846D01*
X116578261Y-89133489D01*
X116578264Y-89133501D01*
X116638602Y-89279172D01*
X116638609Y-89279185D01*
X116726210Y-89410288D01*
X116726213Y-89410292D01*
X116837707Y-89521786D01*
X116837711Y-89521789D01*
X116968814Y-89609390D01*
X116968827Y-89609397D01*
X117114498Y-89669735D01*
X117114503Y-89669737D01*
X117269153Y-89700499D01*
X117269156Y-89700500D01*
X117269158Y-89700500D01*
X117426844Y-89700500D01*
X117426845Y-89700499D01*
X117581497Y-89669737D01*
X117727179Y-89609394D01*
X117858289Y-89521789D01*
X117969789Y-89410289D01*
X118057394Y-89279179D01*
X118117737Y-89133497D01*
X118137113Y-89036085D01*
X118148638Y-88978150D01*
X118181023Y-88916239D01*
X118182462Y-88914772D01*
X118488018Y-88609216D01*
X118549340Y-88575734D01*
X118575698Y-88572900D01*
X119934931Y-88572900D01*
X119934947Y-88572901D01*
X119942543Y-88572901D01*
X120100654Y-88572901D01*
X120100657Y-88572901D01*
X120253385Y-88531977D01*
X120303504Y-88503039D01*
X120390316Y-88452920D01*
X120502120Y-88341116D01*
X120502120Y-88341114D01*
X120512328Y-88330907D01*
X120512330Y-88330904D01*
X122555106Y-86288128D01*
X122555111Y-86288124D01*
X122565314Y-86277920D01*
X122565316Y-86277920D01*
X122677120Y-86166116D01*
X122756177Y-86029184D01*
X122797100Y-85876457D01*
X122797100Y-64122184D01*
X123209000Y-64126450D01*
X123209000Y-86634402D01*
X123189315Y-86701441D01*
X123172681Y-86722083D01*
X121027884Y-88866880D01*
X119778466Y-90116297D01*
X119717143Y-90149782D01*
X119714977Y-90150233D01*
X119654508Y-90162261D01*
X119654498Y-90162264D01*
X119508827Y-90222602D01*
X119508814Y-90222609D01*
X119377711Y-90310210D01*
X119377707Y-90310213D01*
X119266213Y-90421707D01*
X119266210Y-90421711D01*
X119178609Y-90552814D01*
X119178602Y-90552827D01*
X119118264Y-90698498D01*
X119118261Y-90698510D01*
X119087500Y-90853153D01*
X119087500Y-91010846D01*
X119118261Y-91165489D01*
X119118264Y-91165501D01*
X119178602Y-91311172D01*
X119178609Y-91311185D01*
X119266210Y-91442288D01*
X119266213Y-91442292D01*
X119377707Y-91553786D01*
X119377711Y-91553789D01*
X119508814Y-91641390D01*
X119508827Y-91641397D01*
X119654498Y-91701735D01*
X119654503Y-91701737D01*
X119809153Y-91732499D01*
X119809156Y-91732500D01*
X119809158Y-91732500D01*
X119966844Y-91732500D01*
X119966845Y-91732499D01*
X120121497Y-91701737D01*
X120267179Y-91641394D01*
X120398289Y-91553789D01*
X120509789Y-91442289D01*
X120597394Y-91311179D01*
X120657737Y-91165497D01*
X120688500Y-91010842D01*
X120688500Y-90956097D01*
X120708185Y-90889058D01*
X120724819Y-90868416D01*
X121171528Y-90421707D01*
X121877120Y-89716116D01*
X121877120Y-89716114D01*
X121887324Y-89705911D01*
X121887328Y-89705906D01*
X124178213Y-87415021D01*
X124178216Y-87415020D01*
X124290020Y-87303216D01*
X124340139Y-87216404D01*
X124369077Y-87166285D01*
X124410001Y-87013557D01*
X124410001Y-86855443D01*
X124410001Y-86847848D01*
X124410000Y-86847830D01*
X124410000Y-79508228D01*
X124429685Y-79441189D01*
X124482489Y-79395434D01*
X124551647Y-79385490D01*
X124615203Y-79414515D01*
X124637102Y-79439337D01*
X124699210Y-79532288D01*
X124699213Y-79532292D01*
X124810707Y-79643786D01*
X124810711Y-79643789D01*
X124941814Y-79731390D01*
X124941827Y-79731397D01*
X125087498Y-79791735D01*
X125087503Y-79791737D01*
X125242153Y-79822499D01*
X125242156Y-79822500D01*
X125242158Y-79822500D01*
X125399844Y-79822500D01*
X125399845Y-79822499D01*
X125554497Y-79791737D01*
X125700179Y-79731394D01*
X125831289Y-79643789D01*
X125942789Y-79532289D01*
X126030394Y-79401179D01*
X126090737Y-79255497D01*
X126121500Y-79100842D01*
X126121500Y-78943158D01*
X126121500Y-78943155D01*
X126121499Y-78943153D01*
X126108707Y-78878844D01*
X126090737Y-78788503D01*
X126062840Y-78721153D01*
X126030397Y-78642827D01*
X126030390Y-78642814D01*
X125942789Y-78511711D01*
X125942786Y-78511707D01*
X125831292Y-78400213D01*
X125831288Y-78400210D01*
X125700185Y-78312609D01*
X125700172Y-78312602D01*
X125554501Y-78252264D01*
X125554491Y-78252261D01*
X125399149Y-78221361D01*
X125337238Y-78188976D01*
X125335660Y-78187425D01*
X125185819Y-78037584D01*
X125152334Y-77976261D01*
X125149500Y-77949903D01*
X125149500Y-76321153D01*
X125399500Y-76321153D01*
X125399500Y-76478846D01*
X125430261Y-76633489D01*
X125430264Y-76633501D01*
X125490602Y-76779172D01*
X125490609Y-76779185D01*
X125578602Y-76910874D01*
X125599480Y-76977551D01*
X125599500Y-76979765D01*
X125599500Y-77313330D01*
X125599499Y-77313348D01*
X125599499Y-77479054D01*
X125599498Y-77479054D01*
X125640423Y-77631785D01*
X125662835Y-77670602D01*
X125662836Y-77670606D01*
X125662837Y-77670606D01*
X125719479Y-77768714D01*
X125719481Y-77768717D01*
X125838349Y-77887585D01*
X125838355Y-77887590D01*
X126765425Y-78814660D01*
X126798910Y-78875983D01*
X126799361Y-78878149D01*
X126830261Y-79033491D01*
X126830264Y-79033501D01*
X126890602Y-79179172D01*
X126890609Y-79179185D01*
X126978210Y-79310288D01*
X126978213Y-79310292D01*
X127089707Y-79421786D01*
X127089711Y-79421789D01*
X127220814Y-79509390D01*
X127220827Y-79509397D01*
X127366498Y-79569735D01*
X127366503Y-79569737D01*
X127521153Y-79600499D01*
X127521156Y-79600500D01*
X127521158Y-79600500D01*
X127678844Y-79600500D01*
X127678845Y-79600499D01*
X127833497Y-79569737D01*
X127979179Y-79509394D01*
X128110289Y-79421789D01*
X128221789Y-79310289D01*
X128309394Y-79179179D01*
X128369737Y-79033497D01*
X128400500Y-78878842D01*
X128400500Y-78721158D01*
X128400500Y-78721155D01*
X128400499Y-78721153D01*
X128384919Y-78642827D01*
X128369737Y-78566503D01*
X128347040Y-78511707D01*
X128309397Y-78420827D01*
X128309390Y-78420814D01*
X128221789Y-78289711D01*
X128221786Y-78289707D01*
X128110292Y-78178213D01*
X128110288Y-78178210D01*
X127979185Y-78090609D01*
X127979172Y-78090602D01*
X127833501Y-78030264D01*
X127833491Y-78030261D01*
X127678149Y-77999361D01*
X127616238Y-77966976D01*
X127614660Y-77965425D01*
X126836819Y-77187584D01*
X126822115Y-77160656D01*
X126805523Y-77134838D01*
X126804631Y-77128637D01*
X126803334Y-77126261D01*
X126800500Y-77099903D01*
X126800500Y-76979765D01*
X126820185Y-76912726D01*
X126821398Y-76910874D01*
X126909390Y-76779185D01*
X126909390Y-76779184D01*
X126909394Y-76779179D01*
X126969737Y-76633497D01*
X127000500Y-76478842D01*
X127000500Y-76321158D01*
X127000500Y-76321155D01*
X127000499Y-76321153D01*
X126969738Y-76166510D01*
X126969737Y-76166503D01*
X126969735Y-76166498D01*
X126909397Y-76020827D01*
X126909390Y-76020814D01*
X126821789Y-75889711D01*
X126821786Y-75889707D01*
X126710292Y-75778213D01*
X126710288Y-75778210D01*
X126579185Y-75690609D01*
X126579172Y-75690602D01*
X126433501Y-75630264D01*
X126433489Y-75630261D01*
X126278845Y-75599500D01*
X126278842Y-75599500D01*
X126121158Y-75599500D01*
X126121155Y-75599500D01*
X125966510Y-75630261D01*
X125966498Y-75630264D01*
X125820827Y-75690602D01*
X125820814Y-75690609D01*
X125689711Y-75778210D01*
X125689707Y-75778213D01*
X125578213Y-75889707D01*
X125578210Y-75889711D01*
X125490609Y-76020814D01*
X125490602Y-76020827D01*
X125430264Y-76166498D01*
X125430261Y-76166510D01*
X125399500Y-76321153D01*
X125149500Y-76321153D01*
X125149500Y-65418332D01*
X125169185Y-65351293D01*
X125221989Y-65305538D01*
X125291147Y-65295594D01*
X125297692Y-65296715D01*
X125397850Y-65316638D01*
X125459761Y-65349023D01*
X125461339Y-65350574D01*
X125759129Y-65648365D01*
X125759135Y-65648370D01*
X126515139Y-66404374D01*
X126515149Y-66404385D01*
X126519479Y-66408715D01*
X126519480Y-66408716D01*
X126631284Y-66520520D01*
X126682845Y-66550288D01*
X126718095Y-66570639D01*
X126718097Y-66570641D01*
X126756151Y-66592611D01*
X126768215Y-66599577D01*
X126920943Y-66640501D01*
X126920946Y-66640501D01*
X127086653Y-66640501D01*
X127086669Y-66640500D01*
X127182234Y-66640500D01*
X127249273Y-66660185D01*
X127251125Y-66661398D01*
X127382814Y-66749390D01*
X127382827Y-66749397D01*
X127528498Y-66809735D01*
X127528503Y-66809737D01*
X127683153Y-66840499D01*
X127683156Y-66840500D01*
X127683158Y-66840500D01*
X127840844Y-66840500D01*
X127840845Y-66840499D01*
X127995497Y-66809737D01*
X128141179Y-66749394D01*
X128272289Y-66661789D01*
X128383789Y-66550289D01*
X128471394Y-66419179D01*
X128531737Y-66273497D01*
X128562500Y-66118842D01*
X128562500Y-65961158D01*
X128562500Y-65961155D01*
X128562499Y-65961153D01*
X128531738Y-65806510D01*
X128531737Y-65806503D01*
X128531735Y-65806498D01*
X128471397Y-65660827D01*
X128471390Y-65660814D01*
X128383789Y-65529711D01*
X128383786Y-65529707D01*
X128272292Y-65418213D01*
X128272288Y-65418210D01*
X128141185Y-65330609D01*
X128141172Y-65330602D01*
X127995501Y-65270264D01*
X127995489Y-65270261D01*
X127840845Y-65239500D01*
X127840842Y-65239500D01*
X127683158Y-65239500D01*
X127683155Y-65239500D01*
X127528510Y-65270261D01*
X127528498Y-65270264D01*
X127382827Y-65330602D01*
X127382816Y-65330608D01*
X127321777Y-65371393D01*
X127255099Y-65392270D01*
X127187719Y-65373785D01*
X127165206Y-65355971D01*
X126608370Y-64799135D01*
X126608368Y-64799132D01*
X126310573Y-64501337D01*
X126277088Y-64440014D01*
X126276637Y-64437847D01*
X126263497Y-64371789D01*
X126245737Y-64282503D01*
X126193904Y-64157365D01*
X127065470Y-64166392D01*
X127128210Y-64260288D01*
X127128213Y-64260292D01*
X127239707Y-64371786D01*
X127239711Y-64371789D01*
X127370814Y-64459390D01*
X127370827Y-64459397D01*
X127472081Y-64501337D01*
X127516503Y-64519737D01*
X127671153Y-64550499D01*
X127671156Y-64550500D01*
X127671158Y-64550500D01*
X127828844Y-64550500D01*
X127828845Y-64550499D01*
X127983497Y-64519737D01*
X128129179Y-64459394D01*
X128260289Y-64371789D01*
X128371789Y-64260289D01*
X128425119Y-64180474D01*
X128899500Y-64185387D01*
X128899500Y-70670234D01*
X128879815Y-70737273D01*
X128878602Y-70739125D01*
X128790609Y-70870814D01*
X128790602Y-70870827D01*
X128730264Y-71016498D01*
X128730261Y-71016510D01*
X128699500Y-71171153D01*
X128699500Y-71328846D01*
X128730261Y-71483489D01*
X128730264Y-71483501D01*
X128790602Y-71629172D01*
X128790609Y-71629185D01*
X128878210Y-71760288D01*
X128878213Y-71760292D01*
X128989707Y-71871786D01*
X128989711Y-71871789D01*
X129120814Y-71959390D01*
X129120827Y-71959397D01*
X129179426Y-71983669D01*
X129266503Y-72019737D01*
X129387269Y-72043759D01*
X129421153Y-72050499D01*
X129421156Y-72050500D01*
X129421158Y-72050500D01*
X129578844Y-72050500D01*
X129578845Y-72050499D01*
X129733497Y-72019737D01*
X129820574Y-71983669D01*
X129878048Y-71959863D01*
X129947517Y-71952394D01*
X130009996Y-71983669D01*
X130045648Y-72043759D01*
X130049500Y-72074424D01*
X130049500Y-86243846D01*
X130029815Y-86310885D01*
X130013181Y-86331527D01*
X127634127Y-88710581D01*
X127572804Y-88744066D01*
X127546446Y-88746900D01*
X126789270Y-88746900D01*
X126789254Y-88746899D01*
X126781658Y-88746899D01*
X126623543Y-88746899D01*
X126547179Y-88767361D01*
X126470814Y-88787823D01*
X126470809Y-88787826D01*
X126333890Y-88866875D01*
X126333884Y-88866880D01*
X124731284Y-90469481D01*
X124281286Y-90919478D01*
X124169481Y-91031282D01*
X124169479Y-91031285D01*
X124119361Y-91118094D01*
X124119359Y-91118096D01*
X124090425Y-91168209D01*
X124090424Y-91168210D01*
X124090423Y-91168215D01*
X124049499Y-91320943D01*
X124049499Y-91320945D01*
X124049499Y-91489046D01*
X124049500Y-91489059D01*
X124049500Y-91770234D01*
X124029815Y-91837273D01*
X124028602Y-91839125D01*
X123940609Y-91970814D01*
X123940602Y-91970827D01*
X123880264Y-92116498D01*
X123880261Y-92116510D01*
X123849500Y-92271153D01*
X123849500Y-92428846D01*
X123880261Y-92583489D01*
X123880264Y-92583501D01*
X123940602Y-92729172D01*
X123940609Y-92729185D01*
X124028210Y-92860288D01*
X124028213Y-92860292D01*
X124139707Y-92971786D01*
X124139711Y-92971789D01*
X124270814Y-93059390D01*
X124270827Y-93059397D01*
X124416498Y-93119735D01*
X124416503Y-93119737D01*
X124571153Y-93150499D01*
X124571156Y-93150500D01*
X124571158Y-93150500D01*
X124728844Y-93150500D01*
X124728845Y-93150499D01*
X124883497Y-93119737D01*
X125029179Y-93059394D01*
X125160289Y-92971789D01*
X125271789Y-92860289D01*
X125309661Y-92803609D01*
X125363272Y-92758805D01*
X125412763Y-92748500D01*
X125554844Y-92748500D01*
X125554845Y-92748499D01*
X125709497Y-92717737D01*
X125855179Y-92657394D01*
X125986289Y-92569789D01*
X126041980Y-92514097D01*
X126067644Y-92494402D01*
X126094947Y-92478639D01*
X126181759Y-92428520D01*
X126293563Y-92316716D01*
X126293563Y-92316714D01*
X126303771Y-92306507D01*
X126303773Y-92306504D01*
X133757578Y-84852698D01*
X133818899Y-84819215D01*
X133888591Y-84824199D01*
X133944524Y-84866071D01*
X133966874Y-84916189D01*
X133980261Y-84983491D01*
X133980264Y-84983501D01*
X134040602Y-85129172D01*
X134040609Y-85129185D01*
X134128210Y-85260288D01*
X134128213Y-85260292D01*
X134239707Y-85371786D01*
X134239711Y-85371789D01*
X134370814Y-85459390D01*
X134370827Y-85459397D01*
X134462342Y-85497303D01*
X134516503Y-85519737D01*
X134661933Y-85548665D01*
X134671153Y-85550499D01*
X134671156Y-85550500D01*
X134671158Y-85550500D01*
X134828844Y-85550500D01*
X134828845Y-85550499D01*
X134983497Y-85519737D01*
X135129179Y-85459394D01*
X135260289Y-85371789D01*
X135371789Y-85260289D01*
X135459394Y-85129179D01*
X135519737Y-84983497D01*
X135543095Y-84866071D01*
X135550638Y-84828151D01*
X135583023Y-84766240D01*
X135584510Y-84764724D01*
X135730520Y-84618716D01*
X135809577Y-84481784D01*
X135850501Y-84329057D01*
X135850501Y-84170942D01*
X135850501Y-84163347D01*
X135850500Y-84163329D01*
X135850500Y-71829765D01*
X135870185Y-71762726D01*
X135871398Y-71760874D01*
X135959390Y-71629185D01*
X135959390Y-71629184D01*
X135959394Y-71629179D01*
X136019737Y-71483497D01*
X136050500Y-71328842D01*
X136050500Y-71171158D01*
X136050500Y-71171155D01*
X136050499Y-71171153D01*
X136019738Y-71016510D01*
X136019738Y-71016508D01*
X136019737Y-71016503D01*
X135986206Y-70935551D01*
X135959397Y-70870827D01*
X135959390Y-70870814D01*
X135871789Y-70739711D01*
X135871786Y-70739707D01*
X135760292Y-70628213D01*
X135760288Y-70628210D01*
X135629185Y-70540609D01*
X135629172Y-70540602D01*
X135483501Y-70480264D01*
X135483489Y-70480261D01*
X135328845Y-70449500D01*
X135328842Y-70449500D01*
X135171158Y-70449500D01*
X135171155Y-70449500D01*
X135016510Y-70480261D01*
X135016498Y-70480264D01*
X134870827Y-70540602D01*
X134870814Y-70540609D01*
X134739711Y-70628210D01*
X134739707Y-70628213D01*
X134628213Y-70739707D01*
X134628210Y-70739711D01*
X134540609Y-70870814D01*
X134540602Y-70870827D01*
X134480264Y-71016498D01*
X134480261Y-71016508D01*
X134452500Y-71156073D01*
X134452500Y-71156076D01*
X134449500Y-71171158D01*
X134449500Y-71328842D01*
X134452500Y-71343923D01*
X134452500Y-71343927D01*
X134480261Y-71483489D01*
X134480264Y-71483501D01*
X134540602Y-71629172D01*
X134540609Y-71629185D01*
X134628602Y-71760874D01*
X134649480Y-71827551D01*
X134649500Y-71829765D01*
X134649500Y-83852044D01*
X134629815Y-83919083D01*
X134577011Y-83964838D01*
X134549691Y-83973661D01*
X134516510Y-83980261D01*
X134516498Y-83980264D01*
X134375952Y-84038480D01*
X134306483Y-84045949D01*
X134244004Y-84014673D01*
X134208352Y-83954584D01*
X134204500Y-83923919D01*
X134204500Y-70937765D01*
X134224185Y-70870726D01*
X134225398Y-70868874D01*
X134313390Y-70737185D01*
X134313390Y-70737184D01*
X134313394Y-70737179D01*
X134373737Y-70591497D01*
X134404500Y-70436842D01*
X134404500Y-70279158D01*
X134404500Y-70279155D01*
X134404499Y-70279153D01*
X134373738Y-70124510D01*
X134373737Y-70124503D01*
X134373735Y-70124498D01*
X134313397Y-69978827D01*
X134313390Y-69978814D01*
X134225789Y-69847711D01*
X134225786Y-69847707D01*
X134114292Y-69736213D01*
X134114288Y-69736210D01*
X133983185Y-69648609D01*
X133983172Y-69648602D01*
X133837501Y-69588264D01*
X133837489Y-69588261D01*
X133682845Y-69557500D01*
X133682842Y-69557500D01*
X133525158Y-69557500D01*
X133525155Y-69557500D01*
X133370510Y-69588261D01*
X133370498Y-69588264D01*
X133224827Y-69648602D01*
X133224814Y-69648609D01*
X133093711Y-69736210D01*
X133093707Y-69736213D01*
X132982213Y-69847707D01*
X132982210Y-69847711D01*
X132894609Y-69978814D01*
X132894602Y-69978827D01*
X132834264Y-70124498D01*
X132834261Y-70124510D01*
X132803500Y-70279153D01*
X132803500Y-70436846D01*
X132834261Y-70591489D01*
X132834264Y-70591501D01*
X132894602Y-70737172D01*
X132894609Y-70737185D01*
X132982602Y-70868874D01*
X133003480Y-70935551D01*
X133003500Y-70937765D01*
X133003500Y-83856946D01*
X132983815Y-83923985D01*
X132967181Y-83944627D01*
X131462181Y-85449627D01*
X131400858Y-85483112D01*
X131331166Y-85478128D01*
X131275233Y-85436256D01*
X131250816Y-85370792D01*
X131250500Y-85361946D01*
X131250500Y-64209737D01*
X139000000Y-64290000D01*
X139000000Y-110500000D01*
X111124000Y-110500000D01*
X111056961Y-110480315D01*
X111011206Y-110427511D01*
X111000000Y-110376000D01*
X111000000Y-64125290D01*
X111019685Y-64058251D01*
X111072489Y-64012496D01*
X111125281Y-64001297D01*
X115985500Y-64051635D01*
G37*
%TD.AperFunction*%
%TA.AperFunction,Conductor*%
G36*
X117699661Y-64069389D02*
G01*
X117654609Y-64136814D01*
X117654602Y-64136827D01*
X117594264Y-64282498D01*
X117594261Y-64282510D01*
X117563500Y-64437153D01*
X117563500Y-64594846D01*
X117594261Y-64749489D01*
X117594264Y-64749501D01*
X117654602Y-64895172D01*
X117654609Y-64895185D01*
X117742602Y-65026874D01*
X117763480Y-65093551D01*
X117763500Y-65095765D01*
X117763500Y-66476234D01*
X117743815Y-66543273D01*
X117742602Y-66545125D01*
X117654609Y-66676814D01*
X117654602Y-66676827D01*
X117594262Y-66822503D01*
X117593659Y-66824493D01*
X117593059Y-66825407D01*
X117591932Y-66828130D01*
X117591415Y-66827916D01*
X117555359Y-66882930D01*
X117491546Y-66911384D01*
X117422479Y-66900821D01*
X117370088Y-66854595D01*
X117356341Y-66824493D01*
X117355737Y-66822503D01*
X117295397Y-66676827D01*
X117295390Y-66676814D01*
X117207398Y-66545125D01*
X117186520Y-66478447D01*
X117186500Y-66476234D01*
X117186500Y-64064074D01*
X117699661Y-64069389D01*
G37*
%TD.AperFunction*%
%TD*%
%TA.AperFunction,Conductor*%
%TO.N,+5V*%
G36*
X113941044Y-50019685D02*
G01*
X113986799Y-50072489D01*
X113997989Y-50125979D01*
X113793812Y-62918464D01*
X113773060Y-62985181D01*
X113719533Y-63030087D01*
X113678744Y-63040164D01*
X110080988Y-63299528D01*
X103000000Y-63810000D01*
X103000000Y-59881584D01*
X103016006Y-59912998D01*
X103122441Y-60059494D01*
X103122445Y-60059499D01*
X103250500Y-60187554D01*
X103250505Y-60187558D01*
X103378287Y-60280396D01*
X103397006Y-60293996D01*
X103502484Y-60347740D01*
X103558360Y-60376211D01*
X103558363Y-60376212D01*
X103644476Y-60404191D01*
X103730591Y-60432171D01*
X103813429Y-60445291D01*
X103909449Y-60460500D01*
X103909454Y-60460500D01*
X104090551Y-60460500D01*
X104177259Y-60446765D01*
X104269409Y-60432171D01*
X104441639Y-60376211D01*
X104602994Y-60293996D01*
X104749501Y-60187553D01*
X104877553Y-60059501D01*
X104983996Y-59912994D01*
X105066211Y-59751639D01*
X105122171Y-59579409D01*
X105136765Y-59487259D01*
X105150500Y-59400551D01*
X105150500Y-59219448D01*
X105134019Y-59115397D01*
X105122171Y-59040591D01*
X105066211Y-58868361D01*
X105066211Y-58868360D01*
X105037740Y-58812484D01*
X104983996Y-58707006D01*
X104970396Y-58688287D01*
X104877558Y-58560505D01*
X104877554Y-58560500D01*
X104749499Y-58432445D01*
X104749494Y-58432441D01*
X104602997Y-58326006D01*
X104602996Y-58326005D01*
X104602994Y-58326004D01*
X104551300Y-58299664D01*
X104441639Y-58243788D01*
X104441636Y-58243787D01*
X104269410Y-58187829D01*
X104090551Y-58159500D01*
X104090546Y-58159500D01*
X103909454Y-58159500D01*
X103909449Y-58159500D01*
X103730589Y-58187829D01*
X103558363Y-58243787D01*
X103558360Y-58243788D01*
X103397002Y-58326006D01*
X103250505Y-58432441D01*
X103250500Y-58432445D01*
X103122445Y-58560500D01*
X103122441Y-58560505D01*
X103016006Y-58707002D01*
X103000000Y-58738415D01*
X103000000Y-55140875D01*
X103069058Y-55307596D01*
X103184024Y-55479657D01*
X103330342Y-55625975D01*
X103330345Y-55625977D01*
X103502402Y-55740941D01*
X103693580Y-55820130D01*
X103896530Y-55860499D01*
X103896534Y-55860500D01*
X103896535Y-55860500D01*
X104103466Y-55860500D01*
X104103467Y-55860499D01*
X104306420Y-55820130D01*
X104497598Y-55740941D01*
X104669655Y-55625977D01*
X104815977Y-55479655D01*
X104930941Y-55307598D01*
X105010130Y-55116420D01*
X105050500Y-54913465D01*
X105050500Y-54706535D01*
X105010130Y-54503580D01*
X104930941Y-54312402D01*
X104815977Y-54140345D01*
X104815975Y-54140342D01*
X104669657Y-53994024D01*
X104583626Y-53936541D01*
X104497598Y-53879059D01*
X104306420Y-53799870D01*
X104306412Y-53799868D01*
X104103469Y-53759500D01*
X104103465Y-53759500D01*
X103896535Y-53759500D01*
X103896530Y-53759500D01*
X103693587Y-53799868D01*
X103693579Y-53799870D01*
X103502403Y-53879058D01*
X103330342Y-53994024D01*
X103184024Y-54140342D01*
X103069057Y-54312403D01*
X103000000Y-54479123D01*
X103000000Y-50000000D01*
X109993415Y-50000000D01*
X113874005Y-50000000D01*
X113941044Y-50019685D01*
G37*
%TD.AperFunction*%
%TD*%
M02*
