M48
; DRILL file {KiCad 9.0.4} date 2025-10-16T20:52:49-0500
; FORMAT={-:-/ absolute / metric / decimal}
; #@! TF.CreationDate,2025-10-16T20:52:49-05:00
; #@! TF.GenerationSoftware,Kicad,Pcbnew,9.0.4
; #@! TF.FileFunction,Plated,1,2,PTH
FMAT,2
METRIC
; #@! TA.AperFunction,Plated,PTH,ViaDrill
T1C0.300
; #@! TA.AperFunction,Plated,PTH,ComponentDrill
T2C0.864
; #@! TA.AperFunction,Plated,PTH,ComponentDrill
T3C1.000
%
G90
G05
T1
X101.8Y-102.65
X109.5Y-60.96
X110.0Y-55.0
X111.165Y-60.665
X111.915Y-59.915
X112.0Y-55.0
X112.0Y-58.0
X112.0Y-59.0
X112.35Y-95.7
X112.883Y-79.033
X113.0Y-55.0
X115.8Y-84.0
X116.586Y-67.056
X117.348Y-88.9
X118.364Y-64.516
X118.364Y-67.056
X119.888Y-90.932
X120.022Y-80.777
X120.1Y-56.1
X121.04Y-78.38
X121.2Y-52.0
X121.25Y-59.75
X121.25Y-62.25
X121.277Y-64.95
X121.82Y-55.63
X123.125Y-65.625
X124.65Y-92.35
X125.15Y-53.467
X125.15Y-54.567
X125.15Y-55.667
X125.15Y-56.767
X125.15Y-58.967
X125.15Y-60.067
X125.321Y-79.022
X125.476Y-64.516
X125.476Y-91.948
X126.2Y-76.4
X126.25Y-63.84
X127.6Y-78.8
X127.75Y-63.75
X127.762Y-66.04
X129.25Y-79.5
X129.5Y-71.25
X130.65Y-53.467
X132.0Y-79.5
X132.588Y-88.0
X133.604Y-70.358
X134.75Y-84.75
X135.0Y-57.0
X135.25Y-71.25
X136.906Y-76.725
X149.5Y-86.372
X149.835Y-78.0
X151.333Y-77.876
X151.75Y-85.572
X154.35Y-77.4
X154.8Y-85.15
X156.972Y-80.739
T2
X103.632Y-114.427
X103.632Y-116.967
X103.632Y-119.507
X103.632Y-122.047
X111.252Y-114.427
X111.252Y-116.967
X111.252Y-119.507
X111.252Y-122.047
X117.602Y-114.427
X117.602Y-116.967
X117.602Y-119.507
X117.602Y-122.047
X125.222Y-114.427
X125.222Y-116.967
X125.222Y-119.507
X125.222Y-122.047
X130.683Y-114.63
X130.683Y-117.17
X130.683Y-119.71
X130.683Y-122.25
X138.303Y-114.63
X138.303Y-117.17
X138.303Y-119.71
X138.303Y-122.25
X144.39Y-114.54
X144.39Y-117.08
X144.39Y-119.62
X144.39Y-122.16
X152.01Y-114.54
X152.01Y-117.08
X152.01Y-119.62
X152.01Y-122.16
X158.44Y-114.49
X158.44Y-117.03
X158.44Y-119.57
X158.44Y-122.11
X166.06Y-114.49
X166.06Y-117.03
X166.06Y-119.57
X166.06Y-122.11
T3
X108.54Y-84.171
X108.54Y-86.711
X110.21Y-131.73
X112.75Y-131.73
X114.36Y-72.57
X123.01Y-131.88
X125.55Y-131.88
X136.21Y-131.73
X137.922Y-55.626
X138.75Y-131.73
X140.462Y-55.626
X143.002Y-55.626
X145.542Y-55.626
X148.082Y-55.626
X148.38Y-131.81
X150.622Y-55.626
X150.92Y-131.81
X156.718Y-55.88
X159.258Y-55.88
X161.26Y-131.88
X161.798Y-55.88
X163.8Y-131.88
X164.338Y-55.88
X166.878Y-55.88
M30
