%TF.GenerationSoftware,KiCad,Pcbnew,9.0.4*%
%TF.CreationDate,2025-10-22T08:41:29-05:00*%
%TF.ProjectId,RemoteControl,52656d6f-7465-4436-9f6e-74726f6c2e6b,rev?*%
%TF.SameCoordinates,Original*%
%TF.FileFunction,Soldermask,Bot*%
%TF.FilePolarity,Negative*%
%FSLAX46Y46*%
G04 Gerber Fmt 4.6, Leading zero omitted, Abs format (unit mm)*
G04 Created by KiCad (PCBNEW 9.0.4) date 2025-10-22 08:41:29*
%MOMM*%
%LPD*%
G01*
G04 APERTURE LIST*
%ADD10C,0.120000*%
%ADD11R,1.700000X1.700000*%
%ADD12C,1.700000*%
%ADD13R,1.371600X1.371600*%
%ADD14C,1.371600*%
%ADD15C,1.800000*%
%ADD16C,1.600000*%
G04 APERTURE END LIST*
D10*
%TO.C,J1*%
X104800000Y-54810000D02*
G75*
G02*
X103200000Y-54810000I-800000J0D01*
G01*
X103200000Y-54810000D02*
G75*
G02*
X104800000Y-54810000I800000J0D01*
G01*
X104900000Y-59310000D02*
G75*
G02*
X103100000Y-59310000I-900000J0D01*
G01*
X103100000Y-59310000D02*
G75*
G02*
X104900000Y-59310000I900000J0D01*
G01*
%TD*%
D11*
%TO.C,J8*%
X123010000Y-131880000D03*
D12*
X125550000Y-131880000D03*
%TD*%
D11*
%TO.C,J3*%
X156718000Y-55880000D03*
D12*
X159258000Y-55880000D03*
X161798000Y-55880000D03*
X164338000Y-55880000D03*
X166878000Y-55880000D03*
%TD*%
D11*
%TO.C,J5*%
X150622000Y-55626000D03*
D12*
X148082000Y-55626000D03*
X145542000Y-55626000D03*
X143002000Y-55626000D03*
X140462000Y-55626000D03*
X137922000Y-55626000D03*
%TD*%
D11*
%TO.C,J11*%
X108540000Y-84171000D03*
D12*
X108540000Y-86711000D03*
%TD*%
D11*
%TO.C,J10*%
X114360000Y-72570000D03*
%TD*%
%TO.C,J9*%
X110210000Y-131730000D03*
D12*
X112750000Y-131730000D03*
%TD*%
D13*
%TO.C,U7*%
X117602000Y-114427000D03*
D14*
X117602000Y-116967000D03*
X117602000Y-119507000D03*
X117602000Y-122047000D03*
X125222000Y-122047000D03*
X125222000Y-119507000D03*
X125222000Y-116967000D03*
X125222000Y-114427000D03*
%TD*%
D13*
%TO.C,U6*%
X158440000Y-114490000D03*
D14*
X158440000Y-117030000D03*
X158440000Y-119570000D03*
X158440000Y-122110000D03*
X166060000Y-122110000D03*
X166060000Y-119570000D03*
X166060000Y-117030000D03*
X166060000Y-114490000D03*
%TD*%
D11*
%TO.C,J4*%
X136210000Y-131730000D03*
D12*
X138750000Y-131730000D03*
%TD*%
D15*
%TO.C,J1*%
X104000000Y-59310000D03*
D16*
X104000000Y-54810000D03*
%TD*%
D13*
%TO.C,U4*%
X130683000Y-114630200D03*
D14*
X130683000Y-117170200D03*
X130683000Y-119710200D03*
X130683000Y-122250200D03*
X138303000Y-122250200D03*
X138303000Y-119710200D03*
X138303000Y-117170200D03*
X138303000Y-114630200D03*
%TD*%
D13*
%TO.C,U8*%
X103632000Y-114427000D03*
D14*
X103632000Y-116967000D03*
X103632000Y-119507000D03*
X103632000Y-122047000D03*
X111252000Y-122047000D03*
X111252000Y-119507000D03*
X111252000Y-116967000D03*
X111252000Y-114427000D03*
%TD*%
D11*
%TO.C,J7*%
X161260000Y-131880000D03*
D12*
X163800000Y-131880000D03*
%TD*%
D11*
%TO.C,J6*%
X148380000Y-131810000D03*
D12*
X150920000Y-131810000D03*
%TD*%
D13*
%TO.C,U5*%
X144390000Y-114540000D03*
D14*
X144390000Y-117080000D03*
X144390000Y-119620000D03*
X144390000Y-122160000D03*
X152010000Y-122160000D03*
X152010000Y-119620000D03*
X152010000Y-117080000D03*
X152010000Y-114540000D03*
%TD*%
M02*
