%TF.GenerationSoftware,KiCad,Pcbnew,9.0.4*%
%TF.CreationDate,2025-10-16T20:52:45-05:00*%
%TF.ProjectId,RemoteControl,52656d6f-7465-4436-9f6e-74726f6c2e6b,rev?*%
%TF.SameCoordinates,Original*%
%TF.FileFunction,Legend,Top*%
%TF.FilePolarity,Positive*%
%FSLAX46Y46*%
G04 Gerber Fmt 4.6, Leading zero omitted, Abs format (unit mm)*
G04 Created by KiCad (PCBNEW 9.0.4) date 2025-10-16 20:52:45*
%MOMM*%
%LPD*%
G01*
G04 APERTURE LIST*
%ADD10C,0.100000*%
%ADD11C,0.150000*%
%ADD12C,0.120000*%
%ADD13C,0.152400*%
%ADD14C,0.127000*%
%ADD15C,0.200000*%
G04 APERTURE END LIST*
D10*
X116703884Y-110722419D02*
X116703884Y-110055752D01*
X116703884Y-109722419D02*
X116656265Y-109770038D01*
X116656265Y-109770038D02*
X116703884Y-109817657D01*
X116703884Y-109817657D02*
X116751503Y-109770038D01*
X116751503Y-109770038D02*
X116703884Y-109722419D01*
X116703884Y-109722419D02*
X116703884Y-109817657D01*
X117180074Y-110055752D02*
X117180074Y-110722419D01*
X117180074Y-110150990D02*
X117227693Y-110103371D01*
X117227693Y-110103371D02*
X117322931Y-110055752D01*
X117322931Y-110055752D02*
X117465788Y-110055752D01*
X117465788Y-110055752D02*
X117561026Y-110103371D01*
X117561026Y-110103371D02*
X117608645Y-110198609D01*
X117608645Y-110198609D02*
X117608645Y-110722419D01*
X118037217Y-109817657D02*
X118084836Y-109770038D01*
X118084836Y-109770038D02*
X118180074Y-109722419D01*
X118180074Y-109722419D02*
X118418169Y-109722419D01*
X118418169Y-109722419D02*
X118513407Y-109770038D01*
X118513407Y-109770038D02*
X118561026Y-109817657D01*
X118561026Y-109817657D02*
X118608645Y-109912895D01*
X118608645Y-109912895D02*
X118608645Y-110008133D01*
X118608645Y-110008133D02*
X118561026Y-110150990D01*
X118561026Y-110150990D02*
X117989598Y-110722419D01*
X117989598Y-110722419D02*
X118608645Y-110722419D01*
X145761027Y-125605752D02*
X146141979Y-125605752D01*
X145903884Y-126272419D02*
X145903884Y-125415276D01*
X145903884Y-125415276D02*
X145951503Y-125320038D01*
X145951503Y-125320038D02*
X146046741Y-125272419D01*
X146046741Y-125272419D02*
X146141979Y-125272419D01*
X146903884Y-125605752D02*
X146903884Y-126272419D01*
X146665789Y-125224800D02*
X146427694Y-125939085D01*
X146427694Y-125939085D02*
X147046741Y-125939085D01*
X140175200Y-57756265D02*
X140127580Y-57851503D01*
X140127580Y-57851503D02*
X140127580Y-58041979D01*
X140127580Y-58041979D02*
X140175200Y-58137217D01*
X140175200Y-58137217D02*
X140270438Y-58184836D01*
X140270438Y-58184836D02*
X140318057Y-58184836D01*
X140318057Y-58184836D02*
X140413295Y-58137217D01*
X140413295Y-58137217D02*
X140460914Y-58041979D01*
X140460914Y-58041979D02*
X140460914Y-57899122D01*
X140460914Y-57899122D02*
X140508533Y-57803884D01*
X140508533Y-57803884D02*
X140603771Y-57756265D01*
X140603771Y-57756265D02*
X140651390Y-57756265D01*
X140651390Y-57756265D02*
X140746628Y-57803884D01*
X140746628Y-57803884D02*
X140794247Y-57899122D01*
X140794247Y-57899122D02*
X140794247Y-58041979D01*
X140794247Y-58041979D02*
X140746628Y-58137217D01*
X140794247Y-58470551D02*
X140794247Y-58851503D01*
X141127580Y-58613408D02*
X140270438Y-58613408D01*
X140270438Y-58613408D02*
X140175200Y-58661027D01*
X140175200Y-58661027D02*
X140127580Y-58756265D01*
X140127580Y-58756265D02*
X140127580Y-58851503D01*
X140127580Y-59184837D02*
X140794247Y-59184837D01*
X140699009Y-59184837D02*
X140746628Y-59232456D01*
X140746628Y-59232456D02*
X140794247Y-59327694D01*
X140794247Y-59327694D02*
X140794247Y-59470551D01*
X140794247Y-59470551D02*
X140746628Y-59565789D01*
X140746628Y-59565789D02*
X140651390Y-59613408D01*
X140651390Y-59613408D02*
X140127580Y-59613408D01*
X140651390Y-59613408D02*
X140746628Y-59661027D01*
X140746628Y-59661027D02*
X140794247Y-59756265D01*
X140794247Y-59756265D02*
X140794247Y-59899122D01*
X140794247Y-59899122D02*
X140746628Y-59994361D01*
X140746628Y-59994361D02*
X140651390Y-60041980D01*
X140651390Y-60041980D02*
X140127580Y-60041980D01*
X140032342Y-60280075D02*
X140032342Y-61041979D01*
X140794247Y-61137218D02*
X140794247Y-61518170D01*
X141127580Y-61280075D02*
X140270438Y-61280075D01*
X140270438Y-61280075D02*
X140175200Y-61327694D01*
X140175200Y-61327694D02*
X140127580Y-61422932D01*
X140127580Y-61422932D02*
X140127580Y-61518170D01*
X140127580Y-61756266D02*
X140794247Y-62280075D01*
X140794247Y-61756266D02*
X140127580Y-62280075D01*
X164595856Y-61505734D02*
X164643475Y-61410496D01*
X164643475Y-61410496D02*
X164643475Y-61220020D01*
X164643475Y-61220020D02*
X164595856Y-61124782D01*
X164595856Y-61124782D02*
X164500617Y-61077163D01*
X164500617Y-61077163D02*
X164452998Y-61077163D01*
X164452998Y-61077163D02*
X164357760Y-61124782D01*
X164357760Y-61124782D02*
X164310141Y-61220020D01*
X164310141Y-61220020D02*
X164310141Y-61362877D01*
X164310141Y-61362877D02*
X164262522Y-61458115D01*
X164262522Y-61458115D02*
X164167284Y-61505734D01*
X164167284Y-61505734D02*
X164119665Y-61505734D01*
X164119665Y-61505734D02*
X164024427Y-61458115D01*
X164024427Y-61458115D02*
X163976808Y-61362877D01*
X163976808Y-61362877D02*
X163976808Y-61220020D01*
X163976808Y-61220020D02*
X164024427Y-61124782D01*
X163976808Y-60743829D02*
X164643475Y-60553353D01*
X164643475Y-60553353D02*
X164167284Y-60362877D01*
X164167284Y-60362877D02*
X164643475Y-60172401D01*
X164643475Y-60172401D02*
X163976808Y-59981925D01*
X164643475Y-59172401D02*
X163643475Y-59172401D01*
X164595856Y-59172401D02*
X164643475Y-59267639D01*
X164643475Y-59267639D02*
X164643475Y-59458115D01*
X164643475Y-59458115D02*
X164595856Y-59553353D01*
X164595856Y-59553353D02*
X164548236Y-59600972D01*
X164548236Y-59600972D02*
X164452998Y-59648591D01*
X164452998Y-59648591D02*
X164167284Y-59648591D01*
X164167284Y-59648591D02*
X164072046Y-59600972D01*
X164072046Y-59600972D02*
X164024427Y-59553353D01*
X164024427Y-59553353D02*
X163976808Y-59458115D01*
X163976808Y-59458115D02*
X163976808Y-59267639D01*
X163976808Y-59267639D02*
X164024427Y-59172401D01*
X164643475Y-58696210D02*
X163976808Y-58696210D01*
X163643475Y-58696210D02*
X163691094Y-58743829D01*
X163691094Y-58743829D02*
X163738713Y-58696210D01*
X163738713Y-58696210D02*
X163691094Y-58648591D01*
X163691094Y-58648591D02*
X163643475Y-58696210D01*
X163643475Y-58696210D02*
X163738713Y-58696210D01*
X164643475Y-58077163D02*
X164595856Y-58172401D01*
X164595856Y-58172401D02*
X164548236Y-58220020D01*
X164548236Y-58220020D02*
X164452998Y-58267639D01*
X164452998Y-58267639D02*
X164167284Y-58267639D01*
X164167284Y-58267639D02*
X164072046Y-58220020D01*
X164072046Y-58220020D02*
X164024427Y-58172401D01*
X164024427Y-58172401D02*
X163976808Y-58077163D01*
X163976808Y-58077163D02*
X163976808Y-57934306D01*
X163976808Y-57934306D02*
X164024427Y-57839068D01*
X164024427Y-57839068D02*
X164072046Y-57791449D01*
X164072046Y-57791449D02*
X164167284Y-57743830D01*
X164167284Y-57743830D02*
X164452998Y-57743830D01*
X164452998Y-57743830D02*
X164548236Y-57791449D01*
X164548236Y-57791449D02*
X164595856Y-57839068D01*
X164595856Y-57839068D02*
X164643475Y-57934306D01*
X164643475Y-57934306D02*
X164643475Y-58077163D01*
X158585752Y-60267544D02*
X159395276Y-60267544D01*
X159395276Y-60267544D02*
X159490514Y-60315163D01*
X159490514Y-60315163D02*
X159538133Y-60362782D01*
X159538133Y-60362782D02*
X159585752Y-60458020D01*
X159585752Y-60458020D02*
X159585752Y-60600877D01*
X159585752Y-60600877D02*
X159538133Y-60696115D01*
X159204800Y-60267544D02*
X159252419Y-60362782D01*
X159252419Y-60362782D02*
X159252419Y-60553258D01*
X159252419Y-60553258D02*
X159204800Y-60648496D01*
X159204800Y-60648496D02*
X159157180Y-60696115D01*
X159157180Y-60696115D02*
X159061942Y-60743734D01*
X159061942Y-60743734D02*
X158776228Y-60743734D01*
X158776228Y-60743734D02*
X158680990Y-60696115D01*
X158680990Y-60696115D02*
X158633371Y-60648496D01*
X158633371Y-60648496D02*
X158585752Y-60553258D01*
X158585752Y-60553258D02*
X158585752Y-60362782D01*
X158585752Y-60362782D02*
X158633371Y-60267544D01*
X158585752Y-59791353D02*
X159252419Y-59791353D01*
X158680990Y-59791353D02*
X158633371Y-59743734D01*
X158633371Y-59743734D02*
X158585752Y-59648496D01*
X158585752Y-59648496D02*
X158585752Y-59505639D01*
X158585752Y-59505639D02*
X158633371Y-59410401D01*
X158633371Y-59410401D02*
X158728609Y-59362782D01*
X158728609Y-59362782D02*
X159252419Y-59362782D01*
X159252419Y-58458020D02*
X158252419Y-58458020D01*
X159204800Y-58458020D02*
X159252419Y-58553258D01*
X159252419Y-58553258D02*
X159252419Y-58743734D01*
X159252419Y-58743734D02*
X159204800Y-58838972D01*
X159204800Y-58838972D02*
X159157180Y-58886591D01*
X159157180Y-58886591D02*
X159061942Y-58934210D01*
X159061942Y-58934210D02*
X158776228Y-58934210D01*
X158776228Y-58934210D02*
X158680990Y-58886591D01*
X158680990Y-58886591D02*
X158633371Y-58838972D01*
X158633371Y-58838972D02*
X158585752Y-58743734D01*
X158585752Y-58743734D02*
X158585752Y-58553258D01*
X158585752Y-58553258D02*
X158633371Y-58458020D01*
X103611027Y-125885752D02*
X103991979Y-125885752D01*
X103753884Y-126552419D02*
X103753884Y-125695276D01*
X103753884Y-125695276D02*
X103801503Y-125600038D01*
X103801503Y-125600038D02*
X103896741Y-125552419D01*
X103896741Y-125552419D02*
X103991979Y-125552419D01*
X104849122Y-126552419D02*
X104277694Y-126552419D01*
X104563408Y-126552419D02*
X104563408Y-125552419D01*
X104563408Y-125552419D02*
X104468170Y-125695276D01*
X104468170Y-125695276D02*
X104372932Y-125790514D01*
X104372932Y-125790514D02*
X104277694Y-125838133D01*
X103094455Y-80866752D02*
X103094455Y-81533419D01*
X102856360Y-80485800D02*
X102618265Y-81200085D01*
X102618265Y-81200085D02*
X103237312Y-81200085D01*
X103618265Y-81438180D02*
X103665884Y-81485800D01*
X103665884Y-81485800D02*
X103618265Y-81533419D01*
X103618265Y-81533419D02*
X103570646Y-81485800D01*
X103570646Y-81485800D02*
X103618265Y-81438180D01*
X103618265Y-81438180D02*
X103618265Y-81533419D01*
X104570645Y-80533419D02*
X104094455Y-80533419D01*
X104094455Y-80533419D02*
X104046836Y-81009609D01*
X104046836Y-81009609D02*
X104094455Y-80961990D01*
X104094455Y-80961990D02*
X104189693Y-80914371D01*
X104189693Y-80914371D02*
X104427788Y-80914371D01*
X104427788Y-80914371D02*
X104523026Y-80961990D01*
X104523026Y-80961990D02*
X104570645Y-81009609D01*
X104570645Y-81009609D02*
X104618264Y-81104847D01*
X104618264Y-81104847D02*
X104618264Y-81342942D01*
X104618264Y-81342942D02*
X104570645Y-81438180D01*
X104570645Y-81438180D02*
X104523026Y-81485800D01*
X104523026Y-81485800D02*
X104427788Y-81533419D01*
X104427788Y-81533419D02*
X104189693Y-81533419D01*
X104189693Y-81533419D02*
X104094455Y-81485800D01*
X104094455Y-81485800D02*
X104046836Y-81438180D01*
X104903979Y-80533419D02*
X105237312Y-81533419D01*
X105237312Y-81533419D02*
X105570645Y-80533419D01*
X155728419Y-60791353D02*
X155728419Y-60172306D01*
X155728419Y-60172306D02*
X156109371Y-60505639D01*
X156109371Y-60505639D02*
X156109371Y-60362782D01*
X156109371Y-60362782D02*
X156156990Y-60267544D01*
X156156990Y-60267544D02*
X156204609Y-60219925D01*
X156204609Y-60219925D02*
X156299847Y-60172306D01*
X156299847Y-60172306D02*
X156537942Y-60172306D01*
X156537942Y-60172306D02*
X156633180Y-60219925D01*
X156633180Y-60219925D02*
X156680800Y-60267544D01*
X156680800Y-60267544D02*
X156728419Y-60362782D01*
X156728419Y-60362782D02*
X156728419Y-60648496D01*
X156728419Y-60648496D02*
X156680800Y-60743734D01*
X156680800Y-60743734D02*
X156633180Y-60791353D01*
X156633180Y-59743734D02*
X156680800Y-59696115D01*
X156680800Y-59696115D02*
X156728419Y-59743734D01*
X156728419Y-59743734D02*
X156680800Y-59791353D01*
X156680800Y-59791353D02*
X156633180Y-59743734D01*
X156633180Y-59743734D02*
X156728419Y-59743734D01*
X155728419Y-59362782D02*
X155728419Y-58743735D01*
X155728419Y-58743735D02*
X156109371Y-59077068D01*
X156109371Y-59077068D02*
X156109371Y-58934211D01*
X156109371Y-58934211D02*
X156156990Y-58838973D01*
X156156990Y-58838973D02*
X156204609Y-58791354D01*
X156204609Y-58791354D02*
X156299847Y-58743735D01*
X156299847Y-58743735D02*
X156537942Y-58743735D01*
X156537942Y-58743735D02*
X156633180Y-58791354D01*
X156633180Y-58791354D02*
X156680800Y-58838973D01*
X156680800Y-58838973D02*
X156728419Y-58934211D01*
X156728419Y-58934211D02*
X156728419Y-59219925D01*
X156728419Y-59219925D02*
X156680800Y-59315163D01*
X156680800Y-59315163D02*
X156633180Y-59362782D01*
X156061752Y-58410401D02*
X156728419Y-58172306D01*
X156728419Y-58172306D02*
X156061752Y-57934211D01*
X161744800Y-62271734D02*
X161792419Y-62176496D01*
X161792419Y-62176496D02*
X161792419Y-61986020D01*
X161792419Y-61986020D02*
X161744800Y-61890782D01*
X161744800Y-61890782D02*
X161649561Y-61843163D01*
X161649561Y-61843163D02*
X161601942Y-61843163D01*
X161601942Y-61843163D02*
X161506704Y-61890782D01*
X161506704Y-61890782D02*
X161459085Y-61986020D01*
X161459085Y-61986020D02*
X161459085Y-62128877D01*
X161459085Y-62128877D02*
X161411466Y-62224115D01*
X161411466Y-62224115D02*
X161316228Y-62271734D01*
X161316228Y-62271734D02*
X161268609Y-62271734D01*
X161268609Y-62271734D02*
X161173371Y-62224115D01*
X161173371Y-62224115D02*
X161125752Y-62128877D01*
X161125752Y-62128877D02*
X161125752Y-61986020D01*
X161125752Y-61986020D02*
X161173371Y-61890782D01*
X161125752Y-61509829D02*
X161792419Y-61319353D01*
X161792419Y-61319353D02*
X161316228Y-61128877D01*
X161316228Y-61128877D02*
X161792419Y-60938401D01*
X161792419Y-60938401D02*
X161125752Y-60747925D01*
X161744800Y-60414591D02*
X161792419Y-60319353D01*
X161792419Y-60319353D02*
X161792419Y-60128877D01*
X161792419Y-60128877D02*
X161744800Y-60033639D01*
X161744800Y-60033639D02*
X161649561Y-59986020D01*
X161649561Y-59986020D02*
X161601942Y-59986020D01*
X161601942Y-59986020D02*
X161506704Y-60033639D01*
X161506704Y-60033639D02*
X161459085Y-60128877D01*
X161459085Y-60128877D02*
X161459085Y-60271734D01*
X161459085Y-60271734D02*
X161411466Y-60366972D01*
X161411466Y-60366972D02*
X161316228Y-60414591D01*
X161316228Y-60414591D02*
X161268609Y-60414591D01*
X161268609Y-60414591D02*
X161173371Y-60366972D01*
X161173371Y-60366972D02*
X161125752Y-60271734D01*
X161125752Y-60271734D02*
X161125752Y-60128877D01*
X161125752Y-60128877D02*
X161173371Y-60033639D01*
X161744800Y-59128877D02*
X161792419Y-59224115D01*
X161792419Y-59224115D02*
X161792419Y-59414591D01*
X161792419Y-59414591D02*
X161744800Y-59509829D01*
X161744800Y-59509829D02*
X161697180Y-59557448D01*
X161697180Y-59557448D02*
X161601942Y-59605067D01*
X161601942Y-59605067D02*
X161316228Y-59605067D01*
X161316228Y-59605067D02*
X161220990Y-59557448D01*
X161220990Y-59557448D02*
X161173371Y-59509829D01*
X161173371Y-59509829D02*
X161125752Y-59414591D01*
X161125752Y-59414591D02*
X161125752Y-59224115D01*
X161125752Y-59224115D02*
X161173371Y-59128877D01*
X161792419Y-58557448D02*
X161744800Y-58652686D01*
X161744800Y-58652686D02*
X161649561Y-58700305D01*
X161649561Y-58700305D02*
X160792419Y-58700305D01*
X161792419Y-58176495D02*
X160792419Y-58176495D01*
X161411466Y-58081257D02*
X161792419Y-57795543D01*
X161125752Y-57795543D02*
X161506704Y-58176495D01*
X159311027Y-125440752D02*
X159691979Y-125440752D01*
X159453884Y-126107419D02*
X159453884Y-125250276D01*
X159453884Y-125250276D02*
X159501503Y-125155038D01*
X159501503Y-125155038D02*
X159596741Y-125107419D01*
X159596741Y-125107419D02*
X159691979Y-125107419D01*
X160501503Y-125107419D02*
X160025313Y-125107419D01*
X160025313Y-125107419D02*
X159977694Y-125583609D01*
X159977694Y-125583609D02*
X160025313Y-125535990D01*
X160025313Y-125535990D02*
X160120551Y-125488371D01*
X160120551Y-125488371D02*
X160358646Y-125488371D01*
X160358646Y-125488371D02*
X160453884Y-125535990D01*
X160453884Y-125535990D02*
X160501503Y-125583609D01*
X160501503Y-125583609D02*
X160549122Y-125678847D01*
X160549122Y-125678847D02*
X160549122Y-125916942D01*
X160549122Y-125916942D02*
X160501503Y-126012180D01*
X160501503Y-126012180D02*
X160453884Y-126059800D01*
X160453884Y-126059800D02*
X160358646Y-126107419D01*
X160358646Y-126107419D02*
X160120551Y-126107419D01*
X160120551Y-126107419D02*
X160025313Y-126059800D01*
X160025313Y-126059800D02*
X159977694Y-126012180D01*
X119033027Y-125443752D02*
X119413979Y-125443752D01*
X119175884Y-126110419D02*
X119175884Y-125253276D01*
X119175884Y-125253276D02*
X119223503Y-125158038D01*
X119223503Y-125158038D02*
X119318741Y-125110419D01*
X119318741Y-125110419D02*
X119413979Y-125110419D01*
X119699694Y-125205657D02*
X119747313Y-125158038D01*
X119747313Y-125158038D02*
X119842551Y-125110419D01*
X119842551Y-125110419D02*
X120080646Y-125110419D01*
X120080646Y-125110419D02*
X120175884Y-125158038D01*
X120175884Y-125158038D02*
X120223503Y-125205657D01*
X120223503Y-125205657D02*
X120271122Y-125300895D01*
X120271122Y-125300895D02*
X120271122Y-125396133D01*
X120271122Y-125396133D02*
X120223503Y-125538990D01*
X120223503Y-125538990D02*
X119652075Y-126110419D01*
X119652075Y-126110419D02*
X120271122Y-126110419D01*
X131555227Y-125519952D02*
X131936179Y-125519952D01*
X131698084Y-126186619D02*
X131698084Y-125329476D01*
X131698084Y-125329476D02*
X131745703Y-125234238D01*
X131745703Y-125234238D02*
X131840941Y-125186619D01*
X131840941Y-125186619D02*
X131936179Y-125186619D01*
X132174275Y-125186619D02*
X132793322Y-125186619D01*
X132793322Y-125186619D02*
X132459989Y-125567571D01*
X132459989Y-125567571D02*
X132602846Y-125567571D01*
X132602846Y-125567571D02*
X132698084Y-125615190D01*
X132698084Y-125615190D02*
X132745703Y-125662809D01*
X132745703Y-125662809D02*
X132793322Y-125758047D01*
X132793322Y-125758047D02*
X132793322Y-125996142D01*
X132793322Y-125996142D02*
X132745703Y-126091380D01*
X132745703Y-126091380D02*
X132698084Y-126139000D01*
X132698084Y-126139000D02*
X132602846Y-126186619D01*
X132602846Y-126186619D02*
X132317132Y-126186619D01*
X132317132Y-126186619D02*
X132221894Y-126139000D01*
X132221894Y-126139000D02*
X132174275Y-126091380D01*
X129853884Y-110772419D02*
X129853884Y-110105752D01*
X129853884Y-109772419D02*
X129806265Y-109820038D01*
X129806265Y-109820038D02*
X129853884Y-109867657D01*
X129853884Y-109867657D02*
X129901503Y-109820038D01*
X129901503Y-109820038D02*
X129853884Y-109772419D01*
X129853884Y-109772419D02*
X129853884Y-109867657D01*
X130330074Y-110105752D02*
X130330074Y-110772419D01*
X130330074Y-110200990D02*
X130377693Y-110153371D01*
X130377693Y-110153371D02*
X130472931Y-110105752D01*
X130472931Y-110105752D02*
X130615788Y-110105752D01*
X130615788Y-110105752D02*
X130711026Y-110153371D01*
X130711026Y-110153371D02*
X130758645Y-110248609D01*
X130758645Y-110248609D02*
X130758645Y-110772419D01*
X131139598Y-109772419D02*
X131758645Y-109772419D01*
X131758645Y-109772419D02*
X131425312Y-110153371D01*
X131425312Y-110153371D02*
X131568169Y-110153371D01*
X131568169Y-110153371D02*
X131663407Y-110200990D01*
X131663407Y-110200990D02*
X131711026Y-110248609D01*
X131711026Y-110248609D02*
X131758645Y-110343847D01*
X131758645Y-110343847D02*
X131758645Y-110581942D01*
X131758645Y-110581942D02*
X131711026Y-110677180D01*
X131711026Y-110677180D02*
X131663407Y-110724800D01*
X131663407Y-110724800D02*
X131568169Y-110772419D01*
X131568169Y-110772419D02*
X131282455Y-110772419D01*
X131282455Y-110772419D02*
X131187217Y-110724800D01*
X131187217Y-110724800D02*
X131139598Y-110677180D01*
X109497217Y-72218609D02*
X109640074Y-72266228D01*
X109640074Y-72266228D02*
X109687693Y-72313847D01*
X109687693Y-72313847D02*
X109735312Y-72409085D01*
X109735312Y-72409085D02*
X109735312Y-72551942D01*
X109735312Y-72551942D02*
X109687693Y-72647180D01*
X109687693Y-72647180D02*
X109640074Y-72694800D01*
X109640074Y-72694800D02*
X109544836Y-72742419D01*
X109544836Y-72742419D02*
X109163884Y-72742419D01*
X109163884Y-72742419D02*
X109163884Y-71742419D01*
X109163884Y-71742419D02*
X109497217Y-71742419D01*
X109497217Y-71742419D02*
X109592455Y-71790038D01*
X109592455Y-71790038D02*
X109640074Y-71837657D01*
X109640074Y-71837657D02*
X109687693Y-71932895D01*
X109687693Y-71932895D02*
X109687693Y-72028133D01*
X109687693Y-72028133D02*
X109640074Y-72123371D01*
X109640074Y-72123371D02*
X109592455Y-72170990D01*
X109592455Y-72170990D02*
X109497217Y-72218609D01*
X109497217Y-72218609D02*
X109163884Y-72218609D01*
X110306741Y-72742419D02*
X110211503Y-72694800D01*
X110211503Y-72694800D02*
X110163884Y-72647180D01*
X110163884Y-72647180D02*
X110116265Y-72551942D01*
X110116265Y-72551942D02*
X110116265Y-72266228D01*
X110116265Y-72266228D02*
X110163884Y-72170990D01*
X110163884Y-72170990D02*
X110211503Y-72123371D01*
X110211503Y-72123371D02*
X110306741Y-72075752D01*
X110306741Y-72075752D02*
X110449598Y-72075752D01*
X110449598Y-72075752D02*
X110544836Y-72123371D01*
X110544836Y-72123371D02*
X110592455Y-72170990D01*
X110592455Y-72170990D02*
X110640074Y-72266228D01*
X110640074Y-72266228D02*
X110640074Y-72551942D01*
X110640074Y-72551942D02*
X110592455Y-72647180D01*
X110592455Y-72647180D02*
X110544836Y-72694800D01*
X110544836Y-72694800D02*
X110449598Y-72742419D01*
X110449598Y-72742419D02*
X110306741Y-72742419D01*
X111211503Y-72742419D02*
X111116265Y-72694800D01*
X111116265Y-72694800D02*
X111068646Y-72647180D01*
X111068646Y-72647180D02*
X111021027Y-72551942D01*
X111021027Y-72551942D02*
X111021027Y-72266228D01*
X111021027Y-72266228D02*
X111068646Y-72170990D01*
X111068646Y-72170990D02*
X111116265Y-72123371D01*
X111116265Y-72123371D02*
X111211503Y-72075752D01*
X111211503Y-72075752D02*
X111354360Y-72075752D01*
X111354360Y-72075752D02*
X111449598Y-72123371D01*
X111449598Y-72123371D02*
X111497217Y-72170990D01*
X111497217Y-72170990D02*
X111544836Y-72266228D01*
X111544836Y-72266228D02*
X111544836Y-72551942D01*
X111544836Y-72551942D02*
X111497217Y-72647180D01*
X111497217Y-72647180D02*
X111449598Y-72694800D01*
X111449598Y-72694800D02*
X111354360Y-72742419D01*
X111354360Y-72742419D02*
X111211503Y-72742419D01*
X111830551Y-72075752D02*
X112211503Y-72075752D01*
X111973408Y-71742419D02*
X111973408Y-72599561D01*
X111973408Y-72599561D02*
X112021027Y-72694800D01*
X112021027Y-72694800D02*
X112116265Y-72742419D01*
X112116265Y-72742419D02*
X112211503Y-72742419D01*
X150954247Y-58732455D02*
X150144723Y-58732455D01*
X150144723Y-58732455D02*
X150049485Y-58684836D01*
X150049485Y-58684836D02*
X150001866Y-58637217D01*
X150001866Y-58637217D02*
X149954247Y-58541979D01*
X149954247Y-58541979D02*
X149954247Y-58399122D01*
X149954247Y-58399122D02*
X150001866Y-58303884D01*
X150335200Y-58732455D02*
X150287580Y-58637217D01*
X150287580Y-58637217D02*
X150287580Y-58446741D01*
X150287580Y-58446741D02*
X150335200Y-58351503D01*
X150335200Y-58351503D02*
X150382819Y-58303884D01*
X150382819Y-58303884D02*
X150478057Y-58256265D01*
X150478057Y-58256265D02*
X150763771Y-58256265D01*
X150763771Y-58256265D02*
X150859009Y-58303884D01*
X150859009Y-58303884D02*
X150906628Y-58351503D01*
X150906628Y-58351503D02*
X150954247Y-58446741D01*
X150954247Y-58446741D02*
X150954247Y-58637217D01*
X150954247Y-58637217D02*
X150906628Y-58732455D01*
X150954247Y-59208646D02*
X150287580Y-59208646D01*
X150859009Y-59208646D02*
X150906628Y-59256265D01*
X150906628Y-59256265D02*
X150954247Y-59351503D01*
X150954247Y-59351503D02*
X150954247Y-59494360D01*
X150954247Y-59494360D02*
X150906628Y-59589598D01*
X150906628Y-59589598D02*
X150811390Y-59637217D01*
X150811390Y-59637217D02*
X150287580Y-59637217D01*
X150287580Y-60541979D02*
X151287580Y-60541979D01*
X150335200Y-60541979D02*
X150287580Y-60446741D01*
X150287580Y-60446741D02*
X150287580Y-60256265D01*
X150287580Y-60256265D02*
X150335200Y-60161027D01*
X150335200Y-60161027D02*
X150382819Y-60113408D01*
X150382819Y-60113408D02*
X150478057Y-60065789D01*
X150478057Y-60065789D02*
X150763771Y-60065789D01*
X150763771Y-60065789D02*
X150859009Y-60113408D01*
X150859009Y-60113408D02*
X150906628Y-60161027D01*
X150906628Y-60161027D02*
X150954247Y-60256265D01*
X150954247Y-60256265D02*
X150954247Y-60446741D01*
X150954247Y-60446741D02*
X150906628Y-60541979D01*
X144353884Y-110722419D02*
X144353884Y-110055752D01*
X144353884Y-109722419D02*
X144306265Y-109770038D01*
X144306265Y-109770038D02*
X144353884Y-109817657D01*
X144353884Y-109817657D02*
X144401503Y-109770038D01*
X144401503Y-109770038D02*
X144353884Y-109722419D01*
X144353884Y-109722419D02*
X144353884Y-109817657D01*
X144830074Y-110055752D02*
X144830074Y-110722419D01*
X144830074Y-110150990D02*
X144877693Y-110103371D01*
X144877693Y-110103371D02*
X144972931Y-110055752D01*
X144972931Y-110055752D02*
X145115788Y-110055752D01*
X145115788Y-110055752D02*
X145211026Y-110103371D01*
X145211026Y-110103371D02*
X145258645Y-110198609D01*
X145258645Y-110198609D02*
X145258645Y-110722419D01*
X146163407Y-110055752D02*
X146163407Y-110722419D01*
X145925312Y-109674800D02*
X145687217Y-110389085D01*
X145687217Y-110389085D02*
X146306264Y-110389085D01*
X106482455Y-89248752D02*
X106482455Y-90058276D01*
X106482455Y-90058276D02*
X106434836Y-90153514D01*
X106434836Y-90153514D02*
X106387217Y-90201133D01*
X106387217Y-90201133D02*
X106291979Y-90248752D01*
X106291979Y-90248752D02*
X106149122Y-90248752D01*
X106149122Y-90248752D02*
X106053884Y-90201133D01*
X106482455Y-89867800D02*
X106387217Y-89915419D01*
X106387217Y-89915419D02*
X106196741Y-89915419D01*
X106196741Y-89915419D02*
X106101503Y-89867800D01*
X106101503Y-89867800D02*
X106053884Y-89820180D01*
X106053884Y-89820180D02*
X106006265Y-89724942D01*
X106006265Y-89724942D02*
X106006265Y-89439228D01*
X106006265Y-89439228D02*
X106053884Y-89343990D01*
X106053884Y-89343990D02*
X106101503Y-89296371D01*
X106101503Y-89296371D02*
X106196741Y-89248752D01*
X106196741Y-89248752D02*
X106387217Y-89248752D01*
X106387217Y-89248752D02*
X106482455Y-89296371D01*
X106958646Y-89248752D02*
X106958646Y-89915419D01*
X106958646Y-89343990D02*
X107006265Y-89296371D01*
X107006265Y-89296371D02*
X107101503Y-89248752D01*
X107101503Y-89248752D02*
X107244360Y-89248752D01*
X107244360Y-89248752D02*
X107339598Y-89296371D01*
X107339598Y-89296371D02*
X107387217Y-89391609D01*
X107387217Y-89391609D02*
X107387217Y-89915419D01*
X108291979Y-89915419D02*
X108291979Y-88915419D01*
X108291979Y-89867800D02*
X108196741Y-89915419D01*
X108196741Y-89915419D02*
X108006265Y-89915419D01*
X108006265Y-89915419D02*
X107911027Y-89867800D01*
X107911027Y-89867800D02*
X107863408Y-89820180D01*
X107863408Y-89820180D02*
X107815789Y-89724942D01*
X107815789Y-89724942D02*
X107815789Y-89439228D01*
X107815789Y-89439228D02*
X107863408Y-89343990D01*
X107863408Y-89343990D02*
X107911027Y-89296371D01*
X107911027Y-89296371D02*
X108006265Y-89248752D01*
X108006265Y-89248752D02*
X108196741Y-89248752D01*
X108196741Y-89248752D02*
X108291979Y-89296371D01*
X157953884Y-110747419D02*
X157953884Y-110080752D01*
X157953884Y-109747419D02*
X157906265Y-109795038D01*
X157906265Y-109795038D02*
X157953884Y-109842657D01*
X157953884Y-109842657D02*
X158001503Y-109795038D01*
X158001503Y-109795038D02*
X157953884Y-109747419D01*
X157953884Y-109747419D02*
X157953884Y-109842657D01*
X158430074Y-110080752D02*
X158430074Y-110747419D01*
X158430074Y-110175990D02*
X158477693Y-110128371D01*
X158477693Y-110128371D02*
X158572931Y-110080752D01*
X158572931Y-110080752D02*
X158715788Y-110080752D01*
X158715788Y-110080752D02*
X158811026Y-110128371D01*
X158811026Y-110128371D02*
X158858645Y-110223609D01*
X158858645Y-110223609D02*
X158858645Y-110747419D01*
X159811026Y-109747419D02*
X159334836Y-109747419D01*
X159334836Y-109747419D02*
X159287217Y-110223609D01*
X159287217Y-110223609D02*
X159334836Y-110175990D01*
X159334836Y-110175990D02*
X159430074Y-110128371D01*
X159430074Y-110128371D02*
X159668169Y-110128371D01*
X159668169Y-110128371D02*
X159763407Y-110175990D01*
X159763407Y-110175990D02*
X159811026Y-110223609D01*
X159811026Y-110223609D02*
X159858645Y-110318847D01*
X159858645Y-110318847D02*
X159858645Y-110556942D01*
X159858645Y-110556942D02*
X159811026Y-110652180D01*
X159811026Y-110652180D02*
X159763407Y-110699800D01*
X159763407Y-110699800D02*
X159668169Y-110747419D01*
X159668169Y-110747419D02*
X159430074Y-110747419D01*
X159430074Y-110747419D02*
X159334836Y-110699800D01*
X159334836Y-110699800D02*
X159287217Y-110652180D01*
X103782884Y-110235419D02*
X103782884Y-109568752D01*
X103782884Y-109235419D02*
X103735265Y-109283038D01*
X103735265Y-109283038D02*
X103782884Y-109330657D01*
X103782884Y-109330657D02*
X103830503Y-109283038D01*
X103830503Y-109283038D02*
X103782884Y-109235419D01*
X103782884Y-109235419D02*
X103782884Y-109330657D01*
X104259074Y-109568752D02*
X104259074Y-110235419D01*
X104259074Y-109663990D02*
X104306693Y-109616371D01*
X104306693Y-109616371D02*
X104401931Y-109568752D01*
X104401931Y-109568752D02*
X104544788Y-109568752D01*
X104544788Y-109568752D02*
X104640026Y-109616371D01*
X104640026Y-109616371D02*
X104687645Y-109711609D01*
X104687645Y-109711609D02*
X104687645Y-110235419D01*
X105687645Y-110235419D02*
X105116217Y-110235419D01*
X105401931Y-110235419D02*
X105401931Y-109235419D01*
X105401931Y-109235419D02*
X105306693Y-109378276D01*
X105306693Y-109378276D02*
X105211455Y-109473514D01*
X105211455Y-109473514D02*
X105116217Y-109521133D01*
X166205752Y-60696115D02*
X166872419Y-60696115D01*
X166300990Y-60696115D02*
X166253371Y-60648496D01*
X166253371Y-60648496D02*
X166205752Y-60553258D01*
X166205752Y-60553258D02*
X166205752Y-60410401D01*
X166205752Y-60410401D02*
X166253371Y-60315163D01*
X166253371Y-60315163D02*
X166348609Y-60267544D01*
X166348609Y-60267544D02*
X166872419Y-60267544D01*
X166872419Y-59791353D02*
X166205752Y-59791353D01*
X166396228Y-59791353D02*
X166300990Y-59743734D01*
X166300990Y-59743734D02*
X166253371Y-59696115D01*
X166253371Y-59696115D02*
X166205752Y-59600877D01*
X166205752Y-59600877D02*
X166205752Y-59505639D01*
X166824800Y-59219924D02*
X166872419Y-59124686D01*
X166872419Y-59124686D02*
X166872419Y-58934210D01*
X166872419Y-58934210D02*
X166824800Y-58838972D01*
X166824800Y-58838972D02*
X166729561Y-58791353D01*
X166729561Y-58791353D02*
X166681942Y-58791353D01*
X166681942Y-58791353D02*
X166586704Y-58838972D01*
X166586704Y-58838972D02*
X166539085Y-58934210D01*
X166539085Y-58934210D02*
X166539085Y-59077067D01*
X166539085Y-59077067D02*
X166491466Y-59172305D01*
X166491466Y-59172305D02*
X166396228Y-59219924D01*
X166396228Y-59219924D02*
X166348609Y-59219924D01*
X166348609Y-59219924D02*
X166253371Y-59172305D01*
X166253371Y-59172305D02*
X166205752Y-59077067D01*
X166205752Y-59077067D02*
X166205752Y-58934210D01*
X166205752Y-58934210D02*
X166253371Y-58838972D01*
X166205752Y-58505638D02*
X166205752Y-58124686D01*
X165872419Y-58362781D02*
X166729561Y-58362781D01*
X166729561Y-58362781D02*
X166824800Y-58315162D01*
X166824800Y-58315162D02*
X166872419Y-58219924D01*
X166872419Y-58219924D02*
X166872419Y-58124686D01*
X143223200Y-57756265D02*
X143175580Y-57851503D01*
X143175580Y-57851503D02*
X143175580Y-58041979D01*
X143175580Y-58041979D02*
X143223200Y-58137217D01*
X143223200Y-58137217D02*
X143318438Y-58184836D01*
X143318438Y-58184836D02*
X143366057Y-58184836D01*
X143366057Y-58184836D02*
X143461295Y-58137217D01*
X143461295Y-58137217D02*
X143508914Y-58041979D01*
X143508914Y-58041979D02*
X143508914Y-57899122D01*
X143508914Y-57899122D02*
X143556533Y-57803884D01*
X143556533Y-57803884D02*
X143651771Y-57756265D01*
X143651771Y-57756265D02*
X143699390Y-57756265D01*
X143699390Y-57756265D02*
X143794628Y-57803884D01*
X143794628Y-57803884D02*
X143842247Y-57899122D01*
X143842247Y-57899122D02*
X143842247Y-58041979D01*
X143842247Y-58041979D02*
X143794628Y-58137217D01*
X143842247Y-58470551D02*
X143842247Y-58851503D01*
X144175580Y-58613408D02*
X143318438Y-58613408D01*
X143318438Y-58613408D02*
X143223200Y-58661027D01*
X143223200Y-58661027D02*
X143175580Y-58756265D01*
X143175580Y-58756265D02*
X143175580Y-58851503D01*
X143175580Y-59184837D02*
X143842247Y-59184837D01*
X143747009Y-59184837D02*
X143794628Y-59232456D01*
X143794628Y-59232456D02*
X143842247Y-59327694D01*
X143842247Y-59327694D02*
X143842247Y-59470551D01*
X143842247Y-59470551D02*
X143794628Y-59565789D01*
X143794628Y-59565789D02*
X143699390Y-59613408D01*
X143699390Y-59613408D02*
X143175580Y-59613408D01*
X143699390Y-59613408D02*
X143794628Y-59661027D01*
X143794628Y-59661027D02*
X143842247Y-59756265D01*
X143842247Y-59756265D02*
X143842247Y-59899122D01*
X143842247Y-59899122D02*
X143794628Y-59994361D01*
X143794628Y-59994361D02*
X143699390Y-60041980D01*
X143699390Y-60041980D02*
X143175580Y-60041980D01*
X143080342Y-60280075D02*
X143080342Y-61041979D01*
X143175580Y-61280075D02*
X143842247Y-61280075D01*
X143651771Y-61280075D02*
X143747009Y-61327694D01*
X143747009Y-61327694D02*
X143794628Y-61375313D01*
X143794628Y-61375313D02*
X143842247Y-61470551D01*
X143842247Y-61470551D02*
X143842247Y-61565789D01*
X143175580Y-61803885D02*
X143842247Y-62327694D01*
X143842247Y-61803885D02*
X143175580Y-62327694D01*
D11*
X119694819Y-136593333D02*
X120409104Y-136593333D01*
X120409104Y-136593333D02*
X120551961Y-136640952D01*
X120551961Y-136640952D02*
X120647200Y-136736190D01*
X120647200Y-136736190D02*
X120694819Y-136879047D01*
X120694819Y-136879047D02*
X120694819Y-136974285D01*
X120123390Y-135974285D02*
X120075771Y-136069523D01*
X120075771Y-136069523D02*
X120028152Y-136117142D01*
X120028152Y-136117142D02*
X119932914Y-136164761D01*
X119932914Y-136164761D02*
X119885295Y-136164761D01*
X119885295Y-136164761D02*
X119790057Y-136117142D01*
X119790057Y-136117142D02*
X119742438Y-136069523D01*
X119742438Y-136069523D02*
X119694819Y-135974285D01*
X119694819Y-135974285D02*
X119694819Y-135783809D01*
X119694819Y-135783809D02*
X119742438Y-135688571D01*
X119742438Y-135688571D02*
X119790057Y-135640952D01*
X119790057Y-135640952D02*
X119885295Y-135593333D01*
X119885295Y-135593333D02*
X119932914Y-135593333D01*
X119932914Y-135593333D02*
X120028152Y-135640952D01*
X120028152Y-135640952D02*
X120075771Y-135688571D01*
X120075771Y-135688571D02*
X120123390Y-135783809D01*
X120123390Y-135783809D02*
X120123390Y-135974285D01*
X120123390Y-135974285D02*
X120171009Y-136069523D01*
X120171009Y-136069523D02*
X120218628Y-136117142D01*
X120218628Y-136117142D02*
X120313866Y-136164761D01*
X120313866Y-136164761D02*
X120504342Y-136164761D01*
X120504342Y-136164761D02*
X120599580Y-136117142D01*
X120599580Y-136117142D02*
X120647200Y-136069523D01*
X120647200Y-136069523D02*
X120694819Y-135974285D01*
X120694819Y-135974285D02*
X120694819Y-135783809D01*
X120694819Y-135783809D02*
X120647200Y-135688571D01*
X120647200Y-135688571D02*
X120599580Y-135640952D01*
X120599580Y-135640952D02*
X120504342Y-135593333D01*
X120504342Y-135593333D02*
X120313866Y-135593333D01*
X120313866Y-135593333D02*
X120218628Y-135640952D01*
X120218628Y-135640952D02*
X120171009Y-135688571D01*
X120171009Y-135688571D02*
X120123390Y-135783809D01*
X153792819Y-56213333D02*
X154507104Y-56213333D01*
X154507104Y-56213333D02*
X154649961Y-56260952D01*
X154649961Y-56260952D02*
X154745200Y-56356190D01*
X154745200Y-56356190D02*
X154792819Y-56499047D01*
X154792819Y-56499047D02*
X154792819Y-56594285D01*
X153792819Y-55832380D02*
X153792819Y-55213333D01*
X153792819Y-55213333D02*
X154173771Y-55546666D01*
X154173771Y-55546666D02*
X154173771Y-55403809D01*
X154173771Y-55403809D02*
X154221390Y-55308571D01*
X154221390Y-55308571D02*
X154269009Y-55260952D01*
X154269009Y-55260952D02*
X154364247Y-55213333D01*
X154364247Y-55213333D02*
X154602342Y-55213333D01*
X154602342Y-55213333D02*
X154697580Y-55260952D01*
X154697580Y-55260952D02*
X154745200Y-55308571D01*
X154745200Y-55308571D02*
X154792819Y-55403809D01*
X154792819Y-55403809D02*
X154792819Y-55689523D01*
X154792819Y-55689523D02*
X154745200Y-55784761D01*
X154745200Y-55784761D02*
X154697580Y-55832380D01*
X152456819Y-55959333D02*
X153171104Y-55959333D01*
X153171104Y-55959333D02*
X153313961Y-56006952D01*
X153313961Y-56006952D02*
X153409200Y-56102190D01*
X153409200Y-56102190D02*
X153456819Y-56245047D01*
X153456819Y-56245047D02*
X153456819Y-56340285D01*
X152456819Y-55006952D02*
X152456819Y-55483142D01*
X152456819Y-55483142D02*
X152933009Y-55530761D01*
X152933009Y-55530761D02*
X152885390Y-55483142D01*
X152885390Y-55483142D02*
X152837771Y-55387904D01*
X152837771Y-55387904D02*
X152837771Y-55149809D01*
X152837771Y-55149809D02*
X152885390Y-55054571D01*
X152885390Y-55054571D02*
X152933009Y-55006952D01*
X152933009Y-55006952D02*
X153028247Y-54959333D01*
X153028247Y-54959333D02*
X153266342Y-54959333D01*
X153266342Y-54959333D02*
X153361580Y-55006952D01*
X153361580Y-55006952D02*
X153409200Y-55054571D01*
X153409200Y-55054571D02*
X153456819Y-55149809D01*
X153456819Y-55149809D02*
X153456819Y-55387904D01*
X153456819Y-55387904D02*
X153409200Y-55483142D01*
X153409200Y-55483142D02*
X153361580Y-55530761D01*
X155464819Y-140236666D02*
X154988628Y-140569999D01*
X155464819Y-140808094D02*
X154464819Y-140808094D01*
X154464819Y-140808094D02*
X154464819Y-140427142D01*
X154464819Y-140427142D02*
X154512438Y-140331904D01*
X154512438Y-140331904D02*
X154560057Y-140284285D01*
X154560057Y-140284285D02*
X154655295Y-140236666D01*
X154655295Y-140236666D02*
X154798152Y-140236666D01*
X154798152Y-140236666D02*
X154893390Y-140284285D01*
X154893390Y-140284285D02*
X154941009Y-140331904D01*
X154941009Y-140331904D02*
X154988628Y-140427142D01*
X154988628Y-140427142D02*
X154988628Y-140808094D01*
X154798152Y-139379523D02*
X155464819Y-139379523D01*
X154417200Y-139617618D02*
X155131485Y-139855713D01*
X155131485Y-139855713D02*
X155131485Y-139236666D01*
X100028476Y-80734819D02*
X100028476Y-81449104D01*
X100028476Y-81449104D02*
X99980857Y-81591961D01*
X99980857Y-81591961D02*
X99885619Y-81687200D01*
X99885619Y-81687200D02*
X99742762Y-81734819D01*
X99742762Y-81734819D02*
X99647524Y-81734819D01*
X101028476Y-81734819D02*
X100457048Y-81734819D01*
X100742762Y-81734819D02*
X100742762Y-80734819D01*
X100742762Y-80734819D02*
X100647524Y-80877676D01*
X100647524Y-80877676D02*
X100552286Y-80972914D01*
X100552286Y-80972914D02*
X100457048Y-81020533D01*
X101980857Y-81734819D02*
X101409429Y-81734819D01*
X101695143Y-81734819D02*
X101695143Y-80734819D01*
X101695143Y-80734819D02*
X101599905Y-80877676D01*
X101599905Y-80877676D02*
X101504667Y-80972914D01*
X101504667Y-80972914D02*
X101409429Y-81020533D01*
X117474819Y-139876666D02*
X116998628Y-140209999D01*
X117474819Y-140448094D02*
X116474819Y-140448094D01*
X116474819Y-140448094D02*
X116474819Y-140067142D01*
X116474819Y-140067142D02*
X116522438Y-139971904D01*
X116522438Y-139971904D02*
X116570057Y-139924285D01*
X116570057Y-139924285D02*
X116665295Y-139876666D01*
X116665295Y-139876666D02*
X116808152Y-139876666D01*
X116808152Y-139876666D02*
X116903390Y-139924285D01*
X116903390Y-139924285D02*
X116951009Y-139971904D01*
X116951009Y-139971904D02*
X116998628Y-140067142D01*
X116998628Y-140067142D02*
X116998628Y-140448094D01*
X116474819Y-139543332D02*
X116474819Y-138924285D01*
X116474819Y-138924285D02*
X116855771Y-139257618D01*
X116855771Y-139257618D02*
X116855771Y-139114761D01*
X116855771Y-139114761D02*
X116903390Y-139019523D01*
X116903390Y-139019523D02*
X116951009Y-138971904D01*
X116951009Y-138971904D02*
X117046247Y-138924285D01*
X117046247Y-138924285D02*
X117284342Y-138924285D01*
X117284342Y-138924285D02*
X117379580Y-138971904D01*
X117379580Y-138971904D02*
X117427200Y-139019523D01*
X117427200Y-139019523D02*
X117474819Y-139114761D01*
X117474819Y-139114761D02*
X117474819Y-139400475D01*
X117474819Y-139400475D02*
X117427200Y-139495713D01*
X117427200Y-139495713D02*
X117379580Y-139543332D01*
X119896095Y-106653819D02*
X120467523Y-106653819D01*
X120181809Y-107653819D02*
X120181809Y-106653819D01*
X120800857Y-107653819D02*
X120800857Y-106653819D01*
X120800857Y-106653819D02*
X121181809Y-106653819D01*
X121181809Y-106653819D02*
X121277047Y-106701438D01*
X121277047Y-106701438D02*
X121324666Y-106749057D01*
X121324666Y-106749057D02*
X121372285Y-106844295D01*
X121372285Y-106844295D02*
X121372285Y-106987152D01*
X121372285Y-106987152D02*
X121324666Y-107082390D01*
X121324666Y-107082390D02*
X121277047Y-107130009D01*
X121277047Y-107130009D02*
X121181809Y-107177628D01*
X121181809Y-107177628D02*
X120800857Y-107177628D01*
X121943714Y-107082390D02*
X121848476Y-107034771D01*
X121848476Y-107034771D02*
X121800857Y-106987152D01*
X121800857Y-106987152D02*
X121753238Y-106891914D01*
X121753238Y-106891914D02*
X121753238Y-106844295D01*
X121753238Y-106844295D02*
X121800857Y-106749057D01*
X121800857Y-106749057D02*
X121848476Y-106701438D01*
X121848476Y-106701438D02*
X121943714Y-106653819D01*
X121943714Y-106653819D02*
X122134190Y-106653819D01*
X122134190Y-106653819D02*
X122229428Y-106701438D01*
X122229428Y-106701438D02*
X122277047Y-106749057D01*
X122277047Y-106749057D02*
X122324666Y-106844295D01*
X122324666Y-106844295D02*
X122324666Y-106891914D01*
X122324666Y-106891914D02*
X122277047Y-106987152D01*
X122277047Y-106987152D02*
X122229428Y-107034771D01*
X122229428Y-107034771D02*
X122134190Y-107082390D01*
X122134190Y-107082390D02*
X121943714Y-107082390D01*
X121943714Y-107082390D02*
X121848476Y-107130009D01*
X121848476Y-107130009D02*
X121800857Y-107177628D01*
X121800857Y-107177628D02*
X121753238Y-107272866D01*
X121753238Y-107272866D02*
X121753238Y-107463342D01*
X121753238Y-107463342D02*
X121800857Y-107558580D01*
X121800857Y-107558580D02*
X121848476Y-107606200D01*
X121848476Y-107606200D02*
X121943714Y-107653819D01*
X121943714Y-107653819D02*
X122134190Y-107653819D01*
X122134190Y-107653819D02*
X122229428Y-107606200D01*
X122229428Y-107606200D02*
X122277047Y-107558580D01*
X122277047Y-107558580D02*
X122324666Y-107463342D01*
X122324666Y-107463342D02*
X122324666Y-107272866D01*
X122324666Y-107272866D02*
X122277047Y-107177628D01*
X122277047Y-107177628D02*
X122229428Y-107130009D01*
X122229428Y-107130009D02*
X122134190Y-107082390D01*
X155428095Y-129246819D02*
X155999523Y-129246819D01*
X155713809Y-130246819D02*
X155713809Y-129246819D01*
X156332857Y-130246819D02*
X156332857Y-129246819D01*
X156332857Y-129246819D02*
X156713809Y-129246819D01*
X156713809Y-129246819D02*
X156809047Y-129294438D01*
X156809047Y-129294438D02*
X156856666Y-129342057D01*
X156856666Y-129342057D02*
X156904285Y-129437295D01*
X156904285Y-129437295D02*
X156904285Y-129580152D01*
X156904285Y-129580152D02*
X156856666Y-129675390D01*
X156856666Y-129675390D02*
X156809047Y-129723009D01*
X156809047Y-129723009D02*
X156713809Y-129770628D01*
X156713809Y-129770628D02*
X156332857Y-129770628D01*
X157761428Y-129580152D02*
X157761428Y-130246819D01*
X157523333Y-129199200D02*
X157285238Y-129913485D01*
X157285238Y-129913485D02*
X157904285Y-129913485D01*
X100592142Y-124661819D02*
X100258809Y-124185628D01*
X100020714Y-124661819D02*
X100020714Y-123661819D01*
X100020714Y-123661819D02*
X100401666Y-123661819D01*
X100401666Y-123661819D02*
X100496904Y-123709438D01*
X100496904Y-123709438D02*
X100544523Y-123757057D01*
X100544523Y-123757057D02*
X100592142Y-123852295D01*
X100592142Y-123852295D02*
X100592142Y-123995152D01*
X100592142Y-123995152D02*
X100544523Y-124090390D01*
X100544523Y-124090390D02*
X100496904Y-124138009D01*
X100496904Y-124138009D02*
X100401666Y-124185628D01*
X100401666Y-124185628D02*
X100020714Y-124185628D01*
X101544523Y-124661819D02*
X100973095Y-124661819D01*
X101258809Y-124661819D02*
X101258809Y-123661819D01*
X101258809Y-123661819D02*
X101163571Y-123804676D01*
X101163571Y-123804676D02*
X101068333Y-123899914D01*
X101068333Y-123899914D02*
X100973095Y-123947533D01*
X102020714Y-124661819D02*
X102211190Y-124661819D01*
X102211190Y-124661819D02*
X102306428Y-124614200D01*
X102306428Y-124614200D02*
X102354047Y-124566580D01*
X102354047Y-124566580D02*
X102449285Y-124423723D01*
X102449285Y-124423723D02*
X102496904Y-124233247D01*
X102496904Y-124233247D02*
X102496904Y-123852295D01*
X102496904Y-123852295D02*
X102449285Y-123757057D01*
X102449285Y-123757057D02*
X102401666Y-123709438D01*
X102401666Y-123709438D02*
X102306428Y-123661819D01*
X102306428Y-123661819D02*
X102115952Y-123661819D01*
X102115952Y-123661819D02*
X102020714Y-123709438D01*
X102020714Y-123709438D02*
X101973095Y-123757057D01*
X101973095Y-123757057D02*
X101925476Y-123852295D01*
X101925476Y-123852295D02*
X101925476Y-124090390D01*
X101925476Y-124090390D02*
X101973095Y-124185628D01*
X101973095Y-124185628D02*
X102020714Y-124233247D01*
X102020714Y-124233247D02*
X102115952Y-124280866D01*
X102115952Y-124280866D02*
X102306428Y-124280866D01*
X102306428Y-124280866D02*
X102401666Y-124233247D01*
X102401666Y-124233247D02*
X102449285Y-124185628D01*
X102449285Y-124185628D02*
X102496904Y-124090390D01*
X118033333Y-60159580D02*
X117985714Y-60207200D01*
X117985714Y-60207200D02*
X117842857Y-60254819D01*
X117842857Y-60254819D02*
X117747619Y-60254819D01*
X117747619Y-60254819D02*
X117604762Y-60207200D01*
X117604762Y-60207200D02*
X117509524Y-60111961D01*
X117509524Y-60111961D02*
X117461905Y-60016723D01*
X117461905Y-60016723D02*
X117414286Y-59826247D01*
X117414286Y-59826247D02*
X117414286Y-59683390D01*
X117414286Y-59683390D02*
X117461905Y-59492914D01*
X117461905Y-59492914D02*
X117509524Y-59397676D01*
X117509524Y-59397676D02*
X117604762Y-59302438D01*
X117604762Y-59302438D02*
X117747619Y-59254819D01*
X117747619Y-59254819D02*
X117842857Y-59254819D01*
X117842857Y-59254819D02*
X117985714Y-59302438D01*
X117985714Y-59302438D02*
X118033333Y-59350057D01*
X118938095Y-59254819D02*
X118461905Y-59254819D01*
X118461905Y-59254819D02*
X118414286Y-59731009D01*
X118414286Y-59731009D02*
X118461905Y-59683390D01*
X118461905Y-59683390D02*
X118557143Y-59635771D01*
X118557143Y-59635771D02*
X118795238Y-59635771D01*
X118795238Y-59635771D02*
X118890476Y-59683390D01*
X118890476Y-59683390D02*
X118938095Y-59731009D01*
X118938095Y-59731009D02*
X118985714Y-59826247D01*
X118985714Y-59826247D02*
X118985714Y-60064342D01*
X118985714Y-60064342D02*
X118938095Y-60159580D01*
X118938095Y-60159580D02*
X118890476Y-60207200D01*
X118890476Y-60207200D02*
X118795238Y-60254819D01*
X118795238Y-60254819D02*
X118557143Y-60254819D01*
X118557143Y-60254819D02*
X118461905Y-60207200D01*
X118461905Y-60207200D02*
X118414286Y-60159580D01*
X123434695Y-78747219D02*
X123434695Y-79556742D01*
X123434695Y-79556742D02*
X123482314Y-79651980D01*
X123482314Y-79651980D02*
X123529933Y-79699600D01*
X123529933Y-79699600D02*
X123625171Y-79747219D01*
X123625171Y-79747219D02*
X123815647Y-79747219D01*
X123815647Y-79747219D02*
X123910885Y-79699600D01*
X123910885Y-79699600D02*
X123958504Y-79651980D01*
X123958504Y-79651980D02*
X124006123Y-79556742D01*
X124006123Y-79556742D02*
X124006123Y-78747219D01*
X125006123Y-79747219D02*
X124434695Y-79747219D01*
X124720409Y-79747219D02*
X124720409Y-78747219D01*
X124720409Y-78747219D02*
X124625171Y-78890076D01*
X124625171Y-78890076D02*
X124529933Y-78985314D01*
X124529933Y-78985314D02*
X124434695Y-79032933D01*
X113550476Y-69644819D02*
X113550476Y-70359104D01*
X113550476Y-70359104D02*
X113502857Y-70501961D01*
X113502857Y-70501961D02*
X113407619Y-70597200D01*
X113407619Y-70597200D02*
X113264762Y-70644819D01*
X113264762Y-70644819D02*
X113169524Y-70644819D01*
X114550476Y-70644819D02*
X113979048Y-70644819D01*
X114264762Y-70644819D02*
X114264762Y-69644819D01*
X114264762Y-69644819D02*
X114169524Y-69787676D01*
X114169524Y-69787676D02*
X114074286Y-69882914D01*
X114074286Y-69882914D02*
X113979048Y-69930533D01*
X115169524Y-69644819D02*
X115264762Y-69644819D01*
X115264762Y-69644819D02*
X115360000Y-69692438D01*
X115360000Y-69692438D02*
X115407619Y-69740057D01*
X115407619Y-69740057D02*
X115455238Y-69835295D01*
X115455238Y-69835295D02*
X115502857Y-70025771D01*
X115502857Y-70025771D02*
X115502857Y-70263866D01*
X115502857Y-70263866D02*
X115455238Y-70454342D01*
X115455238Y-70454342D02*
X115407619Y-70549580D01*
X115407619Y-70549580D02*
X115360000Y-70597200D01*
X115360000Y-70597200D02*
X115264762Y-70644819D01*
X115264762Y-70644819D02*
X115169524Y-70644819D01*
X115169524Y-70644819D02*
X115074286Y-70597200D01*
X115074286Y-70597200D02*
X115026667Y-70549580D01*
X115026667Y-70549580D02*
X114979048Y-70454342D01*
X114979048Y-70454342D02*
X114931429Y-70263866D01*
X114931429Y-70263866D02*
X114931429Y-70025771D01*
X114931429Y-70025771D02*
X114979048Y-69835295D01*
X114979048Y-69835295D02*
X115026667Y-69740057D01*
X115026667Y-69740057D02*
X115074286Y-69692438D01*
X115074286Y-69692438D02*
X115169524Y-69644819D01*
X106894819Y-136443333D02*
X107609104Y-136443333D01*
X107609104Y-136443333D02*
X107751961Y-136490952D01*
X107751961Y-136490952D02*
X107847200Y-136586190D01*
X107847200Y-136586190D02*
X107894819Y-136729047D01*
X107894819Y-136729047D02*
X107894819Y-136824285D01*
X107894819Y-135919523D02*
X107894819Y-135729047D01*
X107894819Y-135729047D02*
X107847200Y-135633809D01*
X107847200Y-135633809D02*
X107799580Y-135586190D01*
X107799580Y-135586190D02*
X107656723Y-135490952D01*
X107656723Y-135490952D02*
X107466247Y-135443333D01*
X107466247Y-135443333D02*
X107085295Y-135443333D01*
X107085295Y-135443333D02*
X106990057Y-135490952D01*
X106990057Y-135490952D02*
X106942438Y-135538571D01*
X106942438Y-135538571D02*
X106894819Y-135633809D01*
X106894819Y-135633809D02*
X106894819Y-135824285D01*
X106894819Y-135824285D02*
X106942438Y-135919523D01*
X106942438Y-135919523D02*
X106990057Y-135967142D01*
X106990057Y-135967142D02*
X107085295Y-136014761D01*
X107085295Y-136014761D02*
X107323390Y-136014761D01*
X107323390Y-136014761D02*
X107418628Y-135967142D01*
X107418628Y-135967142D02*
X107466247Y-135919523D01*
X107466247Y-135919523D02*
X107513866Y-135824285D01*
X107513866Y-135824285D02*
X107513866Y-135633809D01*
X107513866Y-135633809D02*
X107466247Y-135538571D01*
X107466247Y-135538571D02*
X107418628Y-135490952D01*
X107418628Y-135490952D02*
X107323390Y-135443333D01*
X139428033Y-75529419D02*
X139094700Y-75053228D01*
X138856605Y-75529419D02*
X138856605Y-74529419D01*
X138856605Y-74529419D02*
X139237557Y-74529419D01*
X139237557Y-74529419D02*
X139332795Y-74577038D01*
X139332795Y-74577038D02*
X139380414Y-74624657D01*
X139380414Y-74624657D02*
X139428033Y-74719895D01*
X139428033Y-74719895D02*
X139428033Y-74862752D01*
X139428033Y-74862752D02*
X139380414Y-74957990D01*
X139380414Y-74957990D02*
X139332795Y-75005609D01*
X139332795Y-75005609D02*
X139237557Y-75053228D01*
X139237557Y-75053228D02*
X138856605Y-75053228D01*
X140380414Y-75529419D02*
X139808986Y-75529419D01*
X140094700Y-75529419D02*
X140094700Y-74529419D01*
X140094700Y-74529419D02*
X139999462Y-74672276D01*
X139999462Y-74672276D02*
X139904224Y-74767514D01*
X139904224Y-74767514D02*
X139808986Y-74815133D01*
X102934819Y-139756666D02*
X102458628Y-140089999D01*
X102934819Y-140328094D02*
X101934819Y-140328094D01*
X101934819Y-140328094D02*
X101934819Y-139947142D01*
X101934819Y-139947142D02*
X101982438Y-139851904D01*
X101982438Y-139851904D02*
X102030057Y-139804285D01*
X102030057Y-139804285D02*
X102125295Y-139756666D01*
X102125295Y-139756666D02*
X102268152Y-139756666D01*
X102268152Y-139756666D02*
X102363390Y-139804285D01*
X102363390Y-139804285D02*
X102411009Y-139851904D01*
X102411009Y-139851904D02*
X102458628Y-139947142D01*
X102458628Y-139947142D02*
X102458628Y-140328094D01*
X102030057Y-139375713D02*
X101982438Y-139328094D01*
X101982438Y-139328094D02*
X101934819Y-139232856D01*
X101934819Y-139232856D02*
X101934819Y-138994761D01*
X101934819Y-138994761D02*
X101982438Y-138899523D01*
X101982438Y-138899523D02*
X102030057Y-138851904D01*
X102030057Y-138851904D02*
X102125295Y-138804285D01*
X102125295Y-138804285D02*
X102220533Y-138804285D01*
X102220533Y-138804285D02*
X102363390Y-138851904D01*
X102363390Y-138851904D02*
X102934819Y-139423332D01*
X102934819Y-139423332D02*
X102934819Y-138804285D01*
X129386819Y-67301904D02*
X129386819Y-66730476D01*
X130386819Y-67016190D02*
X129386819Y-67016190D01*
X130386819Y-66397142D02*
X129386819Y-66397142D01*
X129386819Y-66397142D02*
X129386819Y-66016190D01*
X129386819Y-66016190D02*
X129434438Y-65920952D01*
X129434438Y-65920952D02*
X129482057Y-65873333D01*
X129482057Y-65873333D02*
X129577295Y-65825714D01*
X129577295Y-65825714D02*
X129720152Y-65825714D01*
X129720152Y-65825714D02*
X129815390Y-65873333D01*
X129815390Y-65873333D02*
X129863009Y-65920952D01*
X129863009Y-65920952D02*
X129910628Y-66016190D01*
X129910628Y-66016190D02*
X129910628Y-66397142D01*
X129482057Y-65444761D02*
X129434438Y-65397142D01*
X129434438Y-65397142D02*
X129386819Y-65301904D01*
X129386819Y-65301904D02*
X129386819Y-65063809D01*
X129386819Y-65063809D02*
X129434438Y-64968571D01*
X129434438Y-64968571D02*
X129482057Y-64920952D01*
X129482057Y-64920952D02*
X129577295Y-64873333D01*
X129577295Y-64873333D02*
X129672533Y-64873333D01*
X129672533Y-64873333D02*
X129815390Y-64920952D01*
X129815390Y-64920952D02*
X130386819Y-65492380D01*
X130386819Y-65492380D02*
X130386819Y-64873333D01*
X130178095Y-129196819D02*
X130749523Y-129196819D01*
X130463809Y-130196819D02*
X130463809Y-129196819D01*
X131082857Y-130196819D02*
X131082857Y-129196819D01*
X131082857Y-129196819D02*
X131463809Y-129196819D01*
X131463809Y-129196819D02*
X131559047Y-129244438D01*
X131559047Y-129244438D02*
X131606666Y-129292057D01*
X131606666Y-129292057D02*
X131654285Y-129387295D01*
X131654285Y-129387295D02*
X131654285Y-129530152D01*
X131654285Y-129530152D02*
X131606666Y-129625390D01*
X131606666Y-129625390D02*
X131559047Y-129673009D01*
X131559047Y-129673009D02*
X131463809Y-129720628D01*
X131463809Y-129720628D02*
X131082857Y-129720628D01*
X132511428Y-129196819D02*
X132320952Y-129196819D01*
X132320952Y-129196819D02*
X132225714Y-129244438D01*
X132225714Y-129244438D02*
X132178095Y-129292057D01*
X132178095Y-129292057D02*
X132082857Y-129434914D01*
X132082857Y-129434914D02*
X132035238Y-129625390D01*
X132035238Y-129625390D02*
X132035238Y-130006342D01*
X132035238Y-130006342D02*
X132082857Y-130101580D01*
X132082857Y-130101580D02*
X132130476Y-130149200D01*
X132130476Y-130149200D02*
X132225714Y-130196819D01*
X132225714Y-130196819D02*
X132416190Y-130196819D01*
X132416190Y-130196819D02*
X132511428Y-130149200D01*
X132511428Y-130149200D02*
X132559047Y-130101580D01*
X132559047Y-130101580D02*
X132606666Y-130006342D01*
X132606666Y-130006342D02*
X132606666Y-129768247D01*
X132606666Y-129768247D02*
X132559047Y-129673009D01*
X132559047Y-129673009D02*
X132511428Y-129625390D01*
X132511428Y-129625390D02*
X132416190Y-129577771D01*
X132416190Y-129577771D02*
X132225714Y-129577771D01*
X132225714Y-129577771D02*
X132130476Y-129625390D01*
X132130476Y-129625390D02*
X132082857Y-129673009D01*
X132082857Y-129673009D02*
X132035238Y-129768247D01*
X100576142Y-108532819D02*
X100242809Y-108056628D01*
X100004714Y-108532819D02*
X100004714Y-107532819D01*
X100004714Y-107532819D02*
X100385666Y-107532819D01*
X100385666Y-107532819D02*
X100480904Y-107580438D01*
X100480904Y-107580438D02*
X100528523Y-107628057D01*
X100528523Y-107628057D02*
X100576142Y-107723295D01*
X100576142Y-107723295D02*
X100576142Y-107866152D01*
X100576142Y-107866152D02*
X100528523Y-107961390D01*
X100528523Y-107961390D02*
X100480904Y-108009009D01*
X100480904Y-108009009D02*
X100385666Y-108056628D01*
X100385666Y-108056628D02*
X100004714Y-108056628D01*
X101528523Y-108532819D02*
X100957095Y-108532819D01*
X101242809Y-108532819D02*
X101242809Y-107532819D01*
X101242809Y-107532819D02*
X101147571Y-107675676D01*
X101147571Y-107675676D02*
X101052333Y-107770914D01*
X101052333Y-107770914D02*
X100957095Y-107818533D01*
X102099952Y-107961390D02*
X102004714Y-107913771D01*
X102004714Y-107913771D02*
X101957095Y-107866152D01*
X101957095Y-107866152D02*
X101909476Y-107770914D01*
X101909476Y-107770914D02*
X101909476Y-107723295D01*
X101909476Y-107723295D02*
X101957095Y-107628057D01*
X101957095Y-107628057D02*
X102004714Y-107580438D01*
X102004714Y-107580438D02*
X102099952Y-107532819D01*
X102099952Y-107532819D02*
X102290428Y-107532819D01*
X102290428Y-107532819D02*
X102385666Y-107580438D01*
X102385666Y-107580438D02*
X102433285Y-107628057D01*
X102433285Y-107628057D02*
X102480904Y-107723295D01*
X102480904Y-107723295D02*
X102480904Y-107770914D01*
X102480904Y-107770914D02*
X102433285Y-107866152D01*
X102433285Y-107866152D02*
X102385666Y-107913771D01*
X102385666Y-107913771D02*
X102290428Y-107961390D01*
X102290428Y-107961390D02*
X102099952Y-107961390D01*
X102099952Y-107961390D02*
X102004714Y-108009009D01*
X102004714Y-108009009D02*
X101957095Y-108056628D01*
X101957095Y-108056628D02*
X101909476Y-108151866D01*
X101909476Y-108151866D02*
X101909476Y-108342342D01*
X101909476Y-108342342D02*
X101957095Y-108437580D01*
X101957095Y-108437580D02*
X102004714Y-108485200D01*
X102004714Y-108485200D02*
X102099952Y-108532819D01*
X102099952Y-108532819D02*
X102290428Y-108532819D01*
X102290428Y-108532819D02*
X102385666Y-108485200D01*
X102385666Y-108485200D02*
X102433285Y-108437580D01*
X102433285Y-108437580D02*
X102480904Y-108342342D01*
X102480904Y-108342342D02*
X102480904Y-108151866D01*
X102480904Y-108151866D02*
X102433285Y-108056628D01*
X102433285Y-108056628D02*
X102385666Y-108009009D01*
X102385666Y-108009009D02*
X102290428Y-107961390D01*
X120650095Y-117691819D02*
X120650095Y-118501342D01*
X120650095Y-118501342D02*
X120697714Y-118596580D01*
X120697714Y-118596580D02*
X120745333Y-118644200D01*
X120745333Y-118644200D02*
X120840571Y-118691819D01*
X120840571Y-118691819D02*
X121031047Y-118691819D01*
X121031047Y-118691819D02*
X121126285Y-118644200D01*
X121126285Y-118644200D02*
X121173904Y-118596580D01*
X121173904Y-118596580D02*
X121221523Y-118501342D01*
X121221523Y-118501342D02*
X121221523Y-117691819D01*
X121602476Y-117691819D02*
X122269142Y-117691819D01*
X122269142Y-117691819D02*
X121840571Y-118691819D01*
X117602000Y-112434019D02*
X117602000Y-112672114D01*
X117363905Y-112576876D02*
X117602000Y-112672114D01*
X117602000Y-112672114D02*
X117840095Y-112576876D01*
X117459143Y-112862590D02*
X117602000Y-112672114D01*
X117602000Y-112672114D02*
X117744857Y-112862590D01*
X123600000Y-121654819D02*
X123600000Y-121892914D01*
X123361905Y-121797676D02*
X123600000Y-121892914D01*
X123600000Y-121892914D02*
X123838095Y-121797676D01*
X123457143Y-122083390D02*
X123600000Y-121892914D01*
X123600000Y-121892914D02*
X123742857Y-122083390D01*
X111596819Y-66270094D02*
X110596819Y-66270094D01*
X110596819Y-66270094D02*
X110596819Y-66031999D01*
X110596819Y-66031999D02*
X110644438Y-65889142D01*
X110644438Y-65889142D02*
X110739676Y-65793904D01*
X110739676Y-65793904D02*
X110834914Y-65746285D01*
X110834914Y-65746285D02*
X111025390Y-65698666D01*
X111025390Y-65698666D02*
X111168247Y-65698666D01*
X111168247Y-65698666D02*
X111358723Y-65746285D01*
X111358723Y-65746285D02*
X111453961Y-65793904D01*
X111453961Y-65793904D02*
X111549200Y-65889142D01*
X111549200Y-65889142D02*
X111596819Y-66031999D01*
X111596819Y-66031999D02*
X111596819Y-66270094D01*
X110930152Y-64841523D02*
X111596819Y-64841523D01*
X110549200Y-65079618D02*
X111263485Y-65317713D01*
X111263485Y-65317713D02*
X111263485Y-64698666D01*
X160888095Y-106906819D02*
X161459523Y-106906819D01*
X161173809Y-107906819D02*
X161173809Y-106906819D01*
X161792857Y-107906819D02*
X161792857Y-106906819D01*
X161792857Y-106906819D02*
X162173809Y-106906819D01*
X162173809Y-106906819D02*
X162269047Y-106954438D01*
X162269047Y-106954438D02*
X162316666Y-107002057D01*
X162316666Y-107002057D02*
X162364285Y-107097295D01*
X162364285Y-107097295D02*
X162364285Y-107240152D01*
X162364285Y-107240152D02*
X162316666Y-107335390D01*
X162316666Y-107335390D02*
X162269047Y-107383009D01*
X162269047Y-107383009D02*
X162173809Y-107430628D01*
X162173809Y-107430628D02*
X161792857Y-107430628D01*
X162840476Y-107906819D02*
X163030952Y-107906819D01*
X163030952Y-107906819D02*
X163126190Y-107859200D01*
X163126190Y-107859200D02*
X163173809Y-107811580D01*
X163173809Y-107811580D02*
X163269047Y-107668723D01*
X163269047Y-107668723D02*
X163316666Y-107478247D01*
X163316666Y-107478247D02*
X163316666Y-107097295D01*
X163316666Y-107097295D02*
X163269047Y-107002057D01*
X163269047Y-107002057D02*
X163221428Y-106954438D01*
X163221428Y-106954438D02*
X163126190Y-106906819D01*
X163126190Y-106906819D02*
X162935714Y-106906819D01*
X162935714Y-106906819D02*
X162840476Y-106954438D01*
X162840476Y-106954438D02*
X162792857Y-107002057D01*
X162792857Y-107002057D02*
X162745238Y-107097295D01*
X162745238Y-107097295D02*
X162745238Y-107335390D01*
X162745238Y-107335390D02*
X162792857Y-107430628D01*
X162792857Y-107430628D02*
X162840476Y-107478247D01*
X162840476Y-107478247D02*
X162935714Y-107525866D01*
X162935714Y-107525866D02*
X163126190Y-107525866D01*
X163126190Y-107525866D02*
X163221428Y-107478247D01*
X163221428Y-107478247D02*
X163269047Y-107430628D01*
X163269047Y-107430628D02*
X163316666Y-107335390D01*
X113907142Y-108704819D02*
X113573809Y-108228628D01*
X113335714Y-108704819D02*
X113335714Y-107704819D01*
X113335714Y-107704819D02*
X113716666Y-107704819D01*
X113716666Y-107704819D02*
X113811904Y-107752438D01*
X113811904Y-107752438D02*
X113859523Y-107800057D01*
X113859523Y-107800057D02*
X113907142Y-107895295D01*
X113907142Y-107895295D02*
X113907142Y-108038152D01*
X113907142Y-108038152D02*
X113859523Y-108133390D01*
X113859523Y-108133390D02*
X113811904Y-108181009D01*
X113811904Y-108181009D02*
X113716666Y-108228628D01*
X113716666Y-108228628D02*
X113335714Y-108228628D01*
X114859523Y-108704819D02*
X114288095Y-108704819D01*
X114573809Y-108704819D02*
X114573809Y-107704819D01*
X114573809Y-107704819D02*
X114478571Y-107847676D01*
X114478571Y-107847676D02*
X114383333Y-107942914D01*
X114383333Y-107942914D02*
X114288095Y-107990533D01*
X115716666Y-107704819D02*
X115526190Y-107704819D01*
X115526190Y-107704819D02*
X115430952Y-107752438D01*
X115430952Y-107752438D02*
X115383333Y-107800057D01*
X115383333Y-107800057D02*
X115288095Y-107942914D01*
X115288095Y-107942914D02*
X115240476Y-108133390D01*
X115240476Y-108133390D02*
X115240476Y-108514342D01*
X115240476Y-108514342D02*
X115288095Y-108609580D01*
X115288095Y-108609580D02*
X115335714Y-108657200D01*
X115335714Y-108657200D02*
X115430952Y-108704819D01*
X115430952Y-108704819D02*
X115621428Y-108704819D01*
X115621428Y-108704819D02*
X115716666Y-108657200D01*
X115716666Y-108657200D02*
X115764285Y-108609580D01*
X115764285Y-108609580D02*
X115811904Y-108514342D01*
X115811904Y-108514342D02*
X115811904Y-108276247D01*
X115811904Y-108276247D02*
X115764285Y-108181009D01*
X115764285Y-108181009D02*
X115716666Y-108133390D01*
X115716666Y-108133390D02*
X115621428Y-108085771D01*
X115621428Y-108085771D02*
X115430952Y-108085771D01*
X115430952Y-108085771D02*
X115335714Y-108133390D01*
X115335714Y-108133390D02*
X115288095Y-108181009D01*
X115288095Y-108181009D02*
X115240476Y-108276247D01*
X112997833Y-85923580D02*
X112950214Y-85971200D01*
X112950214Y-85971200D02*
X112807357Y-86018819D01*
X112807357Y-86018819D02*
X112712119Y-86018819D01*
X112712119Y-86018819D02*
X112569262Y-85971200D01*
X112569262Y-85971200D02*
X112474024Y-85875961D01*
X112474024Y-85875961D02*
X112426405Y-85780723D01*
X112426405Y-85780723D02*
X112378786Y-85590247D01*
X112378786Y-85590247D02*
X112378786Y-85447390D01*
X112378786Y-85447390D02*
X112426405Y-85256914D01*
X112426405Y-85256914D02*
X112474024Y-85161676D01*
X112474024Y-85161676D02*
X112569262Y-85066438D01*
X112569262Y-85066438D02*
X112712119Y-85018819D01*
X112712119Y-85018819D02*
X112807357Y-85018819D01*
X112807357Y-85018819D02*
X112950214Y-85066438D01*
X112950214Y-85066438D02*
X112997833Y-85114057D01*
X113331167Y-85018819D02*
X113997833Y-85018819D01*
X113997833Y-85018819D02*
X113569262Y-86018819D01*
X161488095Y-117754819D02*
X161488095Y-118564342D01*
X161488095Y-118564342D02*
X161535714Y-118659580D01*
X161535714Y-118659580D02*
X161583333Y-118707200D01*
X161583333Y-118707200D02*
X161678571Y-118754819D01*
X161678571Y-118754819D02*
X161869047Y-118754819D01*
X161869047Y-118754819D02*
X161964285Y-118707200D01*
X161964285Y-118707200D02*
X162011904Y-118659580D01*
X162011904Y-118659580D02*
X162059523Y-118564342D01*
X162059523Y-118564342D02*
X162059523Y-117754819D01*
X162964285Y-117754819D02*
X162773809Y-117754819D01*
X162773809Y-117754819D02*
X162678571Y-117802438D01*
X162678571Y-117802438D02*
X162630952Y-117850057D01*
X162630952Y-117850057D02*
X162535714Y-117992914D01*
X162535714Y-117992914D02*
X162488095Y-118183390D01*
X162488095Y-118183390D02*
X162488095Y-118564342D01*
X162488095Y-118564342D02*
X162535714Y-118659580D01*
X162535714Y-118659580D02*
X162583333Y-118707200D01*
X162583333Y-118707200D02*
X162678571Y-118754819D01*
X162678571Y-118754819D02*
X162869047Y-118754819D01*
X162869047Y-118754819D02*
X162964285Y-118707200D01*
X162964285Y-118707200D02*
X163011904Y-118659580D01*
X163011904Y-118659580D02*
X163059523Y-118564342D01*
X163059523Y-118564342D02*
X163059523Y-118326247D01*
X163059523Y-118326247D02*
X163011904Y-118231009D01*
X163011904Y-118231009D02*
X162964285Y-118183390D01*
X162964285Y-118183390D02*
X162869047Y-118135771D01*
X162869047Y-118135771D02*
X162678571Y-118135771D01*
X162678571Y-118135771D02*
X162583333Y-118183390D01*
X162583333Y-118183390D02*
X162535714Y-118231009D01*
X162535714Y-118231009D02*
X162488095Y-118326247D01*
X164600000Y-121564819D02*
X164600000Y-121802914D01*
X164361905Y-121707676D02*
X164600000Y-121802914D01*
X164600000Y-121802914D02*
X164838095Y-121707676D01*
X164457143Y-121993390D02*
X164600000Y-121802914D01*
X164600000Y-121802914D02*
X164742857Y-121993390D01*
X158440000Y-112497019D02*
X158440000Y-112735114D01*
X158201905Y-112639876D02*
X158440000Y-112735114D01*
X158440000Y-112735114D02*
X158678095Y-112639876D01*
X158297143Y-112925590D02*
X158440000Y-112735114D01*
X158440000Y-112735114D02*
X158582857Y-112925590D01*
X154957142Y-109054819D02*
X154623809Y-108578628D01*
X154385714Y-109054819D02*
X154385714Y-108054819D01*
X154385714Y-108054819D02*
X154766666Y-108054819D01*
X154766666Y-108054819D02*
X154861904Y-108102438D01*
X154861904Y-108102438D02*
X154909523Y-108150057D01*
X154909523Y-108150057D02*
X154957142Y-108245295D01*
X154957142Y-108245295D02*
X154957142Y-108388152D01*
X154957142Y-108388152D02*
X154909523Y-108483390D01*
X154909523Y-108483390D02*
X154861904Y-108531009D01*
X154861904Y-108531009D02*
X154766666Y-108578628D01*
X154766666Y-108578628D02*
X154385714Y-108578628D01*
X155909523Y-109054819D02*
X155338095Y-109054819D01*
X155623809Y-109054819D02*
X155623809Y-108054819D01*
X155623809Y-108054819D02*
X155528571Y-108197676D01*
X155528571Y-108197676D02*
X155433333Y-108292914D01*
X155433333Y-108292914D02*
X155338095Y-108340533D01*
X156814285Y-108054819D02*
X156338095Y-108054819D01*
X156338095Y-108054819D02*
X156290476Y-108531009D01*
X156290476Y-108531009D02*
X156338095Y-108483390D01*
X156338095Y-108483390D02*
X156433333Y-108435771D01*
X156433333Y-108435771D02*
X156671428Y-108435771D01*
X156671428Y-108435771D02*
X156766666Y-108483390D01*
X156766666Y-108483390D02*
X156814285Y-108531009D01*
X156814285Y-108531009D02*
X156861904Y-108626247D01*
X156861904Y-108626247D02*
X156861904Y-108864342D01*
X156861904Y-108864342D02*
X156814285Y-108959580D01*
X156814285Y-108959580D02*
X156766666Y-109007200D01*
X156766666Y-109007200D02*
X156671428Y-109054819D01*
X156671428Y-109054819D02*
X156433333Y-109054819D01*
X156433333Y-109054819D02*
X156338095Y-109007200D01*
X156338095Y-109007200D02*
X156290476Y-108959580D01*
X132894819Y-136443333D02*
X133609104Y-136443333D01*
X133609104Y-136443333D02*
X133751961Y-136490952D01*
X133751961Y-136490952D02*
X133847200Y-136586190D01*
X133847200Y-136586190D02*
X133894819Y-136729047D01*
X133894819Y-136729047D02*
X133894819Y-136824285D01*
X133228152Y-135538571D02*
X133894819Y-135538571D01*
X132847200Y-135776666D02*
X133561485Y-136014761D01*
X133561485Y-136014761D02*
X133561485Y-135395714D01*
X128516142Y-127809419D02*
X128182809Y-127333228D01*
X127944714Y-127809419D02*
X127944714Y-126809419D01*
X127944714Y-126809419D02*
X128325666Y-126809419D01*
X128325666Y-126809419D02*
X128420904Y-126857038D01*
X128420904Y-126857038D02*
X128468523Y-126904657D01*
X128468523Y-126904657D02*
X128516142Y-126999895D01*
X128516142Y-126999895D02*
X128516142Y-127142752D01*
X128516142Y-127142752D02*
X128468523Y-127237990D01*
X128468523Y-127237990D02*
X128420904Y-127285609D01*
X128420904Y-127285609D02*
X128325666Y-127333228D01*
X128325666Y-127333228D02*
X127944714Y-127333228D01*
X129468523Y-127809419D02*
X128897095Y-127809419D01*
X129182809Y-127809419D02*
X129182809Y-126809419D01*
X129182809Y-126809419D02*
X129087571Y-126952276D01*
X129087571Y-126952276D02*
X128992333Y-127047514D01*
X128992333Y-127047514D02*
X128897095Y-127095133D01*
X130420904Y-127809419D02*
X129849476Y-127809419D01*
X130135190Y-127809419D02*
X130135190Y-126809419D01*
X130135190Y-126809419D02*
X130039952Y-126952276D01*
X130039952Y-126952276D02*
X129944714Y-127047514D01*
X129944714Y-127047514D02*
X129849476Y-127095133D01*
X146581905Y-94740819D02*
X146581905Y-93740819D01*
X146581905Y-93740819D02*
X146820000Y-93740819D01*
X146820000Y-93740819D02*
X146962857Y-93788438D01*
X146962857Y-93788438D02*
X147058095Y-93883676D01*
X147058095Y-93883676D02*
X147105714Y-93978914D01*
X147105714Y-93978914D02*
X147153333Y-94169390D01*
X147153333Y-94169390D02*
X147153333Y-94312247D01*
X147153333Y-94312247D02*
X147105714Y-94502723D01*
X147105714Y-94502723D02*
X147058095Y-94597961D01*
X147058095Y-94597961D02*
X146962857Y-94693200D01*
X146962857Y-94693200D02*
X146820000Y-94740819D01*
X146820000Y-94740819D02*
X146581905Y-94740819D01*
X147534286Y-93836057D02*
X147581905Y-93788438D01*
X147581905Y-93788438D02*
X147677143Y-93740819D01*
X147677143Y-93740819D02*
X147915238Y-93740819D01*
X147915238Y-93740819D02*
X148010476Y-93788438D01*
X148010476Y-93788438D02*
X148058095Y-93836057D01*
X148058095Y-93836057D02*
X148105714Y-93931295D01*
X148105714Y-93931295D02*
X148105714Y-94026533D01*
X148105714Y-94026533D02*
X148058095Y-94169390D01*
X148058095Y-94169390D02*
X147486667Y-94740819D01*
X147486667Y-94740819D02*
X148105714Y-94740819D01*
X118083333Y-62859580D02*
X118035714Y-62907200D01*
X118035714Y-62907200D02*
X117892857Y-62954819D01*
X117892857Y-62954819D02*
X117797619Y-62954819D01*
X117797619Y-62954819D02*
X117654762Y-62907200D01*
X117654762Y-62907200D02*
X117559524Y-62811961D01*
X117559524Y-62811961D02*
X117511905Y-62716723D01*
X117511905Y-62716723D02*
X117464286Y-62526247D01*
X117464286Y-62526247D02*
X117464286Y-62383390D01*
X117464286Y-62383390D02*
X117511905Y-62192914D01*
X117511905Y-62192914D02*
X117559524Y-62097676D01*
X117559524Y-62097676D02*
X117654762Y-62002438D01*
X117654762Y-62002438D02*
X117797619Y-61954819D01*
X117797619Y-61954819D02*
X117892857Y-61954819D01*
X117892857Y-61954819D02*
X118035714Y-62002438D01*
X118035714Y-62002438D02*
X118083333Y-62050057D01*
X118940476Y-62288152D02*
X118940476Y-62954819D01*
X118702381Y-61907200D02*
X118464286Y-62621485D01*
X118464286Y-62621485D02*
X119083333Y-62621485D01*
X103333333Y-67704819D02*
X103000000Y-67228628D01*
X102761905Y-67704819D02*
X102761905Y-66704819D01*
X102761905Y-66704819D02*
X103142857Y-66704819D01*
X103142857Y-66704819D02*
X103238095Y-66752438D01*
X103238095Y-66752438D02*
X103285714Y-66800057D01*
X103285714Y-66800057D02*
X103333333Y-66895295D01*
X103333333Y-66895295D02*
X103333333Y-67038152D01*
X103333333Y-67038152D02*
X103285714Y-67133390D01*
X103285714Y-67133390D02*
X103238095Y-67181009D01*
X103238095Y-67181009D02*
X103142857Y-67228628D01*
X103142857Y-67228628D02*
X102761905Y-67228628D01*
X103666667Y-66704819D02*
X104333333Y-66704819D01*
X104333333Y-66704819D02*
X103904762Y-67704819D01*
X125413095Y-47146819D02*
X125413095Y-47956342D01*
X125413095Y-47956342D02*
X125460714Y-48051580D01*
X125460714Y-48051580D02*
X125508333Y-48099200D01*
X125508333Y-48099200D02*
X125603571Y-48146819D01*
X125603571Y-48146819D02*
X125794047Y-48146819D01*
X125794047Y-48146819D02*
X125889285Y-48099200D01*
X125889285Y-48099200D02*
X125936904Y-48051580D01*
X125936904Y-48051580D02*
X125984523Y-47956342D01*
X125984523Y-47956342D02*
X125984523Y-47146819D01*
X126365476Y-47146819D02*
X126984523Y-47146819D01*
X126984523Y-47146819D02*
X126651190Y-47527771D01*
X126651190Y-47527771D02*
X126794047Y-47527771D01*
X126794047Y-47527771D02*
X126889285Y-47575390D01*
X126889285Y-47575390D02*
X126936904Y-47623009D01*
X126936904Y-47623009D02*
X126984523Y-47718247D01*
X126984523Y-47718247D02*
X126984523Y-47956342D01*
X126984523Y-47956342D02*
X126936904Y-48051580D01*
X126936904Y-48051580D02*
X126889285Y-48099200D01*
X126889285Y-48099200D02*
X126794047Y-48146819D01*
X126794047Y-48146819D02*
X126508333Y-48146819D01*
X126508333Y-48146819D02*
X126413095Y-48099200D01*
X126413095Y-48099200D02*
X126365476Y-48051580D01*
X112557142Y-126054819D02*
X112223809Y-125578628D01*
X111985714Y-126054819D02*
X111985714Y-125054819D01*
X111985714Y-125054819D02*
X112366666Y-125054819D01*
X112366666Y-125054819D02*
X112461904Y-125102438D01*
X112461904Y-125102438D02*
X112509523Y-125150057D01*
X112509523Y-125150057D02*
X112557142Y-125245295D01*
X112557142Y-125245295D02*
X112557142Y-125388152D01*
X112557142Y-125388152D02*
X112509523Y-125483390D01*
X112509523Y-125483390D02*
X112461904Y-125531009D01*
X112461904Y-125531009D02*
X112366666Y-125578628D01*
X112366666Y-125578628D02*
X111985714Y-125578628D01*
X113509523Y-126054819D02*
X112938095Y-126054819D01*
X113223809Y-126054819D02*
X113223809Y-125054819D01*
X113223809Y-125054819D02*
X113128571Y-125197676D01*
X113128571Y-125197676D02*
X113033333Y-125292914D01*
X113033333Y-125292914D02*
X112938095Y-125340533D01*
X113842857Y-125054819D02*
X114509523Y-125054819D01*
X114509523Y-125054819D02*
X114080952Y-126054819D01*
X132729505Y-106679219D02*
X133300933Y-106679219D01*
X133015219Y-107679219D02*
X133015219Y-106679219D01*
X133634267Y-107679219D02*
X133634267Y-106679219D01*
X133634267Y-106679219D02*
X134015219Y-106679219D01*
X134015219Y-106679219D02*
X134110457Y-106726838D01*
X134110457Y-106726838D02*
X134158076Y-106774457D01*
X134158076Y-106774457D02*
X134205695Y-106869695D01*
X134205695Y-106869695D02*
X134205695Y-107012552D01*
X134205695Y-107012552D02*
X134158076Y-107107790D01*
X134158076Y-107107790D02*
X134110457Y-107155409D01*
X134110457Y-107155409D02*
X134015219Y-107203028D01*
X134015219Y-107203028D02*
X133634267Y-107203028D01*
X135158076Y-107679219D02*
X134586648Y-107679219D01*
X134872362Y-107679219D02*
X134872362Y-106679219D01*
X134872362Y-106679219D02*
X134777124Y-106822076D01*
X134777124Y-106822076D02*
X134681886Y-106917314D01*
X134681886Y-106917314D02*
X134586648Y-106964933D01*
X136110457Y-107679219D02*
X135539029Y-107679219D01*
X135824743Y-107679219D02*
X135824743Y-106679219D01*
X135824743Y-106679219D02*
X135729505Y-106822076D01*
X135729505Y-106822076D02*
X135634267Y-106917314D01*
X135634267Y-106917314D02*
X135539029Y-106964933D01*
X141057333Y-91260819D02*
X140724000Y-90784628D01*
X140485905Y-91260819D02*
X140485905Y-90260819D01*
X140485905Y-90260819D02*
X140866857Y-90260819D01*
X140866857Y-90260819D02*
X140962095Y-90308438D01*
X140962095Y-90308438D02*
X141009714Y-90356057D01*
X141009714Y-90356057D02*
X141057333Y-90451295D01*
X141057333Y-90451295D02*
X141057333Y-90594152D01*
X141057333Y-90594152D02*
X141009714Y-90689390D01*
X141009714Y-90689390D02*
X140962095Y-90737009D01*
X140962095Y-90737009D02*
X140866857Y-90784628D01*
X140866857Y-90784628D02*
X140485905Y-90784628D01*
X141628762Y-90689390D02*
X141533524Y-90641771D01*
X141533524Y-90641771D02*
X141485905Y-90594152D01*
X141485905Y-90594152D02*
X141438286Y-90498914D01*
X141438286Y-90498914D02*
X141438286Y-90451295D01*
X141438286Y-90451295D02*
X141485905Y-90356057D01*
X141485905Y-90356057D02*
X141533524Y-90308438D01*
X141533524Y-90308438D02*
X141628762Y-90260819D01*
X141628762Y-90260819D02*
X141819238Y-90260819D01*
X141819238Y-90260819D02*
X141914476Y-90308438D01*
X141914476Y-90308438D02*
X141962095Y-90356057D01*
X141962095Y-90356057D02*
X142009714Y-90451295D01*
X142009714Y-90451295D02*
X142009714Y-90498914D01*
X142009714Y-90498914D02*
X141962095Y-90594152D01*
X141962095Y-90594152D02*
X141914476Y-90641771D01*
X141914476Y-90641771D02*
X141819238Y-90689390D01*
X141819238Y-90689390D02*
X141628762Y-90689390D01*
X141628762Y-90689390D02*
X141533524Y-90737009D01*
X141533524Y-90737009D02*
X141485905Y-90784628D01*
X141485905Y-90784628D02*
X141438286Y-90879866D01*
X141438286Y-90879866D02*
X141438286Y-91070342D01*
X141438286Y-91070342D02*
X141485905Y-91165580D01*
X141485905Y-91165580D02*
X141533524Y-91213200D01*
X141533524Y-91213200D02*
X141628762Y-91260819D01*
X141628762Y-91260819D02*
X141819238Y-91260819D01*
X141819238Y-91260819D02*
X141914476Y-91213200D01*
X141914476Y-91213200D02*
X141962095Y-91165580D01*
X141962095Y-91165580D02*
X142009714Y-91070342D01*
X142009714Y-91070342D02*
X142009714Y-90879866D01*
X142009714Y-90879866D02*
X141962095Y-90784628D01*
X141962095Y-90784628D02*
X141914476Y-90737009D01*
X141914476Y-90737009D02*
X141819238Y-90689390D01*
X117468095Y-129196819D02*
X118039523Y-129196819D01*
X117753809Y-130196819D02*
X117753809Y-129196819D01*
X118372857Y-130196819D02*
X118372857Y-129196819D01*
X118372857Y-129196819D02*
X118753809Y-129196819D01*
X118753809Y-129196819D02*
X118849047Y-129244438D01*
X118849047Y-129244438D02*
X118896666Y-129292057D01*
X118896666Y-129292057D02*
X118944285Y-129387295D01*
X118944285Y-129387295D02*
X118944285Y-129530152D01*
X118944285Y-129530152D02*
X118896666Y-129625390D01*
X118896666Y-129625390D02*
X118849047Y-129673009D01*
X118849047Y-129673009D02*
X118753809Y-129720628D01*
X118753809Y-129720628D02*
X118372857Y-129720628D01*
X119277619Y-129196819D02*
X119896666Y-129196819D01*
X119896666Y-129196819D02*
X119563333Y-129577771D01*
X119563333Y-129577771D02*
X119706190Y-129577771D01*
X119706190Y-129577771D02*
X119801428Y-129625390D01*
X119801428Y-129625390D02*
X119849047Y-129673009D01*
X119849047Y-129673009D02*
X119896666Y-129768247D01*
X119896666Y-129768247D02*
X119896666Y-130006342D01*
X119896666Y-130006342D02*
X119849047Y-130101580D01*
X119849047Y-130101580D02*
X119801428Y-130149200D01*
X119801428Y-130149200D02*
X119706190Y-130196819D01*
X119706190Y-130196819D02*
X119420476Y-130196819D01*
X119420476Y-130196819D02*
X119325238Y-130149200D01*
X119325238Y-130149200D02*
X119277619Y-130101580D01*
X121614819Y-71656666D02*
X121138628Y-71989999D01*
X121614819Y-72228094D02*
X120614819Y-72228094D01*
X120614819Y-72228094D02*
X120614819Y-71847142D01*
X120614819Y-71847142D02*
X120662438Y-71751904D01*
X120662438Y-71751904D02*
X120710057Y-71704285D01*
X120710057Y-71704285D02*
X120805295Y-71656666D01*
X120805295Y-71656666D02*
X120948152Y-71656666D01*
X120948152Y-71656666D02*
X121043390Y-71704285D01*
X121043390Y-71704285D02*
X121091009Y-71751904D01*
X121091009Y-71751904D02*
X121138628Y-71847142D01*
X121138628Y-71847142D02*
X121138628Y-72228094D01*
X121614819Y-71180475D02*
X121614819Y-70989999D01*
X121614819Y-70989999D02*
X121567200Y-70894761D01*
X121567200Y-70894761D02*
X121519580Y-70847142D01*
X121519580Y-70847142D02*
X121376723Y-70751904D01*
X121376723Y-70751904D02*
X121186247Y-70704285D01*
X121186247Y-70704285D02*
X120805295Y-70704285D01*
X120805295Y-70704285D02*
X120710057Y-70751904D01*
X120710057Y-70751904D02*
X120662438Y-70799523D01*
X120662438Y-70799523D02*
X120614819Y-70894761D01*
X120614819Y-70894761D02*
X120614819Y-71085237D01*
X120614819Y-71085237D02*
X120662438Y-71180475D01*
X120662438Y-71180475D02*
X120710057Y-71228094D01*
X120710057Y-71228094D02*
X120805295Y-71275713D01*
X120805295Y-71275713D02*
X121043390Y-71275713D01*
X121043390Y-71275713D02*
X121138628Y-71228094D01*
X121138628Y-71228094D02*
X121186247Y-71180475D01*
X121186247Y-71180475D02*
X121233866Y-71085237D01*
X121233866Y-71085237D02*
X121233866Y-70894761D01*
X121233866Y-70894761D02*
X121186247Y-70799523D01*
X121186247Y-70799523D02*
X121138628Y-70751904D01*
X121138628Y-70751904D02*
X121043390Y-70704285D01*
X106836666Y-64064819D02*
X106836666Y-64779104D01*
X106836666Y-64779104D02*
X106789047Y-64921961D01*
X106789047Y-64921961D02*
X106693809Y-65017200D01*
X106693809Y-65017200D02*
X106550952Y-65064819D01*
X106550952Y-65064819D02*
X106455714Y-65064819D01*
X107836666Y-65064819D02*
X107265238Y-65064819D01*
X107550952Y-65064819D02*
X107550952Y-64064819D01*
X107550952Y-64064819D02*
X107455714Y-64207676D01*
X107455714Y-64207676D02*
X107360476Y-64302914D01*
X107360476Y-64302914D02*
X107265238Y-64350533D01*
X99094819Y-97281904D02*
X99904342Y-97281904D01*
X99904342Y-97281904D02*
X99999580Y-97234285D01*
X99999580Y-97234285D02*
X100047200Y-97186666D01*
X100047200Y-97186666D02*
X100094819Y-97091428D01*
X100094819Y-97091428D02*
X100094819Y-96900952D01*
X100094819Y-96900952D02*
X100047200Y-96805714D01*
X100047200Y-96805714D02*
X99999580Y-96758095D01*
X99999580Y-96758095D02*
X99904342Y-96710476D01*
X99904342Y-96710476D02*
X99094819Y-96710476D01*
X99190057Y-96281904D02*
X99142438Y-96234285D01*
X99142438Y-96234285D02*
X99094819Y-96139047D01*
X99094819Y-96139047D02*
X99094819Y-95900952D01*
X99094819Y-95900952D02*
X99142438Y-95805714D01*
X99142438Y-95805714D02*
X99190057Y-95758095D01*
X99190057Y-95758095D02*
X99285295Y-95710476D01*
X99285295Y-95710476D02*
X99380533Y-95710476D01*
X99380533Y-95710476D02*
X99523390Y-95758095D01*
X99523390Y-95758095D02*
X100094819Y-96329523D01*
X100094819Y-96329523D02*
X100094819Y-95710476D01*
X127057142Y-108754819D02*
X126723809Y-108278628D01*
X126485714Y-108754819D02*
X126485714Y-107754819D01*
X126485714Y-107754819D02*
X126866666Y-107754819D01*
X126866666Y-107754819D02*
X126961904Y-107802438D01*
X126961904Y-107802438D02*
X127009523Y-107850057D01*
X127009523Y-107850057D02*
X127057142Y-107945295D01*
X127057142Y-107945295D02*
X127057142Y-108088152D01*
X127057142Y-108088152D02*
X127009523Y-108183390D01*
X127009523Y-108183390D02*
X126961904Y-108231009D01*
X126961904Y-108231009D02*
X126866666Y-108278628D01*
X126866666Y-108278628D02*
X126485714Y-108278628D01*
X128009523Y-108754819D02*
X127438095Y-108754819D01*
X127723809Y-108754819D02*
X127723809Y-107754819D01*
X127723809Y-107754819D02*
X127628571Y-107897676D01*
X127628571Y-107897676D02*
X127533333Y-107992914D01*
X127533333Y-107992914D02*
X127438095Y-108040533D01*
X128628571Y-107754819D02*
X128723809Y-107754819D01*
X128723809Y-107754819D02*
X128819047Y-107802438D01*
X128819047Y-107802438D02*
X128866666Y-107850057D01*
X128866666Y-107850057D02*
X128914285Y-107945295D01*
X128914285Y-107945295D02*
X128961904Y-108135771D01*
X128961904Y-108135771D02*
X128961904Y-108373866D01*
X128961904Y-108373866D02*
X128914285Y-108564342D01*
X128914285Y-108564342D02*
X128866666Y-108659580D01*
X128866666Y-108659580D02*
X128819047Y-108707200D01*
X128819047Y-108707200D02*
X128723809Y-108754819D01*
X128723809Y-108754819D02*
X128628571Y-108754819D01*
X128628571Y-108754819D02*
X128533333Y-108707200D01*
X128533333Y-108707200D02*
X128485714Y-108659580D01*
X128485714Y-108659580D02*
X128438095Y-108564342D01*
X128438095Y-108564342D02*
X128390476Y-108373866D01*
X128390476Y-108373866D02*
X128390476Y-108135771D01*
X128390476Y-108135771D02*
X128438095Y-107945295D01*
X128438095Y-107945295D02*
X128485714Y-107850057D01*
X128485714Y-107850057D02*
X128533333Y-107802438D01*
X128533333Y-107802438D02*
X128628571Y-107754819D01*
X133731095Y-117895019D02*
X133731095Y-118704542D01*
X133731095Y-118704542D02*
X133778714Y-118799780D01*
X133778714Y-118799780D02*
X133826333Y-118847400D01*
X133826333Y-118847400D02*
X133921571Y-118895019D01*
X133921571Y-118895019D02*
X134112047Y-118895019D01*
X134112047Y-118895019D02*
X134207285Y-118847400D01*
X134207285Y-118847400D02*
X134254904Y-118799780D01*
X134254904Y-118799780D02*
X134302523Y-118704542D01*
X134302523Y-118704542D02*
X134302523Y-117895019D01*
X135207285Y-118228352D02*
X135207285Y-118895019D01*
X134969190Y-117847400D02*
X134731095Y-118561685D01*
X134731095Y-118561685D02*
X135350142Y-118561685D01*
X136600000Y-121854819D02*
X136600000Y-122092914D01*
X136361905Y-121997676D02*
X136600000Y-122092914D01*
X136600000Y-122092914D02*
X136838095Y-121997676D01*
X136457143Y-122283390D02*
X136600000Y-122092914D01*
X136600000Y-122092914D02*
X136742857Y-122283390D01*
X130683000Y-112637219D02*
X130683000Y-112875314D01*
X130444905Y-112780076D02*
X130683000Y-112875314D01*
X130683000Y-112875314D02*
X130921095Y-112780076D01*
X130540143Y-113065790D02*
X130683000Y-112875314D01*
X130683000Y-112875314D02*
X130825857Y-113065790D01*
X103018095Y-128986819D02*
X103589523Y-128986819D01*
X103303809Y-129986819D02*
X103303809Y-128986819D01*
X103922857Y-129986819D02*
X103922857Y-128986819D01*
X103922857Y-128986819D02*
X104303809Y-128986819D01*
X104303809Y-128986819D02*
X104399047Y-129034438D01*
X104399047Y-129034438D02*
X104446666Y-129082057D01*
X104446666Y-129082057D02*
X104494285Y-129177295D01*
X104494285Y-129177295D02*
X104494285Y-129320152D01*
X104494285Y-129320152D02*
X104446666Y-129415390D01*
X104446666Y-129415390D02*
X104399047Y-129463009D01*
X104399047Y-129463009D02*
X104303809Y-129510628D01*
X104303809Y-129510628D02*
X103922857Y-129510628D01*
X105446666Y-129986819D02*
X104875238Y-129986819D01*
X105160952Y-129986819D02*
X105160952Y-128986819D01*
X105160952Y-128986819D02*
X105065714Y-129129676D01*
X105065714Y-129129676D02*
X104970476Y-129224914D01*
X104970476Y-129224914D02*
X104875238Y-129272533D01*
X146561905Y-107106819D02*
X147133333Y-107106819D01*
X146847619Y-108106819D02*
X146847619Y-107106819D01*
X147466667Y-108106819D02*
X147466667Y-107106819D01*
X147466667Y-107106819D02*
X147847619Y-107106819D01*
X147847619Y-107106819D02*
X147942857Y-107154438D01*
X147942857Y-107154438D02*
X147990476Y-107202057D01*
X147990476Y-107202057D02*
X148038095Y-107297295D01*
X148038095Y-107297295D02*
X148038095Y-107440152D01*
X148038095Y-107440152D02*
X147990476Y-107535390D01*
X147990476Y-107535390D02*
X147942857Y-107583009D01*
X147942857Y-107583009D02*
X147847619Y-107630628D01*
X147847619Y-107630628D02*
X147466667Y-107630628D01*
X148990476Y-108106819D02*
X148419048Y-108106819D01*
X148704762Y-108106819D02*
X148704762Y-107106819D01*
X148704762Y-107106819D02*
X148609524Y-107249676D01*
X148609524Y-107249676D02*
X148514286Y-107344914D01*
X148514286Y-107344914D02*
X148419048Y-107392533D01*
X149609524Y-107106819D02*
X149704762Y-107106819D01*
X149704762Y-107106819D02*
X149800000Y-107154438D01*
X149800000Y-107154438D02*
X149847619Y-107202057D01*
X149847619Y-107202057D02*
X149895238Y-107297295D01*
X149895238Y-107297295D02*
X149942857Y-107487771D01*
X149942857Y-107487771D02*
X149942857Y-107725866D01*
X149942857Y-107725866D02*
X149895238Y-107916342D01*
X149895238Y-107916342D02*
X149847619Y-108011580D01*
X149847619Y-108011580D02*
X149800000Y-108059200D01*
X149800000Y-108059200D02*
X149704762Y-108106819D01*
X149704762Y-108106819D02*
X149609524Y-108106819D01*
X149609524Y-108106819D02*
X149514286Y-108059200D01*
X149514286Y-108059200D02*
X149466667Y-108011580D01*
X149466667Y-108011580D02*
X149419048Y-107916342D01*
X149419048Y-107916342D02*
X149371429Y-107725866D01*
X149371429Y-107725866D02*
X149371429Y-107487771D01*
X149371429Y-107487771D02*
X149419048Y-107297295D01*
X149419048Y-107297295D02*
X149466667Y-107202057D01*
X149466667Y-107202057D02*
X149514286Y-107154438D01*
X149514286Y-107154438D02*
X149609524Y-107106819D01*
X142314819Y-139906666D02*
X141838628Y-140239999D01*
X142314819Y-140478094D02*
X141314819Y-140478094D01*
X141314819Y-140478094D02*
X141314819Y-140097142D01*
X141314819Y-140097142D02*
X141362438Y-140001904D01*
X141362438Y-140001904D02*
X141410057Y-139954285D01*
X141410057Y-139954285D02*
X141505295Y-139906666D01*
X141505295Y-139906666D02*
X141648152Y-139906666D01*
X141648152Y-139906666D02*
X141743390Y-139954285D01*
X141743390Y-139954285D02*
X141791009Y-140001904D01*
X141791009Y-140001904D02*
X141838628Y-140097142D01*
X141838628Y-140097142D02*
X141838628Y-140478094D01*
X141314819Y-139001904D02*
X141314819Y-139478094D01*
X141314819Y-139478094D02*
X141791009Y-139525713D01*
X141791009Y-139525713D02*
X141743390Y-139478094D01*
X141743390Y-139478094D02*
X141695771Y-139382856D01*
X141695771Y-139382856D02*
X141695771Y-139144761D01*
X141695771Y-139144761D02*
X141743390Y-139049523D01*
X141743390Y-139049523D02*
X141791009Y-139001904D01*
X141791009Y-139001904D02*
X141886247Y-138954285D01*
X141886247Y-138954285D02*
X142124342Y-138954285D01*
X142124342Y-138954285D02*
X142219580Y-139001904D01*
X142219580Y-139001904D02*
X142267200Y-139049523D01*
X142267200Y-139049523D02*
X142314819Y-139144761D01*
X142314819Y-139144761D02*
X142314819Y-139382856D01*
X142314819Y-139382856D02*
X142267200Y-139478094D01*
X142267200Y-139478094D02*
X142219580Y-139525713D01*
X156107142Y-127604819D02*
X155773809Y-127128628D01*
X155535714Y-127604819D02*
X155535714Y-126604819D01*
X155535714Y-126604819D02*
X155916666Y-126604819D01*
X155916666Y-126604819D02*
X156011904Y-126652438D01*
X156011904Y-126652438D02*
X156059523Y-126700057D01*
X156059523Y-126700057D02*
X156107142Y-126795295D01*
X156107142Y-126795295D02*
X156107142Y-126938152D01*
X156107142Y-126938152D02*
X156059523Y-127033390D01*
X156059523Y-127033390D02*
X156011904Y-127081009D01*
X156011904Y-127081009D02*
X155916666Y-127128628D01*
X155916666Y-127128628D02*
X155535714Y-127128628D01*
X157059523Y-127604819D02*
X156488095Y-127604819D01*
X156773809Y-127604819D02*
X156773809Y-126604819D01*
X156773809Y-126604819D02*
X156678571Y-126747676D01*
X156678571Y-126747676D02*
X156583333Y-126842914D01*
X156583333Y-126842914D02*
X156488095Y-126890533D01*
X157916666Y-126938152D02*
X157916666Y-127604819D01*
X157678571Y-126557200D02*
X157440476Y-127271485D01*
X157440476Y-127271485D02*
X158059523Y-127271485D01*
X106680095Y-117691819D02*
X106680095Y-118501342D01*
X106680095Y-118501342D02*
X106727714Y-118596580D01*
X106727714Y-118596580D02*
X106775333Y-118644200D01*
X106775333Y-118644200D02*
X106870571Y-118691819D01*
X106870571Y-118691819D02*
X107061047Y-118691819D01*
X107061047Y-118691819D02*
X107156285Y-118644200D01*
X107156285Y-118644200D02*
X107203904Y-118596580D01*
X107203904Y-118596580D02*
X107251523Y-118501342D01*
X107251523Y-118501342D02*
X107251523Y-117691819D01*
X107870571Y-118120390D02*
X107775333Y-118072771D01*
X107775333Y-118072771D02*
X107727714Y-118025152D01*
X107727714Y-118025152D02*
X107680095Y-117929914D01*
X107680095Y-117929914D02*
X107680095Y-117882295D01*
X107680095Y-117882295D02*
X107727714Y-117787057D01*
X107727714Y-117787057D02*
X107775333Y-117739438D01*
X107775333Y-117739438D02*
X107870571Y-117691819D01*
X107870571Y-117691819D02*
X108061047Y-117691819D01*
X108061047Y-117691819D02*
X108156285Y-117739438D01*
X108156285Y-117739438D02*
X108203904Y-117787057D01*
X108203904Y-117787057D02*
X108251523Y-117882295D01*
X108251523Y-117882295D02*
X108251523Y-117929914D01*
X108251523Y-117929914D02*
X108203904Y-118025152D01*
X108203904Y-118025152D02*
X108156285Y-118072771D01*
X108156285Y-118072771D02*
X108061047Y-118120390D01*
X108061047Y-118120390D02*
X107870571Y-118120390D01*
X107870571Y-118120390D02*
X107775333Y-118168009D01*
X107775333Y-118168009D02*
X107727714Y-118215628D01*
X107727714Y-118215628D02*
X107680095Y-118310866D01*
X107680095Y-118310866D02*
X107680095Y-118501342D01*
X107680095Y-118501342D02*
X107727714Y-118596580D01*
X107727714Y-118596580D02*
X107775333Y-118644200D01*
X107775333Y-118644200D02*
X107870571Y-118691819D01*
X107870571Y-118691819D02*
X108061047Y-118691819D01*
X108061047Y-118691819D02*
X108156285Y-118644200D01*
X108156285Y-118644200D02*
X108203904Y-118596580D01*
X108203904Y-118596580D02*
X108251523Y-118501342D01*
X108251523Y-118501342D02*
X108251523Y-118310866D01*
X108251523Y-118310866D02*
X108203904Y-118215628D01*
X108203904Y-118215628D02*
X108156285Y-118168009D01*
X108156285Y-118168009D02*
X108061047Y-118120390D01*
X103632000Y-112434019D02*
X103632000Y-112672114D01*
X103393905Y-112576876D02*
X103632000Y-112672114D01*
X103632000Y-112672114D02*
X103870095Y-112576876D01*
X103489143Y-112862590D02*
X103632000Y-112672114D01*
X103632000Y-112672114D02*
X103774857Y-112862590D01*
X109800000Y-121654819D02*
X109800000Y-121892914D01*
X109561905Y-121797676D02*
X109800000Y-121892914D01*
X109800000Y-121892914D02*
X110038095Y-121797676D01*
X109657143Y-122083390D02*
X109800000Y-121892914D01*
X109800000Y-121892914D02*
X109942857Y-122083390D01*
X118033333Y-65359580D02*
X117985714Y-65407200D01*
X117985714Y-65407200D02*
X117842857Y-65454819D01*
X117842857Y-65454819D02*
X117747619Y-65454819D01*
X117747619Y-65454819D02*
X117604762Y-65407200D01*
X117604762Y-65407200D02*
X117509524Y-65311961D01*
X117509524Y-65311961D02*
X117461905Y-65216723D01*
X117461905Y-65216723D02*
X117414286Y-65026247D01*
X117414286Y-65026247D02*
X117414286Y-64883390D01*
X117414286Y-64883390D02*
X117461905Y-64692914D01*
X117461905Y-64692914D02*
X117509524Y-64597676D01*
X117509524Y-64597676D02*
X117604762Y-64502438D01*
X117604762Y-64502438D02*
X117747619Y-64454819D01*
X117747619Y-64454819D02*
X117842857Y-64454819D01*
X117842857Y-64454819D02*
X117985714Y-64502438D01*
X117985714Y-64502438D02*
X118033333Y-64550057D01*
X118366667Y-64454819D02*
X118985714Y-64454819D01*
X118985714Y-64454819D02*
X118652381Y-64835771D01*
X118652381Y-64835771D02*
X118795238Y-64835771D01*
X118795238Y-64835771D02*
X118890476Y-64883390D01*
X118890476Y-64883390D02*
X118938095Y-64931009D01*
X118938095Y-64931009D02*
X118985714Y-65026247D01*
X118985714Y-65026247D02*
X118985714Y-65264342D01*
X118985714Y-65264342D02*
X118938095Y-65359580D01*
X118938095Y-65359580D02*
X118890476Y-65407200D01*
X118890476Y-65407200D02*
X118795238Y-65454819D01*
X118795238Y-65454819D02*
X118509524Y-65454819D01*
X118509524Y-65454819D02*
X118414286Y-65407200D01*
X118414286Y-65407200D02*
X118366667Y-65359580D01*
X144261905Y-79034819D02*
X144261905Y-78034819D01*
X144261905Y-78034819D02*
X144500000Y-78034819D01*
X144500000Y-78034819D02*
X144642857Y-78082438D01*
X144642857Y-78082438D02*
X144738095Y-78177676D01*
X144738095Y-78177676D02*
X144785714Y-78272914D01*
X144785714Y-78272914D02*
X144833333Y-78463390D01*
X144833333Y-78463390D02*
X144833333Y-78606247D01*
X144833333Y-78606247D02*
X144785714Y-78796723D01*
X144785714Y-78796723D02*
X144738095Y-78891961D01*
X144738095Y-78891961D02*
X144642857Y-78987200D01*
X144642857Y-78987200D02*
X144500000Y-79034819D01*
X144500000Y-79034819D02*
X144261905Y-79034819D01*
X145785714Y-79034819D02*
X145214286Y-79034819D01*
X145500000Y-79034819D02*
X145500000Y-78034819D01*
X145500000Y-78034819D02*
X145404762Y-78177676D01*
X145404762Y-78177676D02*
X145309524Y-78272914D01*
X145309524Y-78272914D02*
X145214286Y-78320533D01*
X141557142Y-108704819D02*
X141223809Y-108228628D01*
X140985714Y-108704819D02*
X140985714Y-107704819D01*
X140985714Y-107704819D02*
X141366666Y-107704819D01*
X141366666Y-107704819D02*
X141461904Y-107752438D01*
X141461904Y-107752438D02*
X141509523Y-107800057D01*
X141509523Y-107800057D02*
X141557142Y-107895295D01*
X141557142Y-107895295D02*
X141557142Y-108038152D01*
X141557142Y-108038152D02*
X141509523Y-108133390D01*
X141509523Y-108133390D02*
X141461904Y-108181009D01*
X141461904Y-108181009D02*
X141366666Y-108228628D01*
X141366666Y-108228628D02*
X140985714Y-108228628D01*
X142509523Y-108704819D02*
X141938095Y-108704819D01*
X142223809Y-108704819D02*
X142223809Y-107704819D01*
X142223809Y-107704819D02*
X142128571Y-107847676D01*
X142128571Y-107847676D02*
X142033333Y-107942914D01*
X142033333Y-107942914D02*
X141938095Y-107990533D01*
X142890476Y-107800057D02*
X142938095Y-107752438D01*
X142938095Y-107752438D02*
X143033333Y-107704819D01*
X143033333Y-107704819D02*
X143271428Y-107704819D01*
X143271428Y-107704819D02*
X143366666Y-107752438D01*
X143366666Y-107752438D02*
X143414285Y-107800057D01*
X143414285Y-107800057D02*
X143461904Y-107895295D01*
X143461904Y-107895295D02*
X143461904Y-107990533D01*
X143461904Y-107990533D02*
X143414285Y-108133390D01*
X143414285Y-108133390D02*
X142842857Y-108704819D01*
X142842857Y-108704819D02*
X143461904Y-108704819D01*
X157944819Y-136593333D02*
X158659104Y-136593333D01*
X158659104Y-136593333D02*
X158801961Y-136640952D01*
X158801961Y-136640952D02*
X158897200Y-136736190D01*
X158897200Y-136736190D02*
X158944819Y-136879047D01*
X158944819Y-136879047D02*
X158944819Y-136974285D01*
X157944819Y-136212380D02*
X157944819Y-135545714D01*
X157944819Y-135545714D02*
X158944819Y-135974285D01*
X106180095Y-106653819D02*
X106751523Y-106653819D01*
X106465809Y-107653819D02*
X106465809Y-106653819D01*
X107084857Y-107653819D02*
X107084857Y-106653819D01*
X107084857Y-106653819D02*
X107465809Y-106653819D01*
X107465809Y-106653819D02*
X107561047Y-106701438D01*
X107561047Y-106701438D02*
X107608666Y-106749057D01*
X107608666Y-106749057D02*
X107656285Y-106844295D01*
X107656285Y-106844295D02*
X107656285Y-106987152D01*
X107656285Y-106987152D02*
X107608666Y-107082390D01*
X107608666Y-107082390D02*
X107561047Y-107130009D01*
X107561047Y-107130009D02*
X107465809Y-107177628D01*
X107465809Y-107177628D02*
X107084857Y-107177628D01*
X107989619Y-106653819D02*
X108656285Y-106653819D01*
X108656285Y-106653819D02*
X108227714Y-107653819D01*
X114199580Y-100516666D02*
X114247200Y-100564285D01*
X114247200Y-100564285D02*
X114294819Y-100707142D01*
X114294819Y-100707142D02*
X114294819Y-100802380D01*
X114294819Y-100802380D02*
X114247200Y-100945237D01*
X114247200Y-100945237D02*
X114151961Y-101040475D01*
X114151961Y-101040475D02*
X114056723Y-101088094D01*
X114056723Y-101088094D02*
X113866247Y-101135713D01*
X113866247Y-101135713D02*
X113723390Y-101135713D01*
X113723390Y-101135713D02*
X113532914Y-101088094D01*
X113532914Y-101088094D02*
X113437676Y-101040475D01*
X113437676Y-101040475D02*
X113342438Y-100945237D01*
X113342438Y-100945237D02*
X113294819Y-100802380D01*
X113294819Y-100802380D02*
X113294819Y-100707142D01*
X113294819Y-100707142D02*
X113342438Y-100564285D01*
X113342438Y-100564285D02*
X113390057Y-100516666D01*
X113390057Y-100135713D02*
X113342438Y-100088094D01*
X113342438Y-100088094D02*
X113294819Y-99992856D01*
X113294819Y-99992856D02*
X113294819Y-99754761D01*
X113294819Y-99754761D02*
X113342438Y-99659523D01*
X113342438Y-99659523D02*
X113390057Y-99611904D01*
X113390057Y-99611904D02*
X113485295Y-99564285D01*
X113485295Y-99564285D02*
X113580533Y-99564285D01*
X113580533Y-99564285D02*
X113723390Y-99611904D01*
X113723390Y-99611904D02*
X114294819Y-100183332D01*
X114294819Y-100183332D02*
X114294819Y-99564285D01*
X130434819Y-139946666D02*
X129958628Y-140279999D01*
X130434819Y-140518094D02*
X129434819Y-140518094D01*
X129434819Y-140518094D02*
X129434819Y-140137142D01*
X129434819Y-140137142D02*
X129482438Y-140041904D01*
X129482438Y-140041904D02*
X129530057Y-139994285D01*
X129530057Y-139994285D02*
X129625295Y-139946666D01*
X129625295Y-139946666D02*
X129768152Y-139946666D01*
X129768152Y-139946666D02*
X129863390Y-139994285D01*
X129863390Y-139994285D02*
X129911009Y-140041904D01*
X129911009Y-140041904D02*
X129958628Y-140137142D01*
X129958628Y-140137142D02*
X129958628Y-140518094D01*
X129434819Y-139089523D02*
X129434819Y-139279999D01*
X129434819Y-139279999D02*
X129482438Y-139375237D01*
X129482438Y-139375237D02*
X129530057Y-139422856D01*
X129530057Y-139422856D02*
X129672914Y-139518094D01*
X129672914Y-139518094D02*
X129863390Y-139565713D01*
X129863390Y-139565713D02*
X130244342Y-139565713D01*
X130244342Y-139565713D02*
X130339580Y-139518094D01*
X130339580Y-139518094D02*
X130387200Y-139470475D01*
X130387200Y-139470475D02*
X130434819Y-139375237D01*
X130434819Y-139375237D02*
X130434819Y-139184761D01*
X130434819Y-139184761D02*
X130387200Y-139089523D01*
X130387200Y-139089523D02*
X130339580Y-139041904D01*
X130339580Y-139041904D02*
X130244342Y-138994285D01*
X130244342Y-138994285D02*
X130006247Y-138994285D01*
X130006247Y-138994285D02*
X129911009Y-139041904D01*
X129911009Y-139041904D02*
X129863390Y-139089523D01*
X129863390Y-139089523D02*
X129815771Y-139184761D01*
X129815771Y-139184761D02*
X129815771Y-139375237D01*
X129815771Y-139375237D02*
X129863390Y-139470475D01*
X129863390Y-139470475D02*
X129911009Y-139518094D01*
X129911009Y-139518094D02*
X130006247Y-139565713D01*
X145064819Y-136523333D02*
X145779104Y-136523333D01*
X145779104Y-136523333D02*
X145921961Y-136570952D01*
X145921961Y-136570952D02*
X146017200Y-136666190D01*
X146017200Y-136666190D02*
X146064819Y-136809047D01*
X146064819Y-136809047D02*
X146064819Y-136904285D01*
X145064819Y-135618571D02*
X145064819Y-135809047D01*
X145064819Y-135809047D02*
X145112438Y-135904285D01*
X145112438Y-135904285D02*
X145160057Y-135951904D01*
X145160057Y-135951904D02*
X145302914Y-136047142D01*
X145302914Y-136047142D02*
X145493390Y-136094761D01*
X145493390Y-136094761D02*
X145874342Y-136094761D01*
X145874342Y-136094761D02*
X145969580Y-136047142D01*
X145969580Y-136047142D02*
X146017200Y-135999523D01*
X146017200Y-135999523D02*
X146064819Y-135904285D01*
X146064819Y-135904285D02*
X146064819Y-135713809D01*
X146064819Y-135713809D02*
X146017200Y-135618571D01*
X146017200Y-135618571D02*
X145969580Y-135570952D01*
X145969580Y-135570952D02*
X145874342Y-135523333D01*
X145874342Y-135523333D02*
X145636247Y-135523333D01*
X145636247Y-135523333D02*
X145541009Y-135570952D01*
X145541009Y-135570952D02*
X145493390Y-135618571D01*
X145493390Y-135618571D02*
X145445771Y-135713809D01*
X145445771Y-135713809D02*
X145445771Y-135904285D01*
X145445771Y-135904285D02*
X145493390Y-135999523D01*
X145493390Y-135999523D02*
X145541009Y-136047142D01*
X145541009Y-136047142D02*
X145636247Y-136094761D01*
X113699580Y-78586666D02*
X113747200Y-78634285D01*
X113747200Y-78634285D02*
X113794819Y-78777142D01*
X113794819Y-78777142D02*
X113794819Y-78872380D01*
X113794819Y-78872380D02*
X113747200Y-79015237D01*
X113747200Y-79015237D02*
X113651961Y-79110475D01*
X113651961Y-79110475D02*
X113556723Y-79158094D01*
X113556723Y-79158094D02*
X113366247Y-79205713D01*
X113366247Y-79205713D02*
X113223390Y-79205713D01*
X113223390Y-79205713D02*
X113032914Y-79158094D01*
X113032914Y-79158094D02*
X112937676Y-79110475D01*
X112937676Y-79110475D02*
X112842438Y-79015237D01*
X112842438Y-79015237D02*
X112794819Y-78872380D01*
X112794819Y-78872380D02*
X112794819Y-78777142D01*
X112794819Y-78777142D02*
X112842438Y-78634285D01*
X112842438Y-78634285D02*
X112890057Y-78586666D01*
X113794819Y-77634285D02*
X113794819Y-78205713D01*
X113794819Y-77919999D02*
X112794819Y-77919999D01*
X112794819Y-77919999D02*
X112937676Y-78015237D01*
X112937676Y-78015237D02*
X113032914Y-78110475D01*
X113032914Y-78110475D02*
X113080533Y-78205713D01*
X147438095Y-117804819D02*
X147438095Y-118614342D01*
X147438095Y-118614342D02*
X147485714Y-118709580D01*
X147485714Y-118709580D02*
X147533333Y-118757200D01*
X147533333Y-118757200D02*
X147628571Y-118804819D01*
X147628571Y-118804819D02*
X147819047Y-118804819D01*
X147819047Y-118804819D02*
X147914285Y-118757200D01*
X147914285Y-118757200D02*
X147961904Y-118709580D01*
X147961904Y-118709580D02*
X148009523Y-118614342D01*
X148009523Y-118614342D02*
X148009523Y-117804819D01*
X148961904Y-117804819D02*
X148485714Y-117804819D01*
X148485714Y-117804819D02*
X148438095Y-118281009D01*
X148438095Y-118281009D02*
X148485714Y-118233390D01*
X148485714Y-118233390D02*
X148580952Y-118185771D01*
X148580952Y-118185771D02*
X148819047Y-118185771D01*
X148819047Y-118185771D02*
X148914285Y-118233390D01*
X148914285Y-118233390D02*
X148961904Y-118281009D01*
X148961904Y-118281009D02*
X149009523Y-118376247D01*
X149009523Y-118376247D02*
X149009523Y-118614342D01*
X149009523Y-118614342D02*
X148961904Y-118709580D01*
X148961904Y-118709580D02*
X148914285Y-118757200D01*
X148914285Y-118757200D02*
X148819047Y-118804819D01*
X148819047Y-118804819D02*
X148580952Y-118804819D01*
X148580952Y-118804819D02*
X148485714Y-118757200D01*
X148485714Y-118757200D02*
X148438095Y-118709580D01*
X144390000Y-112547019D02*
X144390000Y-112785114D01*
X144151905Y-112689876D02*
X144390000Y-112785114D01*
X144390000Y-112785114D02*
X144628095Y-112689876D01*
X144247143Y-112975590D02*
X144390000Y-112785114D01*
X144390000Y-112785114D02*
X144532857Y-112975590D01*
X150600000Y-121654819D02*
X150600000Y-121892914D01*
X150361905Y-121797676D02*
X150600000Y-121892914D01*
X150600000Y-121892914D02*
X150838095Y-121797676D01*
X150457143Y-122083390D02*
X150600000Y-121892914D01*
X150600000Y-121892914D02*
X150742857Y-122083390D01*
X142307142Y-127554819D02*
X141973809Y-127078628D01*
X141735714Y-127554819D02*
X141735714Y-126554819D01*
X141735714Y-126554819D02*
X142116666Y-126554819D01*
X142116666Y-126554819D02*
X142211904Y-126602438D01*
X142211904Y-126602438D02*
X142259523Y-126650057D01*
X142259523Y-126650057D02*
X142307142Y-126745295D01*
X142307142Y-126745295D02*
X142307142Y-126888152D01*
X142307142Y-126888152D02*
X142259523Y-126983390D01*
X142259523Y-126983390D02*
X142211904Y-127031009D01*
X142211904Y-127031009D02*
X142116666Y-127078628D01*
X142116666Y-127078628D02*
X141735714Y-127078628D01*
X143259523Y-127554819D02*
X142688095Y-127554819D01*
X142973809Y-127554819D02*
X142973809Y-126554819D01*
X142973809Y-126554819D02*
X142878571Y-126697676D01*
X142878571Y-126697676D02*
X142783333Y-126792914D01*
X142783333Y-126792914D02*
X142688095Y-126840533D01*
X143592857Y-126554819D02*
X144211904Y-126554819D01*
X144211904Y-126554819D02*
X143878571Y-126935771D01*
X143878571Y-126935771D02*
X144021428Y-126935771D01*
X144021428Y-126935771D02*
X144116666Y-126983390D01*
X144116666Y-126983390D02*
X144164285Y-127031009D01*
X144164285Y-127031009D02*
X144211904Y-127126247D01*
X144211904Y-127126247D02*
X144211904Y-127364342D01*
X144211904Y-127364342D02*
X144164285Y-127459580D01*
X144164285Y-127459580D02*
X144116666Y-127507200D01*
X144116666Y-127507200D02*
X144021428Y-127554819D01*
X144021428Y-127554819D02*
X143735714Y-127554819D01*
X143735714Y-127554819D02*
X143640476Y-127507200D01*
X143640476Y-127507200D02*
X143592857Y-127459580D01*
X134707333Y-86753580D02*
X134659714Y-86801200D01*
X134659714Y-86801200D02*
X134516857Y-86848819D01*
X134516857Y-86848819D02*
X134421619Y-86848819D01*
X134421619Y-86848819D02*
X134278762Y-86801200D01*
X134278762Y-86801200D02*
X134183524Y-86705961D01*
X134183524Y-86705961D02*
X134135905Y-86610723D01*
X134135905Y-86610723D02*
X134088286Y-86420247D01*
X134088286Y-86420247D02*
X134088286Y-86277390D01*
X134088286Y-86277390D02*
X134135905Y-86086914D01*
X134135905Y-86086914D02*
X134183524Y-85991676D01*
X134183524Y-85991676D02*
X134278762Y-85896438D01*
X134278762Y-85896438D02*
X134421619Y-85848819D01*
X134421619Y-85848819D02*
X134516857Y-85848819D01*
X134516857Y-85848819D02*
X134659714Y-85896438D01*
X134659714Y-85896438D02*
X134707333Y-85944057D01*
X135564476Y-85848819D02*
X135374000Y-85848819D01*
X135374000Y-85848819D02*
X135278762Y-85896438D01*
X135278762Y-85896438D02*
X135231143Y-85944057D01*
X135231143Y-85944057D02*
X135135905Y-86086914D01*
X135135905Y-86086914D02*
X135088286Y-86277390D01*
X135088286Y-86277390D02*
X135088286Y-86658342D01*
X135088286Y-86658342D02*
X135135905Y-86753580D01*
X135135905Y-86753580D02*
X135183524Y-86801200D01*
X135183524Y-86801200D02*
X135278762Y-86848819D01*
X135278762Y-86848819D02*
X135469238Y-86848819D01*
X135469238Y-86848819D02*
X135564476Y-86801200D01*
X135564476Y-86801200D02*
X135612095Y-86753580D01*
X135612095Y-86753580D02*
X135659714Y-86658342D01*
X135659714Y-86658342D02*
X135659714Y-86420247D01*
X135659714Y-86420247D02*
X135612095Y-86325009D01*
X135612095Y-86325009D02*
X135564476Y-86277390D01*
X135564476Y-86277390D02*
X135469238Y-86229771D01*
X135469238Y-86229771D02*
X135278762Y-86229771D01*
X135278762Y-86229771D02*
X135183524Y-86277390D01*
X135183524Y-86277390D02*
X135135905Y-86325009D01*
X135135905Y-86325009D02*
X135088286Y-86420247D01*
D12*
%TO.C,J8*%
X121680000Y-130770000D02*
X123010000Y-130770000D01*
X121680000Y-131880000D02*
X121680000Y-130770000D01*
X121680000Y-133340000D02*
X126880000Y-133340000D01*
X121680000Y-141970000D02*
X121680000Y-133340000D01*
X121680000Y-141970000D02*
X126880000Y-141970000D01*
X121800000Y-141970000D02*
X121800000Y-133340000D01*
X121918095Y-141970000D02*
X121918095Y-133340000D01*
X122036190Y-141970000D02*
X122036190Y-133340000D01*
X122154285Y-141970000D02*
X122154285Y-133340000D01*
X122272380Y-141970000D02*
X122272380Y-133340000D01*
X122390475Y-141970000D02*
X122390475Y-133340000D01*
X122508570Y-141970000D02*
X122508570Y-133340000D01*
X122626665Y-141970000D02*
X122626665Y-133340000D01*
X122650000Y-133340000D02*
X122650000Y-132990000D01*
X122744760Y-141970000D02*
X122744760Y-133340000D01*
X122862855Y-141970000D02*
X122862855Y-133340000D01*
X122980950Y-141970000D02*
X122980950Y-133340000D01*
X123099045Y-141970000D02*
X123099045Y-133340000D01*
X123217140Y-141970000D02*
X123217140Y-133340000D01*
X123335235Y-141970000D02*
X123335235Y-133340000D01*
X123370000Y-133340000D02*
X123370000Y-132990000D01*
X123453330Y-141970000D02*
X123453330Y-133340000D01*
X123571425Y-141970000D02*
X123571425Y-133340000D01*
X123689520Y-141970000D02*
X123689520Y-133340000D01*
X123807615Y-141970000D02*
X123807615Y-133340000D01*
X123925710Y-141970000D02*
X123925710Y-133340000D01*
X124043805Y-141970000D02*
X124043805Y-133340000D01*
X124161900Y-141970000D02*
X124161900Y-133340000D01*
X124280000Y-141970000D02*
X124280000Y-133340000D01*
X125190000Y-133340000D02*
X125190000Y-132930000D01*
X125910000Y-133340000D02*
X125910000Y-132930000D01*
X126880000Y-141970000D02*
X126880000Y-133340000D01*
%TO.C,J3*%
X155338000Y-57260000D02*
X155338000Y-55880000D01*
X156718000Y-57260000D02*
X155338000Y-57260000D01*
X157988000Y-54500000D02*
X168258000Y-54500000D01*
X157988000Y-57260000D02*
X157988000Y-54500000D01*
X157988000Y-57260000D02*
X168258000Y-57260000D01*
X168258000Y-57260000D02*
X168258000Y-54500000D01*
%TO.C,J5*%
X136542000Y-54246000D02*
X136542000Y-57006000D01*
X149352000Y-54246000D02*
X136542000Y-54246000D01*
X149352000Y-54246000D02*
X149352000Y-57006000D01*
X149352000Y-57006000D02*
X136542000Y-57006000D01*
X150622000Y-54246000D02*
X152002000Y-54246000D01*
X152002000Y-54246000D02*
X152002000Y-55626000D01*
%TO.C,R4*%
X155925000Y-140297064D02*
X155925000Y-139842936D01*
X157395000Y-140297064D02*
X157395000Y-139842936D01*
%TO.C,J11*%
X98450000Y-82841000D02*
X98450000Y-88041000D01*
X98450000Y-82841000D02*
X107080000Y-82841000D01*
X98450000Y-82961000D02*
X107080000Y-82961000D01*
X98450000Y-83079095D02*
X107080000Y-83079095D01*
X98450000Y-83197190D02*
X107080000Y-83197190D01*
X98450000Y-83315285D02*
X107080000Y-83315285D01*
X98450000Y-83433380D02*
X107080000Y-83433380D01*
X98450000Y-83551475D02*
X107080000Y-83551475D01*
X98450000Y-83669570D02*
X107080000Y-83669570D01*
X98450000Y-83787665D02*
X107080000Y-83787665D01*
X98450000Y-83905760D02*
X107080000Y-83905760D01*
X98450000Y-84023855D02*
X107080000Y-84023855D01*
X98450000Y-84141950D02*
X107080000Y-84141950D01*
X98450000Y-84260045D02*
X107080000Y-84260045D01*
X98450000Y-84378140D02*
X107080000Y-84378140D01*
X98450000Y-84496235D02*
X107080000Y-84496235D01*
X98450000Y-84614330D02*
X107080000Y-84614330D01*
X98450000Y-84732425D02*
X107080000Y-84732425D01*
X98450000Y-84850520D02*
X107080000Y-84850520D01*
X98450000Y-84968615D02*
X107080000Y-84968615D01*
X98450000Y-85086710D02*
X107080000Y-85086710D01*
X98450000Y-85204805D02*
X107080000Y-85204805D01*
X98450000Y-85322900D02*
X107080000Y-85322900D01*
X98450000Y-85441000D02*
X107080000Y-85441000D01*
X98450000Y-88041000D02*
X107080000Y-88041000D01*
X107080000Y-82841000D02*
X107080000Y-88041000D01*
X107080000Y-83811000D02*
X107430000Y-83811000D01*
X107080000Y-84531000D02*
X107430000Y-84531000D01*
X107080000Y-86351000D02*
X107490000Y-86351000D01*
X107080000Y-87071000D02*
X107490000Y-87071000D01*
X108540000Y-82841000D02*
X109650000Y-82841000D01*
X109650000Y-82841000D02*
X109650000Y-84171000D01*
%TO.C,R3*%
X117935000Y-139937064D02*
X117935000Y-139482936D01*
X119405000Y-139937064D02*
X119405000Y-139482936D01*
%TO.C,TP8*%
X119708000Y-107897000D02*
X122608000Y-107897000D01*
X119708000Y-110797000D02*
X119708000Y-107897000D01*
X122608000Y-107897000D02*
X122608000Y-110797000D01*
X122608000Y-110797000D02*
X119708000Y-110797000D01*
%TO.C,TP5*%
X141750000Y-130490000D02*
X144650000Y-130490000D01*
X141750000Y-133390000D02*
X141750000Y-130490000D01*
X144650000Y-130490000D02*
X144650000Y-133390000D01*
X144650000Y-133390000D02*
X141750000Y-133390000D01*
%TO.C,TP4*%
X155240000Y-130490000D02*
X158140000Y-130490000D01*
X155240000Y-133390000D02*
X155240000Y-130490000D01*
X158140000Y-130490000D02*
X158140000Y-133390000D01*
X158140000Y-133390000D02*
X155240000Y-133390000D01*
%TO.C,R19*%
X101007936Y-125122000D02*
X101462064Y-125122000D01*
X101007936Y-126592000D02*
X101462064Y-126592000D01*
%TO.C,C5*%
X120751969Y-59070000D02*
X120548031Y-59070000D01*
X120751969Y-60310000D02*
X120548031Y-60310000D01*
%TO.C,U1*%
X120586600Y-81562400D02*
X120586600Y-81862400D01*
X120586600Y-88782400D02*
X120586600Y-88482400D01*
X120886600Y-81562400D02*
X120586600Y-81562400D01*
X120886600Y-88782400D02*
X120586600Y-88782400D01*
X127506600Y-81562400D02*
X127806600Y-81562400D01*
X127506600Y-88782400D02*
X127806600Y-88782400D01*
X127806600Y-81562400D02*
X127806600Y-81862400D01*
X127806600Y-88782400D02*
X127806600Y-88482400D01*
X119984100Y-81862400D02*
X119644100Y-81392400D01*
X120324100Y-81392400D01*
X119984100Y-81862400D01*
G36*
X119984100Y-81862400D02*
G01*
X119644100Y-81392400D01*
X120324100Y-81392400D01*
X119984100Y-81862400D01*
G37*
%TO.C,J10*%
X112980000Y-71190000D02*
X114360000Y-71190000D01*
X112980000Y-72570000D02*
X112980000Y-71190000D01*
X112980000Y-73840000D02*
X112980000Y-73950000D01*
X112980000Y-73840000D02*
X115740000Y-73840000D01*
X112980000Y-73950000D02*
X115740000Y-73950000D01*
X115740000Y-73840000D02*
X115740000Y-73950000D01*
%TO.C,J9*%
X108880000Y-130620000D02*
X110210000Y-130620000D01*
X108880000Y-131730000D02*
X108880000Y-130620000D01*
X108880000Y-133190000D02*
X114080000Y-133190000D01*
X108880000Y-141820000D02*
X108880000Y-133190000D01*
X108880000Y-141820000D02*
X114080000Y-141820000D01*
X109000000Y-141820000D02*
X109000000Y-133190000D01*
X109118095Y-141820000D02*
X109118095Y-133190000D01*
X109236190Y-141820000D02*
X109236190Y-133190000D01*
X109354285Y-141820000D02*
X109354285Y-133190000D01*
X109472380Y-141820000D02*
X109472380Y-133190000D01*
X109590475Y-141820000D02*
X109590475Y-133190000D01*
X109708570Y-141820000D02*
X109708570Y-133190000D01*
X109826665Y-141820000D02*
X109826665Y-133190000D01*
X109850000Y-133190000D02*
X109850000Y-132840000D01*
X109944760Y-141820000D02*
X109944760Y-133190000D01*
X110062855Y-141820000D02*
X110062855Y-133190000D01*
X110180950Y-141820000D02*
X110180950Y-133190000D01*
X110299045Y-141820000D02*
X110299045Y-133190000D01*
X110417140Y-141820000D02*
X110417140Y-133190000D01*
X110535235Y-141820000D02*
X110535235Y-133190000D01*
X110570000Y-133190000D02*
X110570000Y-132840000D01*
X110653330Y-141820000D02*
X110653330Y-133190000D01*
X110771425Y-141820000D02*
X110771425Y-133190000D01*
X110889520Y-141820000D02*
X110889520Y-133190000D01*
X111007615Y-141820000D02*
X111007615Y-133190000D01*
X111125710Y-141820000D02*
X111125710Y-133190000D01*
X111243805Y-141820000D02*
X111243805Y-133190000D01*
X111361900Y-141820000D02*
X111361900Y-133190000D01*
X111480000Y-141820000D02*
X111480000Y-133190000D01*
X112390000Y-133190000D02*
X112390000Y-132780000D01*
X113110000Y-133190000D02*
X113110000Y-132780000D01*
X114080000Y-141820000D02*
X114080000Y-133190000D01*
%TO.C,R1*%
X139367636Y-75989600D02*
X139821764Y-75989600D01*
X139367636Y-77459600D02*
X139821764Y-77459600D01*
%TO.C,R2*%
X103395000Y-139817064D02*
X103395000Y-139362936D01*
X104865000Y-139817064D02*
X104865000Y-139362936D01*
%TO.C,TP2*%
X130630000Y-64590000D02*
X133530000Y-64590000D01*
X130630000Y-67490000D02*
X130630000Y-64590000D01*
X133530000Y-64590000D02*
X133530000Y-67490000D01*
X133530000Y-67490000D02*
X130630000Y-67490000D01*
%TO.C,TP6*%
X129990000Y-130440000D02*
X132890000Y-130440000D01*
X129990000Y-133340000D02*
X129990000Y-130440000D01*
X132890000Y-130440000D02*
X132890000Y-133340000D01*
X132890000Y-133340000D02*
X129990000Y-133340000D01*
%TO.C,R18*%
X100991936Y-108993000D02*
X101446064Y-108993000D01*
X100991936Y-110463000D02*
X101446064Y-110463000D01*
D13*
%TO.C,U7*%
X118110000Y-115445540D02*
X118110000Y-116084186D01*
X118110000Y-117849814D02*
X118110000Y-118624186D01*
X118110000Y-120389814D02*
X118110000Y-121164186D01*
X118110000Y-122929814D02*
X118110000Y-123317000D01*
X118110000Y-123317000D02*
X124714000Y-123317000D01*
X124714000Y-113157000D02*
X118110000Y-113157000D01*
X124714000Y-113544186D02*
X124714000Y-113157000D01*
X124714000Y-116084186D02*
X124714000Y-115309814D01*
X124714000Y-118624186D02*
X124714000Y-117849814D01*
X124714000Y-121164186D02*
X124714000Y-120389814D01*
X124714000Y-123317000D02*
X124714000Y-122929814D01*
X121716800Y-113157000D02*
G75*
G02*
X121107200Y-113157000I-304800J0D01*
G01*
D10*
%TO.C,D4*%
X112192000Y-67732000D02*
X112192000Y-63032000D01*
X112192000Y-67732000D02*
X112492000Y-68032000D01*
X115392000Y-63032000D02*
X112192000Y-63032000D01*
X115392000Y-68032000D02*
X112492000Y-68032000D01*
X115392000Y-68032000D02*
X115392000Y-63032000D01*
D12*
%TO.C,TP9*%
X160700000Y-108150000D02*
X163600000Y-108150000D01*
X160700000Y-111050000D02*
X160700000Y-108150000D01*
X163600000Y-108150000D02*
X163600000Y-111050000D01*
X163600000Y-111050000D02*
X160700000Y-111050000D01*
%TO.C,R16*%
X114322936Y-109165000D02*
X114777064Y-109165000D01*
X114322936Y-110635000D02*
X114777064Y-110635000D01*
%TO.C,C7*%
X113266469Y-83454000D02*
X113062531Y-83454000D01*
X113266469Y-84694000D02*
X113062531Y-84694000D01*
D13*
%TO.C,U6*%
X158948000Y-115508540D02*
X158948000Y-116147186D01*
X158948000Y-117912814D02*
X158948000Y-118687186D01*
X158948000Y-120452814D02*
X158948000Y-121227186D01*
X158948000Y-122992814D02*
X158948000Y-123380000D01*
X158948000Y-123380000D02*
X165552000Y-123380000D01*
X165552000Y-113220000D02*
X158948000Y-113220000D01*
X165552000Y-113607186D02*
X165552000Y-113220000D01*
X165552000Y-116147186D02*
X165552000Y-115372814D01*
X165552000Y-118687186D02*
X165552000Y-117912814D01*
X165552000Y-121227186D02*
X165552000Y-120452814D01*
X165552000Y-123380000D02*
X165552000Y-122992814D01*
X162554800Y-113220000D02*
G75*
G02*
X161945200Y-113220000I-304800J0D01*
G01*
D12*
%TO.C,R15*%
X155372936Y-109515000D02*
X155827064Y-109515000D01*
X155372936Y-110985000D02*
X155827064Y-110985000D01*
%TO.C,J4*%
X134880000Y-130620000D02*
X136210000Y-130620000D01*
X134880000Y-131730000D02*
X134880000Y-130620000D01*
X134880000Y-133190000D02*
X140080000Y-133190000D01*
X134880000Y-141820000D02*
X134880000Y-133190000D01*
X134880000Y-141820000D02*
X140080000Y-141820000D01*
X135000000Y-141820000D02*
X135000000Y-133190000D01*
X135118095Y-141820000D02*
X135118095Y-133190000D01*
X135236190Y-141820000D02*
X135236190Y-133190000D01*
X135354285Y-141820000D02*
X135354285Y-133190000D01*
X135472380Y-141820000D02*
X135472380Y-133190000D01*
X135590475Y-141820000D02*
X135590475Y-133190000D01*
X135708570Y-141820000D02*
X135708570Y-133190000D01*
X135826665Y-141820000D02*
X135826665Y-133190000D01*
X135850000Y-133190000D02*
X135850000Y-132840000D01*
X135944760Y-141820000D02*
X135944760Y-133190000D01*
X136062855Y-141820000D02*
X136062855Y-133190000D01*
X136180950Y-141820000D02*
X136180950Y-133190000D01*
X136299045Y-141820000D02*
X136299045Y-133190000D01*
X136417140Y-141820000D02*
X136417140Y-133190000D01*
X136535235Y-141820000D02*
X136535235Y-133190000D01*
X136570000Y-133190000D02*
X136570000Y-132840000D01*
X136653330Y-141820000D02*
X136653330Y-133190000D01*
X136771425Y-141820000D02*
X136771425Y-133190000D01*
X136889520Y-141820000D02*
X136889520Y-133190000D01*
X137007615Y-141820000D02*
X137007615Y-133190000D01*
X137125710Y-141820000D02*
X137125710Y-133190000D01*
X137243805Y-141820000D02*
X137243805Y-133190000D01*
X137361900Y-141820000D02*
X137361900Y-133190000D01*
X137480000Y-141820000D02*
X137480000Y-133190000D01*
X138390000Y-133190000D02*
X138390000Y-132780000D01*
X139110000Y-133190000D02*
X139110000Y-132780000D01*
X140080000Y-141820000D02*
X140080000Y-133190000D01*
%TO.C,R11*%
X129386064Y-124969600D02*
X128931936Y-124969600D01*
X129386064Y-126439600D02*
X128931936Y-126439600D01*
%TO.C,D2*%
X145720000Y-93591000D02*
X149780000Y-93591000D01*
X149780000Y-91321000D02*
X145720000Y-91321000D01*
X149780000Y-93591000D02*
X149780000Y-91321000D01*
%TO.C,C4*%
X120751969Y-61700000D02*
X120548031Y-61700000D01*
X120751969Y-62940000D02*
X120548031Y-62940000D01*
%TO.C,R7*%
X106833936Y-66270200D02*
X107288064Y-66270200D01*
X106833936Y-67740200D02*
X107288064Y-67740200D01*
D14*
%TO.C,U3*%
X123250000Y-48717000D02*
X123250000Y-63017000D01*
X123250000Y-63017000D02*
X133650000Y-63017000D01*
X133650000Y-48717000D02*
X123250000Y-48717000D01*
X133650000Y-63017000D02*
X133650000Y-48717000D01*
D15*
X134500000Y-62267000D02*
G75*
G02*
X134300000Y-62267000I-100000J0D01*
G01*
X134300000Y-62267000D02*
G75*
G02*
X134500000Y-62267000I100000J0D01*
G01*
D12*
%TO.C,R17*%
X116572936Y-124865000D02*
X117027064Y-124865000D01*
X116572936Y-126335000D02*
X117027064Y-126335000D01*
%TO.C,TP11*%
X133017600Y-107922400D02*
X135917600Y-107922400D01*
X133017600Y-110822400D02*
X133017600Y-107922400D01*
X135917600Y-107922400D02*
X135917600Y-110822400D01*
X135917600Y-110822400D02*
X133017600Y-110822400D01*
%TO.C,R8*%
X140996936Y-91721000D02*
X141451064Y-91721000D01*
X140996936Y-93191000D02*
X141451064Y-93191000D01*
%TO.C,TP3*%
X117280000Y-130440000D02*
X120180000Y-130440000D01*
X117280000Y-133340000D02*
X117280000Y-130440000D01*
X120180000Y-130440000D02*
X120180000Y-133340000D01*
X120180000Y-133340000D02*
X117280000Y-133340000D01*
%TO.C,R9*%
X118775000Y-71262936D02*
X118775000Y-71717064D01*
X120245000Y-71262936D02*
X120245000Y-71717064D01*
%TO.C,J1*%
X99400000Y-59700000D02*
X99400000Y-56070000D01*
X99400000Y-64610000D02*
X99400000Y-62220000D01*
X99400000Y-64610000D02*
X102400000Y-64610000D01*
X102400000Y-63910000D02*
X109300000Y-63910000D01*
X102400000Y-64610000D02*
X102400000Y-63910000D01*
X108600000Y-59680000D02*
X108600000Y-56070000D01*
X109300000Y-62220000D02*
X109300000Y-63910000D01*
X110760000Y-55745000D02*
X110760000Y-53875000D01*
X110760000Y-61895000D02*
X110760000Y-60025000D01*
%TO.C,U2*%
X100730000Y-94610000D02*
X101990000Y-94610000D01*
X100730000Y-98370000D02*
X100730000Y-94610000D01*
X107550000Y-94610000D02*
X106290000Y-94610000D01*
X107550000Y-98370000D02*
X107550000Y-94610000D01*
X100830000Y-99650000D02*
X100500000Y-99890000D01*
X100500000Y-99410000D01*
X100830000Y-99650000D01*
G36*
X100830000Y-99650000D02*
G01*
X100500000Y-99890000D01*
X100500000Y-99410000D01*
X100830000Y-99650000D01*
G37*
%TO.C,R10*%
X127472936Y-109215000D02*
X127927064Y-109215000D01*
X127472936Y-110685000D02*
X127927064Y-110685000D01*
D13*
%TO.C,U4*%
X131191000Y-115648740D02*
X131191000Y-116287386D01*
X131191000Y-118053014D02*
X131191000Y-118827386D01*
X131191000Y-120593014D02*
X131191000Y-121367386D01*
X131191000Y-123133014D02*
X131191000Y-123520200D01*
X131191000Y-123520200D02*
X137795000Y-123520200D01*
X137795000Y-113360200D02*
X131191000Y-113360200D01*
X137795000Y-113747386D02*
X137795000Y-113360200D01*
X137795000Y-116287386D02*
X137795000Y-115513014D01*
X137795000Y-118827386D02*
X137795000Y-118053014D01*
X137795000Y-121367386D02*
X137795000Y-120593014D01*
X137795000Y-123520200D02*
X137795000Y-123133014D01*
X134797800Y-113360200D02*
G75*
G02*
X134188200Y-113360200I-304800J0D01*
G01*
D12*
%TO.C,TP1*%
X102830000Y-130230000D02*
X105730000Y-130230000D01*
X102830000Y-133130000D02*
X102830000Y-130230000D01*
X105730000Y-130230000D02*
X105730000Y-133130000D01*
X105730000Y-133130000D02*
X102830000Y-133130000D01*
%TO.C,TP10*%
X146850000Y-108350000D02*
X149750000Y-108350000D01*
X146850000Y-111250000D02*
X146850000Y-108350000D01*
X149750000Y-108350000D02*
X149750000Y-111250000D01*
X149750000Y-111250000D02*
X146850000Y-111250000D01*
%TO.C,R5*%
X142775000Y-139967064D02*
X142775000Y-139512936D01*
X144245000Y-139967064D02*
X144245000Y-139512936D01*
%TO.C,R14*%
X156977064Y-124765000D02*
X156522936Y-124765000D01*
X156977064Y-126235000D02*
X156522936Y-126235000D01*
D13*
%TO.C,U8*%
X104140000Y-115445540D02*
X104140000Y-116084186D01*
X104140000Y-117849814D02*
X104140000Y-118624186D01*
X104140000Y-120389814D02*
X104140000Y-121164186D01*
X104140000Y-122929814D02*
X104140000Y-123317000D01*
X104140000Y-123317000D02*
X110744000Y-123317000D01*
X110744000Y-113157000D02*
X104140000Y-113157000D01*
X110744000Y-113544186D02*
X110744000Y-113157000D01*
X110744000Y-116084186D02*
X110744000Y-115309814D01*
X110744000Y-118624186D02*
X110744000Y-117849814D01*
X110744000Y-121164186D02*
X110744000Y-120389814D01*
X110744000Y-123317000D02*
X110744000Y-122929814D01*
X107746800Y-113157000D02*
G75*
G02*
X107137200Y-113157000I-304800J0D01*
G01*
D12*
%TO.C,C3*%
X120751969Y-64330000D02*
X120548031Y-64330000D01*
X120751969Y-65570000D02*
X120548031Y-65570000D01*
%TO.C,D1*%
X143400000Y-77885000D02*
X147460000Y-77885000D01*
X147460000Y-75615000D02*
X143400000Y-75615000D01*
X147460000Y-77885000D02*
X147460000Y-75615000D01*
%TO.C,R12*%
X141972936Y-109165000D02*
X142427064Y-109165000D01*
X141972936Y-110635000D02*
X142427064Y-110635000D01*
%TO.C,J7*%
X159930000Y-130770000D02*
X161260000Y-130770000D01*
X159930000Y-131880000D02*
X159930000Y-130770000D01*
X159930000Y-133340000D02*
X165130000Y-133340000D01*
X159930000Y-141970000D02*
X159930000Y-133340000D01*
X159930000Y-141970000D02*
X165130000Y-141970000D01*
X160050000Y-141970000D02*
X160050000Y-133340000D01*
X160168095Y-141970000D02*
X160168095Y-133340000D01*
X160286190Y-141970000D02*
X160286190Y-133340000D01*
X160404285Y-141970000D02*
X160404285Y-133340000D01*
X160522380Y-141970000D02*
X160522380Y-133340000D01*
X160640475Y-141970000D02*
X160640475Y-133340000D01*
X160758570Y-141970000D02*
X160758570Y-133340000D01*
X160876665Y-141970000D02*
X160876665Y-133340000D01*
X160900000Y-133340000D02*
X160900000Y-132990000D01*
X160994760Y-141970000D02*
X160994760Y-133340000D01*
X161112855Y-141970000D02*
X161112855Y-133340000D01*
X161230950Y-141970000D02*
X161230950Y-133340000D01*
X161349045Y-141970000D02*
X161349045Y-133340000D01*
X161467140Y-141970000D02*
X161467140Y-133340000D01*
X161585235Y-141970000D02*
X161585235Y-133340000D01*
X161620000Y-133340000D02*
X161620000Y-132990000D01*
X161703330Y-141970000D02*
X161703330Y-133340000D01*
X161821425Y-141970000D02*
X161821425Y-133340000D01*
X161939520Y-141970000D02*
X161939520Y-133340000D01*
X162057615Y-141970000D02*
X162057615Y-133340000D01*
X162175710Y-141970000D02*
X162175710Y-133340000D01*
X162293805Y-141970000D02*
X162293805Y-133340000D01*
X162411900Y-141970000D02*
X162411900Y-133340000D01*
X162530000Y-141970000D02*
X162530000Y-133340000D01*
X163440000Y-133340000D02*
X163440000Y-132930000D01*
X164160000Y-133340000D02*
X164160000Y-132930000D01*
X165130000Y-141970000D02*
X165130000Y-133340000D01*
%TO.C,TP7*%
X105992000Y-107897000D02*
X108892000Y-107897000D01*
X105992000Y-110797000D02*
X105992000Y-107897000D01*
X108892000Y-107897000D02*
X108892000Y-110797000D01*
X108892000Y-110797000D02*
X105992000Y-110797000D01*
%TO.C,C2*%
X111730000Y-100248031D02*
X111730000Y-100451969D01*
X112970000Y-100248031D02*
X112970000Y-100451969D01*
%TO.C,R6*%
X130895000Y-140007064D02*
X130895000Y-139552936D01*
X132365000Y-140007064D02*
X132365000Y-139552936D01*
%TO.C,J6*%
X147050000Y-130700000D02*
X148380000Y-130700000D01*
X147050000Y-131810000D02*
X147050000Y-130700000D01*
X147050000Y-133270000D02*
X152250000Y-133270000D01*
X147050000Y-141900000D02*
X147050000Y-133270000D01*
X147050000Y-141900000D02*
X152250000Y-141900000D01*
X147170000Y-141900000D02*
X147170000Y-133270000D01*
X147288095Y-141900000D02*
X147288095Y-133270000D01*
X147406190Y-141900000D02*
X147406190Y-133270000D01*
X147524285Y-141900000D02*
X147524285Y-133270000D01*
X147642380Y-141900000D02*
X147642380Y-133270000D01*
X147760475Y-141900000D02*
X147760475Y-133270000D01*
X147878570Y-141900000D02*
X147878570Y-133270000D01*
X147996665Y-141900000D02*
X147996665Y-133270000D01*
X148020000Y-133270000D02*
X148020000Y-132920000D01*
X148114760Y-141900000D02*
X148114760Y-133270000D01*
X148232855Y-141900000D02*
X148232855Y-133270000D01*
X148350950Y-141900000D02*
X148350950Y-133270000D01*
X148469045Y-141900000D02*
X148469045Y-133270000D01*
X148587140Y-141900000D02*
X148587140Y-133270000D01*
X148705235Y-141900000D02*
X148705235Y-133270000D01*
X148740000Y-133270000D02*
X148740000Y-132920000D01*
X148823330Y-141900000D02*
X148823330Y-133270000D01*
X148941425Y-141900000D02*
X148941425Y-133270000D01*
X149059520Y-141900000D02*
X149059520Y-133270000D01*
X149177615Y-141900000D02*
X149177615Y-133270000D01*
X149295710Y-141900000D02*
X149295710Y-133270000D01*
X149413805Y-141900000D02*
X149413805Y-133270000D01*
X149531900Y-141900000D02*
X149531900Y-133270000D01*
X149650000Y-141900000D02*
X149650000Y-133270000D01*
X150560000Y-133270000D02*
X150560000Y-132860000D01*
X151280000Y-133270000D02*
X151280000Y-132860000D01*
X152250000Y-141900000D02*
X152250000Y-133270000D01*
%TO.C,C1*%
X114210000Y-78521969D02*
X114210000Y-78318031D01*
X115450000Y-78521969D02*
X115450000Y-78318031D01*
D13*
%TO.C,U5*%
X144898000Y-115558540D02*
X144898000Y-116197186D01*
X144898000Y-117962814D02*
X144898000Y-118737186D01*
X144898000Y-120502814D02*
X144898000Y-121277186D01*
X144898000Y-123042814D02*
X144898000Y-123430000D01*
X144898000Y-123430000D02*
X151502000Y-123430000D01*
X151502000Y-113270000D02*
X144898000Y-113270000D01*
X151502000Y-113657186D02*
X151502000Y-113270000D01*
X151502000Y-116197186D02*
X151502000Y-115422814D01*
X151502000Y-118737186D02*
X151502000Y-117962814D01*
X151502000Y-121277186D02*
X151502000Y-120502814D01*
X151502000Y-123430000D02*
X151502000Y-123042814D01*
X148504800Y-113270000D02*
G75*
G02*
X147895200Y-113270000I-304800J0D01*
G01*
D12*
%TO.C,R13*%
X143177064Y-124715000D02*
X142722936Y-124715000D01*
X143177064Y-126185000D02*
X142722936Y-126185000D01*
%TO.C,C6*%
X134772031Y-87264000D02*
X134975969Y-87264000D01*
X134772031Y-88504000D02*
X134975969Y-88504000D01*
%TD*%
M02*
