%TF.GenerationSoftware,KiCad,Pcbnew,9.0.4*%
%TF.CreationDate,2025-10-16T20:53:51-05:00*%
%TF.ProjectId,MotorControl,4d6f746f-7243-46f6-9e74-726f6c2e6b69,rev?*%
%TF.SameCoordinates,Original*%
%TF.FileFunction,Copper,L2,Bot*%
%TF.FilePolarity,Positive*%
%FSLAX46Y46*%
G04 Gerber Fmt 4.6, Leading zero omitted, Abs format (unit mm)*
G04 Created by KiCad (PCBNEW 9.0.4) date 2025-10-16 20:53:51*
%MOMM*%
%LPD*%
G01*
G04 APERTURE LIST*
%TA.AperFunction,ComponentPad*%
%ADD10R,1.700000X1.700000*%
%TD*%
%TA.AperFunction,ComponentPad*%
%ADD11C,1.700000*%
%TD*%
%TA.AperFunction,ViaPad*%
%ADD12C,0.600000*%
%TD*%
%TA.AperFunction,ViaPad*%
%ADD13C,1.000000*%
%TD*%
%TA.AperFunction,Conductor*%
%ADD14C,0.200000*%
%TD*%
G04 APERTURE END LIST*
D10*
%TO.P,J3,1,Pin_1*%
%TO.N,GND*%
X156422400Y-74574400D03*
D11*
%TO.P,J3,2,Pin_2*%
%TO.N,5V*%
X156422400Y-77114400D03*
%TO.P,J3,3,Pin_3*%
%TO.N,Net-(J3-Pin_3)*%
X156422400Y-79654400D03*
%TD*%
D10*
%TO.P,J6,1,Pin_1*%
%TO.N,5V*%
X111075000Y-48600000D03*
D11*
%TO.P,J6,2,Pin_2*%
%TO.N,GND*%
X108535000Y-48600000D03*
%TD*%
D10*
%TO.P,J10,1,Pin_1*%
%TO.N,Boot*%
X107442000Y-83312000D03*
%TD*%
%TO.P,J5,1,Pin_1*%
%TO.N,+3.3V*%
X146812000Y-85852000D03*
D11*
%TO.P,J5,2,Pin_2*%
%TO.N,GND*%
X146812000Y-88392000D03*
%TO.P,J5,3,Pin_3*%
%TO.N,SWSCLK*%
X146812000Y-90932000D03*
%TO.P,J5,4,Pin_4*%
%TO.N,SWDIO*%
X146812000Y-93472000D03*
%TO.P,J5,5,Pin_5*%
%TO.N,NRST*%
X146812000Y-96012000D03*
%TD*%
D10*
%TO.P,J1,1,Pin_1*%
%TO.N,GND*%
X156422400Y-41630600D03*
D11*
%TO.P,J1,2,Pin_2*%
%TO.N,5V*%
X156422400Y-44170600D03*
%TO.P,J1,3,Pin_3*%
%TO.N,Motor1PWM*%
X156422400Y-46710600D03*
%TD*%
D10*
%TO.P,J7,1,Pin_1*%
%TO.N,GND*%
X156422400Y-102590600D03*
D11*
%TO.P,J7,2,Pin_2*%
%TO.N,5V*%
X156422400Y-105130600D03*
%TO.P,J7,3,Pin_3*%
%TO.N,Net-(J7-Pin_3)*%
X156422400Y-107670600D03*
%TD*%
D10*
%TO.P,J9,1,Pin_1*%
%TO.N,GND*%
X139830000Y-103240000D03*
D11*
%TO.P,J9,2,Pin_2*%
%TO.N,unconnected-(J9-Pin_2-Pad2)*%
X137290000Y-103240000D03*
%TO.P,J9,3,Pin_3*%
%TO.N,unconnected-(J9-Pin_3-Pad3)*%
X134750000Y-103240000D03*
%TO.P,J9,4,Pin_4*%
%TO.N,Debug_tx*%
X132210000Y-103240000D03*
%TO.P,J9,5,Pin_5*%
%TO.N,Debug_rx*%
X129670000Y-103240000D03*
%TO.P,J9,6,Pin_6*%
%TO.N,unconnected-(J9-Pin_6-Pad6)*%
X127130000Y-103240000D03*
%TD*%
D10*
%TO.P,J2,1,Pin_1*%
%TO.N,GND*%
X156397000Y-56896000D03*
D11*
%TO.P,J2,2,Pin_2*%
%TO.N,5V*%
X156397000Y-59436000D03*
%TO.P,J2,3,Pin_3*%
%TO.N,Net-(J2-Pin_3)*%
X156397000Y-61976000D03*
%TD*%
D10*
%TO.P,J4,1,Pin_1*%
%TO.N,GND*%
X156498600Y-89916000D03*
D11*
%TO.P,J4,2,Pin_2*%
%TO.N,5V*%
X156498600Y-92456000D03*
%TO.P,J4,3,Pin_3*%
%TO.N,Net-(J4-Pin_3)*%
X156498600Y-94996000D03*
%TD*%
D12*
%TO.N,+3.3V*%
X114350800Y-84734400D03*
X127330200Y-90525600D03*
X86500000Y-96627500D03*
X102000000Y-107500000D03*
X136906000Y-83312000D03*
X103610000Y-61780000D03*
X102718300Y-58547400D03*
X89000000Y-96627500D03*
X111404400Y-80213200D03*
X88580000Y-98610000D03*
X114173000Y-87985600D03*
X102718300Y-60500000D03*
%TO.N,5V*%
X127975000Y-49034800D03*
X130110200Y-51800000D03*
X127975000Y-51800000D03*
X96000000Y-58547400D03*
X127975000Y-47534800D03*
X127975000Y-50534800D03*
X127975000Y-45650000D03*
D13*
X93472000Y-58547400D03*
D12*
X132191400Y-52003200D03*
%TO.N,TX*%
X93780000Y-105520000D03*
X111912400Y-90388600D03*
%TO.N,RX*%
X117880600Y-96519200D03*
X88583400Y-107061000D03*
%TO.N,Net-(U1-SDA)*%
X133350000Y-80729200D03*
X119557800Y-80670400D03*
%TO.N,GreenLED*%
X98044000Y-103378000D03*
X88583400Y-108077000D03*
%TO.N,Motor1PWM*%
X149594600Y-73800400D03*
%TO.N,UART_RTS->Board_CTS*%
X119380000Y-97536000D03*
X88583400Y-105918000D03*
X134620000Y-98044000D03*
X98044000Y-97536000D03*
%TO.N,Net-(J2-Pin_3)*%
X150890000Y-74410000D03*
%TO.N,Net-(J3-Pin_3)*%
X153252200Y-77249000D03*
%TO.N,Net-(J4-Pin_3)*%
X150940800Y-79667800D03*
%TO.N,RedLED*%
X88583400Y-109220000D03*
X97190000Y-111510000D03*
%TO.N,Net-(U2-~{RESET})*%
X121005000Y-98825000D03*
X98750000Y-92250000D03*
X83083400Y-109220000D03*
%TO.N,Switch2*%
X88583400Y-102688400D03*
X121830600Y-82000000D03*
%TO.N,NRST*%
X112522000Y-87188600D03*
%TO.N,Switch1*%
X88583400Y-103759000D03*
X121030600Y-81950000D03*
%TO.N,GPIO_J9*%
X98298000Y-105410000D03*
X96520000Y-102362000D03*
%TO.N,MotorControl_SCL*%
X120230000Y-79080000D03*
X131330000Y-78640000D03*
%TO.N,Boot*%
X116840000Y-81026000D03*
X114783000Y-83083000D03*
%TD*%
D14*
%TO.N,TX*%
X93610000Y-105350000D02*
X93610000Y-104422056D01*
X93780000Y-105520000D02*
X93610000Y-105350000D01*
X94016028Y-104016028D02*
X107643457Y-90388600D01*
X93610000Y-104422056D02*
X94016028Y-104016028D01*
X107643457Y-90388600D02*
X111912400Y-90388600D01*
X93780000Y-105520000D02*
X93610000Y-105520000D01*
%TO.N,RX*%
X89184400Y-106487400D02*
X90977557Y-106487400D01*
X117880600Y-95506857D02*
X117880600Y-96519200D01*
X88583400Y-107088400D02*
X89184400Y-106487400D01*
X112161343Y-89787600D02*
X117880600Y-95506857D01*
X90977557Y-106487400D02*
X107677357Y-89787600D01*
X107677357Y-89787600D02*
X112161343Y-89787600D01*
%TO.N,Net-(U1-SDA)*%
X133350000Y-80729200D02*
X119616600Y-80729200D01*
X119616600Y-80729200D02*
X119557800Y-80670400D01*
X119557800Y-80670400D02*
X119507000Y-80619600D01*
%TO.N,GreenLED*%
X88583400Y-108188400D02*
X92118046Y-108188400D01*
X93233600Y-108188400D02*
X98044000Y-103378000D01*
X92118046Y-108188400D02*
X93233600Y-108188400D01*
%TO.N,Motor1PWM*%
X156422400Y-46710600D02*
X149594600Y-53538400D01*
X149594600Y-53538400D02*
X149594600Y-73800400D01*
%TO.N,UART_RTS->Board_CTS*%
X98044000Y-98298000D02*
X98044000Y-97536000D01*
X134112000Y-97536000D02*
X134620000Y-98044000D01*
X88583400Y-105988400D02*
X90353600Y-105988400D01*
X90353600Y-105988400D02*
X98044000Y-98298000D01*
X119380000Y-97536000D02*
X134112000Y-97536000D01*
%TO.N,Net-(J2-Pin_3)*%
X150890000Y-67483000D02*
X156397000Y-61976000D01*
X150890000Y-74410000D02*
X150890000Y-67483000D01*
%TO.N,Net-(J3-Pin_3)*%
X153252200Y-77249000D02*
X154017000Y-77249000D01*
X154017000Y-77249000D02*
X156422400Y-79654400D01*
%TO.N,Net-(J4-Pin_3)*%
X150940800Y-89438200D02*
X156498600Y-94996000D01*
X150940800Y-79667800D02*
X150940800Y-89438200D01*
%TO.N,RedLED*%
X88583400Y-109220000D02*
X94900000Y-109220000D01*
X94900000Y-109220000D02*
X97190000Y-111510000D01*
%TO.N,Net-(U2-~{RESET})*%
X121005000Y-98825000D02*
X121020000Y-98810000D01*
X83083400Y-109288400D02*
X83083400Y-105416600D01*
X96250000Y-92250000D02*
X98750000Y-92250000D01*
X83083400Y-105416600D02*
X96250000Y-92250000D01*
%TO.N,Switch2*%
X121830600Y-82000000D02*
X121830600Y-83669400D01*
X105373043Y-90532000D02*
X103932315Y-90532000D01*
X111805043Y-84100000D02*
X105373043Y-90532000D01*
X121830600Y-83669400D02*
X121400000Y-84100000D01*
X90074915Y-104389400D02*
X88334457Y-104389400D01*
X87982400Y-104037343D02*
X87982400Y-103289400D01*
X103932315Y-90532000D02*
X90074915Y-104389400D01*
X88334457Y-104389400D02*
X87982400Y-104037343D01*
X87982400Y-103289400D02*
X88583400Y-102688400D01*
X121400000Y-84100000D02*
X111805043Y-84100000D01*
%TO.N,NRST*%
X146812000Y-96012000D02*
X145777200Y-97046800D01*
X142494000Y-97046800D02*
X122380200Y-97046800D01*
X145777200Y-97046800D02*
X142494000Y-97046800D01*
X122380200Y-97046800D02*
X112522000Y-87188600D01*
%TO.N,Switch1*%
X103766215Y-90131000D02*
X103765215Y-90132000D01*
X121030600Y-83144400D02*
X120476000Y-83699000D01*
X89890229Y-103788400D02*
X88583400Y-103788400D01*
X121030600Y-81950000D02*
X121030600Y-83144400D01*
X105206943Y-90131000D02*
X103766215Y-90131000D01*
X120476000Y-83699000D02*
X111638943Y-83699000D01*
X103765215Y-90132000D02*
X103546629Y-90132000D01*
X111638943Y-83699000D02*
X105206943Y-90131000D01*
X103546629Y-90132000D02*
X89890229Y-103788400D01*
%TO.N,GPIO_J9*%
X97877943Y-102362000D02*
X96520000Y-102362000D01*
X98645000Y-105063000D02*
X98645000Y-103129057D01*
X98298000Y-105410000D02*
X98645000Y-105063000D01*
X98645000Y-103129057D02*
X97877943Y-102362000D01*
%TO.N,MotorControl_SCL*%
X120680000Y-78630000D02*
X120230000Y-79080000D01*
X131340000Y-78630000D02*
X131330000Y-78640000D01*
X131340000Y-78630000D02*
X120680000Y-78630000D01*
%TO.N,Boot*%
X114783000Y-83083000D02*
X116840000Y-81026000D01*
%TD*%
%TA.AperFunction,Conductor*%
%TO.N,5V*%
G36*
X158420175Y-38017220D02*
G01*
X158461822Y-38060381D01*
X158474400Y-38082184D01*
X158477969Y-38086837D01*
X158481585Y-38091334D01*
X158524054Y-38131916D01*
X158525088Y-38132904D01*
X158567559Y-38175402D01*
X158572624Y-38178328D01*
X158576855Y-38182371D01*
X158576861Y-38182375D01*
X158576865Y-38182379D01*
X158595864Y-38192780D01*
X158628342Y-38210560D01*
X158630826Y-38211956D01*
X158681666Y-38241331D01*
X158681672Y-38241332D01*
X158687064Y-38243568D01*
X158692456Y-38245659D01*
X158692458Y-38245659D01*
X158692461Y-38245661D01*
X158750872Y-38259897D01*
X158808949Y-38275479D01*
X158814805Y-38275480D01*
X158820497Y-38276868D01*
X158879211Y-38275532D01*
X158881990Y-38275501D01*
X166663067Y-38277970D01*
X166730099Y-38297676D01*
X166775837Y-38350494D01*
X166787026Y-38401655D01*
X166863113Y-68396618D01*
X166843598Y-68463708D01*
X166790910Y-68509596D01*
X166739712Y-68520932D01*
X166363185Y-68522751D01*
X151630786Y-68593906D01*
X151630787Y-68593906D01*
X151615097Y-68593981D01*
X151547964Y-68574620D01*
X151501955Y-68522038D01*
X151490500Y-68469983D01*
X151490500Y-67783096D01*
X151510185Y-67716057D01*
X151526814Y-67695420D01*
X155912478Y-63309755D01*
X155973799Y-63276272D01*
X156038473Y-63279506D01*
X156080757Y-63293246D01*
X156290713Y-63326500D01*
X156290714Y-63326500D01*
X156503286Y-63326500D01*
X156503287Y-63326500D01*
X156713243Y-63293246D01*
X156915412Y-63227557D01*
X157104816Y-63131051D01*
X157126789Y-63115086D01*
X157276786Y-63006109D01*
X157276788Y-63006106D01*
X157276792Y-63006104D01*
X157427104Y-62855792D01*
X157427106Y-62855788D01*
X157427109Y-62855786D01*
X157552048Y-62683820D01*
X157552047Y-62683820D01*
X157552051Y-62683816D01*
X157648557Y-62494412D01*
X157714246Y-62292243D01*
X157747500Y-62082287D01*
X157747500Y-61869713D01*
X157714246Y-61659757D01*
X157648557Y-61457588D01*
X157552051Y-61268184D01*
X157552049Y-61268181D01*
X157552048Y-61268179D01*
X157427109Y-61096213D01*
X157276786Y-60945890D01*
X157104817Y-60820949D01*
X157095504Y-60816204D01*
X157044707Y-60768230D01*
X157027912Y-60700409D01*
X157050449Y-60634274D01*
X157095507Y-60595232D01*
X157104555Y-60590622D01*
X157158716Y-60551270D01*
X157158717Y-60551270D01*
X156526408Y-59918962D01*
X156589993Y-59901925D01*
X156704007Y-59836099D01*
X156797099Y-59743007D01*
X156862925Y-59628993D01*
X156879962Y-59565408D01*
X157512270Y-60197717D01*
X157512270Y-60197716D01*
X157551622Y-60143554D01*
X157648095Y-59954217D01*
X157713757Y-59752130D01*
X157713757Y-59752127D01*
X157747000Y-59542246D01*
X157747000Y-59329753D01*
X157713757Y-59119872D01*
X157713757Y-59119869D01*
X157648095Y-58917782D01*
X157551624Y-58728449D01*
X157512270Y-58674282D01*
X157512269Y-58674282D01*
X156879962Y-59306590D01*
X156862925Y-59243007D01*
X156797099Y-59128993D01*
X156704007Y-59035901D01*
X156589993Y-58970075D01*
X156526409Y-58953037D01*
X157196627Y-58282818D01*
X157257950Y-58249333D01*
X157284307Y-58246499D01*
X157294872Y-58246499D01*
X157354483Y-58240091D01*
X157489331Y-58189796D01*
X157604546Y-58103546D01*
X157690796Y-57988331D01*
X157741091Y-57853483D01*
X157747500Y-57793873D01*
X157747499Y-55998128D01*
X157741091Y-55938517D01*
X157690796Y-55803669D01*
X157690795Y-55803668D01*
X157690793Y-55803664D01*
X157604547Y-55688455D01*
X157604544Y-55688452D01*
X157489335Y-55602206D01*
X157489328Y-55602202D01*
X157354482Y-55551908D01*
X157354483Y-55551908D01*
X157294883Y-55545501D01*
X157294881Y-55545500D01*
X157294873Y-55545500D01*
X157294864Y-55545500D01*
X155499129Y-55545500D01*
X155499123Y-55545501D01*
X155439516Y-55551908D01*
X155304671Y-55602202D01*
X155304664Y-55602206D01*
X155189455Y-55688452D01*
X155189452Y-55688455D01*
X155103206Y-55803664D01*
X155103202Y-55803671D01*
X155052908Y-55938517D01*
X155046501Y-55998116D01*
X155046501Y-55998123D01*
X155046500Y-55998135D01*
X155046500Y-57793870D01*
X155046501Y-57793876D01*
X155052908Y-57853483D01*
X155103202Y-57988328D01*
X155103206Y-57988335D01*
X155189452Y-58103544D01*
X155189455Y-58103547D01*
X155304664Y-58189793D01*
X155304671Y-58189797D01*
X155349618Y-58206561D01*
X155439517Y-58240091D01*
X155499127Y-58246500D01*
X155509685Y-58246499D01*
X155576723Y-58266179D01*
X155597372Y-58282818D01*
X156267591Y-58953037D01*
X156204007Y-58970075D01*
X156089993Y-59035901D01*
X155996901Y-59128993D01*
X155931075Y-59243007D01*
X155914037Y-59306591D01*
X155281728Y-58674282D01*
X155281727Y-58674282D01*
X155242380Y-58728439D01*
X155145904Y-58917782D01*
X155080242Y-59119869D01*
X155080242Y-59119872D01*
X155047000Y-59329753D01*
X155047000Y-59542246D01*
X155080242Y-59752127D01*
X155080242Y-59752130D01*
X155145904Y-59954217D01*
X155242375Y-60143550D01*
X155281728Y-60197716D01*
X155914037Y-59565408D01*
X155931075Y-59628993D01*
X155996901Y-59743007D01*
X156089993Y-59836099D01*
X156204007Y-59901925D01*
X156267590Y-59918962D01*
X155635282Y-60551269D01*
X155635282Y-60551270D01*
X155689452Y-60590626D01*
X155689451Y-60590626D01*
X155698495Y-60595234D01*
X155749292Y-60643208D01*
X155766087Y-60711029D01*
X155743550Y-60777164D01*
X155698499Y-60816202D01*
X155689182Y-60820949D01*
X155517213Y-60945890D01*
X155366890Y-61096213D01*
X155241951Y-61268179D01*
X155145444Y-61457585D01*
X155079753Y-61659760D01*
X155046500Y-61869713D01*
X155046500Y-62082286D01*
X155079754Y-62292244D01*
X155079754Y-62292247D01*
X155093491Y-62334523D01*
X155095486Y-62404364D01*
X155063241Y-62460522D01*
X150521286Y-67002478D01*
X150406781Y-67116983D01*
X150345458Y-67150468D01*
X150275766Y-67145484D01*
X150219833Y-67103612D01*
X150195416Y-67038148D01*
X150195100Y-67029302D01*
X150195100Y-53838496D01*
X150214785Y-53771457D01*
X150231414Y-53750820D01*
X155937878Y-48044355D01*
X155999199Y-48010872D01*
X156063873Y-48014106D01*
X156106157Y-48027846D01*
X156316113Y-48061100D01*
X156316114Y-48061100D01*
X156528686Y-48061100D01*
X156528687Y-48061100D01*
X156738643Y-48027846D01*
X156940812Y-47962157D01*
X157130216Y-47865651D01*
X157152189Y-47849686D01*
X157302186Y-47740709D01*
X157302188Y-47740706D01*
X157302192Y-47740704D01*
X157452504Y-47590392D01*
X157452506Y-47590388D01*
X157452509Y-47590386D01*
X157577448Y-47418420D01*
X157577447Y-47418420D01*
X157577451Y-47418416D01*
X157673957Y-47229012D01*
X157739646Y-47026843D01*
X157772900Y-46816887D01*
X157772900Y-46604313D01*
X157739646Y-46394357D01*
X157673957Y-46192188D01*
X157577451Y-46002784D01*
X157577449Y-46002781D01*
X157577448Y-46002779D01*
X157452509Y-45830813D01*
X157302186Y-45680490D01*
X157130217Y-45555549D01*
X157120904Y-45550804D01*
X157070107Y-45502830D01*
X157053312Y-45435009D01*
X157075849Y-45368874D01*
X157120907Y-45329832D01*
X157129955Y-45325222D01*
X157184116Y-45285870D01*
X157184117Y-45285870D01*
X156551808Y-44653562D01*
X156615393Y-44636525D01*
X156729407Y-44570699D01*
X156822499Y-44477607D01*
X156888325Y-44363593D01*
X156905362Y-44300008D01*
X157537670Y-44932317D01*
X157537670Y-44932316D01*
X157577022Y-44878154D01*
X157673495Y-44688817D01*
X157739157Y-44486730D01*
X157739157Y-44486727D01*
X157772400Y-44276846D01*
X157772400Y-44064353D01*
X157739157Y-43854472D01*
X157739157Y-43854469D01*
X157673495Y-43652382D01*
X157577024Y-43463049D01*
X157537670Y-43408882D01*
X157537669Y-43408882D01*
X156905362Y-44041190D01*
X156888325Y-43977607D01*
X156822499Y-43863593D01*
X156729407Y-43770501D01*
X156615393Y-43704675D01*
X156551809Y-43687637D01*
X157222027Y-43017418D01*
X157283350Y-42983933D01*
X157309707Y-42981099D01*
X157320272Y-42981099D01*
X157379883Y-42974691D01*
X157514731Y-42924396D01*
X157629946Y-42838146D01*
X157716196Y-42722931D01*
X157766491Y-42588083D01*
X157772900Y-42528473D01*
X157772899Y-40732728D01*
X157766491Y-40673117D01*
X157716196Y-40538269D01*
X157716195Y-40538268D01*
X157716193Y-40538264D01*
X157629947Y-40423055D01*
X157629944Y-40423052D01*
X157514735Y-40336806D01*
X157514728Y-40336802D01*
X157379882Y-40286508D01*
X157379883Y-40286508D01*
X157320283Y-40280101D01*
X157320281Y-40280100D01*
X157320273Y-40280100D01*
X157320264Y-40280100D01*
X155524529Y-40280100D01*
X155524523Y-40280101D01*
X155464916Y-40286508D01*
X155330071Y-40336802D01*
X155330064Y-40336806D01*
X155214855Y-40423052D01*
X155214852Y-40423055D01*
X155128606Y-40538264D01*
X155128602Y-40538271D01*
X155078308Y-40673117D01*
X155071901Y-40732716D01*
X155071901Y-40732723D01*
X155071900Y-40732735D01*
X155071900Y-42528470D01*
X155071901Y-42528476D01*
X155078308Y-42588083D01*
X155128602Y-42722928D01*
X155128606Y-42722935D01*
X155214852Y-42838144D01*
X155214855Y-42838147D01*
X155330064Y-42924393D01*
X155330071Y-42924397D01*
X155375018Y-42941161D01*
X155464917Y-42974691D01*
X155524527Y-42981100D01*
X155535085Y-42981099D01*
X155602123Y-43000779D01*
X155622772Y-43017418D01*
X156292991Y-43687637D01*
X156229407Y-43704675D01*
X156115393Y-43770501D01*
X156022301Y-43863593D01*
X155956475Y-43977607D01*
X155939437Y-44041191D01*
X155307128Y-43408882D01*
X155307127Y-43408882D01*
X155267780Y-43463039D01*
X155171304Y-43652382D01*
X155105642Y-43854469D01*
X155105642Y-43854472D01*
X155072400Y-44064353D01*
X155072400Y-44276846D01*
X155105642Y-44486727D01*
X155105642Y-44486730D01*
X155171304Y-44688817D01*
X155267775Y-44878150D01*
X155307128Y-44932316D01*
X155939437Y-44300008D01*
X155956475Y-44363593D01*
X156022301Y-44477607D01*
X156115393Y-44570699D01*
X156229407Y-44636525D01*
X156292990Y-44653562D01*
X155660682Y-45285869D01*
X155660682Y-45285870D01*
X155714852Y-45325226D01*
X155714851Y-45325226D01*
X155723895Y-45329834D01*
X155774692Y-45377808D01*
X155791487Y-45445629D01*
X155768950Y-45511764D01*
X155723899Y-45550802D01*
X155714582Y-45555549D01*
X155542613Y-45680490D01*
X155392290Y-45830813D01*
X155267351Y-46002779D01*
X155170844Y-46192185D01*
X155105153Y-46394360D01*
X155071900Y-46604313D01*
X155071900Y-46816886D01*
X155105154Y-47026844D01*
X155105154Y-47026847D01*
X155118891Y-47069123D01*
X155120886Y-47138964D01*
X155088641Y-47195122D01*
X149225886Y-53057878D01*
X149114081Y-53169682D01*
X149114079Y-53169685D01*
X149063961Y-53256494D01*
X149063959Y-53256496D01*
X149035025Y-53306609D01*
X149035024Y-53306610D01*
X149035023Y-53306615D01*
X148994099Y-53459343D01*
X148994099Y-53459345D01*
X148994099Y-53627446D01*
X148994100Y-53627459D01*
X148994100Y-68483237D01*
X148974415Y-68550276D01*
X148921611Y-68596031D01*
X148870699Y-68607236D01*
X106996562Y-68809481D01*
X106929428Y-68790120D01*
X106883419Y-68737538D01*
X106871972Y-68683954D01*
X106873081Y-68593982D01*
X107101444Y-50059448D01*
X121324500Y-50059448D01*
X121324500Y-50240551D01*
X121352829Y-50419410D01*
X121408787Y-50591636D01*
X121408788Y-50591639D01*
X121491006Y-50752997D01*
X121597441Y-50899494D01*
X121597445Y-50899499D01*
X121725500Y-51027554D01*
X121725505Y-51027558D01*
X121853287Y-51120396D01*
X121872006Y-51133996D01*
X121977484Y-51187740D01*
X122033360Y-51216211D01*
X122033363Y-51216212D01*
X122119476Y-51244191D01*
X122205591Y-51272171D01*
X122288429Y-51285291D01*
X122384449Y-51300500D01*
X122384454Y-51300500D01*
X122565551Y-51300500D01*
X122652259Y-51286765D01*
X122744409Y-51272171D01*
X122916639Y-51216211D01*
X123077994Y-51133996D01*
X123224501Y-51027553D01*
X123352553Y-50899501D01*
X123458996Y-50752994D01*
X123541211Y-50591639D01*
X123597171Y-50419409D01*
X123611765Y-50327259D01*
X123625500Y-50240551D01*
X123625500Y-50059448D01*
X123606327Y-49938400D01*
X123597171Y-49880591D01*
X123541211Y-49708361D01*
X123541211Y-49708360D01*
X123501337Y-49630104D01*
X123458996Y-49547006D01*
X123445396Y-49528287D01*
X123352558Y-49400505D01*
X123352554Y-49400500D01*
X123224499Y-49272445D01*
X123224494Y-49272441D01*
X123077997Y-49166006D01*
X123077996Y-49166005D01*
X123077994Y-49166004D01*
X123026300Y-49139664D01*
X122916639Y-49083788D01*
X122916636Y-49083787D01*
X122744410Y-49027829D01*
X122565551Y-48999500D01*
X122565546Y-48999500D01*
X122384454Y-48999500D01*
X122384449Y-48999500D01*
X122205589Y-49027829D01*
X122033363Y-49083787D01*
X122033360Y-49083788D01*
X121872002Y-49166006D01*
X121725505Y-49272441D01*
X121725500Y-49272445D01*
X121597445Y-49400500D01*
X121597441Y-49400505D01*
X121491006Y-49547002D01*
X121408788Y-49708360D01*
X121408787Y-49708363D01*
X121352829Y-49880589D01*
X121324500Y-50059448D01*
X107101444Y-50059448D01*
X107110867Y-49294659D01*
X107131375Y-49227871D01*
X107184739Y-49182771D01*
X107254015Y-49173680D01*
X107317208Y-49203486D01*
X107345342Y-49239896D01*
X107373245Y-49294659D01*
X107379951Y-49307819D01*
X107504890Y-49479786D01*
X107655213Y-49630109D01*
X107827179Y-49755048D01*
X107827181Y-49755049D01*
X107827184Y-49755051D01*
X108016588Y-49851557D01*
X108218757Y-49917246D01*
X108428713Y-49950500D01*
X108428714Y-49950500D01*
X108641286Y-49950500D01*
X108641287Y-49950500D01*
X108851243Y-49917246D01*
X109053412Y-49851557D01*
X109242816Y-49755051D01*
X109329478Y-49692088D01*
X109414784Y-49630110D01*
X109414784Y-49630109D01*
X109414792Y-49630104D01*
X109528717Y-49516178D01*
X109590036Y-49482696D01*
X109659728Y-49487680D01*
X109715662Y-49529551D01*
X109732577Y-49560528D01*
X109781646Y-49692088D01*
X109781649Y-49692093D01*
X109867809Y-49807187D01*
X109867812Y-49807190D01*
X109982906Y-49893350D01*
X109982913Y-49893354D01*
X110117620Y-49943596D01*
X110117627Y-49943598D01*
X110177155Y-49949999D01*
X110177172Y-49950000D01*
X110825000Y-49950000D01*
X110825000Y-49033012D01*
X110882007Y-49065925D01*
X111009174Y-49100000D01*
X111140826Y-49100000D01*
X111267993Y-49065925D01*
X111325000Y-49033012D01*
X111325000Y-49950000D01*
X111972828Y-49950000D01*
X111972844Y-49949999D01*
X112032372Y-49943598D01*
X112032379Y-49943596D01*
X112046313Y-49938400D01*
X112167086Y-49893354D01*
X112167093Y-49893350D01*
X112282187Y-49807190D01*
X112282190Y-49807187D01*
X112368350Y-49692093D01*
X112368354Y-49692086D01*
X112418596Y-49557379D01*
X112418598Y-49557372D01*
X112424999Y-49497844D01*
X112425000Y-49497827D01*
X112425000Y-48850000D01*
X111508012Y-48850000D01*
X111540925Y-48792993D01*
X111575000Y-48665826D01*
X111575000Y-48581512D01*
X146087266Y-48728821D01*
X146415700Y-38330405D01*
X151294293Y-38346483D01*
X151356158Y-38347685D01*
X151360138Y-38346700D01*
X151364229Y-38346714D01*
X151364229Y-38346713D01*
X151364242Y-38346714D01*
X151424051Y-38330899D01*
X151484090Y-38316056D01*
X151487680Y-38314075D01*
X151491648Y-38313026D01*
X151545335Y-38282265D01*
X151599477Y-38252394D01*
X151602427Y-38249554D01*
X151605982Y-38247518D01*
X151605986Y-38247514D01*
X151605993Y-38247511D01*
X151649886Y-38203904D01*
X151694455Y-38161035D01*
X151696574Y-38157523D01*
X151699485Y-38154632D01*
X151708076Y-38139863D01*
X151758800Y-38091816D01*
X151813738Y-38078227D01*
X158352905Y-37998356D01*
X158420175Y-38017220D01*
G37*
%TD.AperFunction*%
%TD*%
%TA.AperFunction,Conductor*%
%TO.N,+3.3V*%
G36*
X148937095Y-69877693D02*
G01*
X148982872Y-69930477D01*
X148994100Y-69982037D01*
X148994100Y-73220634D01*
X148974415Y-73287673D01*
X148973202Y-73289525D01*
X148885209Y-73421214D01*
X148885202Y-73421227D01*
X148824864Y-73566898D01*
X148824861Y-73566910D01*
X148794100Y-73721553D01*
X148794100Y-73879246D01*
X148824861Y-74033889D01*
X148824864Y-74033901D01*
X148885202Y-74179572D01*
X148885209Y-74179585D01*
X148972810Y-74310688D01*
X148972813Y-74310692D01*
X149084307Y-74422186D01*
X149084311Y-74422189D01*
X149215414Y-74509790D01*
X149215427Y-74509797D01*
X149361098Y-74570135D01*
X149361103Y-74570137D01*
X149515753Y-74600899D01*
X149515756Y-74600900D01*
X149515758Y-74600900D01*
X149673444Y-74600900D01*
X149673445Y-74600899D01*
X149828097Y-74570137D01*
X149889111Y-74544864D01*
X149944949Y-74521736D01*
X150014418Y-74514267D01*
X150076897Y-74545542D01*
X150112549Y-74605631D01*
X150114018Y-74612104D01*
X150120262Y-74643492D01*
X150120264Y-74643501D01*
X150180602Y-74789172D01*
X150180609Y-74789185D01*
X150268209Y-74920287D01*
X150268210Y-74920288D01*
X150268211Y-74920289D01*
X150343982Y-74996060D01*
X150377466Y-75057381D01*
X150380300Y-75083740D01*
X150380300Y-79044859D01*
X150360615Y-79111898D01*
X150343981Y-79132540D01*
X150319013Y-79157507D01*
X150319010Y-79157511D01*
X150231409Y-79288614D01*
X150231402Y-79288627D01*
X150171064Y-79434298D01*
X150171061Y-79434310D01*
X150140300Y-79588953D01*
X150140300Y-79746646D01*
X150171061Y-79901289D01*
X150171064Y-79901301D01*
X150231402Y-80046972D01*
X150231409Y-80046985D01*
X150319402Y-80178674D01*
X150340280Y-80245351D01*
X150340300Y-80247565D01*
X150340300Y-89351530D01*
X150340299Y-89351548D01*
X150340299Y-89359143D01*
X150340299Y-89517257D01*
X150349479Y-89551516D01*
X150376075Y-89650772D01*
X150380300Y-89682866D01*
X150380300Y-110363590D01*
X150360615Y-110430629D01*
X150307811Y-110476384D01*
X150256273Y-110487590D01*
X97056702Y-110476132D01*
X96989667Y-110456433D01*
X96969048Y-110439813D01*
X95387590Y-108858355D01*
X95387588Y-108858352D01*
X95268717Y-108739481D01*
X95268716Y-108739480D01*
X95181904Y-108689360D01*
X95181904Y-108689359D01*
X95181900Y-108689358D01*
X95131785Y-108660423D01*
X94979057Y-108619499D01*
X94820943Y-108619499D01*
X94813347Y-108619499D01*
X94813331Y-108619500D01*
X93951096Y-108619500D01*
X93884057Y-108599815D01*
X93838302Y-108547011D01*
X93828358Y-108477853D01*
X93857383Y-108414297D01*
X93863415Y-108407819D01*
X95853696Y-106417538D01*
X97399507Y-104871726D01*
X97460829Y-104838243D01*
X97530521Y-104843227D01*
X97586454Y-104885099D01*
X97610871Y-104950563D01*
X97596019Y-105018836D01*
X97590294Y-105028292D01*
X97588613Y-105030808D01*
X97588602Y-105030827D01*
X97528264Y-105176498D01*
X97528261Y-105176510D01*
X97497500Y-105331153D01*
X97497500Y-105488846D01*
X97528261Y-105643489D01*
X97528264Y-105643501D01*
X97588602Y-105789172D01*
X97588609Y-105789185D01*
X97676210Y-105920288D01*
X97676213Y-105920292D01*
X97787707Y-106031786D01*
X97787711Y-106031789D01*
X97918814Y-106119390D01*
X97918827Y-106119397D01*
X98064498Y-106179735D01*
X98064503Y-106179737D01*
X98219153Y-106210499D01*
X98219156Y-106210500D01*
X98219158Y-106210500D01*
X98376844Y-106210500D01*
X98376845Y-106210499D01*
X98531497Y-106179737D01*
X98677179Y-106119394D01*
X98808289Y-106031789D01*
X98919789Y-105920289D01*
X99007394Y-105789179D01*
X99067737Y-105643497D01*
X99088557Y-105538827D01*
X99098744Y-105487617D01*
X99100336Y-105483468D01*
X99100251Y-105480992D01*
X99105160Y-105470902D01*
X99113798Y-105448401D01*
X99121089Y-105436146D01*
X99125520Y-105431716D01*
X99183701Y-105330943D01*
X99204577Y-105294785D01*
X99245500Y-105142057D01*
X99245500Y-104983943D01*
X99245500Y-103133713D01*
X125779500Y-103133713D01*
X125779500Y-103346287D01*
X125783012Y-103368460D01*
X125812753Y-103556239D01*
X125878444Y-103758414D01*
X125974951Y-103947820D01*
X126099890Y-104119786D01*
X126250213Y-104270109D01*
X126422179Y-104395048D01*
X126422181Y-104395049D01*
X126422184Y-104395051D01*
X126611588Y-104491557D01*
X126813757Y-104557246D01*
X127023713Y-104590500D01*
X127023714Y-104590500D01*
X127236286Y-104590500D01*
X127236287Y-104590500D01*
X127446243Y-104557246D01*
X127648412Y-104491557D01*
X127837816Y-104395051D01*
X127924138Y-104332335D01*
X128009786Y-104270109D01*
X128009788Y-104270106D01*
X128009792Y-104270104D01*
X128160104Y-104119792D01*
X128160106Y-104119788D01*
X128160109Y-104119786D01*
X128285048Y-103947820D01*
X128285047Y-103947820D01*
X128285051Y-103947816D01*
X128289514Y-103939054D01*
X128337488Y-103888259D01*
X128405308Y-103871463D01*
X128471444Y-103893999D01*
X128510486Y-103939056D01*
X128514951Y-103947820D01*
X128639890Y-104119786D01*
X128790213Y-104270109D01*
X128962179Y-104395048D01*
X128962181Y-104395049D01*
X128962184Y-104395051D01*
X129151588Y-104491557D01*
X129353757Y-104557246D01*
X129563713Y-104590500D01*
X129563714Y-104590500D01*
X129776286Y-104590500D01*
X129776287Y-104590500D01*
X129986243Y-104557246D01*
X130188412Y-104491557D01*
X130377816Y-104395051D01*
X130464138Y-104332335D01*
X130549786Y-104270109D01*
X130549788Y-104270106D01*
X130549792Y-104270104D01*
X130700104Y-104119792D01*
X130700106Y-104119788D01*
X130700109Y-104119786D01*
X130825048Y-103947820D01*
X130825047Y-103947820D01*
X130825051Y-103947816D01*
X130829514Y-103939054D01*
X130877488Y-103888259D01*
X130945308Y-103871463D01*
X131011444Y-103893999D01*
X131050486Y-103939056D01*
X131054951Y-103947820D01*
X131179890Y-104119786D01*
X131330213Y-104270109D01*
X131502179Y-104395048D01*
X131502181Y-104395049D01*
X131502184Y-104395051D01*
X131691588Y-104491557D01*
X131893757Y-104557246D01*
X132103713Y-104590500D01*
X132103714Y-104590500D01*
X132316286Y-104590500D01*
X132316287Y-104590500D01*
X132526243Y-104557246D01*
X132728412Y-104491557D01*
X132917816Y-104395051D01*
X133004138Y-104332335D01*
X133089786Y-104270109D01*
X133089788Y-104270106D01*
X133089792Y-104270104D01*
X133240104Y-104119792D01*
X133240106Y-104119788D01*
X133240109Y-104119786D01*
X133365048Y-103947820D01*
X133365047Y-103947820D01*
X133365051Y-103947816D01*
X133369514Y-103939054D01*
X133417488Y-103888259D01*
X133485308Y-103871463D01*
X133551444Y-103893999D01*
X133590486Y-103939056D01*
X133594951Y-103947820D01*
X133719890Y-104119786D01*
X133870213Y-104270109D01*
X134042179Y-104395048D01*
X134042181Y-104395049D01*
X134042184Y-104395051D01*
X134231588Y-104491557D01*
X134433757Y-104557246D01*
X134643713Y-104590500D01*
X134643714Y-104590500D01*
X134856286Y-104590500D01*
X134856287Y-104590500D01*
X135066243Y-104557246D01*
X135268412Y-104491557D01*
X135457816Y-104395051D01*
X135544138Y-104332335D01*
X135629786Y-104270109D01*
X135629788Y-104270106D01*
X135629792Y-104270104D01*
X135780104Y-104119792D01*
X135780106Y-104119788D01*
X135780109Y-104119786D01*
X135905048Y-103947820D01*
X135905047Y-103947820D01*
X135905051Y-103947816D01*
X135909514Y-103939054D01*
X135957488Y-103888259D01*
X136025308Y-103871463D01*
X136091444Y-103893999D01*
X136130486Y-103939056D01*
X136134951Y-103947820D01*
X136259890Y-104119786D01*
X136410213Y-104270109D01*
X136582179Y-104395048D01*
X136582181Y-104395049D01*
X136582184Y-104395051D01*
X136771588Y-104491557D01*
X136973757Y-104557246D01*
X137183713Y-104590500D01*
X137183714Y-104590500D01*
X137396286Y-104590500D01*
X137396287Y-104590500D01*
X137606243Y-104557246D01*
X137808412Y-104491557D01*
X137997816Y-104395051D01*
X138092603Y-104326185D01*
X138169784Y-104270110D01*
X138169784Y-104270109D01*
X138169792Y-104270104D01*
X138283329Y-104156566D01*
X138344648Y-104123084D01*
X138414340Y-104128068D01*
X138470274Y-104169939D01*
X138487189Y-104200917D01*
X138536202Y-104332328D01*
X138536206Y-104332335D01*
X138622452Y-104447544D01*
X138622455Y-104447547D01*
X138737664Y-104533793D01*
X138737671Y-104533797D01*
X138872517Y-104584091D01*
X138872516Y-104584091D01*
X138879444Y-104584835D01*
X138932127Y-104590500D01*
X140727872Y-104590499D01*
X140787483Y-104584091D01*
X140922331Y-104533796D01*
X141037546Y-104447546D01*
X141123796Y-104332331D01*
X141174091Y-104197483D01*
X141180500Y-104137873D01*
X141180499Y-102342128D01*
X141174091Y-102282517D01*
X141172810Y-102279083D01*
X141123797Y-102147671D01*
X141123793Y-102147664D01*
X141037547Y-102032455D01*
X141037544Y-102032452D01*
X140922335Y-101946206D01*
X140922328Y-101946202D01*
X140787482Y-101895908D01*
X140787483Y-101895908D01*
X140727883Y-101889501D01*
X140727881Y-101889500D01*
X140727873Y-101889500D01*
X140727864Y-101889500D01*
X138932129Y-101889500D01*
X138932123Y-101889501D01*
X138872516Y-101895908D01*
X138737671Y-101946202D01*
X138737664Y-101946206D01*
X138622455Y-102032452D01*
X138622452Y-102032455D01*
X138536206Y-102147664D01*
X138536203Y-102147669D01*
X138487189Y-102279083D01*
X138445317Y-102335016D01*
X138379853Y-102359433D01*
X138311580Y-102344581D01*
X138283326Y-102323430D01*
X138169786Y-102209890D01*
X137997820Y-102084951D01*
X137808414Y-101988444D01*
X137808413Y-101988443D01*
X137808412Y-101988443D01*
X137606243Y-101922754D01*
X137606241Y-101922753D01*
X137606240Y-101922753D01*
X137444957Y-101897208D01*
X137396287Y-101889500D01*
X137183713Y-101889500D01*
X137135042Y-101897208D01*
X136973760Y-101922753D01*
X136771585Y-101988444D01*
X136582179Y-102084951D01*
X136410213Y-102209890D01*
X136259890Y-102360213D01*
X136134949Y-102532182D01*
X136130484Y-102540946D01*
X136082509Y-102591742D01*
X136014688Y-102608536D01*
X135948553Y-102585998D01*
X135909516Y-102540946D01*
X135905050Y-102532182D01*
X135780109Y-102360213D01*
X135629786Y-102209890D01*
X135457820Y-102084951D01*
X135268414Y-101988444D01*
X135268413Y-101988443D01*
X135268412Y-101988443D01*
X135066243Y-101922754D01*
X135066241Y-101922753D01*
X135066240Y-101922753D01*
X134904957Y-101897208D01*
X134856287Y-101889500D01*
X134643713Y-101889500D01*
X134595042Y-101897208D01*
X134433760Y-101922753D01*
X134231585Y-101988444D01*
X134042179Y-102084951D01*
X133870213Y-102209890D01*
X133719890Y-102360213D01*
X133594949Y-102532182D01*
X133590484Y-102540946D01*
X133542509Y-102591742D01*
X133474688Y-102608536D01*
X133408553Y-102585998D01*
X133369516Y-102540946D01*
X133365050Y-102532182D01*
X133240109Y-102360213D01*
X133089786Y-102209890D01*
X132917820Y-102084951D01*
X132728414Y-101988444D01*
X132728413Y-101988443D01*
X132728412Y-101988443D01*
X132526243Y-101922754D01*
X132526241Y-101922753D01*
X132526240Y-101922753D01*
X132364957Y-101897208D01*
X132316287Y-101889500D01*
X132103713Y-101889500D01*
X132055042Y-101897208D01*
X131893760Y-101922753D01*
X131691585Y-101988444D01*
X131502179Y-102084951D01*
X131330213Y-102209890D01*
X131179890Y-102360213D01*
X131054949Y-102532182D01*
X131050484Y-102540946D01*
X131002509Y-102591742D01*
X130934688Y-102608536D01*
X130868553Y-102585998D01*
X130829516Y-102540946D01*
X130825050Y-102532182D01*
X130700109Y-102360213D01*
X130549786Y-102209890D01*
X130377820Y-102084951D01*
X130188414Y-101988444D01*
X130188413Y-101988443D01*
X130188412Y-101988443D01*
X129986243Y-101922754D01*
X129986241Y-101922753D01*
X129986240Y-101922753D01*
X129824957Y-101897208D01*
X129776287Y-101889500D01*
X129563713Y-101889500D01*
X129515042Y-101897208D01*
X129353760Y-101922753D01*
X129151585Y-101988444D01*
X128962179Y-102084951D01*
X128790213Y-102209890D01*
X128639890Y-102360213D01*
X128514949Y-102532182D01*
X128510484Y-102540946D01*
X128462509Y-102591742D01*
X128394688Y-102608536D01*
X128328553Y-102585998D01*
X128289516Y-102540946D01*
X128285050Y-102532182D01*
X128160109Y-102360213D01*
X128009786Y-102209890D01*
X127837820Y-102084951D01*
X127648414Y-101988444D01*
X127648413Y-101988443D01*
X127648412Y-101988443D01*
X127446243Y-101922754D01*
X127446241Y-101922753D01*
X127446240Y-101922753D01*
X127284957Y-101897208D01*
X127236287Y-101889500D01*
X127023713Y-101889500D01*
X126975042Y-101897208D01*
X126813760Y-101922753D01*
X126611585Y-101988444D01*
X126422179Y-102084951D01*
X126250213Y-102209890D01*
X126099890Y-102360213D01*
X125974951Y-102532179D01*
X125878444Y-102721585D01*
X125812753Y-102923760D01*
X125799575Y-103006966D01*
X125779500Y-103133713D01*
X99245500Y-103133713D01*
X99245500Y-103050000D01*
X99245394Y-103049606D01*
X99231172Y-102996527D01*
X99204577Y-102897273D01*
X99153544Y-102808880D01*
X99125524Y-102760347D01*
X99125521Y-102760343D01*
X99125520Y-102760341D01*
X99013716Y-102648537D01*
X99013715Y-102648536D01*
X99009385Y-102644206D01*
X99009374Y-102644196D01*
X98365533Y-102000355D01*
X98365531Y-102000352D01*
X98246660Y-101881481D01*
X98246659Y-101881480D01*
X98159847Y-101831360D01*
X98159847Y-101831359D01*
X98159843Y-101831358D01*
X98109728Y-101802423D01*
X97957000Y-101761499D01*
X97798886Y-101761499D01*
X97791290Y-101761499D01*
X97791274Y-101761500D01*
X97419153Y-101761500D01*
X97352114Y-101741815D01*
X97306359Y-101689011D01*
X97296415Y-101619853D01*
X97325440Y-101556297D01*
X97331472Y-101549819D01*
X102509096Y-96372196D01*
X107855873Y-91025419D01*
X107917196Y-90991934D01*
X107943554Y-90989100D01*
X111332634Y-90989100D01*
X111399673Y-91008785D01*
X111401525Y-91009998D01*
X111533214Y-91097990D01*
X111533227Y-91097997D01*
X111678898Y-91158335D01*
X111678903Y-91158337D01*
X111833553Y-91189099D01*
X111833556Y-91189100D01*
X111833558Y-91189100D01*
X111991244Y-91189100D01*
X111991245Y-91189099D01*
X112145897Y-91158337D01*
X112291579Y-91097994D01*
X112405339Y-91021982D01*
X112472016Y-91001104D01*
X112539396Y-91019588D01*
X112561911Y-91037403D01*
X117243781Y-95719273D01*
X117258484Y-95746200D01*
X117275077Y-95772019D01*
X117275968Y-95778219D01*
X117277266Y-95780596D01*
X117280100Y-95806954D01*
X117280100Y-95939434D01*
X117260415Y-96006473D01*
X117259202Y-96008325D01*
X117171209Y-96140014D01*
X117171202Y-96140027D01*
X117110864Y-96285698D01*
X117110861Y-96285710D01*
X117080100Y-96440353D01*
X117080100Y-96598046D01*
X117110861Y-96752689D01*
X117110864Y-96752701D01*
X117171202Y-96898372D01*
X117171209Y-96898385D01*
X117258810Y-97029488D01*
X117258813Y-97029492D01*
X117370307Y-97140986D01*
X117370311Y-97140989D01*
X117501414Y-97228590D01*
X117501427Y-97228597D01*
X117647098Y-97288935D01*
X117647103Y-97288937D01*
X117780679Y-97315507D01*
X117801753Y-97319699D01*
X117801756Y-97319700D01*
X117801758Y-97319700D01*
X117959444Y-97319700D01*
X117959445Y-97319699D01*
X118114097Y-97288937D01*
X118259779Y-97228594D01*
X118390889Y-97140989D01*
X118438786Y-97093092D01*
X118500109Y-97059606D01*
X118569800Y-97064590D01*
X118625734Y-97106461D01*
X118650152Y-97171925D01*
X118641030Y-97228223D01*
X118610263Y-97302503D01*
X118610261Y-97302510D01*
X118579500Y-97457153D01*
X118579500Y-97614846D01*
X118610261Y-97769489D01*
X118610264Y-97769501D01*
X118670602Y-97915172D01*
X118670609Y-97915185D01*
X118758210Y-98046288D01*
X118758213Y-98046292D01*
X118869707Y-98157786D01*
X118869711Y-98157789D01*
X119000814Y-98245390D01*
X119000827Y-98245397D01*
X119079894Y-98278147D01*
X119146503Y-98305737D01*
X119265419Y-98329391D01*
X119301153Y-98336499D01*
X119301156Y-98336500D01*
X119301158Y-98336500D01*
X119458844Y-98336500D01*
X119458845Y-98336499D01*
X119613497Y-98305737D01*
X119759179Y-98245394D01*
X119813663Y-98208989D01*
X119890875Y-98157398D01*
X119957553Y-98136520D01*
X119959766Y-98136500D01*
X120270300Y-98136500D01*
X120337339Y-98156185D01*
X120383094Y-98208989D01*
X120393038Y-98278147D01*
X120373402Y-98329391D01*
X120295609Y-98445814D01*
X120295602Y-98445827D01*
X120235264Y-98591498D01*
X120235261Y-98591510D01*
X120204500Y-98746153D01*
X120204500Y-98903846D01*
X120235261Y-99058489D01*
X120235264Y-99058501D01*
X120295602Y-99204172D01*
X120295609Y-99204185D01*
X120383210Y-99335288D01*
X120383213Y-99335292D01*
X120494707Y-99446786D01*
X120494711Y-99446789D01*
X120625814Y-99534390D01*
X120625827Y-99534397D01*
X120771498Y-99594735D01*
X120771503Y-99594737D01*
X120926153Y-99625499D01*
X120926156Y-99625500D01*
X120926158Y-99625500D01*
X121083844Y-99625500D01*
X121083845Y-99625499D01*
X121238497Y-99594737D01*
X121384179Y-99534394D01*
X121515289Y-99446789D01*
X121626789Y-99335289D01*
X121714394Y-99204179D01*
X121774737Y-99058497D01*
X121805500Y-98903842D01*
X121805500Y-98746158D01*
X121805500Y-98746155D01*
X121805499Y-98746153D01*
X121774737Y-98591503D01*
X121759322Y-98554288D01*
X121714397Y-98445827D01*
X121714390Y-98445814D01*
X121636598Y-98329391D01*
X121615720Y-98262714D01*
X121634204Y-98195334D01*
X121686183Y-98148643D01*
X121739700Y-98136500D01*
X133720453Y-98136500D01*
X133787492Y-98156185D01*
X133833247Y-98208989D01*
X133842069Y-98236305D01*
X133850261Y-98277489D01*
X133850263Y-98277497D01*
X133850263Y-98277498D01*
X133910602Y-98423172D01*
X133910609Y-98423185D01*
X133998210Y-98554288D01*
X133998213Y-98554292D01*
X134109707Y-98665786D01*
X134109711Y-98665789D01*
X134240814Y-98753390D01*
X134240827Y-98753397D01*
X134386498Y-98813735D01*
X134386503Y-98813737D01*
X134541153Y-98844499D01*
X134541156Y-98844500D01*
X134541158Y-98844500D01*
X134698844Y-98844500D01*
X134698845Y-98844499D01*
X134853497Y-98813737D01*
X134999179Y-98753394D01*
X135130289Y-98665789D01*
X135241789Y-98554289D01*
X135329394Y-98423179D01*
X135389737Y-98277497D01*
X135420500Y-98122842D01*
X135420500Y-97965158D01*
X135420500Y-97965155D01*
X135420499Y-97965153D01*
X135389738Y-97810508D01*
X135389737Y-97810507D01*
X135389737Y-97810503D01*
X135389735Y-97810498D01*
X135388766Y-97807303D01*
X135388750Y-97805539D01*
X135388549Y-97804528D01*
X135388740Y-97804489D01*
X135388138Y-97737436D01*
X135425382Y-97678321D01*
X135488674Y-97648726D01*
X135507424Y-97647300D01*
X142414943Y-97647300D01*
X145690531Y-97647300D01*
X145690547Y-97647301D01*
X145698143Y-97647301D01*
X145856254Y-97647301D01*
X145856257Y-97647301D01*
X146008985Y-97606377D01*
X146059104Y-97577439D01*
X146145916Y-97527320D01*
X146257720Y-97415516D01*
X146257720Y-97415514D01*
X146267928Y-97405307D01*
X146267930Y-97405304D01*
X146327478Y-97345755D01*
X146388799Y-97312272D01*
X146453473Y-97315506D01*
X146495757Y-97329246D01*
X146705713Y-97362500D01*
X146705714Y-97362500D01*
X146918286Y-97362500D01*
X146918287Y-97362500D01*
X147128243Y-97329246D01*
X147330412Y-97263557D01*
X147519816Y-97167051D01*
X147621613Y-97093092D01*
X147691786Y-97042109D01*
X147691788Y-97042106D01*
X147691792Y-97042104D01*
X147842104Y-96891792D01*
X147842106Y-96891788D01*
X147842109Y-96891786D01*
X147967048Y-96719820D01*
X147967047Y-96719820D01*
X147967051Y-96719816D01*
X148063557Y-96530412D01*
X148129246Y-96328243D01*
X148162500Y-96118287D01*
X148162500Y-95905713D01*
X148129246Y-95695757D01*
X148063557Y-95493588D01*
X147967051Y-95304184D01*
X147967049Y-95304181D01*
X147967048Y-95304179D01*
X147842109Y-95132213D01*
X147691786Y-94981890D01*
X147519820Y-94856951D01*
X147519115Y-94856591D01*
X147511054Y-94852485D01*
X147460259Y-94804512D01*
X147443463Y-94736692D01*
X147465999Y-94670556D01*
X147511054Y-94631515D01*
X147519816Y-94627051D01*
X147541789Y-94611086D01*
X147691786Y-94502109D01*
X147691788Y-94502106D01*
X147691792Y-94502104D01*
X147842104Y-94351792D01*
X147842106Y-94351788D01*
X147842109Y-94351786D01*
X147967048Y-94179820D01*
X147967047Y-94179820D01*
X147967051Y-94179816D01*
X148063557Y-93990412D01*
X148129246Y-93788243D01*
X148162500Y-93578287D01*
X148162500Y-93365713D01*
X148129246Y-93155757D01*
X148063557Y-92953588D01*
X147967051Y-92764184D01*
X147967049Y-92764181D01*
X147967048Y-92764179D01*
X147842109Y-92592213D01*
X147691786Y-92441890D01*
X147519820Y-92316951D01*
X147519115Y-92316591D01*
X147511054Y-92312485D01*
X147460259Y-92264512D01*
X147443463Y-92196692D01*
X147465999Y-92130556D01*
X147511054Y-92091515D01*
X147519816Y-92087051D01*
X147616925Y-92016498D01*
X147691786Y-91962109D01*
X147691788Y-91962106D01*
X147691792Y-91962104D01*
X147842104Y-91811792D01*
X147842106Y-91811788D01*
X147842109Y-91811786D01*
X147967048Y-91639820D01*
X147967047Y-91639820D01*
X147967051Y-91639816D01*
X148063557Y-91450412D01*
X148129246Y-91248243D01*
X148162500Y-91038287D01*
X148162500Y-90825713D01*
X148129246Y-90615757D01*
X148063557Y-90413588D01*
X147967051Y-90224184D01*
X147967049Y-90224181D01*
X147967048Y-90224179D01*
X147842109Y-90052213D01*
X147691786Y-89901890D01*
X147519820Y-89776951D01*
X147519115Y-89776591D01*
X147511054Y-89772485D01*
X147460259Y-89724512D01*
X147443463Y-89656692D01*
X147465999Y-89590556D01*
X147511054Y-89551515D01*
X147519816Y-89547051D01*
X147686496Y-89425952D01*
X147691786Y-89422109D01*
X147691788Y-89422106D01*
X147691792Y-89422104D01*
X147842104Y-89271792D01*
X147842106Y-89271788D01*
X147842109Y-89271786D01*
X147967048Y-89099820D01*
X147967047Y-89099820D01*
X147967051Y-89099816D01*
X148063557Y-88910412D01*
X148129246Y-88708243D01*
X148162500Y-88498287D01*
X148162500Y-88285713D01*
X148129246Y-88075757D01*
X148063557Y-87873588D01*
X147967051Y-87684184D01*
X147967049Y-87684181D01*
X147967048Y-87684179D01*
X147842109Y-87512213D01*
X147728181Y-87398285D01*
X147694696Y-87336962D01*
X147699680Y-87267270D01*
X147741552Y-87211337D01*
X147772529Y-87194422D01*
X147904086Y-87145354D01*
X147904093Y-87145350D01*
X148019187Y-87059190D01*
X148019190Y-87059187D01*
X148105350Y-86944093D01*
X148105354Y-86944086D01*
X148155596Y-86809379D01*
X148155598Y-86809372D01*
X148161999Y-86749844D01*
X148162000Y-86749827D01*
X148162000Y-86102000D01*
X147245012Y-86102000D01*
X147277925Y-86044993D01*
X147312000Y-85917826D01*
X147312000Y-85786174D01*
X147277925Y-85659007D01*
X147245012Y-85602000D01*
X148162000Y-85602000D01*
X148162000Y-84954172D01*
X148161999Y-84954155D01*
X148155598Y-84894627D01*
X148155596Y-84894620D01*
X148105354Y-84759913D01*
X148105350Y-84759906D01*
X148019190Y-84644812D01*
X148019187Y-84644809D01*
X147904093Y-84558649D01*
X147904086Y-84558645D01*
X147769379Y-84508403D01*
X147769372Y-84508401D01*
X147709844Y-84502000D01*
X147062000Y-84502000D01*
X147062000Y-85418988D01*
X147004993Y-85386075D01*
X146877826Y-85352000D01*
X146746174Y-85352000D01*
X146619007Y-85386075D01*
X146562000Y-85418988D01*
X146562000Y-84502000D01*
X145914155Y-84502000D01*
X145854627Y-84508401D01*
X145854620Y-84508403D01*
X145719913Y-84558645D01*
X145719906Y-84558649D01*
X145604812Y-84644809D01*
X145604809Y-84644812D01*
X145518649Y-84759906D01*
X145518645Y-84759913D01*
X145468403Y-84894620D01*
X145468401Y-84894627D01*
X145462000Y-84954155D01*
X145462000Y-85602000D01*
X146378988Y-85602000D01*
X146346075Y-85659007D01*
X146312000Y-85786174D01*
X146312000Y-85917826D01*
X146346075Y-86044993D01*
X146378988Y-86102000D01*
X145462000Y-86102000D01*
X145462000Y-86749844D01*
X145468401Y-86809372D01*
X145468403Y-86809379D01*
X145518645Y-86944086D01*
X145518649Y-86944093D01*
X145604809Y-87059187D01*
X145604812Y-87059190D01*
X145719906Y-87145350D01*
X145719913Y-87145354D01*
X145851470Y-87194422D01*
X145907404Y-87236293D01*
X145931821Y-87301758D01*
X145916969Y-87370031D01*
X145895819Y-87398285D01*
X145781889Y-87512215D01*
X145656951Y-87684179D01*
X145560444Y-87873585D01*
X145494753Y-88075760D01*
X145461500Y-88285713D01*
X145461500Y-88498286D01*
X145494753Y-88708239D01*
X145560444Y-88910414D01*
X145656951Y-89099820D01*
X145781890Y-89271786D01*
X145932213Y-89422109D01*
X146104182Y-89547050D01*
X146112946Y-89551516D01*
X146163742Y-89599491D01*
X146180536Y-89667312D01*
X146157998Y-89733447D01*
X146112946Y-89772484D01*
X146104182Y-89776949D01*
X145932213Y-89901890D01*
X145781890Y-90052213D01*
X145656951Y-90224179D01*
X145560444Y-90413585D01*
X145494753Y-90615760D01*
X145461500Y-90825713D01*
X145461500Y-91038286D01*
X145485386Y-91189100D01*
X145494754Y-91248243D01*
X145525926Y-91344181D01*
X145560444Y-91450414D01*
X145656951Y-91639820D01*
X145781890Y-91811786D01*
X145932213Y-91962109D01*
X146104182Y-92087050D01*
X146112946Y-92091516D01*
X146163742Y-92139491D01*
X146180536Y-92207312D01*
X146157998Y-92273447D01*
X146112946Y-92312484D01*
X146104182Y-92316949D01*
X145932213Y-92441890D01*
X145781890Y-92592213D01*
X145656951Y-92764179D01*
X145560444Y-92953585D01*
X145494753Y-93155760D01*
X145461500Y-93365713D01*
X145461500Y-93578286D01*
X145494753Y-93788239D01*
X145560444Y-93990414D01*
X145656951Y-94179820D01*
X145781890Y-94351786D01*
X145932213Y-94502109D01*
X146104182Y-94627050D01*
X146112946Y-94631516D01*
X146163742Y-94679491D01*
X146180536Y-94747312D01*
X146157998Y-94813447D01*
X146112946Y-94852484D01*
X146104182Y-94856949D01*
X145932213Y-94981890D01*
X145781890Y-95132213D01*
X145656951Y-95304179D01*
X145560444Y-95493585D01*
X145494753Y-95695760D01*
X145461500Y-95905713D01*
X145461500Y-96118286D01*
X145490740Y-96302902D01*
X145481785Y-96372196D01*
X145436789Y-96425648D01*
X145370037Y-96446287D01*
X145368267Y-96446300D01*
X122680297Y-96446300D01*
X122613258Y-96426615D01*
X122592616Y-96409981D01*
X113356574Y-87173939D01*
X113323089Y-87112616D01*
X113322638Y-87110449D01*
X113291738Y-86955110D01*
X113291737Y-86955103D01*
X113287174Y-86944086D01*
X113231397Y-86809427D01*
X113231390Y-86809414D01*
X113143789Y-86678311D01*
X113143786Y-86678307D01*
X113032292Y-86566813D01*
X113032288Y-86566810D01*
X112901185Y-86479209D01*
X112901172Y-86479202D01*
X112755501Y-86418864D01*
X112755489Y-86418861D01*
X112600845Y-86388100D01*
X112600842Y-86388100D01*
X112443158Y-86388100D01*
X112443155Y-86388100D01*
X112288510Y-86418861D01*
X112288498Y-86418864D01*
X112142827Y-86479202D01*
X112142814Y-86479209D01*
X112011711Y-86566810D01*
X112011707Y-86566813D01*
X111900213Y-86678307D01*
X111900210Y-86678311D01*
X111812609Y-86809414D01*
X111812602Y-86809427D01*
X111752264Y-86955098D01*
X111752261Y-86955110D01*
X111721500Y-87109753D01*
X111721500Y-87267446D01*
X111752261Y-87422089D01*
X111752264Y-87422101D01*
X111812602Y-87567772D01*
X111812609Y-87567785D01*
X111900210Y-87698888D01*
X111900213Y-87698892D01*
X112011707Y-87810386D01*
X112011711Y-87810389D01*
X112142814Y-87897990D01*
X112142827Y-87897997D01*
X112288498Y-87958335D01*
X112288503Y-87958337D01*
X112353147Y-87971195D01*
X112443849Y-87989238D01*
X112505760Y-88021623D01*
X112507339Y-88023174D01*
X121207984Y-96723819D01*
X121241469Y-96785142D01*
X121236485Y-96854834D01*
X121194613Y-96910767D01*
X121129149Y-96935184D01*
X121120303Y-96935500D01*
X119959766Y-96935500D01*
X119892727Y-96915815D01*
X119890875Y-96914602D01*
X119759185Y-96826609D01*
X119759172Y-96826602D01*
X119613501Y-96766264D01*
X119613489Y-96766261D01*
X119458845Y-96735500D01*
X119458842Y-96735500D01*
X119301158Y-96735500D01*
X119301155Y-96735500D01*
X119146510Y-96766261D01*
X119146498Y-96766264D01*
X119000827Y-96826602D01*
X119000814Y-96826609D01*
X118869711Y-96914210D01*
X118869706Y-96914214D01*
X118821811Y-96962109D01*
X118760488Y-96995593D01*
X118690796Y-96990608D01*
X118634863Y-96948736D01*
X118610447Y-96883272D01*
X118619569Y-96826976D01*
X118650337Y-96752697D01*
X118681100Y-96598042D01*
X118681100Y-96440358D01*
X118681100Y-96440355D01*
X118681099Y-96440353D01*
X118675058Y-96409981D01*
X118650337Y-96285703D01*
X118650335Y-96285698D01*
X118589997Y-96140027D01*
X118589990Y-96140014D01*
X118501998Y-96008325D01*
X118481120Y-95941647D01*
X118481100Y-95939434D01*
X118481100Y-95595916D01*
X118481101Y-95595903D01*
X118481101Y-95427802D01*
X118481101Y-95427800D01*
X118440177Y-95275072D01*
X118411239Y-95224952D01*
X118361120Y-95138141D01*
X118249316Y-95026337D01*
X118249315Y-95026336D01*
X118244985Y-95022006D01*
X118244974Y-95021996D01*
X112648933Y-89425955D01*
X112648931Y-89425952D01*
X112530060Y-89307081D01*
X112530059Y-89307080D01*
X112443247Y-89256960D01*
X112443247Y-89256959D01*
X112443243Y-89256958D01*
X112393128Y-89228023D01*
X112240400Y-89187099D01*
X112082286Y-89187099D01*
X112074690Y-89187099D01*
X112074674Y-89187100D01*
X107866539Y-89187100D01*
X107799500Y-89167415D01*
X107753745Y-89114611D01*
X107743801Y-89045453D01*
X107772826Y-88981897D01*
X107778858Y-88975419D01*
X108731104Y-88023174D01*
X112017460Y-84736819D01*
X112078783Y-84703334D01*
X112105141Y-84700500D01*
X121313331Y-84700500D01*
X121313347Y-84700501D01*
X121320943Y-84700501D01*
X121479054Y-84700501D01*
X121479057Y-84700501D01*
X121631785Y-84659577D01*
X121681904Y-84630639D01*
X121768716Y-84580520D01*
X121880520Y-84468716D01*
X121880520Y-84468714D01*
X121890728Y-84458507D01*
X121890730Y-84458504D01*
X122189106Y-84160128D01*
X122189111Y-84160124D01*
X122199314Y-84149920D01*
X122199316Y-84149920D01*
X122311120Y-84038116D01*
X122390177Y-83901184D01*
X122431100Y-83748457D01*
X122431100Y-82579765D01*
X122450785Y-82512726D01*
X122451998Y-82510874D01*
X122539990Y-82379185D01*
X122539990Y-82379184D01*
X122539994Y-82379179D01*
X122600337Y-82233497D01*
X122631100Y-82078842D01*
X122631100Y-81921158D01*
X122631100Y-81921155D01*
X122631099Y-81921153D01*
X122612388Y-81827089D01*
X122600337Y-81766503D01*
X122587450Y-81735390D01*
X122539997Y-81620827D01*
X122539990Y-81620814D01*
X122474359Y-81522591D01*
X122453481Y-81455914D01*
X122471965Y-81388533D01*
X122523944Y-81341843D01*
X122577461Y-81329700D01*
X132770234Y-81329700D01*
X132837273Y-81349385D01*
X132839125Y-81350598D01*
X132970814Y-81438590D01*
X132970827Y-81438597D01*
X133048815Y-81470900D01*
X133116503Y-81498937D01*
X133235419Y-81522591D01*
X133271153Y-81529699D01*
X133271156Y-81529700D01*
X133271158Y-81529700D01*
X133428844Y-81529700D01*
X133428845Y-81529699D01*
X133583497Y-81498937D01*
X133696166Y-81452267D01*
X133729172Y-81438597D01*
X133729172Y-81438596D01*
X133729179Y-81438594D01*
X133860289Y-81350989D01*
X133971789Y-81239489D01*
X134059394Y-81108379D01*
X134119737Y-80962697D01*
X134150500Y-80808042D01*
X134150500Y-80650358D01*
X134150500Y-80650355D01*
X134150499Y-80650353D01*
X134119738Y-80495710D01*
X134119737Y-80495703D01*
X134119735Y-80495698D01*
X134059397Y-80350027D01*
X134059390Y-80350014D01*
X133971789Y-80218911D01*
X133971786Y-80218907D01*
X133860292Y-80107413D01*
X133860288Y-80107410D01*
X133729185Y-80019809D01*
X133729172Y-80019802D01*
X133583501Y-79959464D01*
X133583489Y-79959461D01*
X133428845Y-79928700D01*
X133428842Y-79928700D01*
X133271158Y-79928700D01*
X133271155Y-79928700D01*
X133116510Y-79959461D01*
X133116498Y-79959464D01*
X132970827Y-80019802D01*
X132970814Y-80019809D01*
X132839125Y-80107802D01*
X132772447Y-80128680D01*
X132770234Y-80128700D01*
X120199540Y-80128700D01*
X120170099Y-80120055D01*
X120140113Y-80113532D01*
X120135097Y-80109777D01*
X120132501Y-80109015D01*
X120111859Y-80092381D01*
X120111659Y-80092181D01*
X120078174Y-80030858D01*
X120083158Y-79961166D01*
X120125030Y-79905233D01*
X120190494Y-79880816D01*
X120199340Y-79880500D01*
X120308844Y-79880500D01*
X120308845Y-79880499D01*
X120463497Y-79849737D01*
X120609179Y-79789394D01*
X120740289Y-79701789D01*
X120851789Y-79590289D01*
X120939394Y-79459179D01*
X120947132Y-79440499D01*
X121002068Y-79307869D01*
X121004522Y-79308885D01*
X121036510Y-79260070D01*
X121100321Y-79231610D01*
X121116878Y-79230500D01*
X130737217Y-79230500D01*
X130804256Y-79250185D01*
X130815882Y-79258647D01*
X130819710Y-79261789D01*
X130950814Y-79349390D01*
X130950827Y-79349397D01*
X131096498Y-79409735D01*
X131096503Y-79409737D01*
X131219979Y-79434298D01*
X131251153Y-79440499D01*
X131251156Y-79440500D01*
X131251158Y-79440500D01*
X131408844Y-79440500D01*
X131408845Y-79440499D01*
X131563497Y-79409737D01*
X131709179Y-79349394D01*
X131840289Y-79261789D01*
X131951789Y-79150289D01*
X132039394Y-79019179D01*
X132046859Y-79001158D01*
X132064567Y-78958406D01*
X132099737Y-78873497D01*
X132130500Y-78718842D01*
X132130500Y-78561158D01*
X132130500Y-78561155D01*
X132130499Y-78561153D01*
X132099738Y-78406510D01*
X132099737Y-78406503D01*
X132099735Y-78406498D01*
X132039397Y-78260827D01*
X132039390Y-78260814D01*
X131951789Y-78129711D01*
X131951786Y-78129707D01*
X131840292Y-78018213D01*
X131840288Y-78018210D01*
X131709185Y-77930609D01*
X131709172Y-77930602D01*
X131563501Y-77870264D01*
X131563489Y-77870261D01*
X131408845Y-77839500D01*
X131408842Y-77839500D01*
X131251158Y-77839500D01*
X131251155Y-77839500D01*
X131096510Y-77870261D01*
X131096498Y-77870264D01*
X130950827Y-77930602D01*
X130950814Y-77930609D01*
X130834091Y-78008602D01*
X130767413Y-78029480D01*
X130765200Y-78029500D01*
X120759057Y-78029500D01*
X120600943Y-78029500D01*
X120448215Y-78070423D01*
X120448214Y-78070423D01*
X120448212Y-78070424D01*
X120448209Y-78070425D01*
X120398096Y-78099359D01*
X120398095Y-78099360D01*
X120369158Y-78116066D01*
X120311286Y-78149478D01*
X120215337Y-78245427D01*
X120154014Y-78278911D01*
X120151848Y-78279362D01*
X119996508Y-78310261D01*
X119996498Y-78310264D01*
X119850827Y-78370602D01*
X119850814Y-78370609D01*
X119719711Y-78458210D01*
X119719707Y-78458213D01*
X119608213Y-78569707D01*
X119608210Y-78569711D01*
X119520609Y-78700814D01*
X119520602Y-78700827D01*
X119460264Y-78846498D01*
X119460261Y-78846510D01*
X119429500Y-79001153D01*
X119429500Y-79158846D01*
X119460261Y-79313489D01*
X119460264Y-79313501D01*
X119520602Y-79459172D01*
X119520609Y-79459185D01*
X119608210Y-79590288D01*
X119608213Y-79590292D01*
X119676140Y-79658219D01*
X119709625Y-79719542D01*
X119704641Y-79789234D01*
X119662769Y-79845167D01*
X119597305Y-79869584D01*
X119588459Y-79869900D01*
X119478955Y-79869900D01*
X119324310Y-79900661D01*
X119324298Y-79900664D01*
X119178627Y-79961002D01*
X119178614Y-79961009D01*
X119047511Y-80048610D01*
X119047507Y-80048613D01*
X118936013Y-80160107D01*
X118936010Y-80160111D01*
X118848409Y-80291214D01*
X118848402Y-80291227D01*
X118788064Y-80436898D01*
X118788061Y-80436910D01*
X118757300Y-80591553D01*
X118757300Y-80749246D01*
X118788061Y-80903889D01*
X118788064Y-80903901D01*
X118848402Y-81049572D01*
X118848409Y-81049585D01*
X118936010Y-81180688D01*
X118936013Y-81180692D01*
X119047507Y-81292186D01*
X119047511Y-81292189D01*
X119178614Y-81379790D01*
X119178627Y-81379797D01*
X119324298Y-81440135D01*
X119324303Y-81440137D01*
X119478953Y-81470899D01*
X119478956Y-81470900D01*
X119478958Y-81470900D01*
X119636644Y-81470900D01*
X119636645Y-81470899D01*
X119791297Y-81440137D01*
X119936979Y-81379794D01*
X119980674Y-81350597D01*
X119998721Y-81344946D01*
X120014630Y-81334723D01*
X120045589Y-81330271D01*
X120047351Y-81329720D01*
X120049565Y-81329700D01*
X120250330Y-81329700D01*
X120317369Y-81349385D01*
X120363124Y-81402189D01*
X120373068Y-81471347D01*
X120353432Y-81522591D01*
X120321209Y-81570815D01*
X120321202Y-81570827D01*
X120260864Y-81716498D01*
X120260861Y-81716510D01*
X120230100Y-81871153D01*
X120230100Y-82028846D01*
X120260861Y-82183489D01*
X120260864Y-82183501D01*
X120321202Y-82329172D01*
X120321209Y-82329185D01*
X120409202Y-82460874D01*
X120430080Y-82527551D01*
X120430100Y-82529765D01*
X120430100Y-82844303D01*
X120421455Y-82873743D01*
X120414932Y-82903730D01*
X120411177Y-82908745D01*
X120410415Y-82911342D01*
X120393781Y-82931984D01*
X120263584Y-83062181D01*
X120202261Y-83095666D01*
X120175903Y-83098500D01*
X115916097Y-83098500D01*
X115849058Y-83078815D01*
X115803303Y-83026011D01*
X115793359Y-82956853D01*
X115822384Y-82893297D01*
X115828416Y-82886819D01*
X116336063Y-82379172D01*
X116854662Y-81860572D01*
X116915983Y-81827089D01*
X116918150Y-81826638D01*
X116976085Y-81815113D01*
X117073497Y-81795737D01*
X117219179Y-81735394D01*
X117350289Y-81647789D01*
X117461789Y-81536289D01*
X117549394Y-81405179D01*
X117550633Y-81402189D01*
X117575628Y-81341843D01*
X117609737Y-81259497D01*
X117640500Y-81104842D01*
X117640500Y-80947158D01*
X117640500Y-80947155D01*
X117640499Y-80947153D01*
X117609737Y-80792503D01*
X117591818Y-80749242D01*
X117549397Y-80646827D01*
X117549390Y-80646814D01*
X117461789Y-80515711D01*
X117461786Y-80515707D01*
X117350292Y-80404213D01*
X117350288Y-80404210D01*
X117219185Y-80316609D01*
X117219172Y-80316602D01*
X117073501Y-80256264D01*
X117073489Y-80256261D01*
X116918845Y-80225500D01*
X116918842Y-80225500D01*
X116761158Y-80225500D01*
X116761155Y-80225500D01*
X116606510Y-80256261D01*
X116606498Y-80256264D01*
X116460827Y-80316602D01*
X116460814Y-80316609D01*
X116329711Y-80404210D01*
X116329707Y-80404213D01*
X116218213Y-80515707D01*
X116218210Y-80515711D01*
X116130609Y-80646814D01*
X116130602Y-80646827D01*
X116070264Y-80792498D01*
X116070261Y-80792508D01*
X116039361Y-80947850D01*
X116006976Y-81009761D01*
X116005425Y-81011339D01*
X114768339Y-82248425D01*
X114707016Y-82281910D01*
X114704850Y-82282361D01*
X114549508Y-82313261D01*
X114549498Y-82313264D01*
X114403827Y-82373602D01*
X114403814Y-82373609D01*
X114272711Y-82461210D01*
X114272707Y-82461213D01*
X114161213Y-82572707D01*
X114161210Y-82572711D01*
X114073609Y-82703814D01*
X114073602Y-82703827D01*
X114013264Y-82849498D01*
X114013261Y-82849510D01*
X113983587Y-82998691D01*
X113951202Y-83060602D01*
X113890486Y-83095176D01*
X113861970Y-83098500D01*
X111725613Y-83098500D01*
X111725597Y-83098499D01*
X111718001Y-83098499D01*
X111559886Y-83098499D01*
X111483522Y-83118961D01*
X111407157Y-83139423D01*
X111407152Y-83139426D01*
X111270233Y-83218475D01*
X111270225Y-83218481D01*
X104994527Y-89494181D01*
X104933204Y-89527666D01*
X104906846Y-89530500D01*
X103686691Y-89530500D01*
X103671435Y-89531500D01*
X103467572Y-89531500D01*
X103314842Y-89572423D01*
X103287691Y-89588100D01*
X103287690Y-89588100D01*
X103177916Y-89651477D01*
X103177911Y-89651481D01*
X103066107Y-89763286D01*
X89677813Y-103151581D01*
X89650885Y-103166284D01*
X89625067Y-103182877D01*
X89618866Y-103183768D01*
X89616490Y-103185066D01*
X89590132Y-103187900D01*
X89428534Y-103187900D01*
X89361495Y-103168215D01*
X89315740Y-103115411D01*
X89305796Y-103046253D01*
X89313973Y-103016447D01*
X89353137Y-102921897D01*
X89383900Y-102767242D01*
X89383900Y-102609558D01*
X89383900Y-102609555D01*
X89383899Y-102609553D01*
X89353138Y-102454910D01*
X89353138Y-102454908D01*
X89353137Y-102454903D01*
X89353135Y-102454898D01*
X89292797Y-102309227D01*
X89292790Y-102309214D01*
X89205189Y-102178111D01*
X89205186Y-102178107D01*
X89093692Y-102066613D01*
X89093688Y-102066610D01*
X88962585Y-101979009D01*
X88962572Y-101979002D01*
X88816901Y-101918664D01*
X88816889Y-101918661D01*
X88662245Y-101887900D01*
X88662242Y-101887900D01*
X88504558Y-101887900D01*
X88504555Y-101887900D01*
X88349910Y-101918661D01*
X88349898Y-101918664D01*
X88204227Y-101979002D01*
X88204214Y-101979009D01*
X88073111Y-102066610D01*
X88073107Y-102066613D01*
X87961613Y-102178107D01*
X87961610Y-102178111D01*
X87874009Y-102309214D01*
X87874002Y-102309227D01*
X87813664Y-102454898D01*
X87813661Y-102454908D01*
X87782761Y-102610249D01*
X87773995Y-102627006D01*
X87769976Y-102645483D01*
X87751231Y-102670524D01*
X87750376Y-102672160D01*
X87748826Y-102673738D01*
X87688821Y-102733743D01*
X87613686Y-102808878D01*
X87613685Y-102808878D01*
X87613684Y-102808879D01*
X87501881Y-102920682D01*
X87501879Y-102920685D01*
X87479324Y-102959752D01*
X87456768Y-102998821D01*
X87429997Y-103045188D01*
X87427220Y-103050000D01*
X87422823Y-103057615D01*
X87381899Y-103210343D01*
X87381899Y-103210345D01*
X87381899Y-103378446D01*
X87381900Y-103378459D01*
X87381900Y-103950673D01*
X87381899Y-103950691D01*
X87381899Y-104116397D01*
X87381898Y-104116397D01*
X87411463Y-104226735D01*
X87422823Y-104269128D01*
X87446619Y-104310343D01*
X87501880Y-104406059D01*
X87613684Y-104517863D01*
X87613685Y-104517864D01*
X87965741Y-104869920D01*
X88102672Y-104948977D01*
X88192085Y-104972935D01*
X88251744Y-105009299D01*
X88282273Y-105072146D01*
X88273978Y-105141521D01*
X88229493Y-105195399D01*
X88207456Y-105207265D01*
X88204227Y-105208602D01*
X88204214Y-105208609D01*
X88073111Y-105296210D01*
X88073107Y-105296213D01*
X87961613Y-105407707D01*
X87961610Y-105407711D01*
X87874009Y-105538814D01*
X87874002Y-105538827D01*
X87813664Y-105684498D01*
X87813661Y-105684510D01*
X87782900Y-105839153D01*
X87782900Y-105996846D01*
X87813661Y-106151489D01*
X87813664Y-106151501D01*
X87874002Y-106297172D01*
X87874009Y-106297185D01*
X87956479Y-106420609D01*
X87977357Y-106487286D01*
X87958873Y-106554667D01*
X87956479Y-106558391D01*
X87874009Y-106681814D01*
X87874002Y-106681827D01*
X87813664Y-106827498D01*
X87813661Y-106827510D01*
X87782900Y-106982153D01*
X87782900Y-107139846D01*
X87813661Y-107294489D01*
X87813664Y-107294501D01*
X87874002Y-107440171D01*
X87874009Y-107440184D01*
X87914050Y-107500109D01*
X87934928Y-107566787D01*
X87916443Y-107634167D01*
X87914050Y-107637891D01*
X87874009Y-107697815D01*
X87874002Y-107697828D01*
X87813664Y-107843498D01*
X87813661Y-107843510D01*
X87782900Y-107998153D01*
X87782900Y-108155846D01*
X87813661Y-108310489D01*
X87813664Y-108310501D01*
X87874002Y-108456172D01*
X87874009Y-108456185D01*
X87956479Y-108579609D01*
X87977357Y-108646286D01*
X87958873Y-108713667D01*
X87956479Y-108717391D01*
X87874009Y-108840814D01*
X87874002Y-108840827D01*
X87813664Y-108986498D01*
X87813661Y-108986510D01*
X87782900Y-109141153D01*
X87782900Y-109298846D01*
X87813661Y-109453489D01*
X87813664Y-109453501D01*
X87874002Y-109599172D01*
X87874009Y-109599185D01*
X87961610Y-109730288D01*
X87961613Y-109730292D01*
X88073107Y-109841786D01*
X88073111Y-109841789D01*
X88204214Y-109929390D01*
X88204227Y-109929397D01*
X88349898Y-109989735D01*
X88349903Y-109989737D01*
X88504553Y-110020499D01*
X88504556Y-110020500D01*
X88504558Y-110020500D01*
X88662244Y-110020500D01*
X88662245Y-110020499D01*
X88816897Y-109989737D01*
X88962579Y-109929394D01*
X88962585Y-109929390D01*
X89094275Y-109841398D01*
X89160953Y-109820520D01*
X89163166Y-109820500D01*
X94599903Y-109820500D01*
X94666942Y-109840185D01*
X94687584Y-109856819D01*
X95094774Y-110264009D01*
X95128259Y-110325332D01*
X95123275Y-110395024D01*
X95081403Y-110450957D01*
X95015939Y-110475374D01*
X95007066Y-110475690D01*
X78433910Y-110472121D01*
X78366875Y-110452422D01*
X78321132Y-110399608D01*
X78309938Y-110347637D01*
X78314688Y-109141153D01*
X82282900Y-109141153D01*
X82282900Y-109298846D01*
X82313661Y-109453489D01*
X82313664Y-109453501D01*
X82374002Y-109599172D01*
X82374009Y-109599185D01*
X82461610Y-109730288D01*
X82461613Y-109730292D01*
X82573107Y-109841786D01*
X82573111Y-109841789D01*
X82704214Y-109929390D01*
X82704227Y-109929397D01*
X82849898Y-109989735D01*
X82849903Y-109989737D01*
X83004553Y-110020499D01*
X83004556Y-110020500D01*
X83004558Y-110020500D01*
X83162244Y-110020500D01*
X83162245Y-110020499D01*
X83316897Y-109989737D01*
X83462579Y-109929394D01*
X83593689Y-109841789D01*
X83705189Y-109730289D01*
X83792794Y-109599179D01*
X83853137Y-109453497D01*
X83883900Y-109298842D01*
X83883900Y-109141158D01*
X83883900Y-109141155D01*
X83883899Y-109141153D01*
X83853138Y-108986510D01*
X83853137Y-108986503D01*
X83797128Y-108851284D01*
X83792797Y-108840827D01*
X83792790Y-108840814D01*
X83704798Y-108709125D01*
X83683920Y-108642447D01*
X83683900Y-108640234D01*
X83683900Y-105716697D01*
X83703585Y-105649658D01*
X83720219Y-105629016D01*
X96462416Y-92886819D01*
X96523739Y-92853334D01*
X96550097Y-92850500D01*
X98170234Y-92850500D01*
X98237273Y-92870185D01*
X98239125Y-92871398D01*
X98370814Y-92959390D01*
X98370827Y-92959397D01*
X98516498Y-93019735D01*
X98516503Y-93019737D01*
X98671153Y-93050499D01*
X98671156Y-93050500D01*
X98671158Y-93050500D01*
X98828844Y-93050500D01*
X98828845Y-93050499D01*
X98983497Y-93019737D01*
X99129179Y-92959394D01*
X99260289Y-92871789D01*
X99371789Y-92760289D01*
X99459394Y-92629179D01*
X99519737Y-92483497D01*
X99550500Y-92328842D01*
X99550500Y-92171158D01*
X99550500Y-92171155D01*
X99550499Y-92171153D01*
X99519738Y-92016510D01*
X99519737Y-92016503D01*
X99519735Y-92016498D01*
X99459397Y-91870827D01*
X99459390Y-91870814D01*
X99371789Y-91739711D01*
X99371786Y-91739707D01*
X99260292Y-91628213D01*
X99260288Y-91628210D01*
X99129185Y-91540609D01*
X99129172Y-91540602D01*
X98983501Y-91480264D01*
X98983489Y-91480261D01*
X98828845Y-91449500D01*
X98828842Y-91449500D01*
X98671158Y-91449500D01*
X98671155Y-91449500D01*
X98516510Y-91480261D01*
X98516498Y-91480264D01*
X98370827Y-91540602D01*
X98370814Y-91540609D01*
X98239125Y-91628602D01*
X98172447Y-91649480D01*
X98170234Y-91649500D01*
X96329057Y-91649500D01*
X96170942Y-91649500D01*
X96018215Y-91690423D01*
X96018214Y-91690423D01*
X96018212Y-91690424D01*
X96018209Y-91690425D01*
X95968096Y-91719359D01*
X95968095Y-91719360D01*
X95932853Y-91739707D01*
X95881285Y-91769479D01*
X95881282Y-91769481D01*
X82602881Y-105047882D01*
X82602879Y-105047885D01*
X82562689Y-105117498D01*
X82562688Y-105117499D01*
X82523823Y-105184814D01*
X82523823Y-105184815D01*
X82482899Y-105337543D01*
X82482899Y-105337545D01*
X82482899Y-105505646D01*
X82482900Y-105505659D01*
X82482900Y-108640234D01*
X82463215Y-108707273D01*
X82462002Y-108709125D01*
X82374009Y-108840814D01*
X82374002Y-108840827D01*
X82313664Y-108986498D01*
X82313661Y-108986510D01*
X82282900Y-109141153D01*
X78314688Y-109141153D01*
X78419906Y-82414135D01*
X106091500Y-82414135D01*
X106091500Y-84209870D01*
X106091501Y-84209876D01*
X106097908Y-84269483D01*
X106148202Y-84404328D01*
X106148206Y-84404335D01*
X106234452Y-84519544D01*
X106234455Y-84519547D01*
X106349664Y-84605793D01*
X106349671Y-84605797D01*
X106484517Y-84656091D01*
X106484516Y-84656091D01*
X106491444Y-84656835D01*
X106544127Y-84662500D01*
X108339872Y-84662499D01*
X108399483Y-84656091D01*
X108534331Y-84605796D01*
X108649546Y-84519546D01*
X108735796Y-84404331D01*
X108786091Y-84269483D01*
X108792500Y-84209873D01*
X108792499Y-82414128D01*
X108786091Y-82354517D01*
X108770704Y-82313263D01*
X108735797Y-82219671D01*
X108735793Y-82219664D01*
X108649547Y-82104455D01*
X108649544Y-82104452D01*
X108534335Y-82018206D01*
X108534328Y-82018202D01*
X108399482Y-81967908D01*
X108399483Y-81967908D01*
X108339883Y-81961501D01*
X108339881Y-81961500D01*
X108339873Y-81961500D01*
X108339864Y-81961500D01*
X106544129Y-81961500D01*
X106544123Y-81961501D01*
X106484516Y-81967908D01*
X106349671Y-82018202D01*
X106349664Y-82018206D01*
X106234455Y-82104452D01*
X106234452Y-82104455D01*
X106148206Y-82219664D01*
X106148202Y-82219671D01*
X106097908Y-82354517D01*
X106091501Y-82414116D01*
X106091501Y-82414123D01*
X106091500Y-82414135D01*
X78419906Y-82414135D01*
X78430000Y-79850000D01*
X78429998Y-79849999D01*
X78412437Y-79849944D01*
X78345459Y-79830050D01*
X78299870Y-79777103D01*
X78288835Y-79727513D01*
X78288510Y-79701786D01*
X78165963Y-70014011D01*
X78184798Y-69946731D01*
X78237019Y-69900312D01*
X78289895Y-69888446D01*
X100481729Y-69878884D01*
X100500000Y-74961543D01*
X105251496Y-74961543D01*
X105209961Y-69876847D01*
X148870049Y-69858037D01*
X148937095Y-69877693D01*
G37*
%TD.AperFunction*%
%TD*%
%TA.AperFunction,Conductor*%
%TO.N,+3.3V*%
G36*
X104982615Y-49090478D02*
G01*
X105029094Y-49142645D01*
X105041018Y-49194696D01*
X105209960Y-69876847D01*
X105209960Y-69876846D01*
X105251496Y-74961543D01*
X100500000Y-74961543D01*
X100407600Y-49256702D01*
X100427043Y-49189593D01*
X100479682Y-49143649D01*
X100529884Y-49132269D01*
X104915311Y-49071721D01*
X104982615Y-49090478D01*
G37*
%TD.AperFunction*%
%TD*%
%TA.AperFunction,Conductor*%
%TO.N,5V*%
G36*
X86598769Y-37846596D02*
G01*
X86834690Y-37869833D01*
X86834693Y-37869833D01*
X87193921Y-37869833D01*
X87193924Y-37869833D01*
X87429844Y-37846596D01*
X87441998Y-37846000D01*
X91288603Y-37846000D01*
X91298691Y-37848962D01*
X91309131Y-37847711D01*
X91331639Y-37858636D01*
X91355642Y-37865685D01*
X91364192Y-37874438D01*
X91371986Y-37878222D01*
X91390975Y-37901858D01*
X91394466Y-37905432D01*
X91395353Y-37906886D01*
X91423489Y-37955992D01*
X91428190Y-37960724D01*
X91431692Y-37966465D01*
X91431732Y-37966516D01*
X91473397Y-38006293D01*
X91475739Y-38008589D01*
X91516365Y-38049483D01*
X91516367Y-38049484D01*
X91516368Y-38049485D01*
X91522181Y-38052867D01*
X91527049Y-38057514D01*
X91579061Y-38085956D01*
X91580481Y-38086783D01*
X91630278Y-38115753D01*
X91636475Y-38118344D01*
X91642669Y-38120743D01*
X91642672Y-38120743D01*
X91642673Y-38120744D01*
X91700282Y-38134757D01*
X91757459Y-38150280D01*
X91764184Y-38150302D01*
X91770724Y-38151893D01*
X91828414Y-38150555D01*
X91831622Y-38150524D01*
X146415698Y-38330405D01*
X146087266Y-48728821D01*
X111575000Y-48581511D01*
X111575000Y-48534174D01*
X111540925Y-48407007D01*
X111508012Y-48350000D01*
X112425000Y-48350000D01*
X112425000Y-47702172D01*
X112424999Y-47702155D01*
X112418598Y-47642627D01*
X112418596Y-47642620D01*
X112368354Y-47507913D01*
X112368350Y-47507906D01*
X112282190Y-47392812D01*
X112282187Y-47392809D01*
X112167093Y-47306649D01*
X112167086Y-47306645D01*
X112032379Y-47256403D01*
X112032372Y-47256401D01*
X111972844Y-47250000D01*
X111325000Y-47250000D01*
X111325000Y-48166988D01*
X111267993Y-48134075D01*
X111140826Y-48100000D01*
X111009174Y-48100000D01*
X110882007Y-48134075D01*
X110825000Y-48166988D01*
X110825000Y-47250000D01*
X110177155Y-47250000D01*
X110117627Y-47256401D01*
X110117620Y-47256403D01*
X109982913Y-47306645D01*
X109982906Y-47306649D01*
X109867812Y-47392809D01*
X109867809Y-47392812D01*
X109781649Y-47507906D01*
X109781646Y-47507912D01*
X109732577Y-47639471D01*
X109690705Y-47695404D01*
X109625241Y-47719821D01*
X109556968Y-47704969D01*
X109528714Y-47683818D01*
X109414786Y-47569890D01*
X109242820Y-47444951D01*
X109053414Y-47348444D01*
X109053413Y-47348443D01*
X109053412Y-47348443D01*
X108851243Y-47282754D01*
X108851241Y-47282753D01*
X108851240Y-47282753D01*
X108689957Y-47257208D01*
X108641287Y-47249500D01*
X108428713Y-47249500D01*
X108380042Y-47257208D01*
X108218760Y-47282753D01*
X108016585Y-47348444D01*
X107827179Y-47444951D01*
X107655213Y-47569890D01*
X107504890Y-47720213D01*
X107379951Y-47892179D01*
X107283444Y-48081585D01*
X107217753Y-48283760D01*
X107190208Y-48457670D01*
X107160279Y-48520805D01*
X107100967Y-48557736D01*
X107067206Y-48562271D01*
X99202803Y-48528703D01*
X99202802Y-48528704D01*
X99076804Y-67302440D01*
X99056670Y-67369346D01*
X99003560Y-67414746D01*
X98953232Y-67425607D01*
X78644578Y-67495251D01*
X78577472Y-67475797D01*
X78531536Y-67423150D01*
X78520153Y-67371533D01*
X78471230Y-45546530D01*
X121424500Y-45546530D01*
X121424500Y-45753469D01*
X121464868Y-45956412D01*
X121464870Y-45956420D01*
X121544058Y-46147596D01*
X121659024Y-46319657D01*
X121805342Y-46465975D01*
X121805345Y-46465977D01*
X121977402Y-46580941D01*
X122168580Y-46660130D01*
X122371530Y-46700499D01*
X122371534Y-46700500D01*
X122371535Y-46700500D01*
X122578466Y-46700500D01*
X122578467Y-46700499D01*
X122781420Y-46660130D01*
X122972598Y-46580941D01*
X123144655Y-46465977D01*
X123290977Y-46319655D01*
X123405941Y-46147598D01*
X123485130Y-45956420D01*
X123525500Y-45753465D01*
X123525500Y-45546535D01*
X123485130Y-45343580D01*
X123405941Y-45152402D01*
X123290977Y-44980345D01*
X123290975Y-44980342D01*
X123144657Y-44834024D01*
X123058626Y-44776541D01*
X122972598Y-44719059D01*
X122781420Y-44639870D01*
X122781412Y-44639868D01*
X122578469Y-44599500D01*
X122578465Y-44599500D01*
X122371535Y-44599500D01*
X122371530Y-44599500D01*
X122168587Y-44639868D01*
X122168579Y-44639870D01*
X121977403Y-44719058D01*
X121805342Y-44834024D01*
X121659024Y-44980342D01*
X121544058Y-45152403D01*
X121464870Y-45343579D01*
X121464868Y-45343587D01*
X121424500Y-45546530D01*
X78471230Y-45546530D01*
X78455033Y-38321168D01*
X78474567Y-38254089D01*
X78527268Y-38208215D01*
X78579138Y-38196895D01*
X82521465Y-38200496D01*
X82584258Y-38201329D01*
X82587299Y-38200557D01*
X82590435Y-38200560D01*
X82650449Y-38184537D01*
X82651710Y-38184209D01*
X82711992Y-38168910D01*
X82712003Y-38168903D01*
X82715531Y-38167497D01*
X82715591Y-38167473D01*
X82717533Y-38166698D01*
X82717757Y-38166568D01*
X82717760Y-38166568D01*
X82771603Y-38135546D01*
X82772710Y-38134916D01*
X82826983Y-38104535D01*
X82826990Y-38104527D01*
X82830108Y-38102200D01*
X82830111Y-38102198D01*
X82830139Y-38102178D01*
X82831762Y-38100966D01*
X82831946Y-38100781D01*
X82831948Y-38100781D01*
X82875935Y-38056872D01*
X82876862Y-38055958D01*
X82921395Y-38012591D01*
X82921401Y-38012580D01*
X82923804Y-38009534D01*
X82923806Y-38009532D01*
X82923820Y-38009515D01*
X82925088Y-38007907D01*
X82945219Y-37973111D01*
X82956331Y-37953902D01*
X82956957Y-37952836D01*
X82984488Y-37906578D01*
X83035689Y-37859040D01*
X83091042Y-37846000D01*
X86586616Y-37846000D01*
X86598769Y-37846596D01*
G37*
%TD.AperFunction*%
%TD*%
%TA.AperFunction,Conductor*%
%TO.N,5V*%
G36*
X166216237Y-94679757D02*
G01*
X166138313Y-108550386D01*
X166116693Y-112398697D01*
X166096632Y-112465624D01*
X166043572Y-112511082D01*
X165992695Y-112522000D01*
X151508699Y-112522000D01*
X151441660Y-112502315D01*
X151395905Y-112449511D01*
X151384701Y-112397303D01*
X151411884Y-107558744D01*
X151426153Y-105018784D01*
X151434750Y-103488464D01*
X151444838Y-101692735D01*
X155071900Y-101692735D01*
X155071900Y-103488470D01*
X155071901Y-103488476D01*
X155078308Y-103548083D01*
X155128602Y-103682928D01*
X155128606Y-103682935D01*
X155214852Y-103798144D01*
X155214855Y-103798147D01*
X155330064Y-103884393D01*
X155330071Y-103884397D01*
X155375018Y-103901161D01*
X155464917Y-103934691D01*
X155524527Y-103941100D01*
X155535085Y-103941099D01*
X155602123Y-103960779D01*
X155622772Y-103977418D01*
X156292991Y-104647637D01*
X156229407Y-104664675D01*
X156115393Y-104730501D01*
X156022301Y-104823593D01*
X155956475Y-104937607D01*
X155939437Y-105001191D01*
X155307128Y-104368882D01*
X155307127Y-104368882D01*
X155267780Y-104423039D01*
X155171304Y-104612382D01*
X155105642Y-104814469D01*
X155105642Y-104814472D01*
X155072400Y-105024353D01*
X155072400Y-105236846D01*
X155105642Y-105446727D01*
X155105642Y-105446730D01*
X155171304Y-105648817D01*
X155267775Y-105838150D01*
X155307128Y-105892316D01*
X155939437Y-105260008D01*
X155956475Y-105323593D01*
X156022301Y-105437607D01*
X156115393Y-105530699D01*
X156229407Y-105596525D01*
X156292990Y-105613562D01*
X155660682Y-106245869D01*
X155660682Y-106245870D01*
X155714852Y-106285226D01*
X155714851Y-106285226D01*
X155723895Y-106289834D01*
X155774692Y-106337808D01*
X155791487Y-106405629D01*
X155768950Y-106471764D01*
X155723899Y-106510802D01*
X155714582Y-106515549D01*
X155542613Y-106640490D01*
X155392290Y-106790813D01*
X155267351Y-106962779D01*
X155170844Y-107152185D01*
X155105153Y-107354360D01*
X155071900Y-107564313D01*
X155071900Y-107776886D01*
X155105153Y-107986839D01*
X155170844Y-108189014D01*
X155267351Y-108378420D01*
X155392290Y-108550386D01*
X155542613Y-108700709D01*
X155714579Y-108825648D01*
X155714581Y-108825649D01*
X155714584Y-108825651D01*
X155903988Y-108922157D01*
X156106157Y-108987846D01*
X156316113Y-109021100D01*
X156316114Y-109021100D01*
X156528686Y-109021100D01*
X156528687Y-109021100D01*
X156738643Y-108987846D01*
X156940812Y-108922157D01*
X157130216Y-108825651D01*
X157152189Y-108809686D01*
X157302186Y-108700709D01*
X157302188Y-108700706D01*
X157302192Y-108700704D01*
X157452504Y-108550392D01*
X157452506Y-108550388D01*
X157452509Y-108550386D01*
X157577448Y-108378420D01*
X157577447Y-108378420D01*
X157577451Y-108378416D01*
X157673957Y-108189012D01*
X157739646Y-107986843D01*
X157772900Y-107776887D01*
X157772900Y-107564313D01*
X157739646Y-107354357D01*
X157673957Y-107152188D01*
X157577451Y-106962784D01*
X157577449Y-106962781D01*
X157577448Y-106962779D01*
X157452509Y-106790813D01*
X157302186Y-106640490D01*
X157130217Y-106515549D01*
X157120904Y-106510804D01*
X157070107Y-106462830D01*
X157053312Y-106395009D01*
X157075849Y-106328874D01*
X157120907Y-106289832D01*
X157129955Y-106285222D01*
X157184116Y-106245870D01*
X157184117Y-106245870D01*
X156551808Y-105613562D01*
X156615393Y-105596525D01*
X156729407Y-105530699D01*
X156822499Y-105437607D01*
X156888325Y-105323593D01*
X156905362Y-105260008D01*
X157537670Y-105892317D01*
X157537670Y-105892316D01*
X157577022Y-105838154D01*
X157673495Y-105648817D01*
X157739157Y-105446730D01*
X157739157Y-105446727D01*
X157772400Y-105236846D01*
X157772400Y-105024353D01*
X157739157Y-104814472D01*
X157739157Y-104814469D01*
X157673495Y-104612382D01*
X157577024Y-104423049D01*
X157537670Y-104368882D01*
X157537669Y-104368882D01*
X156905362Y-105001190D01*
X156888325Y-104937607D01*
X156822499Y-104823593D01*
X156729407Y-104730501D01*
X156615393Y-104664675D01*
X156551809Y-104647637D01*
X157222027Y-103977418D01*
X157283350Y-103943933D01*
X157309707Y-103941099D01*
X157320272Y-103941099D01*
X157379883Y-103934691D01*
X157514731Y-103884396D01*
X157629946Y-103798146D01*
X157716196Y-103682931D01*
X157766491Y-103548083D01*
X157772900Y-103488473D01*
X157772899Y-101692728D01*
X157766491Y-101633117D01*
X157716196Y-101498269D01*
X157716195Y-101498268D01*
X157716193Y-101498264D01*
X157629947Y-101383055D01*
X157629944Y-101383052D01*
X157514735Y-101296806D01*
X157514728Y-101296802D01*
X157379882Y-101246508D01*
X157379883Y-101246508D01*
X157320283Y-101240101D01*
X157320281Y-101240100D01*
X157320273Y-101240100D01*
X157320264Y-101240100D01*
X155524529Y-101240100D01*
X155524523Y-101240101D01*
X155464916Y-101246508D01*
X155330071Y-101296802D01*
X155330064Y-101296806D01*
X155214855Y-101383052D01*
X155214852Y-101383055D01*
X155128606Y-101498264D01*
X155128602Y-101498271D01*
X155078308Y-101633117D01*
X155071901Y-101692716D01*
X155071901Y-101692723D01*
X155071900Y-101692735D01*
X151444838Y-101692735D01*
X151504070Y-91149364D01*
X151524131Y-91082441D01*
X151577191Y-91036983D01*
X151646404Y-91027428D01*
X151709796Y-91056810D01*
X151715749Y-91062384D01*
X155164841Y-94511476D01*
X155198326Y-94572799D01*
X155195092Y-94637473D01*
X155181353Y-94679757D01*
X155148100Y-94889713D01*
X155148100Y-95102286D01*
X155181353Y-95312239D01*
X155247044Y-95514414D01*
X155343551Y-95703820D01*
X155468490Y-95875786D01*
X155618813Y-96026109D01*
X155790779Y-96151048D01*
X155790781Y-96151049D01*
X155790784Y-96151051D01*
X155980188Y-96247557D01*
X156182357Y-96313246D01*
X156392313Y-96346500D01*
X156392314Y-96346500D01*
X156604886Y-96346500D01*
X156604887Y-96346500D01*
X156814843Y-96313246D01*
X157017012Y-96247557D01*
X157206416Y-96151051D01*
X157228389Y-96135086D01*
X157378386Y-96026109D01*
X157378388Y-96026106D01*
X157378392Y-96026104D01*
X157528704Y-95875792D01*
X157528706Y-95875788D01*
X157528709Y-95875786D01*
X157653648Y-95703820D01*
X157653647Y-95703820D01*
X157653651Y-95703816D01*
X157750157Y-95514412D01*
X157815846Y-95312243D01*
X157849100Y-95102287D01*
X157849100Y-94889713D01*
X157815846Y-94679757D01*
X157750157Y-94477588D01*
X157653651Y-94288184D01*
X157653649Y-94288181D01*
X157653648Y-94288179D01*
X157528709Y-94116213D01*
X157378386Y-93965890D01*
X157206417Y-93840949D01*
X157197104Y-93836204D01*
X157146307Y-93788230D01*
X157129512Y-93720409D01*
X157152049Y-93654274D01*
X157197107Y-93615232D01*
X157206155Y-93610622D01*
X157260316Y-93571270D01*
X157260317Y-93571270D01*
X156628008Y-92938962D01*
X156691593Y-92921925D01*
X156805607Y-92856099D01*
X156898699Y-92763007D01*
X156964525Y-92648993D01*
X156981562Y-92585408D01*
X157613870Y-93217717D01*
X157613870Y-93217716D01*
X157653222Y-93163554D01*
X157749695Y-92974217D01*
X157815357Y-92772130D01*
X157815357Y-92772127D01*
X157848600Y-92562246D01*
X157848600Y-92349753D01*
X157815357Y-92139872D01*
X157815357Y-92139869D01*
X157749695Y-91937782D01*
X157653224Y-91748449D01*
X157613870Y-91694282D01*
X157613869Y-91694282D01*
X156981562Y-92326590D01*
X156964525Y-92263007D01*
X156898699Y-92148993D01*
X156805607Y-92055901D01*
X156691593Y-91990075D01*
X156628009Y-91973037D01*
X157298227Y-91302818D01*
X157359550Y-91269333D01*
X157385907Y-91266499D01*
X157396472Y-91266499D01*
X157456083Y-91260091D01*
X157590931Y-91209796D01*
X157706146Y-91123546D01*
X157792396Y-91008331D01*
X157842691Y-90873483D01*
X157849100Y-90813873D01*
X157849099Y-89018128D01*
X157842691Y-88958517D01*
X157792396Y-88823669D01*
X157792395Y-88823668D01*
X157792393Y-88823664D01*
X157706147Y-88708455D01*
X157706144Y-88708452D01*
X157590935Y-88622206D01*
X157590928Y-88622202D01*
X157456082Y-88571908D01*
X157456083Y-88571908D01*
X157396483Y-88565501D01*
X157396481Y-88565500D01*
X157396473Y-88565500D01*
X157396464Y-88565500D01*
X155600729Y-88565500D01*
X155600723Y-88565501D01*
X155541116Y-88571908D01*
X155406271Y-88622202D01*
X155406264Y-88622206D01*
X155291055Y-88708452D01*
X155291052Y-88708455D01*
X155204806Y-88823664D01*
X155204802Y-88823671D01*
X155154508Y-88958517D01*
X155148101Y-89018116D01*
X155148101Y-89018123D01*
X155148100Y-89018135D01*
X155148100Y-90813870D01*
X155148101Y-90813876D01*
X155154508Y-90873483D01*
X155204802Y-91008328D01*
X155204806Y-91008335D01*
X155291052Y-91123544D01*
X155291055Y-91123547D01*
X155406264Y-91209793D01*
X155406271Y-91209797D01*
X155451218Y-91226561D01*
X155541117Y-91260091D01*
X155600727Y-91266500D01*
X155611285Y-91266499D01*
X155678323Y-91286179D01*
X155698972Y-91302818D01*
X156369191Y-91973037D01*
X156305607Y-91990075D01*
X156191593Y-92055901D01*
X156098501Y-92148993D01*
X156032675Y-92263007D01*
X156015637Y-92326591D01*
X155383328Y-91694282D01*
X155383327Y-91694282D01*
X155343980Y-91748439D01*
X155247504Y-91937782D01*
X155181842Y-92139869D01*
X155181842Y-92139872D01*
X155148600Y-92349753D01*
X155148600Y-92497403D01*
X155128915Y-92564442D01*
X155076111Y-92610197D01*
X155006953Y-92620141D01*
X154943397Y-92591116D01*
X154936919Y-92585084D01*
X151577619Y-89225784D01*
X151562915Y-89198856D01*
X151546323Y-89173038D01*
X151545431Y-89166837D01*
X151544134Y-89164461D01*
X151541300Y-89138103D01*
X151541300Y-84522934D01*
X151541302Y-84522237D01*
X151565524Y-80210610D01*
X151585584Y-80143689D01*
X151586299Y-80142603D01*
X151650194Y-80046979D01*
X151710537Y-79901297D01*
X151741300Y-79746642D01*
X151741300Y-79588958D01*
X151741300Y-79588955D01*
X151741299Y-79588953D01*
X151710538Y-79434310D01*
X151710537Y-79434303D01*
X151670714Y-79338160D01*
X151650197Y-79288627D01*
X151650195Y-79288623D01*
X151650194Y-79288621D01*
X151592476Y-79202240D01*
X151571598Y-79135563D01*
X151571580Y-79132703D01*
X151582605Y-77170153D01*
X152451700Y-77170153D01*
X152451700Y-77327846D01*
X152482461Y-77482489D01*
X152482464Y-77482501D01*
X152542802Y-77628172D01*
X152542809Y-77628185D01*
X152630410Y-77759288D01*
X152630413Y-77759292D01*
X152741907Y-77870786D01*
X152741911Y-77870789D01*
X152873014Y-77958390D01*
X152873027Y-77958397D01*
X153018698Y-78018735D01*
X153018703Y-78018737D01*
X153173353Y-78049499D01*
X153173356Y-78049500D01*
X153173358Y-78049500D01*
X153331044Y-78049500D01*
X153331045Y-78049499D01*
X153485697Y-78018737D01*
X153631379Y-77958394D01*
X153694099Y-77916485D01*
X153760775Y-77895607D01*
X153828155Y-77914091D01*
X153850671Y-77931906D01*
X155088641Y-79169876D01*
X155122126Y-79231199D01*
X155118892Y-79295873D01*
X155105153Y-79338157D01*
X155071900Y-79548113D01*
X155071900Y-79760686D01*
X155094170Y-79901297D01*
X155105154Y-79970643D01*
X155161380Y-80143689D01*
X155170844Y-80172814D01*
X155267351Y-80362220D01*
X155392290Y-80534186D01*
X155542613Y-80684509D01*
X155714579Y-80809448D01*
X155714581Y-80809449D01*
X155714584Y-80809451D01*
X155903988Y-80905957D01*
X156106157Y-80971646D01*
X156316113Y-81004900D01*
X156316114Y-81004900D01*
X156528686Y-81004900D01*
X156528687Y-81004900D01*
X156738643Y-80971646D01*
X156940812Y-80905957D01*
X157130216Y-80809451D01*
X157152189Y-80793486D01*
X157302186Y-80684509D01*
X157302188Y-80684506D01*
X157302192Y-80684504D01*
X157452504Y-80534192D01*
X157452506Y-80534188D01*
X157452509Y-80534186D01*
X157577448Y-80362220D01*
X157577447Y-80362220D01*
X157577451Y-80362216D01*
X157673957Y-80172812D01*
X157739646Y-79970643D01*
X157772900Y-79760687D01*
X157772900Y-79548113D01*
X157739646Y-79338157D01*
X157673957Y-79135988D01*
X157577451Y-78946584D01*
X157577449Y-78946581D01*
X157577448Y-78946579D01*
X157452509Y-78774613D01*
X157302186Y-78624290D01*
X157130217Y-78499349D01*
X157120904Y-78494604D01*
X157070107Y-78446630D01*
X157053312Y-78378809D01*
X157075849Y-78312674D01*
X157120907Y-78273632D01*
X157129955Y-78269022D01*
X157184116Y-78229670D01*
X157184117Y-78229670D01*
X156551808Y-77597362D01*
X156615393Y-77580325D01*
X156729407Y-77514499D01*
X156822499Y-77421407D01*
X156888325Y-77307393D01*
X156905362Y-77243808D01*
X157537670Y-77876117D01*
X157537670Y-77876116D01*
X157577022Y-77821954D01*
X157673495Y-77632617D01*
X157739157Y-77430530D01*
X157739157Y-77430527D01*
X157772400Y-77220646D01*
X157772400Y-77008153D01*
X157739157Y-76798272D01*
X157739157Y-76798269D01*
X157673495Y-76596182D01*
X157577024Y-76406849D01*
X157537670Y-76352682D01*
X157537669Y-76352682D01*
X156905362Y-76984990D01*
X156888325Y-76921407D01*
X156822499Y-76807393D01*
X156729407Y-76714301D01*
X156615393Y-76648475D01*
X156551809Y-76631437D01*
X157222027Y-75961218D01*
X157283350Y-75927733D01*
X157309707Y-75924899D01*
X157320272Y-75924899D01*
X157379883Y-75918491D01*
X157514731Y-75868196D01*
X157629946Y-75781946D01*
X157716196Y-75666731D01*
X157766491Y-75531883D01*
X157772900Y-75472273D01*
X157772899Y-73676528D01*
X157766491Y-73616917D01*
X157716196Y-73482069D01*
X157716195Y-73482068D01*
X157716193Y-73482064D01*
X157629947Y-73366855D01*
X157629944Y-73366852D01*
X157514735Y-73280606D01*
X157514728Y-73280602D01*
X157379882Y-73230308D01*
X157379883Y-73230308D01*
X157320283Y-73223901D01*
X157320281Y-73223900D01*
X157320273Y-73223900D01*
X157320264Y-73223900D01*
X155524529Y-73223900D01*
X155524523Y-73223901D01*
X155464916Y-73230308D01*
X155330071Y-73280602D01*
X155330064Y-73280606D01*
X155214855Y-73366852D01*
X155214852Y-73366855D01*
X155128606Y-73482064D01*
X155128602Y-73482071D01*
X155078308Y-73616917D01*
X155071901Y-73676516D01*
X155071901Y-73676523D01*
X155071900Y-73676535D01*
X155071900Y-75472270D01*
X155071901Y-75472276D01*
X155078308Y-75531883D01*
X155128602Y-75666728D01*
X155128606Y-75666735D01*
X155214852Y-75781944D01*
X155214855Y-75781947D01*
X155330064Y-75868193D01*
X155330071Y-75868197D01*
X155375018Y-75884961D01*
X155464917Y-75918491D01*
X155524527Y-75924900D01*
X155535085Y-75924899D01*
X155602123Y-75944579D01*
X155622772Y-75961218D01*
X156292991Y-76631437D01*
X156229407Y-76648475D01*
X156115393Y-76714301D01*
X156022301Y-76807393D01*
X155956475Y-76921407D01*
X155939437Y-76984991D01*
X155307128Y-76352682D01*
X155307127Y-76352682D01*
X155267780Y-76406839D01*
X155171304Y-76596182D01*
X155105642Y-76798269D01*
X155105642Y-76798272D01*
X155072400Y-77008153D01*
X155072400Y-77155803D01*
X155052715Y-77222842D01*
X154999911Y-77268597D01*
X154930753Y-77278541D01*
X154867197Y-77249516D01*
X154860719Y-77243484D01*
X154504590Y-76887355D01*
X154504588Y-76887352D01*
X154385717Y-76768481D01*
X154385716Y-76768480D01*
X154298904Y-76718360D01*
X154298904Y-76718359D01*
X154298900Y-76718358D01*
X154248785Y-76689423D01*
X154096057Y-76648499D01*
X153937943Y-76648499D01*
X153930347Y-76648499D01*
X153930331Y-76648500D01*
X153831966Y-76648500D01*
X153764927Y-76628815D01*
X153763075Y-76627602D01*
X153631385Y-76539609D01*
X153631372Y-76539602D01*
X153485701Y-76479264D01*
X153485689Y-76479261D01*
X153331045Y-76448500D01*
X153331042Y-76448500D01*
X153173358Y-76448500D01*
X153173355Y-76448500D01*
X153018710Y-76479261D01*
X153018698Y-76479264D01*
X152873027Y-76539602D01*
X152873014Y-76539609D01*
X152741911Y-76627210D01*
X152741907Y-76627213D01*
X152630413Y-76738707D01*
X152630410Y-76738711D01*
X152542809Y-76869814D01*
X152542802Y-76869827D01*
X152482464Y-77015498D01*
X152482461Y-77015510D01*
X152451700Y-77170153D01*
X151582605Y-77170153D01*
X151595798Y-74821828D01*
X151605234Y-74775078D01*
X151659737Y-74643497D01*
X151690500Y-74488842D01*
X151690500Y-74331158D01*
X151690500Y-74331155D01*
X151690499Y-74331153D01*
X151659738Y-74176510D01*
X151659737Y-74176503D01*
X151609807Y-74055961D01*
X151600371Y-74007818D01*
X151630785Y-68593906D01*
X166363184Y-68522751D01*
X166216237Y-94679757D01*
G37*
%TD.AperFunction*%
%TD*%
M02*
